<svg width="1703" height="1703" xmlns="http://www.w3.org/2000/svg" xmlns:xlink="http://www.w3.org/1999/xlink" xml:space="preserve" overflow="hidden"><defs><clipPath id="clip0"><rect x="1337" y="416" width="1703" height="1703"/></clipPath></defs><g clip-path="url(#clip0)" transform="translate(-1337 -416)"><path d="M1344 1267.5C1344 801.096 1722.1 423 2188.5 423 2654.9 423 3033 801.096 3033 1267.5 3033 1733.9 2654.9 2112 2188.5 2112 1722.1 2112 1344 1733.9 1344 1267.5Z" stroke="#000000" stroke-width="13.75" stroke-miterlimit="8" fill="#FF0000" fill-rule="evenodd"/><path d="M768.307 683.126C761.307 680.567 722.03 650.221 560.643 522.985 507.366 480.939 377.868 379.296 272.869 297.032 14.6502 94.1125 9.98376 90.4562 4.15031 76.5628-12.9605 38.5383 15.0391-1.3144 58.2053-1.3144 68.7052-1.3144 80.7607 0.513766 85.0382 2.70756 89.7049 4.90136 145.704 48.0444 209.87 98.8654 274.036 149.321 335.479 197.583 346.368 205.627 357.257 214.036 461.478 295.935 578.143 387.705 694.808 479.476 791.251 554.428 792.418 554.428 793.584 554.428 829.751 527.007 872.139 493.004 914.527 459.367 970.526 415.492 996.582 395.383 1053.36 351.143 1299.91 157.365 1397.13 80.5844 1501.74-2.04566 1500.57-1.3144 1524.3-1.3144 1571.35-1.3144 1601.3 45.485 1577.96 81.3157 1572.13 90.4562 1371.08 252.06 1268.8 329.938 1257.91 338.347 1213.19 373.446 1169.25 408.18 980.637 557.353 821.973 680.567 816.14 683.126 812.64 684.589 801.751 685.686 792.029 685.686 782.307 685.686 771.807 684.589 768.307 683.126Z" fill-rule="evenodd" transform="matrix(1 0 0 -1 1396 1127)"/><path d="M541.494 1072.06C532.55 1066.21 415.119 974.418 177.924 787.545 31.3303 672.349 15.3878 659.184 6.83328 650.407-0.943531 642.362-0.943531 637.242-0.943531 321.642L-0.943531 1.28778 29.7748 0.190638C51.939-0.540789 61.6601 0.556352 63.9933 3.84777 65.5487 6.40777 66.7153 145.74 66.7153 313.231 66.3264 480.722 67.1041 618.591 67.8819 618.957 68.2707 619.688 86.5463 633.95 107.933 650.773 129.319 667.595 237.029 751.706 347.072 838.377 457.115 924.683 550.826 998.189 555.103 1001.85 562.88 1008.43 566.769 1005.5 747.97 863.245 998.385 666.498 1045.44 629.562 1052.44 622.614 1057.88 617.494 1058.66 585.678 1058.66 308.111L1058.66-0.906503 1090.93 0.190638 1122.82 1.28778 1123.98 318.351C1124.37 509.246 1123.2 638.704 1121.26 644.19 1119.32 649.31 1100.26 667.229 1079.27 684.052 1035.33 719.525 787.632 914.809 769.356 928.34 754.58 939.311 705.197 978.075 638.705 1031.1 611.874 1052.31 586.211 1071.69 581.545 1073.89 569.491 1080.11 552.381 1079.37 541.494 1072.06Z" fill-rule="evenodd" transform="matrix(1 0 0 -1 1627 1742)"/><path d="M80.9851 303.533C77.4834 300.611 74.7599 292.21 74.7599 285.269 74.7599 275.041 73.2037 272.85 66.9789 272.85 52.973 272.85 20.2921 254.952 12.511 242.532 7.06399 234.496 4.72956 224.269 4.72956 209.293 4.72956 188.472 5.5077 187.011 21.4593 172.4 32.3529 162.903 45.1916 155.597 56.4743 152.31L74.7599 147.561 74.7599 115.417C74.7599 89.848 73.5927 82.9079 69.3133 82.9079 64.2554 82.9079 49.4714 97.519 34.687 117.609 25.3496 130.028 9.00934 128.932 2.00641 115.417-10.8326 90.2133 19.5139 55.5124 68.1461 41.2669 72.8146 39.8058 74.7599 35.4224 74.7599 24.8294 74.7599 10.9492 82.1523-1.10492 90.7115-1.10492 103.55-1.10492 109.775 6.93104 109.775 22.638 109.775 37.6141 110.943 39.0752 120.669 41.2669 146.736 46.7459 158.018 51.4946 170.079 63.1831 186.03 78.1595 192.644 98.9798 189.143 122.357 185.641 145.37 163.465 166.19 131.952 175.322L109.775 181.897 109.775 208.927C109.775 223.903 111.332 236.688 113.277 237.784 116.778 239.975 126.505 230.113 142.067 209.293 154.517 192.124 179.806 200.161 179.806 220.981 179.806 240.706 156.462 262.988 128.061 271.024 113.277 275.041 111.721 276.868 110.553 287.826 108.608 306.82 93.0456 315.222 80.9851 303.533ZM74.7599 216.233C74.7599 189.568 69.3133 185.55 55.6962 201.987 45.1916 214.406 45.5806 220.981 56.0852 231.574 70.4805 246.185 74.7599 242.532 74.7599 216.233ZM130.006 127.106C140.122 118.705 142.456 113.956 142.067 102.633 141.678 87.6566 130.784 75.6025 117.167 75.6025 110.553 75.6025 109.775 78.5248 109.775 106.651 109.775 124.549 111.332 137.699 113.666 137.699 115.611 137.699 123.003 132.95 130.006 127.106Z" fill-rule="evenodd" transform="matrix(1 0 0 -1 2094 1153)"/><path d="M24.4567 412.982C6.1808 402.731-1.59614 389.552-0.818407 369.783-0.429543 360.265 11.236 285.217 24.8456 202.848 43.8996 88.6283 51.6765 50.5552 57.5091 43.5997 69.5636 27.4916 87.8395 21.2682 121.67 21.2682L151.611 21.2682 151.611 10.2855 151.611-0.697148 200.606-0.697148C238.325-0.697148 249.213 0.401152 248.046 4.06215 246.879 6.25875 238.325 35.9119 228.992 69.9579L212.272 131.094 178.442 131.094C144.612 131.094 144.612 131.094 142.279 141.345 141.112 146.836 131.391 204.678 120.503 270.207 108.449 342.327 98.7273 392.115 94.8387 397.24 86.284 410.053 66.0638 420.303 50.5099 420.303 43.1219 420.303 31.4563 417.009 24.4567 412.982Z" fill-rule="evenodd" transform="matrix(1 0 0 -1 1974 1629)"/><path d="M382.223 693.863C375.211 689.835 367.031 682.875 363.915 678.114 360.799 673.353 349.892 619.147 338.595 550.656 327.688 485.097 317.56 427.228 316.392 421.734 314.055 411.479 314.055 411.479 280.555 411.479L246.665 411.479 227.968 345.919 209.66 280.359 221.346 269.371C231.084 259.848 233.032 255.453 233.032 240.071 233.032 225.786 230.694 219.194 223.293 210.77 216.282 203.079 213.555 195.387 213.555 184.766 213.555 166.087 200.311 151.436 183.561 151.436 173.823 151.436 171.875 149.239 166.811 133.856 162.526 121.037 159.02 116.642 153.177 116.642 147.334 116.642 143.828 121.037 139.543 133.856L133.701 151.436 92.0203 151.436 50.3401 151.436 42.939 135.687C38.654 126.531 27.3578 113.346 17.2299 105.288L-1.07851 91.0038 0.0901347 45.2217 1.25878-0.560445 153.177-0.560445 305.096-0.560445 306.264 150.704 307.043 301.602 339.374 301.602C374.433 301.602 390.404 307.462 402.479 325.042 412.217 339.326 463.636 648.814 458.572 665.295 450.002 694.962 409.88 709.978 382.223 693.863ZM166.032 92.1026C180.055 78.9172 161.747 58.0408 143.828 66.831 128.636 74.5223 135.648 96.4975 153.177 96.4975 157.851 96.4975 163.305 94.6665 166.032 92.1026ZM166.811 47.4193C178.886 33.5014 163.305 14.8222 145.776 22.5136 128.247 29.839 134.09 52.5468 153.567 52.5468 158.241 52.5468 164.084 49.9829 166.811 47.4193Z" fill-rule="evenodd" transform="matrix(1 0 0 -1 2126 1909)"/><path d="M109.806 257.36C67.8102 249.663 25.4253 218.145 7.5381 181.496 0.538485 167.57-1.01699 157.308-1.01699 129.455-1.01699 99.0358 0.149617 92.0726 9.48209 74.4811 52.645-8.34575 164.635-26.3038 233.462 38.1985 290.624 92.0726 285.18 183.695 221.019 231.705 193.021 252.595 145.192 263.957 109.806 257.36Z" fill-rule="evenodd" transform="matrix(1 0 0 -1 2144 1477)"/><path d="M-0.214138 123.377C1.35401 118.61 5.66737 112.377 9.5886 109.077 16.2543 103.577 16.6465 102.843 10.3728 96.9768 3.31462 90.3766 2.13825 59.5768 7.62798 19.2432L9.98072-0.556847 35.0756-0.556847 59.7787-0.556847 62.131 13.3767C69.1893 57.3767 69.1893 83.7767 62.5232 93.31 56.6417 101.743 56.6417 103.577 61.7389 108.71 64.8759 112.377 68.7971 118.61 69.9735 123.377 72.718 131.443 72.3259 131.443 35.0756 131.443-2.17476 131.443-2.56688 131.443-0.214138 123.377Z" fill-rule="evenodd" transform="matrix(1 0 0 -1 2244 1629)"/><path d="M65.2756 313.328C60.6076 305.66 64.1085 298.723 76.1682 289.96 80.0586 287.038 80.4476 283.752 77.3353 276.085 71.5002 261.845 71.5002 261.845 85.8937 262.575 111.18 264.035 117.015 262.21 129.853 250.16 141.135 239.572 143.08 235.19 143.08 220.95 143.08 202.694 135.299 188.453 122.073 181.151 117.404 178.96 98.3425 175.309 79.2805 173.118L44.6575 169.466 22.0946 96.4403C9.64584 56.2758-0.468703 20.8582-0.857737 17.5722-1.24677 4.79251 11.98-0.319501 45.0466-0.319501L76.9463-0.319501 72.6673 9.17391C69.166 18.6673 69.944 25.9702 76.5573 41.6707 80.4476 50.4338 87.8389 75.9929 92.8964 98.266 94.8412 107.029 98.3425 116.157 100.288 117.983 102.622 120.174 104.178 126.016 104.178 131.858 104.178 147.559 111.958 159.608 126.741 166.18 139.968 172.022 141.913 171.657 180.426 162.164 210.77 154.496 224.774 152.67 238.39 154.496 282.349 160.703 310.747 182.611 315.416 213.647L316.972 224.236 396.332 225.331C452.351 226.062 476.47 227.887 478.416 230.809 479.971 233.364 481.528 243.588 481.528 253.812 481.528 269.512 482.695 273.164 489.308 274.624 495.532 276.085 497.089 279.736 497.089 291.055 497.089 318.805 502.146 317.344 406.058 317.344L320.084 317.344 312.304 297.992C306.468 283.387 302.578 278.64 295.187 277.91 286.628 276.45 286.239 277.545 288.185 288.864 289.352 295.437 291.685 304.565 293.242 309.312 295.187 315.884 294.02 317.344 287.796 317.344 281.96 317.344 277.681 312.233 271.068 297.262 264.843 283.022 260.175 277.18 255.118 277.18 244.614 277.18 242.669 286.308 249.672 302.739 255.896 317.344 255.896 317.344 246.559 317.344 239.168 317.344 236.056 314.058 230.221 298.358 224.774 284.118 220.495 278.64 214.66 277.91 203.378 276.45 200.655 285.213 207.268 300.548 214.66 317.344 214.66 318.075 204.934 316.614 199.099 315.884 194.041 310.042 188.206 296.532 181.593 281.196 178.092 277.18 171.478 277.18 160.975 277.18 159.808 285.943 167.977 304.565L173.812 317.344 139.968 317.344C121.295 317.344 103.789 315.884 100.677 314.058 96.7864 311.868 92.1183 312.233 87.0608 315.884 76.1682 322.822 70.3331 322.456 65.2756 313.328ZM234.5 204.519C241.113 185.897 250.45 178.23 254.729 188.088 255.896 191.374 255.118 199.407 252.783 205.614 245.003 225.697 245.781 226.427 273.402 225.331 297.91 224.236 298.688 223.871 298.688 214.743 298.688 192.105 266.01 171.657 225.941 168.371 197.543 166.18 197.543 166.545 209.213 198.312 221.662 232.269 224.385 232.999 234.5 204.519Z" fill-rule="evenodd" transform="matrix(1 0 0 -1 1843 1965)"/><path d="M105.339 197.853C76.4917 195.294 49.2033 190.907 44.9154 188.347 39.0677 184.691 31.2712 166.777 18.0172 128.023L-0.695015 72.8164 19.966 36.256C31.661 16.1478 41.7966-0.304357 43.356-0.304357 44.9154-0.304357 55.051 30.4065 66.3561 68.4294 77.6609 106.087 87.7965 137.894 89.3559 139.356 90.5254 140.819 108.458 143.744 128.729 145.937 174.339 151.056 183.305 155.809 183.305 174.82 183.305 188.347 176.678 197.853 163.814 201.509 160.695 202.24 134.187 200.778 105.339 197.853Z" fill-rule="evenodd" transform="matrix(1 0 0 -1 1783 1921)"/><path d="M42.5151 161.895C34.7299 158.595 29.28 142.83 33.5621 135.13 36.287 130.364 35.5085 127.064 29.28 122.297 23.0519 117.164 21.8841 112.765 23.4412 102.132 24.9983 91.1327 23.8305 87.4661 17.602 83.7999 11.3739 80.1333 10.2061 76.4667 11.3739 65.834 12.5418 56.6678 10.9847 50.8016 5.92441 46.0354-3.02864 37.6026-3.02864 26.6032 5.92441 18.1704 14.8774 9.73756 68.2064-2.72848 81.4415 0.204782 93.1195 3.13772 100.126 21.47 92.7302 29.9028 89.2267 33.5694 89.616 35.4026 94.2873 37.2359 102.851 40.1689 108.69 56.6678 104.019 65.101 101.294 70.2338 101.683 72.8005 105.187 75.0004 114.14 80.1333 119.2 91.866 115.697 99.9322 113.361 105.798 114.529 109.465 119.979 113.865 128.932 121.198 129.71 135.863 121.536 143.563 111.415 153.096 53.8038 166.295 42.5151 161.895Z" fill-rule="evenodd" transform="matrix(1 0 0 -1 1932 1976)"/><path d="M11.6514 150.614C-8.60713 135.533-7.43833 132.222 43.208 47.6181 57.2329 24.4439 70.479 4.21241 72.8166 2.74099 75.1542 1.26989 82.5563-0.201538 89.5688-0.201538 104.373-0.201538 123.463 18.5585 119.957 29.5938 114.892 43.9396 54.5061 145.464 47.1037 151.718 36.5852 160.178 24.1183 159.81 11.6514 150.614Z" fill-rule="evenodd" transform="matrix(1 0 0 -1 1724 2006)"/></g></svg>