<svg width="2476" height="2477" xmlns="http://www.w3.org/2000/svg" xmlns:xlink="http://www.w3.org/1999/xlink" xml:space="preserve" overflow="hidden"><defs><clipPath id="clip0"><rect x="962" y="-1" width="2476" height="2477"/></clipPath></defs><g clip-path="url(#clip0)" transform="translate(-962 1)"><path d="M970.017 1237.85C970.017 558.264 1520.71 7.34918 2200.02 7.34918 2879.32 7.34918 3430.02 558.264 3430.02 1237.85 3430.02 1917.43 2879.32 2468.35 2200.02 2468.35 1520.71 2468.35 970.017 1917.43 970.017 1237.85Z" stroke="#000000" stroke-width="15.0225" stroke-miterlimit="8" fill="#C6E0B4" fill-rule="evenodd"/><path d="M2598.2 389.845C2599.34 394.532 2599.74 399.532 2599.37 404.845 2597.42 404.845 2595.45 404.845 2593.5 404.845 2594.76 403.444 2596.32 402.943 2598.2 403.345 2598.2 398.845 2598.2 394.345 2598.2 389.845Z" fill="#848485" fill-rule="evenodd"/><path d="M310.034 1178.27C226.948 1163.5 165.318 1133.5 115.557 1084.12 77.6665 1046.29 58.4924 1012.6 44.341 959.529 31.5584 911.536 35.2101 797.552 54.8409 643.422 58.4924 612.502 74.9274 525.285 82.2316 496.212 88.1665 472.677 88.1665 468.524 82.6883 461.602 69.449 446.835 61.2315 423.761 58.0357 396.534 56.21 377.153 53.4709 368.846 48.9058 368.846 36.1235 368.846 15.5801 354.54 7.81947 339.774-3.59383 318.546-2.22429 259.478 10.5586 223.483 47.5358 119.191 168.057 31.9728 309.577 6.59188 361.619-2.17616 454.749-2.17616 506.792 6.59188 631.878 28.7425 740.073 98.4248 790.746 188.873 805.811 215.638 819.05 263.169 819.05 290.396 819.05 330.545 800.333 361.925 773.399 367.001 761.073 369.77 759.703 371.615 759.703 386.844 759.703 410.379 752.399 434.375 739.16 453.757L728.203 470.37 739.16 519.747C750.116 567.741 763.812 659.112 774.311 751.867 777.05 775.864 779.333 827.087 779.789 864.928 780.246 925.841 778.877 938.301 769.289 968.758 763.812 987.678 753.768 1013.06 747.834 1025.05 732.769 1055.05 684.377 1105.81 652.422 1125.2 615.443 1147.81 554.271 1169.5 504.51 1178.27 452.01 1187.03 360.25 1187.49 310.034 1178.27ZM258.448 871.388C318.251 851.083 377.598 825.241 382.619 817.396 386.272 810.935 342.446 786.478 301.36 772.633 246.121 753.713 209.599 757.867 181.295 785.093 153.448 812.32 150.709 871.849 176.73 884.771 192.709 892.616 199.1 891.692 258.448 871.388ZM638.269 885.232C667.487 871.388 663.834 811.397 631.878 782.324 603.118 756.02 559.292 754.174 502.227 777.248 454.293 796.63 429.641 811.858 435.576 818.78 442.423 827.087 488.988 847.391 553.814 870.004 616.814 891.692 621.835 892.616 638.269 885.232ZM457.488 611.58C499.032 596.812 526.423 560.356 520.488 527.592 516.379 507.75 494.923 482.368 470.271 468.985 442.423 454.218 378.054 454.68 347.468 469.908 304.099 491.136 285.838 538.206 308.664 571.432 330.121 603.273 361.164 617.58 408.641 618.04 425.533 618.04 447.445 615.271 457.488 611.58Z" fill-rule="evenodd" transform="matrix(1 0 0 -1 1354 1429)"/><path d="M443.786 1081.17C327.42 1056.89 234.236 1005.6 152.641 921.331-52.2737 709.285-49.9559 374.042 158.668 164.744 376.099-53.2553 726.122-54.6298 944.482 162.454 1056.21 273.744 1109.52 411.138 1103.03 570.06 1097.47 705.164 1049.72 818.743 956.998 916.751 873.086 1005.14 778.972 1056.89 659.827 1081.17 598.63 1093.53 503.128 1093.53 443.786 1081.17ZM543.46 740.886 543.46 693.257 512.4 687.759C494.782 684.553 471.601 678.143 460.476 673.105 444.248 666.235 439.15 665.318 435.905 669.899 427.096 683.638 395.108 741.345 395.108 744.092 395.108 748.214 439.614 767.448 464.648 774.32 475.311 777.067 497.101 781.188 512.862 783.021 528.161 785.309 541.606 787.142 542.534 787.601 542.998 787.601 543.46 766.992 543.46 740.886ZM629.693 776.608C660.289 769.739 710.361 749.588 710.361 744.092 710.361 741.345 678.371 683.18 669.561 670.357 666.78 666.235 659.363 667.151 638.501 675.393 623.202 681.349 599.557 687.759 586.577 689.592L562.005 692.798 562.005 738.139 562.005 783.479 581.941 783.479C592.603 783.479 614.394 780.273 629.693 776.608ZM401.599 700.125C413.652 679.058 422.922 660.282 421.996 657.532 421.532 655.244 410.869 645.169 399.279 636.008 387.226 626.849 371.463 610.818 364.509 600.743 357.092 590.668 349.674 581.967 347.819 581.967 340.864 581.967 269.933 625.475 269.933 630.055 270.397 639.671 319.538 694.172 347.819 715.697 364.045 727.605 377.953 737.68 378.88 737.68 379.808 737.68 390.007 720.734 401.599 700.125ZM772.019 704.247C793.809 686.385 835.533 636.924 835.533 629.138 835.533 625.017 763.675 581.967 757.646 581.967 755.794 581.967 748.376 590.668 740.957 600.743 734.003 610.818 717.778 627.305 705.26 636.924 692.278 646.999 682.079 656.617 682.079 658.45 682.079 660.282 691.816 679.058 703.869 700.125L725.196 738.139 737.713 730.352C744.202 726.231 759.966 714.324 772.019 704.247ZM307.949 586.547C322.784 578.761 335.766 570.516 336.692 568.684 337.621 567.31 333.446 551.281 327.42 533.879 321.393 516.018 316.295 496.324 316.295 489.453 316.295 463.806 314.44 462.891 264.833 462.891L218.937 462.891 218.937 474.34C218.937 494.492 233.308 555.403 243.506 579.676 257.415 613.109 259.734 615.398 271.788 608.07 277.35 604.408 293.578 594.789 307.949 586.547ZM858.714 587.462C870.767 561.356 886.531 498.613 886.531 478.004L886.531 462.891 840.633 462.891C791.028 462.891 789.173 463.806 789.173 489.453 789.173 496.324 784.073 516.474 777.582 533.879 771.555 551.739 768.309 567.768 770.164 569.601 778.046 577.387 842.488 613.109 845.734 611.276 847.586 609.903 853.613 599.369 858.714 587.462ZM624.592 505.025C589.822 464.723 558.76 430.375 555.052 428.999 548.561 426.71 534.188 437.243 534.188 444.112 534.188 445.945 536.972 450.525 540.215 454.646 549.952 467.471 683.47 582.423 685.789 580.135 687.18 579.217 659.363 545.328 624.592 505.025ZM565.715 504.567C570.351 501.819 565.715 495.866 548.561 481.667 535.579 470.677 523.525 457.396 522.135 451.44 516.572 428.542 541.606 407.932 563.396 417.55 568.958 420.298 581.014 432.205 589.822 444.571 598.63 456.937 607.438 467.471 609.758 467.471 611.61 467.471 613.003 458.311 613.003 447.318 613.003 420.298 597.704 398.315 572.204 389.614 500.809 365.341 458.621 468.844 527.235 499.987 547.634 509.147 556.443 510.521 565.715 504.567ZM651.481 354.348C659.363 345.189 660.754 339.235 659.827 320L659.363 307.176 552.733 307.176C470.675 307.176 446.103 308.551 445.641 313.131 443.786 331.449 446.568 345.647 453.52 353.433 460.94 361.22 468.82 362.135 552.733 362.135 633.865 362.135 644.992 361.22 651.481 354.348Z" fill-rule="evenodd" transform="matrix(1 0 0 -1 2173 2037)"/></g></svg>