<svg width="1703" height="1703" xmlns="http://www.w3.org/2000/svg" xmlns:xlink="http://www.w3.org/1999/xlink" xml:space="preserve" overflow="hidden"><defs><clipPath id="clip0"><rect x="1337" y="416" width="1703" height="1703"/></clipPath></defs><g clip-path="url(#clip0)" transform="translate(-1337 -416)"><path d="M1344 1267.5C1344 801.096 1722.1 423 2188.5 423 2654.9 423 3033 801.096 3033 1267.5 3033 1733.9 2654.9 2112 2188.5 2112 1722.1 2112 1344 1733.9 1344 1267.5Z" stroke="#000000" stroke-width="13.75" stroke-miterlimit="8" fill="#FF0000" fill-rule="evenodd"/><path d="M2820 1714.61C2760.89 1509.62 2631.68 1495.87 2631.68 1495.87 2462.61 1414.7 2362.26 1301.89 2354.01 1292.26L2354.01 1292.26C2351.26 1286.76 2349.89 1279.88 2349.89 1273L2022.74 1273C2021.36 1279.88 2019.99 1286.76 2018.61 1292.26L2018.61 1292.26C2010.37 1301.89 1910.02 1414.7 1742.32 1495.87 1742.32 1495.87 1611.73 1511 1554 1714.61 1709.33 1878.32 1927.89 1981.5 2169.82 1987 2172.57 1987 2175.32 1987 2178.07 1987 2180.81 1987 2183.56 1987 2186.31 1987 2189.06 1987 2194.56 1987 2194.56 1987 2440.61 1984.25 2661.92 1881.07 2820 1714.61Z" fill="#324A5E" fill-rule="evenodd"/><path d="M2651 1497.64 2651 1853.44C2604.33 1883.67 2553.54 1908.39 2500 1929L2500 1433.07C2500 1428.95 2501.37 1424.83 2502.75 1420.71 2509.61 1404.22 2531.57 1397.35 2546.67 1408.34L2637.27 1471.54C2645.51 1478.4 2651 1488.02 2651 1497.64Z" fill="#2B3B4E" fill-rule="evenodd"/><path d="M1873 1432.72 1873 1929C1819.46 1908.38 1770.05 1883.63 1722 1853.39L1722 1497.33C1722 1487.71 1726.12 1478.08 1734.35 1472.58L1824.95 1409.35C1841.43 1398.35 1862.02 1405.22 1868.88 1421.72 1871.63 1424.47 1873 1428.59 1873 1432.72Z" fill="#2B3B4E" fill-rule="evenodd"/><path d="M2469.12 915.606C2469.12 916.982 2467.74 918.358 2467.74 919.735 2467.74 921.111 2467.74 922.487 2466.37 923.864 2451.26 984.423 2388.05 1225.29 2353.69 1292.73 2353.69 1292.73 2205.29 1536.34 2018.42 1292.73L2018.42 1292.73C1984.06 1225.29 1920.86 984.423 1905.74 923.864 1905.74 922.487 1904.37 921.111 1904.37 919.735 1904.37 918.358 1902.99 916.982 1902.99 915.606 1896.12 890.831 1892 866.057 1892 839.906 1892 835.777 1892 831.648 1892 826.142 1898.87 673.367 2026.66 555 2179.19 555L2191.55 555C2344.08 555 2471.87 673.367 2478.74 826.142 2478.74 830.271 2478.74 834.401 2478.74 839.906 2480.11 864.68 2475.99 890.831 2469.12 915.606Z" fill="#2B3B4E" fill-rule="evenodd"/><path d="M1971.34 871.74C1982.37 906.001 2043.04 916.965 2088.54 903.26 2134.04 889.556 2145.07 855.295 2134.04 822.405 2123.01 788.145 2095.43 767.588 2049.93 781.292 2005.81 794.997 1961.69 838.85 1971.34 871.74Z" fill="#FFD05B" fill-rule="evenodd"/><path d="M2400.67 871.74C2389.7 906.001 2329.4 916.965 2284.17 903.26 2238.94 889.556 2227.97 855.295 2238.94 822.405 2249.9 788.145 2277.31 767.588 2322.54 781.292 2366.4 794.997 2410.26 838.85 2400.67 871.74Z" fill="#FFD05B" fill-rule="evenodd"/></g></svg>