<svg width="1703" height="1703" xmlns="http://www.w3.org/2000/svg" xmlns:xlink="http://www.w3.org/1999/xlink" xml:space="preserve" overflow="hidden"><defs><clipPath id="clip0"><rect x="1337" y="416" width="1703" height="1703"/></clipPath><clipPath id="clip1"><rect x="2594" y="1427" width="356" height="355"/></clipPath><clipPath id="clip2"><rect x="2594" y="1427" width="356" height="355"/></clipPath><clipPath id="clip3"><rect x="2594" y="1427" width="356" height="355"/></clipPath></defs><g clip-path="url(#clip0)" transform="translate(-1337 -416)"><path d="M1344 1267.5C1344 801.096 1722.1 423 2188.5 423 2654.9 423 3033 801.096 3033 1267.5 3033 1733.9 2654.9 2112 2188.5 2112 1722.1 2112 1344 1733.9 1344 1267.5Z" stroke="#000000" stroke-width="13.75" stroke-miterlimit="8" fill="#FF0000" fill-rule="evenodd"/><path d="M20.3018 140.031C-13.7676 90.9253-9.9798 79.1415 50.5834 61.4636 96.0043 49.6783 114.931 28.0719 103.574 6.46709 92.2195-11.2109 111.147-1.38978 145.213 30.0361 201.991 81.1057 201.991 88.9611 152.783 102.711 118.716 114.496 103.574 136.102 114.931 159.671 145.213 222.526 61.9379 204.848 20.3018 140.031Z" fill-rule="evenodd" transform="matrix(1 0 0 -1 2332 830)"/><path d="M84.1687 316.014C-29.2244 164.756-29.2244 149.629 84.1687 131.982 166.636 119.377 187.254 99.2106 166.636 48.7897 140.867-16.7554 140.867-16.7554 218.181 31.1424 388.268 144.587 403.729 172.319 295.494 187.445 207.869 197.527 197.562 215.175 218.181 285.762 249.103 384.08 156.328 406.77 84.1687 316.014Z" fill-rule="evenodd" transform="matrix(1 0 0 -1 1655 913)"/><path d="M53.7294 215.08C-30.4473 116.88-18.4187 71.7628 89.8057 71.7628 155.942 71.7628 173.982 55.8382 149.93 26.6432 119.87-13.1661 125.882-13.1661 204.042 29.2973 318.283 95.6496 318.283 151.383 210.059 151.383 155.942 151.383 137.906 172.616 161.954 217.734 198.03 305.317 125.882 302.665 53.7294 215.08Z" fill-rule="evenodd" transform="matrix(1 0 0 -1 2040 1041)"/><path d="M113.978 288.735C-48.7523 234.828-34.3934 51.5413 135.515 10.2125 197.735-5.96022 233.631-5.96022 281.494 12.0094 444.224 65.917 441.831 238.422 281.494 288.735 188.164 317.487 204.915 317.487 113.978 288.735ZM247.99 177.326C274.313 155.764 271.921 144.982 240.812 121.622 188.164 80.2928 116.371 121.622 154.66 171.935 183.376 213.265 207.308 215.062 247.99 177.326Z" fill-rule="evenodd" transform="matrix(1 0 0 -1 1527 1304)"/><path d="M479.956 444.052C470.134 436.865 462.768 411.71 462.768 390.151 462.768 366.793 435.757 325.469 403.835 298.518 352.271 255.398 322.805 246.414 175.475 239.227L8.50258 230.243 1.13689 118.848C-3.77356 55.9632 3.59212 5.65579 13.415 3.85905 23.2359 3.85905 111.634 2.0623 204.942 2.0623L376.825-1.53119 384.191 86.5065C389.103 152.985 408.747 188.92 462.768 233.837 538.888 296.721 570.808 357.809 556.076 411.71 548.709 445.848 506.966 462.019 479.956 444.052Z" fill-rule="evenodd" transform="matrix(1 0 0 -1 1568 1570)"/><path d="M62.8797 158.981C-11.0636 140.19-24.0226 47.5774 43.0596 11.3379 81.1749-9.46694 125.389-2.75572 157.405 28.1154 220.676 89.186 154.356 181.128 62.8797 158.981Z" fill-rule="evenodd" transform="matrix(1 0 0 -1 2546 1180)"/><path d="M390.172 723.696C381.035 715.021 362.001 710.35 315.557 707.681 275.203 705.012 249.316 699.673 240.18 692.333 207.44 666.307 119.12 556.868 119.12 541.52 119.12 520.166 132.825 509.489 158.712 509.489 176.224 509.489 188.406 520.166 234.85 572.884 281.294 625.601 294.238 636.279 311.749 636.279 323.17 636.279 332.307 632.942 332.307 629.605 332.307 625.601 310.988 581.559 285.863 530.843 241.702 445.427 237.895 434.083 228.759 359.344 223.429 315.301 218.861 275.93 218.1 271.926 218.1 267.922 177.746 259.914 129.018 253.241 79.5281 246.568 31.5612 236.558 22.4243 231.887-11.8373 213.202-6.50819 168.492 30.7999 155.814 46.789 150.475 243.987 173.831 288.147 186.51 310.227 192.515 315.557 208.531 325.455 307.96 334.591 399.382 338.398 410.059 359.716 397.381 364.285 394.711 380.274 360.011 395.502 319.305 418.343 257.912 424.434 229.218 432.048 142.467 437.378 85.7458 444.23 32.3606 447.275 23.6854 460.219-7.67793 518.846-8.34526 537.88 22.3507 552.346 46.374 526.459 260.581 499.811 331.316L477.731 390.04 492.958 420.737C501.334 437.419 506.664 452.1 505.902 452.767 504.379 453.435 492.197 459.441 478.492 465.447 444.991 480.795 438.9 498.145 439.662 574.886L439.662 639.615 450.321 609.586C455.651 592.903 466.31 562.207 473.163 540.853L486.106 502.148 576.711 462.777C626.2 440.756 674.929 422.739 685.588 422.739 709.191 422.739 722.134 437.419 719.089 460.775 716.805 477.458 706.907 484.131 636.098 515.495L555.392 552.197 538.641 601.578C529.505 628.938 523.414 652.294 524.937 653.629 526.459 654.963 537.119 640.949 549.301 621.597 569.096 589.567 571.381 588.232 581.278 600.243 597.268 618.928 601.836 642.284 594.222 662.304 588.893 674.983 571.381 686.994 522.652 707.681 450.321 739.044 410.729 743.716 390.172 723.696Z" fill-rule="evenodd" transform="matrix(1 0 0 -1 2090 1901)"/><g clip-path="url(#clip1)"><g clip-path="url(#clip2)"><g clip-path="url(#clip3)"><path d="M2772 1464.87C2790.44 1464.87 2805.19 1479.62 2805.19 1498.06L2738.81 1498.06C2738.81 1479.62 2753.56 1464.87 2772 1464.87ZM2698.25 1568.12C2698.25 1572.18 2701.57 1575.5 2705.62 1575.5L2757.25 1575.5 2757.25 1568.12C2757.25 1564.07 2760.57 1560.75 2764.62 1560.75L2779.38 1560.75C2783.43 1560.75 2786.75 1564.07 2786.75 1568.12L2786.75 1575.5 2838.38 1575.5C2842.43 1575.5 2845.75 1572.18 2845.75 1568.12L2845.75 1498.06 2827.31 1498.06C2827.31 1467.46 2802.61 1442.75 2772 1442.75 2741.39 1442.75 2716.69 1467.46 2716.69 1498.06L2698.25 1498.06 2698.25 1568.12Z"/><path d="M2826.21 1682.44 2717.79 1682.44C2715.21 1682.44 2713 1684.65 2713 1687.23L2713 1737.75 2831 1737.75 2831 1687.23C2831 1684.65 2828.79 1682.44 2826.21 1682.44L2826.21 1682.44Z"/><path d="M2882.62 1616.06 2875.25 1616.06 2875.25 1527.56C2875.25 1516.87 2869.72 1507.28 2860.5 1502.12L2860.5 1568.12C2860.5 1580.29 2850.54 1590.25 2838.38 1590.25L2786.75 1590.25 2786.75 1597.62C2786.75 1601.68 2783.43 1605 2779.38 1605L2764.62 1605C2760.57 1605 2757.25 1601.68 2757.25 1597.62L2757.25 1590.25 2705.62 1590.25C2693.46 1590.25 2683.5 1580.29 2683.5 1568.12L2683.5 1502.12C2674.28 1507.28 2668.75 1517.24 2668.75 1527.56L2668.75 1616.06 2661.38 1616.06C2653.26 1616.06 2646.62 1622.7 2646.62 1630.81L2646.62 1689.81C2646.62 1697.92 2653.26 1704.56 2661.38 1704.56L2668.75 1704.56 2668.75 1723C2668.75 1731.11 2675.39 1737.75 2683.5 1737.75L2698.25 1737.75 2698.25 1687.23C2698.25 1676.54 2707.1 1667.69 2717.79 1667.69L2826.57 1667.69C2837.27 1667.69 2846.12 1676.54 2846.12 1687.23L2846.12 1737.75 2860.87 1737.75C2868.98 1737.75 2875.62 1731.11 2875.62 1723L2875.62 1704.56 2882.99 1704.56C2891.11 1704.56 2897.74 1697.92 2897.74 1689.81L2897.74 1630.81C2897.38 1622.7 2890.74 1616.06 2882.62 1616.06Z"/></g></g></g></g></svg>