<svg width="1702" height="1703" xmlns="http://www.w3.org/2000/svg" xmlns:xlink="http://www.w3.org/1999/xlink" xml:space="preserve" overflow="hidden"><defs><clipPath id="clip0"><rect x="1349" y="426" width="1702" height="1703"/></clipPath><clipPath id="clip1"><rect x="1434" y="647" width="1532" height="1296"/></clipPath><clipPath id="clip2"><rect x="1434" y="647" width="1532" height="1296"/></clipPath><clipPath id="clip3"><rect x="1434" y="647" width="1532" height="1296"/></clipPath></defs><g clip-path="url(#clip0)" transform="translate(-1349 -426)"><path d="M1356 1277.5C1356 811.096 1733.87 433 2200 433 2666.13 433 3044 811.096 3044 1277.5 3044 1743.9 2666.13 2122 2200 2122 1733.87 2122 1356 1743.9 1356 1277.5Z" stroke="#000000" stroke-width="13.75" stroke-miterlimit="8" fill="#FF0000" fill-rule="evenodd"/><g clip-path="url(#clip1)"><g clip-path="url(#clip2)"><g clip-path="url(#clip3)"><path d="M993.506 1202.74C993.506 1197.48 998.774 1183.93 1004.04 1172.64 1014.58 1152.32 1014.58 1151.56 994.258 1151.56 971.679 1151.56 941.573 1133.5 949.852 1124.47 952.862 1122.21 973.937 1119.95 997.269 1119.95 1022.86 1119.95 1037.16 1117.69 1034.15 1113.18 1031.89 1108.66 1035.65 1100.38 1043.18 1094.36 1055.98 1085.33 1055.98 1084.58 1044.69 1088.34 1025.12 1095.11 1026.62 1059.74 1046.94 1018.34 1062.75 985.227 1103.39 955.12 1146.29 945.336 1179.41 937.809 1226.08 954.368 1259.95 986.732 1285.54 1010.82 1288.55 1017.59 1279.52 1023.61 1269.73 1029.63 1269.73 1031.14 1280.27 1031.14 1301.34 1031.14 1311.88 1086.08 1293.06 1093.61 1285.54 1096.62 1285.54 1098.12 1293.06 1098.12 1305.11 1098.88 1285.54 1147.8 1262.2 1173.39 1217.04 1221.56 1126.73 1225.32 1078.56 1180.16 1055.98 1159.09 1056.73 1155.33 1083.82 1144.04 1096.62 1138.77 1105.65 1132.75 1104.15 1131.24 1097.37 1125.22 1046.19 1154.57 1046.19 1164.36 1046.19 1176.4 1013.07 1211.78 1001.03 1211.78 997.269 1211.78 993.506 1207.26 993.506 1202.74ZM1179.41 1109.41C1177.15 1107.16 1170.38 1106.4 1165.11 1108.66 1159.09 1110.92 1161.35 1113.18 1169.63 1113.18 1177.91 1113.93 1182.42 1111.67 1179.41 1109.41ZM1214.03 1101.14C1208.77 1099.63 1199.73 1099.63 1195.22 1101.14 1189.95 1103.39 1193.71 1104.9 1204.25 1104.9 1214.79 1104.9 1218.55 1103.39 1214.03 1101.14ZM1262.96 1101.14C1255.43 1099.63 1243.39 1099.63 1236.61 1101.14 1229.09 1103.39 1235.11 1104.9 1249.41 1104.9 1263.71 1104.9 1269.73 1103.39 1262.96 1101.14ZM1083.82 1076.3C1089.85 1072.53 1092.1 1068.77 1087.59 1068.77 1083.82 1068.77 1074.79 1072.53 1068.77 1076.3 1062.75 1080.06 1061.24 1083.82 1065.01 1083.82 1069.52 1083.82 1077.8 1080.06 1083.82 1076.3ZM1271.24 1069.52C1283.28 1062 1275.75 1046.19 1260.7 1046.19 1250.16 1046.19 1240.38 1064.26 1247.15 1071.78 1253.17 1077.8 1258.44 1077.05 1271.24 1069.52ZM1194.46 1041.68C1192.21 1039.42 1185.43 1038.67 1180.16 1040.92 1174.14 1043.18 1176.4 1045.44 1184.68 1045.44 1192.96 1046.19 1197.48 1043.93 1194.46 1041.68ZM1226.83 1031.14C1232.85 1027.38 1235.11 1023.61 1230.59 1023.61 1226.83 1023.61 1217.8 1027.38 1211.78 1031.14 1205.75 1034.9 1204.25 1038.67 1208.01 1038.67 1212.53 1038.67 1220.81 1034.9 1226.83 1031.14Z" transform="matrix(1 0 0 -1.00033 1436.05 1943)"/><path d="M263.43 1165.86C252.892 1161.35 234.829 1149.31 223.539 1138.02 211.496 1126.73 189.669 1113.93 174.616 1110.17 148.273 1102.64 145.263 1098.88 103.867 1001.03 79.7815 945.336 60.2125 890.392 60.2125 879.855 60.2125 855.017 73.7603 843.727 139.994 810.61L193.433 783.515 197.948 602.125C203.217 421.487 203.217 419.982 226.549 364.285L249.882 308.589 183.648 246.118C127.199 192.68 118.167 180.637 118.167 159.563 118.167 130.209 146.015 97.8453 170.853 97.8453 197.196 97.8453 216.012 109.888 267.193 158.058 292.03 181.39 326.653 213.754 343.964 228.807 380.844 261.924 388.37 287.515 372.565 325.9 361.275 352.996 361.275 354.501 374.07 346.974 381.597 343.211 397.402 331.169 410.197 321.384L432.024 302.568 411.703 230.313C382.349 125.694 385.36 99.3506 429.014 83.5448 453.851 75.2656 480.194 81.2868 494.495 98.5979 499.011 104.619 517.075 159.563 534.386 220.528 560.729 312.352 565.245 335.685 557.718 350.738 553.202 360.522 519.333 391.381 481.7 418.477L413.961 468.152 413.961 626.962 413.961 786.525 493.742 815.879C619.436 862.544 621.694 877.597 525.354 991.248 486.968 1035.65 454.604 1074.04 451.594 1076.3 449.336 1078.56 438.046 1094.36 426.756 1111.67 392.886 1165.11 320.631 1188.44 263.43 1165.86ZM275.472 913.724C308.589 905.445 368.049 915.23 392.134 932.541 413.961 949.099 415.466 949.099 429.767 936.304 437.293 929.53 444.067 921.251 444.067 918.24 444.067 915.23 425.251 905.445 401.918 896.413 349.985 876.844 267.193 875.339 220.528 892.65 186.659 906.198 182.895 913.724 196.443 943.83L205.475 962.647 231.065 940.82C244.613 928.777 264.935 915.982 275.472 913.724Z" transform="matrix(1 0 0 -1.00033 1436.05 1943)"/><path d="M1343.49 1044.69C1323.17 998.022 1302.85 954.368 1297.58 948.346 1292.31 942.325 1278.76 912.219 1267.47 882.113 1250.16 833.943 1246.4 828.674 1235.11 836.953 1228.33 842.222 1201.99 864.049 1175.65 885.876 1122.96 930.283 1095.87 935.551 1040.92 915.23 1025.12 909.208 988.99 900.176 959.636 895.66 931.035 891.145 895.66 883.618 882.113 879.102 841.469 867.06 839.211 853.512 855.017 731.581 870.07 613.415 881.36 587.072 915.23 587.072 937.057 587.072 936.304 591.588 921.251 526.106 914.477 496.753 910.714 460.625 912.219 445.572 914.477 426.003 909.208 404.929 890.392 366.543L865.554 315.363 783.515 320.631C706.744 325.147 700.723 324.395 685.669 309.342 665.348 289.02 664.595 248.376 684.917 229.56 705.239 211.496 911.466 195.691 930.283 211.496 937.057 216.765 954.368 246.118 970.173 276.977L998.022 331.921 1037.16 301.062C1058.99 283.751 1076.3 265.688 1076.3 261.172 1076.3 256.656 1065.76 219.776 1052.21 179.885 1029.63 109.888 1028.88 106.124 1040.92 87.3081 1057.48 62.4704 1088.34 54.9439 1113.18 68.4917 1128.98 76.7709 1139.52 97.8453 1164.36 169.348 1197.48 264.935 1202.74 298.804 1187.69 316.868 1182.42 323.642 1158.34 344.716 1134.25 365.038 1103.39 390.628 1092.1 404.929 1095.87 413.208 1102.64 430.519 1165.86 701.475 1166.62 716.528 1166.62 740.613 1180.16 737.603 1215.54 707.497 1251.67 675.885 1281.02 669.111 1304.35 687.175 1317.15 696.207 1392.41 888.887 1392.41 911.466 1392.41 917.487 1409.72 961.142 1430.05 1007.81 1452.63 1056.73 1466.17 1098.12 1463.92 1106.4 1460.15 1118.45 1427.79 1128.98 1391.66 1128.98 1384.13 1128.98 1368.33 1101.14 1343.49 1044.69ZM1430.05 1110.92C1453.38 1109.41 1452.63 1107.16 1413.49 1017.59 1392.41 970.173 1380.37 950.604 1374.35 955.12 1369.83 958.884 1355.53 963.4 1342.74 964.905L1318.65 967.163 1353.28 1044.69C1380.37 1106.4 1390.16 1120.7 1399.19 1116.94 1405.96 1113.93 1419.51 1111.67 1430.05 1110.92ZM971.679 751.151 964.905 726.313 964.152 753.409C963.4 768.462 965.657 782.762 968.668 785.773 978.453 794.805 979.958 778.246 971.679 751.151Z" transform="matrix(1 0 0 -1.00033 1436.05 1943)"/><path d="M748.893 992.753C792.547 983.721 993.506 984.474 993.506 993.506 993.506 998.022 943.078 1001.03 856.522 1000.28 762.44 999.527 728.571 997.269 748.893 992.753Z" transform="matrix(1 0 0 -1.00033 1436.05 1943)"/><path d="M699.97 827.921 635.994 823.406 728.571 821.9C785.773 821.148 820.395 823.406 820.395 827.921 820.395 835.448 806.094 835.448 699.97 827.921Z" transform="matrix(1 0 0 -1.00033 1436.05 1943)"/><path d="M651.047 684.917 575.782 680.401 683.411 678.896C750.398 678.143 790.289 680.401 790.289 684.917 790.289 692.443 778.246 692.443 651.047 684.917Z" transform="matrix(1 0 0 -1.00033 1436.05 1943)"/><path d="M699.97 541.912 605.888 537.396 724.808 535.891C802.331 535.138 842.222 536.644 839.211 541.912 836.953 546.428 825.663 548.686 814.374 547.933 803.084 547.181 751.903 544.17 699.97 541.912Z" transform="matrix(1 0 0 -1.00033 1436.05 1943)"/><path d="M651.047 436.54C641.263 432.024 660.079 429.767 705.991 429.767 747.387 429.014 775.236 432.024 775.236 436.54 775.236 445.572 672.122 445.572 651.047 436.54Z" transform="matrix(1 0 0 -1.00033 1436.05 1943)"/></g></g></g></g></svg>