<svg width="1703" height="1703" xmlns="http://www.w3.org/2000/svg" xmlns:xlink="http://www.w3.org/1999/xlink" xml:space="preserve" overflow="hidden"><defs><clipPath id="clip0"><rect x="1540" y="590" width="1703" height="1703"/></clipPath></defs><g clip-path="url(#clip0)" transform="translate(-1540 -590)"><path d="M1547 1441.5C1547 975.096 1925.1 597 2391.5 597 2857.9 597 3236 975.096 3236 1441.5 3236 1907.9 2857.9 2286 2391.5 2286 1925.1 2286 1547 1907.9 1547 1441.5Z" stroke="#000000" stroke-width="13.75" stroke-miterlimit="8" fill="#FF0000" fill-rule="evenodd"/><path d="M62.6383 150.075C61.1145 147.969 55.3239 135.335 49.8382 122.1 36.1236 88.1086 37.9524 89.011 19.6665 103.149 9.60923 110.97 2.59966 114.58 0.771166 112.775-2.58143 109.466 3.20915 70.0602 7.78074 64.0441 13.2664 57.1255 15.7044 64.6457 12.6569 79.6861 11.1331 87.8078 10.5236 95.0272 11.4377 95.9296 12.0475 96.5312 18.1427 92.9215 24.5427 87.8078 31.2474 82.6941 37.9524 78.4828 39.7809 78.4828 41.6096 78.4828 47.3999 89.9135 52.8859 103.751 58.6762 117.588 63.8573 128.718 65.0763 128.116 65.9907 127.213 69.343 117.888 72.3907 107.059 75.1336 96.2304 79.0954 87.507 80.6193 87.507 82.448 87.507 91.8956 94.4256 101.953 102.848 111.705 111.572 120.543 117.588 121.458 116.986 122.067 116.084 121.153 105.856 119.02 94.1248 117.191 82.3933 115.972 71.8651 116.886 70.9627 117.801 70.0602 129.382 71.2635 142.486 73.9707 155.591 76.3772 167.172 77.5804 168.087 76.9788 169.001 76.0764 161.687 67.6538 152.239 58.028 142.791 48.4022 134.867 39.378 134.867 37.5731 134.867 35.7683 143.096 31.2562 153.458 27.6465 163.515 23.736 171.134 19.8255 169.915 18.9231 168.696 17.7199 162.296 14.7118 155.287 12.0046 143.401 7.19165 137.001-2.43417 147.058-0.328519 159.858 2.07793 192.773 16.8175 192.773 19.8255 192.773 21.9312 184.239 26.4433 173.877 30.3538 163.211 33.9634 153.458 38.1747 151.629 39.6788 149.801 41.4836 156.506 50.207 169.306 62.8409 189.42 82.6941 193.992 90.5151 185.458 90.5151 183.02 90.5151 170.22 88.4094 157.115 86.003 144.01 83.5965 131.82 81.4909 129.991 81.4909 127.553 81.4909 128.163 89.3119 131.21 107.36 133.648 121.799 134.258 134.433 133.039 135.636 131.515 137.14 120.543 130.522 108.048 120.295 95.5528 110.068 85.1909 102.547 84.5814 103.149 84.2765 103.45 80.6193 114.279 76.9621 126.612 69.6479 151.88 67.2097 155.79 62.6383 150.075Z" fill-rule="evenodd" transform="matrix(1 0 0 -1 1859 1185)"/><path d="M94.6944 769.07C83.7112 764.557 80.6602 746.502 82.4906 692.337 83.7112 656.829 85.5416 637.872 90.4231 620.118 97.4402 593.637 115.746 553.916 130.085 533.153L139.238 519.913 115.136 473.873C82.1857 410.681 50.1508 328.531 38.5574 277.677 33.9809 256.913 34.8962 255.71 58.9986 252.701 67.5413 251.798 76.3888 249.692 78.5245 248.488 83.1008 245.78 83.1008 245.78 32.7605 119.095-4.46078 25.2091-2.93527 30.9265 3.16651 17.9871 8.96334 5.95053 24.5231-1.87325 36.1165 0.834979 53.8119 5.04779 52.2864 1.73772 127.339 192.217 144.12 234.646 146.865 239.761 152.662 238.859L159.374 237.956 160.289 128.724C161.205 6.85328 160.9 7.75602 181.951 1.43681 191.409-1.27142 195.07-0.97051 203.002 2.94138 221.613 12.2697 221.918 14.978 221.918 128.122L221.918 230.734 247.851 229.831C267.987 229.229 273.784 229.831 273.784 232.84 273.784 235.248 271.343 253.303 268.598 273.464 262.801 315.291 260.97 450.703 266.157 455.517 267.987 457.323 278.36 456.721 293.615 454.013 352.803 443.782 450.128 450.703 460.501 466.35 464.773 472.669 462.942 485.308 456.84 490.724 451.043 495.84 448.603 496.141 425.416 492.831 390.94 488.016 329.921 488.317 296.361 493.733 266.157 498.548 224.664 511.788 196.901 525.63 176.154 535.862 159.984 555.421 144.425 588.823 126.729 627.34 123.068 646.598 122.458 707.383 121.848 759.14 121.543 761.548 115.136 766.663 107.813 772.682 104.763 772.982 94.6944 769.07Z" fill-rule="evenodd" transform="matrix(1 0 0 -1 1655 1828)"/><path d="M52.1817 131.746C6.50732 120.309-14.5029 70.9501 8.9434 31.2224 21.1231 11.0576 38.1749 0.824698 62.8391-0.379172 87.1987-1.88401 101.51 4.13534 118.562 22.7953 138.354 44.7659 140.79 74.8627 124.652 100.746 109.731 124.522 77.7595 138.367 52.1817 131.746Z" fill-rule="evenodd" transform="matrix(1 0 0 -1 2497 1095)"/><path d="M50.0896 131.995C35.1106 128.379 15.5463 113.915 7.90381 100.355-17.4687 55.4557 14.9347-0.592705 65.9856-0.592705 94.1093-0.592705 115.202 12.0634 127.43 36.1702 149.134 78.9598 122.539 127.475 74.2392 132.899 66.5969 133.803 55.8976 133.502 50.0896 131.995Z" fill-rule="evenodd" transform="matrix(1 0 0 -1 2717 1104)"/><path d="M46.4938 130.499C27.6219 124.465 15.4468 113.906 6.9241 96.408 0.227585 83.1338-0.989876 77.4018 0.227585 61.1107 2.35826 26.1151 25.7957 2.58358 61.104-0.131602 83.3238-1.94172 96.4123 2.28189 113.153 16.7628 136.59 37.2775 140.852 78.3069 121.98 105.157 106.152 128.085 73.2794 139.248 46.4938 130.499Z" fill-rule="evenodd" transform="matrix(1 0 0 -1 1854 1303)"/><path d="M133.799 484.66C129.841 481.947 121.317 473.808 114.618 466.876 104.876 456.627 100.005 453.914 89.6535 452.709 79.302 451.503 68.6464 445.776 39.7235 425.279-15.6866 386.093-15.9912 388.806 51.2925 328.219 80.2154 302.297 107.007 279.69 110.965 278.183 123.448 273.661 133.19 280.895 147.499 305.612 172.769 348.716 178.858 362.582 178.858 374.639 178.858 384.285 181.293 389.108 192.863 401.767L206.867 417.14 219.35 410.509C250.708 394.835 294.245 391.519 335.65 402.069 348.742 405.385 360.006 408.097 360.615 408.097 360.92 408.097 361.529 393.93 361.529 376.749 361.529 326.109 375.229 265.523 396.236 225.132L403.543 210.663 461.693 185.343C495.487 170.875 519.539 158.516 518.93 156.708 518.017 154.899 506.143 128.374 492.443 97.6282 464.129 34.3287 462.911 25.8887 479.96 9.00885 488.18 0.870339 491.529-0.335367 506.143-0.335367 530.804-0.335367 534.457 5.09031 574.645 94.3125 620.312 196.496 620.008 199.51 562.467 224.227 546.026 231.16 531.717 239.299 531.108 242.011 518.626 279.991 513.755 303.804 513.755 323.999 513.755 361.075 531.413 408.399 543.591 403.576 556.682 398.15 557.9 399.055 569.165 419.853L580.125 440.953 557.9 449.996C539.024 457.833 419.375 486.468 405.674 486.468 403.239 486.468 389.234 479.535 374.62 471.397 337.173 449.996 312.816 443.063 281.458 444.871 251.926 446.379 234.268 454.216 210.825 475.918 197.125 488.277 194.385 489.483 184.947 487.975 170.942 485.865 170.333 485.865 154.502 487.975 144.15 489.483 138.975 488.578 133.799 484.66ZM158.764 472.603C161.504 471.397 163.635 467.177 163.635 462.656 163.635 456.929 167.897 450.599 177.335 441.254 184.947 434.02 191.036 426.484 191.036 424.676 191.036 422.867 186.165 416.839 180.684 411.112L170.029 401.165 158.46 411.112C152.066 416.537 140.192 427.087 132.277 434.623L117.358 447.886 130.45 461.148C143.237 474.11 149.021 476.22 158.764 472.603Z" fill-rule="evenodd" transform="matrix(1 0 0 -1 2047 1579)"/><path d="M87.7017 466.621C50.83 445.532 6.03519 353.947-0.363829 285.56-3.716 253.023 10.3014 230.73 41.0788 219.583 52.9631 215.365 141.029 170.175 149.256 164.15 154.132 160.836 152.913 155.714 135.848 104.8 116.346 45.7523 113.908 31.5928 122.441 17.4333 127.926 8.09409 142.857-0.341356 153.523-0.341356 165.102-0.341356 180.643 8.09409 185.214 16.8308 191.613 28.5802 239.15 174.092 239.15 181.021 239.15 188.552 232.142 201.808 225.133 207.833 221.781 210.545 194.356 226.813 163.883 243.684 133.106 260.555 108.118 275.016 108.118 275.919 108.118 276.823 109.642 282.849 111.47 289.175 115.127 300.623 114.822 300.925 103.243 312.373 84.0452 330.75 79.1696 343.102 79.1696 374.735 79.1696 396.727 80.693 404.861 86.4829 417.816 95.0152 436.494 102.329 442.519 117.565 442.519 141.029 442.519 153.218 421.13 143.467 397.33 138.591 384.978 136.763 361.178 141.029 361.479 142.248 361.479 148.647 372.626 155.046 386.183 170.892 418.418 173.33 441.917 162.36 457.583 152.913 471.441 143.771 475.659 121.831 475.659 107.204 475.659 100.5 473.851 87.7017 466.621Z" fill-rule="evenodd" transform="matrix(1 0 0 -1 2567 1565)"/><path d="M14.4643 137.747C-2.00888 117.183-5.97453 72.7297 6.22783 47.0253 21.4806 14.3656 53.8166-0.452178 111.777-0.452178 165.162-0.452178 180.11 5.59591 180.11 26.4618 180.11 39.4652 170.348 49.7469 158.451 49.7469 153.875 49.7469 135.572 49.4445 117.879 48.8397 100.185 48.5373 80.0516 49.7469 73.0353 51.5614 49.5458 57.9119 42.2246 76.9633 52.2913 104.785 54.7318 111.437 56.8673 120.51 56.8673 124.743 56.8673 144.097 26.6666 153.169 14.4643 137.747Z" fill-rule="evenodd" transform="matrix(1 0 0 -1 2652 1274)"/><path d="M443.819 506.192C442.601 504.986 441.687 502.275 441.687 499.865 441.687 496.852 447.474 495.948 464.226 495.948 483.719 495.948 487.374 495.044 494.684 488.416 498.948 484.499 502.603 478.473 502.603 475.46 502.603 472.146 504.735 467.928 507.476 465.518 511.131 462.505 523.314 442.62 529.406 429.062 530.015 427.857 490.419 426.35 441.078 426.049L351.837 425.145 396 400.44C468.185 359.766 465.749 361.574 472.449 346.509 480.064 329.938 481.282 335.964 450.824 242.264 434.377 192.551 424.022 165.134 418.844 158.807 393.564 129.582 344.222 148.262 344.222 187.128 344.222 193.757 352.446 223.584 362.497 253.411 372.548 283.239 379.553 308.547 378.335 309.451 373.766 314.272 296.708 354.343 292.748 354.343 290.312 354.343 291.53 351.33 296.708 346.811 315.592 329.637 314.983 315.778 293.967 268.175L276.91 230.514 283.002 222.078C290.616 211.533 300.058 190.442 303.104 177.186L305.236 167.243 290.616 168.147C275.997 169.051 275.997 169.051 271.428 183.513 268.991 191.346 265.641 197.372 264.118 196.769 262.595 196.468 257.417 186.526 252.24 175.077 239.447 146.153 230.614 135.307 216.604 131.089 193.152 124.159 172.44 133.8 162.389 155.794 157.516 166.942 156.298 167.846 146.246 166.942L135.586 166.038 135.586 138.922 135.586 111.806 176.095 110.902C206.857 110.3 216.299 109.095 216.299 106.082 216.299 100.056 199.852 78.6647 189.497 71.4338 152.033 45.2218 95.3821 53.9592 71.0157 90.4149 39.949 135.909 55.7869 191.648 106.042 214.847 119.748 221.174 125.535 222.078 142.592 220.872 153.861 219.969 165.74 218.462 169.09 217.558 174.268 215.751 176.4 218.763 185.233 238.95 190.715 251.905 194.979 263.354 194.979 264.559 194.979 270.585 159.648 276.611 131.322 275.405 106.347 274.502 99.0371 272.995 81.3716 264.86 25.0246 238.648-7.86994 179.596 0.353824 119.339 4.0088 93.1265 20.7605 59.9849 39.6443 41.0038 57.919 23.2278 92.0316 6.05445 118.53 1.53514 181.273-9.31121 249.194 31.0613 270.819 92.2227L276.606 108.793 373.766 109.697 470.622 110.3 526.664 219.065 582.402 327.829 591.539 311.56C596.412 302.823 605.245 286.252 611.032 275.104L621.693 254.315 603.722 235.635C575.701 206.712 563.518 177.487 563.518 138.621 563.518 99.1523 578.138 66.0107 607.377 38.5935 689.918-38.5361 823.932 7.86218 841.598 119.64 851.953 186.526 807.789 254.014 741.696 271.489 726.163 275.707 715.198 276.611 690.527 275.104L659.46 273.296 601.895 382.362C570.219 442.319 541.893 495.044 538.543 499.563 533.06 507.397 533.06 507.397 489.506 507.698 465.444 507.999 445.037 507.397 443.819 506.192ZM731.645 216.956C764.235 206.109 786.165 174.775 786.165 139.224 786.165 106.684 772.154 82.5815 743.828 66.0107 725.858 55.4656 694.182 53.0553 674.08 60.5875 656.719 67.2158 635.094 86.1969 626.87 102.466 619.256 117.23 616.515 144.044 621.083 160.615 624.434 172.968 641.185 197.673 647.277 199.782 649.105 200.385 659.156 184.115 669.816 163.929 680.476 143.442 689.918 126.268 690.527 125.666 691.745 124.159 710.629 132.595 721.289 139.224L728.295 143.743 708.193 180.801C697.228 201.289 688.395 219.065 688.395 219.969 688.395 223.584 718.244 221.776 731.645 216.956Z" fill-rule="evenodd" transform="matrix(1 0 0 -1 2334 1715)"/><path d="M23.2081 80.3943C13.7677 76.791 3.71798 64.4798 0.368155 53.3696-5.7227 32.6507 8.59052 8.62875 30.2124 2.62326L39.9578-0.379481 39.9578 41.6589C39.9578 86.7001 39.6531 87.3006 23.2081 80.3943Z" fill-rule="evenodd" transform="matrix(1 0 0 -1 2940 1324)"/><path d="M13.5673 28.6605C5.6902 14.7775-0.672199 2.40351-0.672199 1.49809-0.672199-1.21815 117.183-0.614541 137.179 1.7999L152.328 3.91253 110.821 21.719C87.795 31.6785 65.9811 42.8453 62.3457 46.7688 57.4981 52.2013 52.6506 53.7103 41.7436 53.7103L27.8069 53.7103 13.5673 28.6605Z" fill-rule="evenodd" transform="matrix(1 0 0 -1 2366 1414)"/></g></svg>