<svg width="1703" height="1703" xmlns="http://www.w3.org/2000/svg" xmlns:xlink="http://www.w3.org/1999/xlink" xml:space="preserve" overflow="hidden"><defs><clipPath id="clip0"><rect x="1540" y="590" width="1703" height="1703"/></clipPath></defs><g clip-path="url(#clip0)" transform="translate(-1540 -590)"><path d="M1547 1441.5C1547 975.096 1925.1 597 2391.5 597 2857.9 597 3236 975.096 3236 1441.5 3236 1907.9 2857.9 2286 2391.5 2286 1925.1 2286 1547 1907.9 1547 1441.5Z" stroke="#000000" stroke-width="13.75" stroke-miterlimit="8" fill="#FF0000" fill-rule="evenodd"/><path d="M364.095 466.796C352.11 448.706 320.949 401.764 294.799 362.607 268.65 323.221 246.423 290.934 245.551 290.934 244.679 290.934 231.822 313.375 217.222 340.853 166.231 435.425 164.923 437.486 164.923 426.724 164.705 417.106 141.607 228.878 140.299 227.733 139.645 226.817 108.048 239.183 70.3493 255.212 32.6504 271.012 0.835188 284.064-0.472287 284.064-1.56185 284.064-0.254374 278.568 2.36058 272.157 5.19344 265.516 20.0115 229.107 35.2654 191.324 50.5192 153.541 65.7731 115.987 69.2597 107.744L75.3613 92.8593 75.3613 103.164C75.3613 108.888 73.1821 136.138 70.5672 163.846 67.7343 191.553 66.2089 214.452 66.8627 214.91 67.7343 215.139 88.8718 206.895 113.932 196.133 138.992 185.599 160.129 177.585 160.783 178.501 161.873 179.646 172.55 237.809 184.753 309.94 186.279 318.412 188.022 325.282 188.894 325.282 189.765 325.282 193.688 319.786 197.61 313.375 220.709 275.592 246.423 234.603 247.73 233 248.602 231.855 269.085 259.104 293.274 292.995 317.244 327.114 337.728 355.05 338.382 355.05 339.253 355.05 339.253 322.076 338.382 281.774 337.074 221.321 337.292 208.498 339.689 208.727 341.215 208.727 366.492 219.261 395.911 232.313 425.329 245.136 449.517 254.983 449.953 254.296 450.389 253.151 440.801 222.008 412.472 134.764L407.678 119.193 414.651 119.193C418.573 119.193 449.953 120.796 484.383 122.628 518.595 124.689 546.924 126.063 547.36 125.605 547.578 125.147 536.9 106.37 523.607 83.6998 510.315 61.03 493.753 32.6355 486.78 20.7281L474.141-1.02571 487.87 13.8585C518.159 46.8327 637.793 183.996 637.14 184.912 636.486 185.37 621.014 182.623 602.71 178.959 584.187 175.295 549.975 168.425 526.658 163.846 503.341 159.266 476.974 153.999 468.04 152.167 459.323 150.335 451.478 149.19 451.042 149.877 450.389 150.335 470.872 194.301 496.368 247.197 521.646 300.322 542.13 344.288 541.476 344.746 540.604 345.891 508.789 330.32 411.382 281.545 396.564 273.989 383.925 268.493 383.272 269.18 382.618 269.867 383.49 320.015 385.015 380.697 386.54 441.608 387.412 493.13 386.976 495.42 386.322 498.397 379.349 489.466 364.095 466.796Z" fill-rule="evenodd" transform="matrix(1 0 0 -1 1773 1234)"/><path d="M34.8103 881.645C17.6195 876.841 6.3041 865.632 0.646388 848.475-2.83528 837.266-2.40007 831.318 4.56326 792.657 8.04493 773.67 14.1379 740.958 17.8371 720.14 21.5364 699.323 26.9765 669.584 29.8054 653.8 32.6342 638.015 40.468 595.466 47.2137 558.864 53.7418 522.491 60.7052 485.432 62.446 476.51 64.1868 467.817 69.4093 438.307 74.1966 411.314 86.3825 344.058 87.6881 339.94 103.791 323.241 116.194 309.973 135.996 297.62 151.011 293.959 156.016 292.587 156.886 290.985 157.974 281.606 158.627 275.43 160.368 209.547 161.674 135.2L164.285-0.455495 313.126-0.455495 461.75-0.455495 461.75 13.9564C461.75 46.8979 466.32 264.907 467.408 278.175 468.496 291.214 469.148 292.587 474.371 293.959 483.946 296.247 505.053 307.685 515.063 315.692 534.865 331.705 538.564 341.542 551.185 411.314 555.973 438.307 561.848 470.334 564.242 482.229 567.941 501.674 592.095 633.898 609.938 732.722 613.42 752.853 619.078 783.278 622.124 800.206 628.87 836.351 628 847.56 618.425 861.743 610.374 873.181 603.628 877.985 589.701 881.645 567.723 887.822 544.657 875.926 535.518 853.965 532.036 845.501 525.508 812.56 504.183 693.833 499.831 670.042 494.391 640.532 492.215 628.636 489.821 616.741 484.598 587.459 480.246 563.439 463.491 470.334 460.879 462.556 445.43 455.693 435.637 451.347 430.633 451.575 409.09 457.066 365.786 468.046 261.336 468.046 215.422 456.837 192.573 451.347 182.781 452.033 173.642 459.582 162.762 468.504 160.803 475.367 145.136 563.439 140.784 587.459 135.561 616.741 133.167 628.636 130.991 640.532 125.986 667.297 122.287 688.114 99.2211 816.449 91.8226 853.279 88.9937 857.397 73.5438 879.586 55.7003 887.593 34.8103 881.645Z" fill-rule="evenodd" transform="matrix(1 0 0 -1 2488 1953)"/><path d="M115.281 290.943C83.1035 284.763 51.7953 265.08 30.7058 237.615-30.8235 158.196 1.57179 41.2415 95.0615 5.53713 109.194 0.0441528 114.194-0.642469 139.197-0.642469 164.635-0.871343 168.984-0.184721 183.333 5.30825 251.82 31.8576 290.738 103.037 276.171 175.362 270.083 205.573 251.385 238.302 229.208 257.985 216.816 268.971 194.639 281.559 178.767 286.823 163.331 291.858 131.153 293.918 115.281 290.943Z" fill-rule="evenodd" transform="matrix(1 0 0 -1 1878 1451)"/><path d="M114.095 291.701C72.2497 283.921 32.1484 250.972 12.3156 208.412-24.2986 129.243 14.713 35.6576 96.4412 5.91178 116.056-1.18146 148.965-2.78316 169.452 2.25076 232.873 17.8101 279.294 78.4459 279.512 145.717 279.512 168.141 275.807 185.76 266.218 207.039 248.783 246.167 219.796 273.167 179.695 287.353 163.567 292.845 131.748 295.133 114.095 291.701Z" fill-rule="evenodd" transform="matrix(1 0 0 -1 2662 1452)"/><path d="M226.74 463.747C143.532 458.261 91.0363 430.834 55.0956 373.923 36.145 343.982 32.2242 325.697 18.9371 202.046 13.2737 150.392-0.884797 5.94232-0.884797 1.14257-0.884797 0.456894 20.4618-0.228784 46.8183-0.228784L94.5215-0.228784 95.8284 7.31367C96.4819 11.1992 98.4423 32.2266 100.403 53.4827 102.363 74.9672 106.284 117.251 109.333 147.878 112.165 178.505 114.561 207.075 114.561 211.417 114.561 216.217 115.432 218.96 116.739 218.045 118.046 217.36 118.918 208.674 118.918 199.075 118.918 171.191 123.492 15.3133 124.581 7.08511L125.67-0.228784 273.572-0.228784 421.691-0.228784 421.691 21.0272C421.691 41.8261 424.958 149.02 427.354 207.303L428.661 237.702 449.572 214.16C494.444 163.648 538.444 118.165 545.85 114.737 560.444 108.337 571.335 110.165 601.83 124.336 617.078 131.65 637.118 140.792 646.048 144.906 695.276 167.305 730.781 185.361 738.405 191.99 772.168 221.474 751.257 279.528 707.039 279.528 696.365 279.528 688.959 276.785 641.256 253.929 611.632 239.759 586.801 228.331 586.365 228.331 585.711 228.331 574.167 246.158 560.444 267.871 535.394 307.641 522.325 325.468 479.85 377.351 434.325 433.12 402.74 452.776 345.453 461.233 322.146 464.661 259.849 465.804 226.74 463.747Z" fill-rule="evenodd" transform="matrix(1 0 0 -1 1745 1953)"/></g></svg>