<svg width="1703" height="1703" xmlns="http://www.w3.org/2000/svg" xmlns:xlink="http://www.w3.org/1999/xlink" xml:space="preserve" overflow="hidden"><defs><clipPath id="clip0"><rect x="1540" y="590" width="1703" height="1703"/></clipPath><clipPath id="clip1"><rect x="1668" y="602" width="1400" height="1507"/></clipPath><clipPath id="clip2"><rect x="1668" y="602" width="1400" height="1507"/></clipPath><clipPath id="clip3"><rect x="1668" y="602" width="1400" height="1507"/></clipPath></defs><g clip-path="url(#clip0)" transform="translate(-1540 -590)"><path d="M1547 1441.5C1547 975.096 1925.1 597 2391.5 597 2857.9 597 3236 975.096 3236 1441.5 3236 1907.9 2857.9 2286 2391.5 2286 1925.1 2286 1547 1907.9 1547 1441.5Z" stroke="#000000" stroke-width="13.75" stroke-miterlimit="8" fill="#FF0000" fill-rule="evenodd"/><g clip-path="url(#clip1)"><g clip-path="url(#clip2)"><g clip-path="url(#clip3)"><path d="M646.784 1456.78C568.217 1439.55 507.391 1399.51 481.54 1346.79 463.799 1310.8 456.703 1259.1 456.196 1167.86 456.196 1127.82 454.675 1120.72 445.551 1112.1 429.331 1097.4 420.714 1077.13 420.714 1054.32 420.714 1025.93 430.851 1004.14 454.168 983.355 470.895 968.656 475.457 960.545 482.554 929.119 510.939 808.48 605.22 734.982 729.913 734.982 854.1 735.489 948.38 812.028 975.752 934.694 982.341 964.6 986.396 973.217 997.041 978.793 1031 997.041 1046.21 1061.42 1024.41 1096.9 1018.33 1106.53 1011.23 1115.15 1008.19 1116.16 1005.66 1117.17 1001.1 1158.74 998.562 1209.43 992.986 1322.46 985.383 1346.79 944.832 1387.85 880.458 1451.72 757.285 1480.1 646.784 1456.78ZM889.075 1160.76C944.325 1149.11 959.532 1143.02 956.49 1133.9 953.956 1125.79 938.749 1126.8 892.116 1136.94 788.205 1160.26 667.059 1159.24 554.024 1134.91 514.487 1126.3 504.857 1125.79 501.308 1131.37 495.226 1141 501.815 1145.05 534.763 1153.67 629.043 1178.51 791.246 1181.55 889.075 1160.76ZM522.091 1043.67C536.79 1039.11 553.517 1039.62 601.165 1046.72 677.704 1057.87 781.108 1057.87 858.155 1046.72 914.419 1038.61 918.981 1038.61 940.27 1046.72 952.435 1051.28 968.149 1061.42 974.738 1069.53 989.945 1087.27 998.562 1081.18 998.562 1052.8 998.562 1038.1 995.013 1029.48 983.862 1018.33 975.752 1010.22 964.6 1003.63 959.532 1003.63 951.928 1003.63 948.887 995.52 941.284 957.504 929.625 897.185 913.405 863.731 880.458 832.304 823.18 778.574 747.147 758.805 672.635 778.067 583.93 800.877 534.256 858.155 513.98 959.532 507.391 993.493 503.843 1003.63 497.253 1003.63 471.402 1003.63 450.62 1043.67 461.265 1071.55L466.84 1086.76 484.581 1068C494.719 1057.87 511.446 1046.72 522.091 1043.67Z" transform="matrix(1 0 0 -1.00037 1669 2109)"/><path d="M1149.11 1177.49C1138.97 1124.78 1129.34 1073.58 1127.31 1063.44L1124.27 1044.18 1160.76 1044.18 1197.26 1044.18 1193.71 1025.43C1192.19 1014.78 1188.14 995.52 1185.09 982.341L1180.03 958.011 1150.12 958.011C1133.9 958.011 1120.21 956.997 1120.21 955.477 1120.21 951.421 1174.45 850.552 1182.56 839.907 1188.64 831.29 1194.73 834.838 1263.66 894.144L1338.68 958.011 1302.69 958.011C1283.43 958.011 1267.21 959.532 1267.21 962.066 1267.21 964.094 1283.94 1008.19 1304.72 1059.39L1342.23 1153.16 1299.65 1154.68C1270.25 1155.7 1257.07 1158.23 1257.07 1162.29 1257.07 1165.83 1264.17 1191.18 1272.28 1219.06 1280.39 1246.93 1287.49 1270.25 1287.49 1271.27 1287.49 1271.77 1260.62 1272.28 1227.17 1272.28L1167.35 1272.28 1149.11 1177.49Z" transform="matrix(1 0 0 -1.00037 1669 2109)"/><path d="M164.23 859.169C163.217 856.634 160.175 840.414 157.134 824.194 148.517 772.491 150.545 753.23 169.806 714.707 187.04 680.238 187.547 678.211 187.547 618.399L187.547 557.573 220.495 557.573 253.442 557.573 253.442 620.933C253.442 683.787 253.442 684.8 271.69 721.296L290.445 757.792 283.855 803.411C280.307 828.249 276.759 851.565 275.238 854.607 272.197 862.717 166.765 866.772 164.23 859.169Z" transform="matrix(1 0 0 -1.00037 1669 2109)"/><path d="M964.6 750.188C922.022 724.337 874.882 563.655 838.893 319.844 831.797 274.224 825.207 235.194 823.18 233.674 819.632 230.632 824.7 358.367 829.769 394.356L832.304 415.645 598.63 415.645 364.957 415.645 364.957 250.908 364.957 86.1703 607.754 86.1703 851.058 86.1703 854.1 115.57C874.375 308.186 895.664 440.482 925.063 558.079 953.956 673.142 974.738 719.775 996.534 719.775 1015.8 719.775 1015.8 708.624 997.041 671.115 954.97 586.972 908.843 402.973 879.444 198.699 862.717 81.1015 862.21 85.1565 885.526 87.1841L904.788 88.7047 910.871 136.859C946.353 399.932 1001.1 616.371 1052.29 690.376 1066.48 710.651 1075.61 716.227 1087.27 711.665 1097.4 707.61 1096.9 697.473 1086.76 688.855 1073.07 677.704 1044.18 614.344 1022.89 550.476 987.917 444.03 939.256 232.153 921.008 104.925L917.967 86.1703 937.736 86.1703C960.038 86.1703 956.997 80.0877 970.683 162.203 1009.71 395.37 1082.2 636.14 1122.75 668.073 1153.67 692.404 1170.4 674.156 1144.54 644.757 1093.86 586.465 1036.07 401.452 975.245 99.8562L972.204 86.1703 1033.54 86.1703 1094.87 86.1703 1094.36 227.084 1093.86 367.491 1071.05 296.527C1058.37 257.497 1046.21 223.536 1044.18 221.001 1039.11 215.933 1038.1 211.371 1064.46 318.83 1110.58 504.857 1172.42 653.374 1191.18 623.467 1194.22 619.412 1196.25 607.247 1196.25 596.096 1196.25 579.369 1195.23 577.341 1188.64 582.917 1182.56 587.986 1179.52 585.958 1171.41 572.272L1161.27 555.545 1176.98 537.804C1207.4 503.336 1210.44 490.157 1232.24 285.376 1243.89 179.944 1253.52 93.2667 1254.03 92.2529 1255.05 91.746 1262.65 92.7598 1271.27 94.2804 1284.95 96.8149 1287.49 99.8562 1287.49 111.515 1287.49 128.242 1253.52 451.127 1248.96 475.964 1247.44 485.595 1241.87 502.829 1236.29 514.487 1228.18 531.215 1227.17 538.311 1231.73 549.462 1244.91 584.944 1233.25 647.291 1210.44 659.456 1205.37 661.991 1197.26 673.649 1193.21 684.294 1184.08 706.596 1167.35 719.775 1148.09 719.775 1139.98 719.775 1128.83 725.858 1120.21 734.475 1102.47 752.216 1086.25 755.764 1062.43 747.654 1047.22 742.078 1042.66 742.585 1030.5 750.695 1012.25 762.861 984.876 762.861 964.6 750.188ZM496.746 332.009 496.746 314.268 463.799 314.268 430.851 314.268 430.851 332.009 430.851 349.75 463.799 349.75 496.746 349.75 496.746 332.009Z" transform="matrix(1 0 0 -1.00037 1669 2109)"/><path d="M537.297 699.5C436.934 680.745 370.532 656.922 316.296 619.919 273.717 590.52 271.183 586.972 286.39 572.779L298.555 561.628 322.885 579.369C348.229 597.616 396.383 623.467 405.507 623.467 408.549 623.467 410.576 591.027 410.576 529.694L410.576 435.92 463.799 435.92 517.022 435.92 517.022 547.435 517.022 658.442 534.256 661.484C578.862 670.101 574.807 672.128 653.88 588.492L727.379 510.939 803.411 590.013C845.483 633.605 881.978 669.087 885.02 669.087 890.595 669.087 905.802 697.979 901.747 701.528 900.733 702.541 891.609 704.569 881.471 706.09 863.731 708.624 862.21 707.61 797.836 638.167 761.847 599.644 730.927 567.71 728.899 567.71 727.379 567.71 695.445 599.644 658.949 638.674 621.947 677.704 590.52 709.638 588.492 709.131 586.972 709.131 563.655 704.569 537.297 699.5Z" transform="matrix(1 0 0 -1.00037 1669 2109)"/><path d="M126.721 515.501C126.721 500.801 129.255 486.102 132.297 483.061 135.845 479.512 128.242 469.882 106.953 451.634 80.0877 428.317 76.0326 422.234 70.4569 396.383 59.8123 350.764 61.333 216.946 72.4844 181.465 82.6221 148.517 105.432 119.118 124.187 114.556 132.297 112.528 137.872 106.446 139.9 97.3217 146.996 69.4431 161.696 47.1402 179.437 38.5232 202.247 27.8786 236.715 28.3855 258.511 39.537 277.772 49.6746 299.062 84.6496 299.062 105.939 299.062 113.542 305.144 123.68 315.789 132.297L332.009 145.983 333.53 261.552C334.544 338.599 333.023 381.177 329.475 390.301 323.899 403.987 306.158 415.645 291.458 415.645 285.883 415.645 283.855 422.234 283.855 442.51 283.855 466.84 285.376 469.882 299.062 478.499 313.761 487.116 314.775 489.143 313.254 513.474L311.734 539.832 219.481 541.352 126.721 542.366 126.721 515.501ZM220.495 375.094 293.993 375.094 293.993 362.422C293.993 349.75 293.486 349.75 253.442 349.75L212.891 349.75 212.891 329.475 212.891 309.199 253.442 309.199 293.993 309.199 293.993 293.993 293.993 278.786 253.442 278.786 212.891 278.786 212.891 261.045 212.891 243.304 253.442 243.304 293.993 243.304 293.993 228.098 293.993 212.891 253.442 212.891 212.891 212.891 212.891 192.616 212.891 172.341 253.442 172.341C284.869 172.341 293.993 170.82 293.993 165.244 293.993 161.189 289.938 156.627 285.376 154.6 273.211 149.024 155.613 144.969 139.393 149.024 108.98 156.627 91.2391 248.88 100.87 346.709 105.939 399.425 106.446 400.438 125.2 417.672L144.462 435.413 145.983 405 147.503 375.094 220.495 375.094Z" transform="matrix(1 0 0 -1.00037 1669 2109)"/></g></g></g></g></svg>