<svg width="1703" height="1703" xmlns="http://www.w3.org/2000/svg" xmlns:xlink="http://www.w3.org/1999/xlink" xml:space="preserve" overflow="hidden"><defs><clipPath id="clip0"><rect x="1540" y="590" width="1703" height="1703"/></clipPath></defs><g clip-path="url(#clip0)" transform="translate(-1540 -590)"><path d="M1547 1441.5C1547 975.096 1925.1 597 2391.5 597 2857.9 597 3236 975.096 3236 1441.5 3236 1907.9 2857.9 2286 2391.5 2286 1925.1 2286 1547 1907.9 1547 1441.5Z" stroke="#000000" stroke-width="13.75" stroke-miterlimit="8" fill="#FF0000" fill-rule="evenodd"/><path d="M38.6898 622.289C10.9458 606.876-0.86025 587.06 0.320426 557.336 0.910765 543.025 18.6198 430.186 39.2801 306.339 68.2056 134.603 80.0112 77.3573 88.8655 66.8992 107.165 42.6798 134.909 33.3225 186.266 33.3225L231.719 33.3225 231.719 16.8095 231.719 0.296082 306.097 0.296082C363.357 0.296082 379.886 1.94749 378.114 7.45208 376.343 10.7549 363.357 55.34 349.189 106.53L323.807 198.452 272.451 198.452C221.094 198.452 221.094 198.452 217.552 213.866 215.781 222.122 201.024 309.09 184.495 407.617 166.196 516.055 151.438 590.914 145.535 598.62 132.548 617.885 101.852 633.296 78.2402 633.296 67.0249 633.296 49.3155 628.344 38.6898 622.289Z" fill-rule="evenodd" transform="matrix(1 0 0 -1 2087 1482)"/><path d="M581.915 1043.42C571.276 1037.37 558.863 1026.91 554.135 1019.76 549.407 1012.61 532.857 931.183 515.715 828.3 499.164 729.821 483.797 642.894 482.024 634.641 478.478 619.237 478.478 619.237 427.645 619.237L376.221 619.237 347.85 520.757 320.07 422.276 337.802 405.771C352.579 391.466 355.535 384.864 355.535 361.758 355.535 340.3 351.987 330.398 340.757 317.744 330.118 306.191 325.98 294.637 325.98 278.682 325.98 250.624 305.884 228.616 280.467 228.616 265.691 228.616 262.736 225.316 255.051 202.208 248.549 182.952 243.23 176.35 234.363 176.35 225.497 176.35 220.177 182.952 213.675 202.208L204.811 228.616 141.565 228.616 78.3193 228.616 67.0891 204.959C60.587 191.205 43.4462 171.399 28.0782 159.295L0.297298 137.838 2.07053 69.0669 3.84377 0.295802 234.363 0.295802 464.884 0.295802 466.656 227.516 467.838 454.186 516.897 454.186C570.095 454.186 594.329 462.989 612.652 489.396 627.428 510.853 705.451 975.747 697.767 1000.5 684.763 1045.07 623.882 1067.62 581.915 1043.42ZM253.869 139.489C275.148 119.682 247.367 88.3231 220.177 101.527 197.125 113.081 207.765 146.091 234.363 146.091 241.456 146.091 249.731 143.34 253.869 139.489ZM255.051 72.3681C273.374 51.4617 249.731 23.4027 223.133 34.9565 196.535 45.9601 205.401 80.0705 234.955 80.0705 242.047 80.0705 250.913 76.2191 255.051 72.3681Z" fill-rule="evenodd" transform="matrix(1 0 0 -1 2317 1902)"/><path d="M168.155 387.489C104.549 375.943 40.3527 328.667 13.2609 273.693 2.65947 252.804 0.30352 237.411 0.30352 195.632 0.30352 150.003 2.07048 139.558 16.2054 113.171 81.5796-11.0687 251.199-38.0056 355.445 58.7474 442.022 139.558 433.776 276.992 336.598 349.006 294.193 380.341 221.751 397.384 168.155 387.489Z" fill-rule="evenodd" transform="matrix(1 0 0 -1 2345 1253)"/><path d="M1.58203 187.245C3.97784 180.059 10.5677 170.662 16.5586 165.687 26.7424 157.395 27.3414 156.288 17.7567 147.445 6.97307 137.495 5.17593 91.0614 13.563 30.2552L17.1576 0.405065 55.497 0.405065 93.2381 0.405065 96.832 21.4112C107.616 87.7445 107.616 127.545 97.431 141.917 88.4453 154.63 88.4453 157.395 96.2329 165.134 101.025 170.662 107.016 180.059 108.814 187.245 113.007 199.405 112.408 199.405 55.497 199.405-1.4132 199.405-2.01225 199.405 1.58203 187.245Z" fill-rule="evenodd" transform="matrix(1 0 0 -1 2496 1482)"/><path d="M100.598 471.418C93.512 459.904 98.8266 449.487 117.134 436.329 123.04 431.942 123.631 427.008 118.906 415.495 110.048 394.113 110.048 394.113 131.898 395.209 170.285 397.401 179.142 394.661 198.631 376.567 215.758 360.669 218.711 354.089 218.711 332.707 218.711 305.294 206.899 283.911 186.821 272.946 179.733 269.656 150.796 264.174 121.859 260.884L69.2988 255.401 35.0467 145.748C16.1487 85.4394 0.793903 32.2575 0.203188 27.3236-0.38715 8.13419 19.6919 0.458259 69.8895 0.458259L118.315 0.458259 111.82 14.7131C106.504 28.968 107.685 39.9338 117.725 63.5089 123.631 76.6672 134.851 115.046 142.529 148.49 145.481 161.648 150.796 175.354 153.75 178.096 157.293 181.386 159.655 190.158 159.655 198.93 159.655 222.506 171.466 240.599 193.907 250.467 213.987 259.239 216.939 258.691 275.405 244.437 321.469 232.922 342.728 230.181 363.398 232.922 430.131 242.243 473.241 275.139 480.329 321.741L482.691 337.641 603.165 339.285C688.206 340.383 724.821 343.123 727.774 347.511 730.135 351.347 732.499 366.699 732.499 382.051 732.499 405.625 734.271 411.109 744.31 413.301 753.758 415.495 756.122 420.977 756.122 437.974 756.122 479.642 763.798 477.448 617.93 477.448L487.416 477.448 475.605 448.39C466.746 426.46 460.84 419.332 449.62 418.236 436.627 416.043 436.036 417.687 438.991 434.684 440.762 444.553 444.304 458.26 446.668 465.387 449.62 475.256 447.848 477.448 438.4 477.448 429.541 477.448 423.045 469.773 413.006 447.294 403.556 425.912 396.469 417.139 388.793 417.139 372.847 417.139 369.894 430.846 380.525 455.518 389.974 477.448 389.974 477.448 375.8 477.448 364.579 477.448 359.855 472.514 350.997 448.939 342.728 427.557 336.232 419.332 327.374 418.236 310.248 416.043 306.114 429.201 316.153 452.228 327.374 477.448 327.374 478.546 312.61 476.352 303.752 475.256 296.073 466.484 287.215 446.198 277.177 423.17 271.862 417.139 261.821 417.139 245.877 417.139 244.105 430.298 256.506 458.26L265.364 477.448 213.987 477.448C185.64 477.448 159.064 475.256 154.34 472.514 148.434 469.225 141.348 469.773 133.67 475.256 117.134 485.673 108.276 485.124 100.598 471.418ZM357.493 308.035C367.532 280.073 381.706 268.56 388.202 283.363 389.974 288.297 388.793 300.359 385.248 309.679 373.437 339.835 374.618 340.931 416.549 339.285 453.754 337.641 454.935 337.093 454.935 323.387 454.935 289.394 405.327 258.691 344.5 253.756 301.39 250.467 301.39 251.015 319.106 298.715 338.004 349.703 342.138 350.799 357.493 308.035Z" fill-rule="evenodd" transform="matrix(1 0 0 -1 1888 1986)"/><path d="M160.948 298.705C117.206 294.854 75.8289 288.252 69.3273 284.399 60.4603 278.897 48.6383 251.937 28.5412 193.614L0.167934 110.531 31.4962 55.509C49.2295 25.2471 64.598 0.487324 66.9627 0.487324 69.3273 0.487324 84.6959 46.7058 101.838 103.928 118.979 160.601 134.348 208.469 136.712 210.669 138.486 212.871 165.677 217.273 196.414 220.574 265.573 228.277 279.168 235.431 279.168 264.041 279.168 284.399 269.119 298.705 249.614 304.207 244.884 305.307 204.69 303.107 160.948 298.705Z" fill-rule="evenodd" transform="matrix(1 0 0 -1 1797 1920)"/><path d="M65.8588 244.211C54.0594 239.251 45.7994 215.555 52.2894 203.981 56.4192 196.818 55.2393 191.858 45.7994 184.692 36.3598 176.977 34.5897 170.365 36.9499 154.383 39.3097 137.85 37.5401 132.339 28.0997 126.829 18.6605 121.318 16.8905 115.806 18.6605 99.8245 20.4305 86.0472 18.0704 77.2297 10.4012 70.0659-3.16861 57.3908-3.16861 40.8579 10.4012 28.1828 23.9702 15.5077 104.797-3.22971 124.857 1.17946 142.556 5.58751 153.175 33.1425 141.966 45.8176 136.656 51.3286 137.246 54.0842 144.326 56.8396 157.305 61.248 166.155 86.0472 159.076 98.7227 154.945 106.438 155.535 110.296 160.846 113.602 174.415 121.318 182.084 138.952 176.775 151.077 173.234 159.893 175.004 165.405 183.265 172.018 196.834 183.041 198.013 205.083 185.625 216.657 170.285 230.985 82.968 250.825 65.8588 244.211Z" fill-rule="evenodd" transform="matrix(1 0 0 -1 2023 2003)"/><path d="M18.7075 227.714C-11.9312 204.997-10.1638 200.009 66.4335 72.5682 87.6444 37.6601 107.678 7.18452 111.213 4.96823 114.748 2.75231 125.943 0.53565 136.549 0.53565 158.939 0.53565 187.81 28.7945 182.508 45.4176 174.848 67.0269 83.5204 219.956 72.3253 229.377 56.4172 242.121 37.5622 241.566 18.7075 227.714Z" fill-rule="evenodd" transform="matrix(1 0 0 -1 1708 2048)"/></g></svg>