<svg width="1704" height="1710" xmlns="http://www.w3.org/2000/svg" xmlns:xlink="http://www.w3.org/1999/xlink" xml:space="preserve" overflow="hidden"><defs><clipPath id="clip0"><rect x="1860" y="126" width="1704" height="1710"/></clipPath></defs><g clip-path="url(#clip0)" transform="translate(-1860 -126)"><path d="M1868 984.5C1868 518.095 2246.1 140 2712.5 140 3178.9 140 3557 518.095 3557 984.5 3557 1450.9 3178.9 1829 2712.5 1829 2246.1 1829 1868 1450.9 1868 984.5Z" stroke="#000000" stroke-width="13.75" stroke-miterlimit="8" fill-rule="evenodd"/><path d="M782.973 1685.95C652.462 1675.15 530.727 1637.59 422.043 1574.68 269.706 1486.41 151.346 1356.6 77.3151 1196.73 20.1603 1073.73-7.51681 929.827 0.583926 800.717 11.6097 626.066 66.2893 474.42 167.322 338.736 288.607 175.588 468.847 59.8577 665.963 18.3075 789.723-7.51442 905.833-7.27971 1028.24 19.716 1256.41 69.7171 1456.68 217.138 1575.49 422.541 1641.42 536.862 1678.1 660.808 1686.87 800.717 1693.4 903.301 1675.62 1024.2 1638.94 1127.01 1556.14 1359.41 1370.72 1547.91 1139.63 1634.3 1027.57 1676.09 896.382 1695.1 782.973 1685.95ZM1371.4 1383.59C1372.97 1380.31 1372.97 1370.21 1371.4 1350.26 1370.05 1334.53 1369.15 1321.38 1369.6 1321.15 1370.05 1320.68 1380.4 1323.5 1392.55 1327.25 1419.32 1335.47 1425.4 1335.94 1425.4 1329.37 1425.4 1323.97 1422.93 1319.51 1405.6 1294.15L1393.45 1276.55 1408.97 1273.73C1436.65 1268.57 1447.9 1265.75 1449.25 1263.17 1451.28 1259.65 1444.08 1254.25 1415.95 1238.52 1402.45 1231.01 1391.65 1224.2 1391.65 1223.26 1391.65 1222.09 1396.15 1214.81 1401.77 1206.83 1407.4 1198.85 1411.67 1190.87 1411.45 1188.75 1410.55 1183.82 1399.52 1182.88 1380.62 1186.17 1354.29 1190.87 1352.94 1195.56 1377.47 1196.97 1385.8 1197.44 1393.22 1197.91 1393.45 1197.91 1393.9 1197.91 1390.07 1202.84 1385.12 1208.71 1370.95 1225.61 1372.3 1228.66 1399.52 1244.15 1408.07 1249.08 1415.27 1254.25 1415.72 1255.66 1416.17 1257.3 1411.67 1259.65 1404.7 1261.29 1386.92 1265.28 1380.4 1268.57 1380.4 1272.79 1380.4 1274.9 1384.9 1283.59 1390.52 1292.28 1396.15 1300.96 1400.65 1309.18 1400.65 1310.59 1400.65 1314.11 1390.3 1313.4 1371.85 1308.47L1355.42 1304.01 1356.99 1330.77C1358.79 1362.93 1358.57 1362.93 1336.52 1337.35 1328.19 1327.72 1320.32 1320.21 1319.19 1320.45 1317.84 1320.91 1314.69 1326.55 1311.99 1332.89 1301.42 1358.47 1296.47 1361.76 1293.99 1345.56 1292.19 1333.36 1289.04 1327.02 1284.76 1327.02 1282.96 1327.02 1275.31 1332.89 1267.66 1339.93 1253.71 1353.07 1245.61 1356.6 1248.76 1348.85 1253.04 1337.58 1255.29 1319.98 1252.81 1317.39 1251.46 1315.99 1249.21 1315.52 1247.86 1316.22 1244.04 1318.8 1236.16 1347.91 1234.81 1365.28 1233.01 1385.94 1235.26 1385.94 1257.76 1364.58 1267.21 1355.66 1275.99 1348.15 1277.11 1348.15 1279.81 1348.15 1288.14 1362.23 1288.14 1366.93 1288.14 1368.8 1290.16 1373.97 1292.64 1378.19 1296.69 1385 1297.82 1385.7 1300.97 1383.12 1302.77 1381.24 1307.94 1372.32 1312.22 1362.93 1316.49 1353.54 1321.22 1345.8 1322.57 1345.8 1324.14 1345.8 1334.49 1355.42 1345.52 1366.93 1356.54 1378.66 1366.45 1388.05 1367.35 1388.05 1368.25 1388.05 1370.05 1385.94 1371.4 1383.59ZM433.294 1321.38C452.196 1317.16 469.972 1307.77 493.374 1289.69 515.426 1272.56 541.753 1245.8 540.403 1241.81 539.053 1237.58 523.302 1235.94 483.248 1235.7L446.57 1235.47 446.57 1204.95 446.57 1174.43 456.246 1169.5C474.923 1159.64 496.075 1143.68 497.425 1138.28 498.775 1132.65 490.224 1090.16 486.849 1086.64 485.724 1085.46 474.923 1090.63 460.746 1099.08 447.47 1107.3 406.292 1131.94 369.389 1154.01L302.108 1194.39 303.459 1219.03C306.609 1273.5 318.535 1302.14 343.512 1315.52 360.163 1324.44 405.842 1327.49 433.294 1321.38ZM1273.06 1266.22C1291.51 1257.06 1307.94 1240.4 1316.72 1222.09 1322.57 1209.65 1323.02 1206.36 1323.02 1182.65 1323.02 1158 1322.57 1155.89 1315.59 1141.1 1296.47 1100.25 1251.01 1080.53 1207.81 1094.15 1181.93 1102.37 1165.05 1117.62 1153.58 1143.21 1148.18 1155.42 1147.5 1159.41 1147.5 1181.48 1147.5 1203.31 1148.18 1207.77 1153.58 1219.5 1169.33 1254.72 1202.86 1276.08 1239.76 1274.67 1254.61 1273.97 1260.46 1272.56 1273.06 1266.22ZM887.156 1140.86C888.056 1126.31 884.006 1123.96 852.729 1120.44 823.926 1117.39 818.076 1115.04 812.9 1104.48 807.95 1093.68 802.549 1088.05 796.699 1087.11 793.549 1086.64 789.948 1082.18 785.223 1072.32 779.148 1059.88 776.897 1057.53 764.971 1051.19 752.82 1044.85 751.245 1043.21 749.67 1034.76 745.845 1016.68 743.82 1015.51 714.117 1015.04L696.791 1014.81 699.716 1028.89C701.291 1036.64 701.966 1043.44 701.066 1043.91 697.916 1046.03 503.95 1034.52 500.125 1032.18 499 1031.47 498.325 1010.35 498.325 984.993L498.325 939.217 485.724 940.156C474.023 941.33 472.447 942.034 461.197 954.476 440.72 976.777 417.093 985.697 383.34 983.819 360.613 982.645 353.413 979.124 329.111 957.527 311.334 942.034 301.208 937.809 286.582 940.156L281.182 940.861 280.507 980.298 280.057 1019.74 274.431 1012.93C262.055 997.669 251.254 961.518 243.829 911.752 241.804 897.433 240.004 892.972 233.703 885.695 218.852 868.793 206.476 867.854 192.075 883.113 181.499 894.146 179.474 905.649 183.074 938.982 191.174 1013.87 224.477 1071.85 269.931 1090.39 286.582 1097.2 320.11 1099.78 384.915 1098.84L445.445 1098.14 456.696 1091.33C462.997 1087.58 472.222 1082.18 477.173 1078.89 482.348 1075.84 487.974 1073.96 489.999 1074.9 491.799 1075.6 494.499 1080.77 495.849 1086.17 497.2 1091.8 499.9 1097.67 501.7 1099.31 503.725 1101.19 512.726 1102.84 522.627 1103.31 605.433 1107.06 677.214 1111.52 688.465 1113.63 707.817 1117.15 709.842 1118.8 709.842 1130.77 709.842 1139.69 710.517 1141.33 716.143 1143.45 719.518 1144.85 730.094 1146.73 739.769 1147.67 756.196 1149.08 879.281 1152.84 884.231 1152.13 885.581 1151.9 886.706 1146.97 887.156 1140.86ZM1370.5 1055.65C1418.65 1040.63 1465.68 1026.07 1548.04 1000.72 1608.34 982.411 1618.92 975.368 1618.92 954.241 1618.92 932.644 1604.52 919.264 1584.04 921.846 1573.24 923.02 1473.78 952.128 1427.65 967.622 1394.12 978.655 1357.67 988.983 1351.59 988.983L1346.19 988.983 1347.54 950.955C1348.44 929.827 1350.02 875.132 1351.14 829.356L1353.62 746.021 1324.37 653.766 1295.34 561.511 1311.09 503.528C1333.59 419.724 1346.64 365.967 1348.22 350.474 1350.02 332.163 1346.19 321.835 1334.27 311.506 1305.02 286.623 1270.14 296.012 1255.74 332.633 1246.06 357.047 1205.33 511.744 1198.13 551.416 1194.98 568.318 1197.68 580.056 1222.88 661.278 1231.66 688.978 1238.64 713.157 1238.64 715.269 1238.64 723.72 1223.11 710.34 1175.63 660.573 1112.85 595.079 1112.85 595.314 1089.22 493.669 1083.6 469.725 1075.05 436.86 1069.87 420.428 1059.52 386.39 1055.47 381.225 1034.54 374.887 1011.59 367.845 989.54 374.887 981.214 391.554 974.239 405.639 973.788 433.574 979.864 463.387 991.34 519.021 1022.17 629.117 1032.29 649.775 1034.77 654.94 1059.07 682.64 1086.3 711.513L1135.58 763.627 1134.23 818.323C1131.75 906.118 1128.15 982.88 1126.13 984.993 1123.65 987.81 1108.8 984.523 1041.52 966.682 971.313 948.138 895.257 930.297 886.031 930.297 870.73 930.297 858.579 950.25 861.954 969.499 865.555 989.688 869.83 991.096 1066.5 1043.91L1149.75 1066.21 1227.38 1068.33C1270.14 1069.5 1308.62 1070.68 1313.12 1070.68 1317.84 1070.91 1343.04 1064.34 1370.5 1055.65ZM425.194 970.204C433.519 965.978 446.12 956.823 454.221 948.842L468.622 934.992 549.854 934.992 631.086 934.992 631.086 910.343 631.086 885.695 553.229 885.695 475.598 885.695 476.273 874.662 476.948 863.394 486.849 861.751C497.425 859.873 512.726 851.422 519.251 843.91 523.302 839.215 523.527 832.642 522.401 703.297 521.727 589.445 521.051 565.501 517.901 554.703 512.726 535.454 504.625 530.524 472.222 527.472 456.246 525.829 456.021 526.064 451.971 532.637 448.146 538.505 447.695 545.548 447.02 603.295L446.12 667.381 431.494 681.466C415.068 697.194 409.892 698.837 385.815 697.429 368.489 696.49 361.288 692.499 352.513 679.118 341.937 662.686 340.362 651.184 339.236 588.741 338.787 556.581 337.887 528.881 337.436 527.472 336.536 524.655 307.284 527.237 291.983 531.463 281.857 534.28 270.606 544.844 266.331 555.877 264.08 561.276 263.18 596.018 262.505 700.011L261.605 836.868 267.006 842.737C274.431 850.953 290.633 860.577 300.083 861.986 307.509 863.394 308.184 864.098 308.859 872.549 309.309 878.183 308.409 882.409 306.609 883.582 305.034 884.756 291.758 885.695 277.357 885.695 262.955 885.695 250.579 886.399 250.129 887.573 249.454 888.512 250.354 897.667 251.929 907.761 255.53 932.879 258.23 934.992 285.457 934.992 311.334 934.992 318.535 937.105 330.686 948.842 345.087 962.692 357.463 970.438 372.989 975.133 391.666 981.002 406.517 979.594 425.194 970.204ZM299.183 876.54C299.183 874.662 296.258 872.314 292.433 871.141 288.833 870.202 278.932 863.629 270.831 856.586L255.98 843.676 254.63 721.138C253.73 653.531 252.605 598.131 252.154 597.661 250.129 595.549 233.028 606.582 227.627 613.155 219.752 623.249 217.051 642.733 217.051 693.438 217.051 763.157 222.227 792.97 241.804 835.929 255.305 865.507 260.705 873.488 269.706 877.714 278.932 881.939 299.183 881 299.183 876.54ZM521.502 873.019C532.752 861.281 551.879 820.905 557.955 795.787 564.48 768.322 567.63 737.101 569.43 676.771L570.781 628.648 552.554 611.512 534.328 594.375 534.328 602.121C534.102 647.897 529.152 813.628 527.577 828.182 524.877 851.187 521.276 856.352 503.275 865.742 495.849 869.732 488.874 873.488 488.199 874.427 484.598 878.183 490.449 881 501.7 881 512.501 881 514.751 880.061 521.502 873.019ZM416.418 668.555 428.569 659.869 428.569 512.448 428.569 365.028 421.368 358.455C417.318 354.934 409.667 350.004 404.492 347.657 391.891 341.788 382.215 343.666 368.939 354.464L358.813 362.915 358.813 511.275 358.813 659.634 363.989 664.329C381.99 681.935 396.166 682.874 416.418 668.555ZM203.55 524.89C211.426 520.899 221.777 518.082 232.353 517.144 245.854 515.735 250.129 514.327 257.105 508.458 272.856 495.312 279.832 474.42 273.756 458.457 272.631 455.17 267.456 447.189 262.505 440.616L253.505 428.644 264.531 408.925C275.556 389.207 277.581 383.338 273.306 383.338 269.481 383.338 230.553 447.189 230.553 453.762 230.553 458.222 236.853 456.109 241.353 450.241 247.654 442.025 252.154 442.964 257.555 453.762 262.955 464.795 263.405 479.584 258.455 489.209 254.18 497.894 235.503 507.753 222.677 507.753 217.727 507.988 211.201 509.397 208.051 511.275 204.901 513.153 196.575 514.561 189.599 514.796 178.348 514.796 176.098 513.857 169.123 507.049 164.397 502.589 160.122 495.312 158.772 489.443 156.521 480.758 156.747 478.176 160.572 469.49 163.047 464.091 166.872 457.283 168.898 454.466 172.498 449.302 172.498 449.067 166.872 449.067 155.171 449.067 156.297 425.123 168.673 412.212 175.198 405.404 177.673 404.465 187.574 404.465 199.5 404.465 211.426 409.16 213.226 414.324 213.676 415.968 212.326 419.959 210.076 423.01 204.901 429.818 204.676 432.635 209.176 432.635 213.901 432.635 261.605 382.868 258.005 381.695 256.43 380.991 249.004 386.39 241.578 393.667 234.153 400.944 226.952 406.813 225.827 406.813 224.477 406.813 220.202 404.231 216.377 401.179 196.35 385.451 164.172 388.737 154.947 407.282 152.246 412.681 151.346 420.428 151.571 435.687 151.796 452.119 150.671 458.926 147.296 467.143 139.42 485.688 142.345 507.519 154.271 518.552 169.348 532.637 184.424 534.515 203.55 524.89Z" stroke="#000000" stroke-width="13.75" stroke-miterlimit="8" fill="#FF0000" fill-rule="evenodd" transform="matrix(1 0 0 -1 1868 1822)"/><path d="M41.3634 130.603C-6.29671 104.872-15.1638 46.8865 23.9987 15.3573 53.925-8.56164 91.2402-6.74956 118.95 20.7935 137.423 38.5512 145.181 58.846 141.487 78.7784 138.531 94.362 115.255 120.818 97.1519 129.153 82.743 135.676 52.4472 136.764 41.3634 130.603Z" fill="#FF0000" fill-rule="evenodd" transform="matrix(1 0 0 -1 2188 1067)"/></g></svg>