<svg width="1703" height="1703" xmlns="http://www.w3.org/2000/svg" xmlns:xlink="http://www.w3.org/1999/xlink" xml:space="preserve" overflow="hidden"><defs><clipPath id="clip0"><rect x="1540" y="590" width="1703" height="1703"/></clipPath></defs><g clip-path="url(#clip0)" transform="translate(-1540 -590)"><path d="M1547 1441.5C1547 975.096 1925.1 597 2391.5 597 2857.9 597 3236 975.096 3236 1441.5 3236 1907.9 2857.9 2286 2391.5 2286 1925.1 2286 1547 1907.9 1547 1441.5Z" stroke="#000000" stroke-width="13.75" stroke-miterlimit="8" fill="#FF0000" fill-rule="evenodd"/><path d="M1831.41 1129.04 1831.41 1096.04C1831.41 1083.27 1821.29 1073 1808.71 1073L1719.77 1073C1692.78 1073 1671 1095.1 1671 1122.5 1671 1149.9 1692.78 1172 1719.77 1172L1863 1172 1863 1128.73 1831.41 1128.73 1831.41 1129.04Z" fill="#D7E2F2" fill-rule="evenodd"/><path d="M2950.59 1129.04 2950.59 1096.04C2950.59 1083.27 2960.71 1073 2973.29 1073L3062.23 1073C3089.22 1073 3111 1095.1 3111 1122.5 3111 1149.9 3089.22 1172 3062.23 1172L2919 1172 2919 1128.73 2950.59 1128.73 2950.59 1129.04Z" fill="#D7E2F2" fill-rule="evenodd"/><path d="M1727 1588 1727 1893.54C1727 1908.83 1738.95 1921 1753.96 1921L1878.04 1921C1893.05 1921 1905 1908.83 1905 1893.54L1905 1588 1727 1588Z" fill="#333842" fill-rule="evenodd"/><path d="M3055 1588 3055 1893.54C3055 1908.83 3043.05 1921 3028.04 1921L2903.96 1921C2888.95 1921 2877 1908.83 2877 1893.54L2877 1588 3055 1588Z" fill="#333842" fill-rule="evenodd"/><path d="M3016.06 1205.49 2961.42 1177.7C2961.42 1177.7 2849.36 934.44 2806.99 897.28 2785.81 878.856 2588.71 852 2391.31 852 2194.21 852 1996.8 878.856 1975.62 897.28 1933.25 934.127 1821.2 1177.7 1821.2 1177.7L1766.55 1205.49 1703 1328.84 1740.76 1741.66C1743.22 1769.77 1766.55 1791 1793.87 1791L2988.13 1791C3015.76 1791 3038.78 1769.77 3041.24 1741.66L3079 1328.84 3016.06 1205.49Z" fill="#BECEE7" fill-rule="evenodd"/><path d="M1783.15 1318 1727 1447.6 1981.34 1462 2047 1357.76Z" fill="#8FA3C1" fill-rule="evenodd"/><path d="M1783 1318 1783 1450 1727 1446.89Z" fill="#F8B517" fill-rule="evenodd"/><path d="M1895 1388.5C1895 1417.5 1871.94 1441 1843.5 1441 1815.06 1441 1792 1417.5 1792 1388.5 1792 1359.51 1815.06 1336 1843.5 1336 1871.94 1336 1895 1359.51 1895 1388.5Z" fill="#FFFFFC" fill-rule="evenodd"/><path d="M1988 1403C1988 1426.2 1969.42 1445 1946.5 1445 1923.58 1445 1905 1426.2 1905 1403 1905 1379.8 1923.58 1361 1946.5 1361 1969.42 1361 1988 1379.8 1988 1403Z" fill="#FFFFFC" fill-rule="evenodd"/><path d="M1994 1640 1946.49 1731 1792 1731 1815.6 1672.84C1823.57 1652.82 1842.88 1640 1863.73 1640L1994 1640Z" fill="#393D47" fill-rule="evenodd"/><path d="M1905 1687.5C1905 1707.66 1889.11 1724 1869.5 1724 1849.89 1724 1834 1707.66 1834 1687.5 1834 1667.34 1849.89 1651 1869.5 1651 1889.11 1651 1905 1667.34 1905 1687.5Z" fill="#DEDEDF" fill-rule="evenodd"/><path d="M1913 1178C1913 1178 2036.2 1205.81 2090 1361.12L2030.08 1493 1988.2 1461.75 2046.9 1358C2046.9 1357.69 2027.03 1267.69 1913 1178Z" fill="#D7E2F2" fill-rule="evenodd"/><path d="M2030 1492.51C2030 1492.51 1746.07 1513.86 1726.73 1492.51 1707.09 1471.17 1726.73 1447 1726.73 1447L1987.95 1461.44 2030 1492.51Z" fill="#D7E2F2" fill-rule="evenodd"/><path d="M2998.85 1318 3055 1447.6 2800.66 1462 2735 1357.76Z" fill="#8FA3C1" fill-rule="evenodd"/><path d="M2999 1318 2999 1450 3055 1446.89Z" fill="#F8B517" fill-rule="evenodd"/><path d="M2990 1388.5C2990 1417.5 2966.94 1441 2938.5 1441 2910.06 1441 2887 1417.5 2887 1388.5 2887 1359.51 2910.06 1336 2938.5 1336 2966.94 1336 2990 1359.51 2990 1388.5Z" fill="#FFFFFC" fill-rule="evenodd"/><path d="M2877 1403C2877 1426.2 2858.42 1445 2835.5 1445 2812.58 1445 2794 1426.2 2794 1403 2794 1379.8 2812.58 1361 2835.5 1361 2858.42 1361 2877 1379.8 2877 1403Z" fill="#FFFFFC" fill-rule="evenodd"/><path d="M2788 1640 2835.58 1731 2990 1731 2966.36 1672.84C2958.38 1652.82 2939.04 1640 2918.16 1640L2788 1640Z" fill="#393D47" fill-rule="evenodd"/><path d="M2948 1687.5C2948 1707.66 2932.11 1724 2912.5 1724 2892.89 1724 2877 1707.66 2877 1687.5 2877 1667.34 2892.89 1651 2912.5 1651 2932.11 1651 2948 1667.34 2948 1687.5Z" fill="#DEDEDF" fill-rule="evenodd"/><path d="M2870 1178C2870 1178 2746.11 1205.81 2692 1361.12L2752.26 1493 2794.37 1461.75 2735.35 1358C2735.35 1357.69 2755.33 1267.69 2870 1178Z" fill="#D7E2F2" fill-rule="evenodd"/><path d="M2753.96 1507.03C2737.08 1459.48 2695.34 1367.83 2672.01 1360.95 2660.35 1357.51 2525.92 1350 2391.49 1350 2257.06 1350 2122.63 1357.82 2110.97 1360.95 2087.64 1367.83 2045.9 1459.48 2029.02 1507.03 2012.14 1554.58 2053.88 1553.95 2053.88 1553.95L2729.4 1553.95C2729.4 1554.26 2770.84 1554.58 2753.96 1507.03Z" fill="#393D47" fill-rule="evenodd"/><path d="M2691.85 1661 2090.46 1661C2090.46 1661 2042.59 1661.94 2007 1732L2775 1732C2739.71 1661.94 2691.85 1661 2691.85 1661Z" fill="#393D47" fill-rule="evenodd"/><path d="M2757.57 1758 2024.43 1758 2010 1791 2772 1791Z" fill="#393D47" fill-rule="evenodd"/><path d="M2787.77 920.311C2753.71 909.039 2572.35 889 2391 889 2209.65 889 2028.29 909.039 1994.23 920.311 1994.23 920.311 1896.65 1061.21 1854 1178L2928 1178C2885.35 1061.21 2787.77 920.311 2787.77 920.311Z" fill="#4485C5" fill-rule="evenodd"/><path d="M2752 1492.51C2752 1492.51 3035.93 1513.86 3055.27 1492.51 3074.91 1471.17 3055.27 1447 3055.27 1447L2794.05 1461.44 2752 1492.51Z" fill="#D7E2F2" fill-rule="evenodd"/></g></svg>