<svg width="1703" height="1703" xmlns="http://www.w3.org/2000/svg" xmlns:xlink="http://www.w3.org/1999/xlink" xml:space="preserve" overflow="hidden"><defs><clipPath id="clip0"><rect x="1433" y="543" width="1703" height="1703"/></clipPath></defs><g clip-path="url(#clip0)" transform="translate(-1433 -543)"><path d="M1440 1394.5C1440 928.095 1818.1 550 2284.5 550 2750.9 550 3129 928.095 3129 1394.5 3129 1860.9 2750.9 2239 2284.5 2239 1818.1 2239 1440 1860.9 1440 1394.5Z" stroke="#000000" stroke-width="13.75" stroke-miterlimit="8" fill="#C6E0B4" fill-rule="evenodd"/><path d="M1728.41 1086.6 1728.41 1053.27C1728.41 1040.38 1718.29 1030 1705.71 1030L1616.77 1030C1589.78 1030 1568 1052.33 1568 1080 1568 1107.67 1589.78 1130 1616.77 1130L1760 1130 1760 1086.29 1728.41 1086.29 1728.41 1086.6Z" fill="#AFABAB" fill-rule="evenodd"/><path d="M2846.59 1086.6 2846.59 1053.27C2846.59 1040.38 2856.71 1030 2869.29 1030L2958.23 1030C2985.22 1030 3007 1052.33 3007 1080 3007 1107.67 2985.22 1130 2958.23 1130L2815 1130 2815 1086.29 2846.59 1086.29 2846.59 1086.6Z" fill="#AFABAB" fill-rule="evenodd"/><path d="M1623 1545 1623 1851.45C1623 1866.79 1634.95 1879 1649.96 1879L1774.04 1879C1789.05 1879 1801 1866.79 1801 1851.45L1801 1545 1623 1545Z" fill="#333842" fill-rule="evenodd"/><path d="M2952 1545 2952 1851.45C2952 1866.79 2939.98 1879 2924.89 1879L2800.11 1879C2785.02 1879 2773 1866.79 2773 1851.45L2773 1545 2952 1545Z" fill="#333842" fill-rule="evenodd"/><path d="M2912.06 1162.87 2857.42 1135.05C2857.42 1135.05 2745.36 891.527 2702.99 854.328 2681.81 835.884 2484.71 809 2287.31 809 2090.21 809 1892.8 835.884 1871.62 854.328 1829.25 891.215 1717.2 1135.05 1717.2 1135.05L1662.55 1162.87 1599 1286.35 1636.76 1699.61C1639.22 1727.74 1662.55 1749 1689.87 1749L2884.13 1749C2911.76 1749 2934.78 1727.74 2937.24 1699.61L2975 1286.35 2912.06 1162.87Z" fill="#AFABAB" fill-rule="evenodd"/><path d="M1679.15 1275 1623 1404.6 1877.34 1419 1943 1314.76Z" fill="#8FA3C1" fill-rule="evenodd"/><path d="M1679 1275 1679 1408 1623 1404.86Z" fill="#F8B517" fill-rule="evenodd"/><path d="M1792 1345.5C1792 1374.5 1768.72 1398 1740 1398 1711.28 1398 1688 1374.5 1688 1345.5 1688 1316.5 1711.28 1293 1740 1293 1768.72 1293 1792 1316.5 1792 1345.5Z" fill="#FFFFFC" fill-rule="evenodd"/><path d="M1884 1360.5C1884 1383.97 1865.42 1403 1842.5 1403 1819.58 1403 1801 1383.97 1801 1360.5 1801 1337.03 1819.58 1318 1842.5 1318 1865.42 1318 1884 1337.03 1884 1360.5Z" fill="#FFFFFC" fill-rule="evenodd"/><path d="M1890 1598 1842.49 1689 1688 1689 1711.6 1630.84C1719.57 1610.82 1738.88 1598 1759.73 1598L1890 1598Z" fill="#393D47" fill-rule="evenodd"/><path d="M1801 1645C1801 1664.88 1785.11 1681 1765.5 1681 1745.89 1681 1730 1664.88 1730 1645 1730 1625.12 1745.89 1609 1765.5 1609 1785.11 1609 1801 1625.12 1801 1645Z" fill="#DEDEDF" fill-rule="evenodd"/><path d="M1809 1135C1809 1135 1932.2 1162.81 1986 1318.12L1926.08 1450 1884.2 1418.75 1942.9 1315C1942.9 1314.69 1923.03 1224.69 1809 1135Z" fill="#767171" fill-rule="evenodd"/><path d="M1926 1450.51C1926 1450.51 1642.07 1471.86 1622.73 1450.51 1603.09 1429.17 1622.73 1405 1622.73 1405L1883.95 1419.44 1926 1450.51Z" fill="#767171" fill-rule="evenodd"/><path d="M2895.68 1275 2952 1404.6 2696.86 1419 2631 1314.76Z" fill="#8FA3C1" fill-rule="evenodd"/><path d="M2895 1275 2895 1408 2952 1404.86Z" fill="#F8B517" fill-rule="evenodd"/><path d="M2886 1345.5C2886 1374.5 2862.94 1398 2834.5 1398 2806.06 1398 2783 1374.5 2783 1345.5 2783 1316.5 2806.06 1293 2834.5 1293 2862.94 1293 2886 1316.5 2886 1345.5Z" fill="#FFFFFC" fill-rule="evenodd"/><path d="M2773 1360.5C2773 1383.97 2754.42 1403 2731.5 1403 2708.58 1403 2690 1383.97 2690 1360.5 2690 1337.03 2708.58 1318 2731.5 1318 2754.42 1318 2773 1337.03 2773 1360.5Z" fill="#FFFFFC" fill-rule="evenodd"/><path d="M2684 1598 2731.58 1689 2886 1689 2862.36 1630.84C2854.38 1610.82 2835.04 1598 2814.16 1598L2684 1598Z" fill="#393D47" fill-rule="evenodd"/><path d="M2844 1645C2844 1664.88 2828.11 1681 2808.5 1681 2788.89 1681 2773 1664.88 2773 1645 2773 1625.12 2788.89 1609 2808.5 1609 2828.11 1609 2844 1625.12 2844 1645Z" fill="#DEDEDF" fill-rule="evenodd"/><path d="M2766 1135C2766 1135 2642.11 1162.81 2588 1318.12L2648.26 1450 2690.37 1418.75 2631.35 1315C2631.35 1314.69 2651.33 1224.69 2766 1135Z" fill="#7F7F7F" fill-rule="evenodd"/><path d="M2649.96 1464.03C2633.08 1416.48 2591.34 1324.83 2568.01 1317.95 2556.35 1314.51 2421.92 1307 2287.49 1307 2153.06 1307 2018.63 1314.82 2006.97 1317.95 1983.64 1324.83 1941.9 1416.48 1925.02 1464.03 1908.14 1511.58 1949.88 1510.95 1949.88 1510.95L2625.4 1510.95C2625.4 1511.26 2666.84 1511.58 2649.96 1464.03Z" fill="#393D47" fill-rule="evenodd"/><path d="M2587.85 1619 1986.46 1619C1986.46 1619 1938.59 1619.93 1903 1689L2671 1689C2635.71 1619.93 2587.85 1619 2587.85 1619Z" fill="#393D47" fill-rule="evenodd"/><path d="M2653.57 1716 1920.43 1716 1906 1749 2668 1749Z" fill="#393D47" fill-rule="evenodd"/><path d="M2683.77 878.203C2649.71 866.97 2468.35 847 2287 847 2105.65 847 1924.29 866.97 1890.23 878.203 1890.23 878.203 1792.65 1018.61 1750 1135L2824 1135C2781.35 1018.61 2683.77 878.203 2683.77 878.203Z" fill="#2F5597" fill-rule="evenodd"/><path d="M2648 1450.51C2648 1450.51 2931.93 1471.86 2951.27 1450.51 2970.91 1429.17 2951.27 1405 2951.27 1405L2690.05 1419.44 2648 1450.51Z" fill="#7F7F7F" fill-rule="evenodd"/></g></svg>