<svg width="1703" height="1703" xmlns="http://www.w3.org/2000/svg" xmlns:xlink="http://www.w3.org/1999/xlink" xml:space="preserve" overflow="hidden"><defs><clipPath id="clip0"><rect x="1713" y="521" width="1703" height="1703"/></clipPath></defs><g clip-path="url(#clip0)" transform="translate(-1713 -521)"><path d="M1720 1372.5C1720 906.095 2098.1 528 2564.5 528 3030.9 528 3409 906.095 3409 1372.5 3409 1838.9 3030.9 2217 2564.5 2217 2098.1 2217 1720 1838.9 1720 1372.5Z" stroke="#000000" stroke-width="13.75" stroke-miterlimit="8" fill="#FF0000" fill-rule="evenodd"/><path d="M2820.8 805.907C2821.56 808.719 2821.83 811.719 2821.58 814.907 2820.28 814.907 2818.97 814.907 2817.67 814.907 2818.51 814.066 2819.55 813.766 2820.8 814.007 2820.8 811.307 2820.8 808.607 2820.8 805.907Z" fill="#848485" fill-rule="evenodd"/><path d="M1050.06 1041.02C978.98 1035.85 923.93 1010.32 891.237 967.574 871.41 941.673 863.606 922.059 851.583 869.151 846.31 845.47 842.303 829.746 830.702 785.898 822.055 753.893 815.094 727.067 809.61 706.346 807.079 696.726 803.704 683.405 802.017 676.745 800.329 670.085 798.431 662.87 797.798 660.465 796.955 656.95 785.987 648.994 781.98 648.994 780.292 648.994 777.55 666.57 771.645 714.671 767.636 746.678 766.793 750.378 761.52 757.038 753.294 767.583 723.554 788.674 709.211 794.595 676.519 807.729 655.215 799.219 636.866 765.733 621.89 738.352 618.304 710.972 627.163 692.101 632.647 680.815 638.131 677.115 657.535 672.12 675.675 667.31 701.829 660.279 744.857 648.81L767.426 642.704 749.708 628.274C728.195 610.883 713.851 592.382 705.415 571.292L699.087 555.566 698.033 480.639 696.767 405.711 681.792 432.538C673.566 447.338 662.809 466.949 657.747 476.014 652.896 485.263 644.67 500.249 639.818 509.315 634.757 518.565 624 538.546 615.562 553.716 607.337 569.072 599.321 583.503 598.056 586.093 596.79 588.683 595.736 597.378 595.736 605.518 595.525 622.908 591.306 629.939 577.175 636.229 569.581 639.744 567.472 642.149 555.449 664.35 519.804 730.212 516.218 737.983 514.953 752.042L513.687 763.328 520.859 766.473C526.765 769.248 529.296 769.433 538.366 767.583 554.606 764.253 572.534 752.042 581.815 737.983 583.291 735.762 584.557 735.762 590.041 737.797 593.627 739.092 596.58 740.387 596.58 740.757 596.58 743.717 582.448 760.368 575.909 764.993 550.81 782.569 523.812 786.639 507.782 774.983 501.876 770.728 500.821 768.508 499.977 759.628 499.133 749.822 502.508 731.692 505.883 727.622 506.727 726.696 508.204 723.736 509.048 721.332 509.891 718.926 515.796 707.271 522.124 695.43 549.333 644.924 552.286 639.374 552.286 638.264 552.286 637.524 549.123 634.379 545.326 631.048 541.74 627.904 535.412 618.653 531.405 610.698 521.069 590.347 512.843 574.252 505.461 559.821 498.291 545.761 502.086 547.056 456.317 543.541 442.396 542.431 421.936 540.766 410.969 539.841 400.001 538.916 383.338 537.621 374.058 537.065 328.92 533.921 316.687 529.111 305.087 509.315 302.555 505.245 298.547 499.51 296.016 496.364 288.212 487.299 283.361 475.828 263.324 419.587 258.472 405.896 250.458 383.326 245.395 369.635 240.333 355.945 232.318 333.374 227.467 319.683 222.616 305.994 217.343 291.008 215.444 286.383 213.336 280.833 212.703 272.507 213.124 261.407 213.968 237.356 213.336 169.644 212.07 168.534 211.437 168.163 194.564 165.759 174.315 163.354 3.2576 143.003 17.1785 145.593 6.84332 133.568-7.71018 116.917 1.99215 94.9011 27.3026 87.8711 31.5211 86.5762 219.031 91.5716 252.145 93.6059 272.604 95.0864 277.034 95.8268 284.205 100.082 297.915 108.037 300.656 115.067 306.774 157.803 307.406 162.983 308.672 167.609 309.304 168.349 310.992 169.644 384.603 94.5317 384.603 91.386 384.603 90.4611 378.487 88.4259 370.893 87.1312 344.74 82.8759 285.682 73.0705 212.703 61.2303 188.025 57.16 178.744 53.0901 172.628 43.6548 162.293 27.5591 169.675 8.50357 188.657 2.21328 196.461-0.376762 200.469-0.561685 218.397 1.28844 334.193 12.9437 423.624 21.8241 445.56 23.8591 485.002 27.3742 494.704 30.1494 504.407 40.1397 516.43 52.7201 517.273 70.8506 506.727 85.2811 503.352 89.9064 493.017 102.672 483.947 113.771 462.645 139.303 442.818 163.354 437.334 169.829 435.014 172.604 427.421 181.854 420.46 190.18 413.5 198.505 406.539 206.83 404.852 208.865 402.532 211.825 402.743 213.12 406.329 218.3 408.648 221.631 414.554 235.321 419.405 248.456 424.256 261.776 429.319 275.837 431.006 279.908 432.483 283.977 438.178 299.888 443.662 315.059 449.145 330.414 455.895 349.1 458.636 356.685 461.379 364.27 463.699 371.301 463.699 372.41 463.699 373.52 464.964 376.11 466.652 377.96 469.394 381.476 470.449 380.736 486.268 366.675 503.774 350.765 500.399 352.43 547.013 337.074 607.337 317.279 670.823 296.558 687.275 291.193 698.243 287.678 708.79 284.347 710.898 283.607 712.797 282.868 718.07 277.132 722.921 270.842 733.257 256.782 754.138 239.206 772.699 228.846L786.197 221.445 786.831 147.998 787.463 74.5508 794.635 62.8953C824.374 14.7939 921.187-5.55684 997.54 20.1591 1027.7 30.3343 1049.85 46.2449 1061.03 66.2255 1065.67 74.3657 1065.88 76.5859 1066.51 137.083L1067.15 199.43 1193.7 199.43 1320.04 199.43 1320.04 285.458 1320.04 371.485 1237.36 371.855 1154.47 372.41 1154.47 395.536 1154.47 418.662 1237.36 419.217 1320.04 419.587 1320.04 426.062 1320.04 432.538 1238.84 432.538 1157.63 432.538 1157.63 455.663 1157.63 478.788 1238.84 478.788 1320.04 478.788 1320.04 581.467 1320.04 684.145 1082.75 684.145C850.107 684.145 845.466 684.145 845.466 687.66 845.466 689.696 858.755 737.797 874.996 794.779 891.237 851.761 904.524 899.31 904.524 900.598 904.524 906.704 918.656 932.605 928.991 945.006 951.771 972.941 985.097 992.916 1026.02 1003.28L1044.16 1007.9 1182.1 1007.9 1320.04 1007.9 1320.04 1025.48 1320.04 1043.06 1195.17 1042.87C1126.41 1042.69 1061.03 1041.94 1050.06 1041.02ZM601.22 549.646C607.758 537.621 618.515 517.825 625.054 505.615 631.804 493.404 641.295 476.014 646.146 466.763 651.208 457.698 661.122 439.383 668.293 426.062 697.822 371.855 697.822 371.855 697.822 361.495 697.822 356.13 697.4 351.32 696.767 350.765 696.134 350.395 685.589 354.28 673.144 359.46 660.489 364.825 634.757 375.74 615.562 383.696 545.958 412.927 554.606 407.561 524.444 440.863 509.468 456.958 498.291 471.018 499.133 471.759 499.977 472.499 509.048 474.533 519.382 476.014 541.107 479.344 551.02 482.673 556.715 488.409 562.621 494.33 564.309 498.585 572.534 526.891 583.081 562.597 586.033 571.292 587.932 571.292 588.776 571.292 594.681 561.486 601.22 549.646ZM1091.19 428.837 1091.19 376.11 964.637 376.11 838.084 376.11 837.451 426.987C837.241 454.923 837.451 478.788 838.084 480.084 838.717 482.119 864.661 482.489 965.059 482.119L1091.19 481.564 1091.19 428.837Z" fill-rule="evenodd" transform="matrix(1 0 0 -1 1828 1851)"/><path d="M96.0043 195.722C73.8589 192.765 48.7607 181.677 33.3635 168.555 11.0067 149.151 0.0396785 126.049 0.0396785 98.1434 0.0396785 54.7128 27.2477 20.5241 74.2809 4.26094 89.8885-1.09899 128.485-1.46867 146.624 3.52159 180.158 12.9468 205.89 34.7542 218.755 65.063 223.184 75.5964 224.028 80.7711 224.028 97.0341 224.239 117.733 221.708 126.789 211.373 144.714 194.501 173.915 158.224 194.059 119.416 195.722 109.925 196.091 99.5904 196.091 96.0043 195.722Z" fill-rule="evenodd" transform="matrix(1 0 0 -1 2098 1305)"/></g></svg>