<svg width="1699" height="1699" xmlns="http://www.w3.org/2000/svg" xmlns:xlink="http://www.w3.org/1999/xlink" xml:space="preserve" overflow="hidden"><defs><clipPath id="clip0"><rect x="1339" y="418" width="1699" height="1699"/></clipPath><clipPath id="clip1"><rect x="1494" y="686" width="1287" height="1164"/></clipPath><clipPath id="clip2"><rect x="1494" y="686" width="1287" height="1164"/></clipPath><clipPath id="clip3"><rect x="1494" y="686" width="1287" height="1164"/></clipPath></defs><g clip-path="url(#clip0)" transform="translate(-1339 -418)"><path d="M1344 1267.5C1344 801.096 1722.1 423 2188.5 423 2654.9 423 3033 801.096 3033 1267.5 3033 1733.9 2654.9 2112 2188.5 2112 1722.1 2112 1344 1733.9 1344 1267.5Z" stroke="#000000" stroke-width="10.3125" stroke-miterlimit="8" fill="#C6E0B4" fill-rule="evenodd"/><path d="M2462.13 686C2462.89 689.125 2463.16 692.458 2462.91 696 2461.61 696 2460.3 696 2459 696 2459.84 695.066 2460.88 694.732 2462.13 695 2462.13 692 2462.13 689 2462.13 686Z" fill="#848485" fill-rule="evenodd"/><g clip-path="url(#clip1)"><g clip-path="url(#clip2)"><g clip-path="url(#clip3)"><path d="M1023.05 1158.43C953.818 1152.68 900.2 1124.33 868.358 1076.87 849.048 1048.11 841.447 1026.33 829.737 967.581 824.601 941.286 820.698 923.825 809.399 875.137 800.977 839.598 794.197 809.81 788.856 786.802 786.391 776.119 783.104 761.328 781.461 753.933 779.817 746.537 777.968 738.526 777.352 735.855 776.53 731.952 765.848 723.118 761.945 723.118 760.301 723.118 757.631 742.634 751.879 796.046 747.975 831.586 747.154 835.695 742.018 843.09 734.006 854.8 705.04 878.219 691.071 884.793 659.229 899.378 638.48 889.928 620.608 852.745 606.022 822.341 602.53 791.938 611.158 770.984 616.499 758.452 621.841 754.344 640.74 748.797 658.407 743.456 683.881 735.649 725.789 722.913L747.77 716.133 730.514 700.11C709.56 680.799 695.59 660.256 687.373 636.837L681.21 619.375 680.183 536.176 678.95 452.976 664.365 482.764C656.353 499.198 645.876 520.974 640.946 531.04 636.221 541.311 628.209 557.951 623.484 568.018 618.554 578.289 608.077 600.476 599.859 617.321 591.848 634.372 584.041 650.396 582.809 653.272 581.576 656.148 580.549 665.803 580.549 674.842 580.343 694.152 576.235 701.959 562.471 708.943 555.075 712.847 553.021 715.517 541.311 740.169 506.594 813.302 503.101 821.931 501.869 837.543L500.636 850.075 507.621 853.567C513.373 856.648 515.838 856.854 524.672 854.8 540.49 851.102 557.951 837.543 566.99 821.931 568.428 819.465 569.661 819.465 575.002 821.725 578.495 823.163 581.371 824.601 581.371 825.012 581.371 828.299 567.607 846.788 561.238 851.924 536.792 871.44 510.497 875.959 494.884 863.017 489.132 858.292 488.105 855.827 487.283 845.966 486.461 835.078 489.748 814.946 493.035 810.426 493.857 809.399 495.295 806.112 496.117 803.442 496.938 800.771 502.69 787.829 508.853 774.681 535.354 718.599 538.23 712.436 538.23 711.203 538.23 710.381 535.149 706.889 531.451 703.191 527.958 699.699 521.795 689.427 517.892 680.594 507.826 657.996 499.814 640.124 492.624 624.1 485.64 608.487 489.337 609.926 444.759 606.022 431.2 604.79 411.273 602.941 400.591 601.914 389.909 600.887 373.68 599.449 364.641 598.832 320.678 595.34 308.763 589.999 297.465 568.018 294.999 563.498 291.096 557.13 288.631 553.637 281.03 543.571 276.305 530.834 256.789 468.383 252.064 453.181 244.258 428.119 239.327 412.917 234.397 397.715 226.591 372.652 221.866 357.45 217.141 342.249 212.005 325.609 210.156 320.473 208.102 314.31 207.486 305.065 207.896 292.74 208.718 266.034 208.102 190.846 206.869 189.613 206.253 189.202 189.819 186.532 170.097 183.861 3.49233 161.264 17.0508 164.14 6.98466 150.787-7.1901 132.298 2.25974 107.851 26.9115 100.045 31.0201 98.607 213.649 104.154 245.901 106.413 265.828 108.057 270.142 108.879 277.127 113.604 290.48 122.437 293.15 130.243 299.108 177.698 299.724 183.45 300.957 188.586 301.573 189.408 303.217 190.846 374.912 107.441 374.912 103.948 374.912 102.921 368.955 100.661 361.559 99.2233 336.086 94.4984 278.565 83.6105 207.486 70.4629 183.45 65.9434 174.411 61.424 168.454 50.947 158.388 33.0744 165.578 11.915 184.066 4.93035 191.667 2.05431 195.571 1.84888 213.032 3.90319 325.814 16.8454 412.917 26.7061 434.282 28.9658 472.697 32.869 482.147 35.9505 491.597 47.0438 503.307 61.0131 504.128 81.1454 493.857 97.169 490.57 102.305 480.504 116.48 471.67 128.805 450.922 157.155 431.611 183.861 426.27 191.051 424.01 194.133 416.615 204.404 409.835 213.649 403.056 222.893 396.277 232.137 394.634 234.397 392.374 237.684 392.579 239.122 396.072 244.874 398.331 248.572 404.083 263.774 408.808 278.359 413.533 293.15 418.464 308.763 420.107 313.283 421.545 317.802 427.092 335.469 432.433 352.315 437.774 369.365 444.348 390.114 447.018 398.537 449.689 406.959 451.949 414.766 451.949 415.998 451.949 417.231 453.181 420.107 454.825 422.161 457.496 426.065 458.523 425.243 473.93 409.63 490.981 391.963 487.694 393.812 533.094 376.761 591.848 354.78 653.682 331.772 669.706 325.814 680.388 321.911 690.66 318.213 692.714 317.391 694.563 316.57 699.699 310.201 704.424 303.217 714.49 287.604 734.828 268.088 752.906 256.584L766.053 248.366 766.67 166.81 767.286 85.254 774.271 72.3118C803.236 18.8997 897.529-3.69776 971.895 24.8572 1001.27 36.1559 1022.84 53.823 1033.73 76.0096 1038.25 85.0486 1038.46 87.5137 1039.07 154.69L1039.69 223.92 1162.95 223.92 1286 223.92 1286 319.446 1286 414.971 1205.47 415.382 1124.74 415.998 1124.74 441.677 1124.74 467.356 1205.47 467.973 1286 468.383 1286 475.573 1286 482.764 1206.91 482.764 1127.82 482.764 1127.82 508.442 1127.82 534.121 1206.91 534.121 1286 534.121 1286 648.136 1286 762.15 1054.89 762.15C828.299 762.15 823.779 762.15 823.779 766.053 823.779 768.313 836.722 821.725 852.54 884.998 868.358 948.271 881.3 1001.07 881.3 1002.5 881.3 1009.28 895.064 1038.04 905.13 1051.81 927.317 1082.83 959.775 1105.01 999.629 1116.52L1017.3 1121.65 1151.65 1121.65 1286 1121.65 1286 1141.17 1286 1160.69 1164.38 1160.48C1097.41 1160.28 1033.73 1159.45 1023.05 1158.43ZM585.89 612.802C592.258 599.449 602.735 577.467 609.104 563.909 615.678 550.35 624.922 531.04 629.647 520.768 634.577 510.702 644.233 490.365 651.217 475.573 679.978 415.382 679.978 415.382 679.978 403.878 679.978 397.92 679.567 392.579 678.95 391.963 678.334 391.552 668.063 395.866 655.942 401.618 643.616 407.576 618.554 419.696 599.859 428.53 532.067 460.988 540.49 455.03 511.113 492.008 496.527 509.88 485.64 525.493 486.461 526.315 487.283 527.137 496.117 529.396 506.183 531.04 527.342 534.738 536.997 538.435 542.544 544.804 548.296 551.378 549.94 556.103 557.951 587.534 568.223 627.182 571.099 636.837 572.948 636.837 573.77 636.837 579.522 625.949 585.89 612.802ZM1063.11 478.655 1063.11 420.107 939.848 420.107 816.589 420.107 815.973 476.601C815.768 507.621 815.973 534.121 816.589 535.559 817.206 537.819 842.474 538.23 940.259 537.819L1063.11 537.203 1063.11 478.655Z" transform="matrix(1 0 0 -1.00018 1495 1848.98)"/><path d="M356.423 826.656C334.853 823.369 310.407 811.043 295.41 796.457 273.634 774.887 262.952 749.208 262.952 718.188 262.952 669.911 289.453 631.907 335.264 613.829 350.466 607.871 388.06 607.46 405.727 613.007 438.39 623.484 463.453 647.725 475.984 681.416 480.298 693.125 481.12 698.877 481.12 716.955 481.326 739.964 478.86 750.03 468.794 769.956 452.36 802.415 417.026 824.807 379.226 826.656 369.982 827.066 359.916 827.066 356.423 826.656Z" transform="matrix(1 0 0 -1.00018 1495 1848.98)"/></g></g></g></g></svg>