<svg width="1721" height="1703" xmlns="http://www.w3.org/2000/svg" xmlns:xlink="http://www.w3.org/1999/xlink" xml:space="preserve" overflow="hidden"><defs><clipPath id="clip0"><rect x="1522" y="590" width="1721" height="1703"/></clipPath><clipPath id="clip1"><rect x="1522" y="882" width="1050" height="1049"/></clipPath><clipPath id="clip2"><rect x="1522" y="882" width="1050" height="1049"/></clipPath><clipPath id="clip3"><rect x="1522" y="882" width="1050" height="1049"/></clipPath></defs><g clip-path="url(#clip0)" transform="translate(-1522 -590)"><path d="M1547 1441.5C1547 975.096 1925.1 597 2391.5 597 2857.9 597 3236 975.096 3236 1441.5 3236 1907.9 2857.9 2286 2391.5 2286 1925.1 2286 1547 1907.9 1547 1441.5Z" stroke="#000000" stroke-width="13.75" stroke-miterlimit="8" fill="#FF0000" fill-rule="evenodd"/><g clip-path="url(#clip1)"><g clip-path="url(#clip2)"><g clip-path="url(#clip3)"><path d="M655.625 273.177C655.625 315.421 621.379 349.667 579.135 349.667 536.891 349.667 502.646 315.421 502.646 273.177 502.646 230.933 536.891 196.687 579.135 196.687 621.379 196.687 655.625 230.933 655.625 273.177Z" transform="matrix(1.00095 0 0 1 1522 882)"/><path d="M393.375 732.114C393.375 798.498 339.56 852.312 273.177 852.312 206.794 852.312 152.979 798.498 152.979 732.114 152.979 665.731 206.794 611.917 273.177 611.917 339.56 611.917 393.375 665.731 393.375 732.114Z" transform="matrix(1.00095 0 0 1 1522 882)"/><path d="M896.021 732.114C896.021 798.498 842.206 852.312 775.823 852.312 709.439 852.312 655.625 798.498 655.625 732.114 655.625 665.731 709.439 611.917 775.823 611.917 842.206 611.917 896.021 665.731 896.021 732.114Z" transform="matrix(1.00095 0 0 1 1522 882)"/><path d="M559.467 533.242 504.831 527.778 556.188 439.269 673.108 502.646C672.016 503.738 672.016 504.831 670.923 505.924L579.135 557.281 579.135 555.096C579.135 544.169 570.394 534.334 559.467 533.242ZM775.823 579.135C796.584 579.135 816.253 583.506 833.736 591.155 844.663 571.486 852.312 548.539 852.312 524.5 852.312 452.381 793.306 393.375 721.187 393.375 705.889 393.375 691.684 396.653 677.479 401.024 682.943 411.951 686.221 423.971 687.313 437.083L539.798 356.223C537.612 355.13 535.427 354.037 533.242 354.037 508.109 344.203 479.699 352.945 465.494 376.984L389.004 508.109C387.911 510.295 386.819 513.573 385.726 515.758L152.979 491.719 152.979 535.427 316.885 585.692C380.262 604.268 426.156 663.274 426.156 732.114 426.156 747.412 423.971 761.617 419.6 775.823L629.4 775.823C625.029 761.617 622.844 747.412 622.844 732.114 622.844 647.976 691.684 579.135 775.823 579.135Z" transform="matrix(1.00095 0 0 1 1522 882)"/></g></g></g><path d="M162 74.9999C162 116.421 125.735 150 81 150 36.2649 150 0 116.421 0 74.9999 0 33.5785 36.2649 0 81 0 125.735 0 162 33.5785 162 74.9999Z" fill-rule="evenodd" transform="matrix(-1 0 0 1 2818 1033)"/><path d="M610 113.015C610 95.2554 595.703 80.7248 578.229 80.7248L508.333 80.7248 389.987 4.84368C385.221 1.61456 379.661 0 373.308 0L238.281 0C226.367 0 216.042 6.45778 210.482 16.9522L158.854 113.822C150.117 129.16 156.471 149.341 171.563 157.413 176.328 159.835 181.888 161.45 186.654 161.45 197.774 161.45 208.893 154.991 214.453 144.497L257.344 64.5796 304.206 64.5796 163.62 330.971 31.7708 330.971C14.2967 330.971 0 345.502 0 363.261 0 381.021 14.2967 395.551 31.7708 395.551L182.682 395.551C194.597 395.551 204.922 389.093 210.482 378.599L265.286 275.271 371.719 389.9 350.274 519.06C347.097 536.819 359.01 552.964 376.484 556.193 378.073 556.193 379.661 557 382.044 557 397.135 557 410.638 545.699 413.021 530.361L436.849 385.057C438.438 375.37 435.261 364.875 428.906 357.611L332.799 253.475 415.404 96.8695 482.123 139.654C486.888 142.883 493.242 144.497 498.802 144.497L578.229 144.497C595.703 145.304 610 130.774 610 113.015Z" fill-rule="evenodd" transform="matrix(-1 0 0 1 3172 1175)"/><path d="M2634.13 1222.85C2637.08 1228.01 2634.87 1232.67 2627.24 1238.57 2624.78 1240.54 2624.53 1242.75 2626.5 1247.91 2630.19 1257.49 2630.19 1257.49 2621.09 1257 2605.09 1256.02 2601.4 1257.24 2593.28 1265.35 2586.14 1272.48 2584.91 1275.42 2584.91 1285.01 2584.91 1297.29 2589.84 1306.87 2598.2 1311.79 2601.15 1313.26 2613.21 1315.72 2625.27 1317.19L2647.17 1319.65 2661.44 1368.79C2669.31 1395.82 2675.71 1419.65 2675.96 1421.86 2676.2 1430.46 2667.84 1433.9 2646.92 1433.9L2626.75 1433.9 2629.45 1427.51C2631.67 1421.12 2631.17 1416.21 2626.99 1405.64 2624.53 1399.75 2619.86 1382.55 2616.66 1367.56 2615.43 1361.66 2613.21 1355.52 2611.98 1354.29 2610.5 1352.82 2609.52 1348.89 2609.52 1344.96 2609.52 1334.39 2604.6 1326.28 2595.25 1321.86 2586.88 1317.93 2585.65 1318.18 2561.29 1324.56 2542.1 1329.72 2533.24 1330.95 2524.63 1329.72 2496.82 1325.55 2478.86 1310.8 2475.91 1289.92L2474.92 1282.8 2424.72 1282.06C2389.29 1281.57 2374.03 1280.34 2372.8 1278.37 2371.82 1276.65 2370.84 1269.77 2370.84 1262.89 2370.84 1252.33 2370.1 1249.87 2365.91 1248.89 2361.98 1247.91 2360.99 1245.45 2360.99 1237.83 2360.99 1219.16 2357.79 1220.14 2418.57 1220.14L2472.95 1220.14 2477.87 1233.17C2481.57 1242.99 2484.03 1246.19 2488.7 1246.68 2494.12 1247.66 2494.36 1246.92 2493.13 1239.31 2492.39 1234.88 2490.92 1228.74 2489.93 1225.55 2488.7 1221.13 2489.44 1220.14 2493.38 1220.14 2497.07 1220.14 2499.77 1223.58 2503.96 1233.66 2507.9 1243.24 2510.85 1247.17 2514.05 1247.17 2520.69 1247.17 2521.92 1241.03 2517.49 1229.97 2513.55 1220.14 2513.55 1220.14 2519.46 1220.14 2524.14 1220.14 2526.1 1222.35 2529.79 1232.92 2533.24 1242.5 2535.95 1246.19 2539.64 1246.68 2546.77 1247.66 2548.5 1241.76 2544.31 1231.45 2539.64 1220.14 2539.64 1219.65 2545.79 1220.63 2549.48 1221.13 2552.68 1225.06 2556.37 1234.15 2560.55 1244.47 2562.77 1247.17 2566.95 1247.17 2573.59 1247.17 2574.33 1241.27 2569.17 1228.74L2565.48 1220.14 2586.88 1220.14C2598.69 1220.14 2609.77 1221.13 2611.74 1222.35 2614.2 1223.83 2617.15 1223.58 2620.35 1221.13 2627.24 1216.46 2630.93 1216.7 2634.13 1222.85ZM2527.09 1296.06C2522.91 1308.59 2517 1313.75 2514.29 1307.12 2513.55 1304.91 2514.05 1299.5 2515.52 1295.33 2520.44 1281.81 2519.95 1281.32 2502.48 1282.06 2486.98 1282.8 2486.49 1283.04 2486.49 1289.18 2486.49 1304.42 2507.16 1318.18 2532.5 1320.39 2550.46 1321.86 2550.46 1321.62 2543.08 1300.24 2535.21 1277.39 2533.49 1276.9 2527.09 1296.06Z" fill-rule="evenodd"/></g></svg>