<svg width="1793" height="1754" xmlns="http://www.w3.org/2000/svg" xmlns:xlink="http://www.w3.org/1999/xlink" xml:space="preserve" overflow="hidden"><defs><clipPath id="clip0"><rect x="1245" y="363" width="1793" height="1754"/></clipPath><clipPath id="clip1"><rect x="1245" y="363" width="1788" height="1479"/></clipPath><clipPath id="clip2"><rect x="1245" y="363" width="1788" height="1479"/></clipPath><clipPath id="clip3"><rect x="1245" y="363" width="1788" height="1479"/></clipPath></defs><g clip-path="url(#clip0)" transform="translate(-1245 -363)"><path d="M1344 1267.5C1344 801.096 1722.1 423 2188.5 423 2654.9 423 3033 801.096 3033 1267.5 3033 1733.9 2654.9 2112 2188.5 2112 1722.1 2112 1344 1733.9 1344 1267.5Z" stroke="#000000" stroke-width="10.3125" stroke-miterlimit="8" fill="#C6E0B4" fill-rule="evenodd"/><path d="M2462.13 686C2462.89 689.125 2463.16 692.458 2462.91 696 2461.61 696 2460.3 696 2459 696 2459.84 695.066 2460.88 694.732 2462.13 695 2462.13 692 2462.13 689 2462.13 686Z" fill="#848485" fill-rule="evenodd"/><g clip-path="url(#clip1)"><g clip-path="url(#clip2)"><g clip-path="url(#clip3)"><path d="M1221.36 193.639C1203.44 198.391 1181.54 209.026 1167.7 219.703 1147.98 234.918 1126.3 277.428 1121.35 310.603 1119.39 323.709 1116.08 331.349 1108.88 339.386 1101.39 347.758 1099.27 352.738 1099.22 362.166 1099.18 370.793 1100.47 373.979 1106.86 380.905 1113.99 388.637 1117.47 403.547 1116.26 421.086 1115.75 428.425 1115.9 431.339 1116.86 432.496 1117.81 433.637 1117.97 436.359 1117.48 442.773 1116.92 450.013 1117.09 451.802 1118.43 453.291 1119.96 454.98 1119.77 455.128 1115.16 455.8 1108.16 456.822 1103.65 459.414 1095.46 467.146 1087.27 474.868 1067.28 499.724 1067.28 502.177 1067.28 503.066 1066.88 503.795 1066.39 503.795 1065.91 503.795 1065.22 505.616 1064.86 507.841 1064.51 510.067 1063.77 511.888 1063.22 511.888 1062.67 511.888 1062.22 512.585 1062.22 513.437 1062.22 514.289 1061.43 515.287 1060.48 515.654 1059.52 516.022 1057.55 517.537 1056.1 519.022 1054.65 520.506 1052.98 521.898 1052.4 522.115 1051.82 522.332 1048.59 526.152 1045.23 530.603 1037.29 541.128 1029.66 550.235 1007.26 575.928 985.488 600.904 975.696 613.698 970.462 624.006 967.174 630.484 966.566 632.731 966.257 639.535 965.936 646.608 966.21 648.133 968.729 653.285 974.582 665.257 986.35 673.18 1001.23 675.168 1013.84 676.852 1013.76 676.662 1008.77 694.149 1000.54 723.018 978.975 806.099 976.122 819.931 974.516 827.721 973.2 836.297 973.198 838.989 973.194 843.464 973.585 844.266 977.746 848.309 981.854 852.302 982.298 853.193 982.298 857.438 982.298 860.513 979.977 869.203 975.598 882.515 971.914 893.719 968.789 903.013 968.655 903.169 968.521 903.325 958.675 904.579 946.776 905.954 910.557 910.141 881.142 915.963 849.355 925.234 840.962 927.682 833.583 929.687 832.959 929.689 829.572 929.701 590.803 775.383 564.493 756.177 547.437 743.727 532.942 734.474 528.708 733.334 523.538 731.942 512.321 720.873 508.883 713.771L506.521 708.893 508.944 707.065C510.277 706.059 514.557 704.267 518.456 703.08 530.285 699.48 535.673 697.071 543.76 691.762 559.304 681.557 572.296 666.06 578.029 650.883 583.083 637.501 589.473 629.655 599.799 624.152 608.36 619.589 613.466 614.897 616.503 608.804 619.655 602.477 619.811 597.63 617.066 591.226 613.852 583.727 613.521 576.284 616.058 568.539 619.135 559.144 621.131 544.539 621.138 531.362 621.143 521.922 621.403 519.981 622.662 519.981 624.2 519.981 624.738 517.841 623.51 516.613 622.385 515.488 618.266 498.494 618.788 497.132 619.057 496.432 619.9 495.62 620.661 495.327 621.782 494.897 621.551 493.014 619.443 485.386 618.011 480.209 615.847 471.096 614.633 465.133 612.776 456.013 611.912 453.727 609.197 450.743 607.423 448.793 605.97 446.753 605.97 446.21 605.97 444.634 601.687 440.661 598.383 439.171 596.713 438.42 594.665 437.392 593.83 436.889 592.996 436.386 590.911 435.327 589.197 434.536 587.484 433.745 585.493 432.388 584.774 431.521 584.055 430.654 582.156 429.945 580.556 429.945 578.319 429.945 577.644 429.477 577.644 427.922 577.644 426.313 576.969 425.899 574.353 425.899 571.799 425.899 569.879 424.782 565.781 420.914 562.876 418.173 557.783 414.481 554.462 412.712 551.142 410.942 547.146 408.19 545.584 406.597 543.191 404.156 541.915 403.694 537.491 403.671 534.603 403.656 531.959 403.187 531.615 402.631 531.255 402.048 525.892 401.619 518.969 401.619 512.047 401.619 506.684 402.048 506.324 402.631 505.98 403.187 502.987 403.643 499.674 403.643 496.361 403.643 492.86 404.053 491.894 404.556 490.928 405.058 488.089 406.047 485.585 406.755 483.081 407.463 480.601 408.418 480.072 408.877 479.544 409.336 478.249 409.713 477.197 409.713 476.144 409.713 474.124 410.623 472.71 411.736 471.295 412.849 468.718 413.759 466.983 413.759 463.514 413.759 450.316 419.755 448.216 422.283 447.49 423.159 446.348 423.875 445.678 423.875 445.009 423.875 443.496 424.899 442.317 426.152 441.138 427.404 438.441 429.337 436.324 430.449 431.831 432.807 429.945 434.432 429.945 435.943 429.945 436.539 429.56 437.027 429.088 437.027 427.811 437.027 423.875 440.65 423.875 441.827 423.875 442.388 423.249 443.369 422.484 444.003 421.553 444.776 421.243 446.573 421.546 449.438 422.073 454.43 418.706 461.845 404.289 487.448 396.645 501.021 395.55 503.583 395.55 507.874 395.55 510.573 395.094 513.061 394.538 513.405 393.982 513.749 393.526 515.982 393.526 518.366 393.526 521.485 394.122 523.241 395.65 524.623 398.806 527.48 397.696 532.354 391.72 541.892 385.323 552.098 383.41 557.719 383.412 566.299 383.414 574.932 385.555 579.452 390.968 582.249 396.495 585.105 397.478 589.027 398.599 612.675 400.16 645.616 404.033 656.334 421.427 675.843 432.96 688.777 434.692 695.543 428.147 702.088 423.002 707.233 416.453 709.058 399.09 710.185 380.569 711.386 374.499 713.265 362.166 721.616 343.134 734.503 335.841 745.999 326.117 778.444 322.519 790.447 296.249 892.682 279.65 959.284L276.938 970.159 175.647 970.166C56.9237 970.174 5.20487 971.662 1.66819 975.173-2.20435 979.019 32.5362 980.342 158.527 981.148 220.402 981.545 271.314 982.157 271.665 982.508 272.017 982.859 269.936 991.464 267.04 1001.63 257.72 1034.36 256.176 1045.64 259.99 1053.11 261.103 1055.29 262.014 1058.97 262.014 1061.29 262.014 1073.07 255.353 1106.07 247.279 1134.29 238.012 1166.67 230.262 1185.3 223.82 1190.69 219.41 1194.37 179.807 1214.13 152.757 1226.14 114.022 1243.34 77.5206 1257.71 57.6632 1263.59 37.7795 1269.47 27.9586 1277.01 20.1619 1292.39 16.2347 1300.13 15.9414 1301.25 16.5261 1306.22 17.389 1313.57 20.4047 1322.07 30.8053 1346.49 55.2899 1403.97 72.1822 1430.21 89.9658 1438.37 97.9779 1442.05 110.102 1442.03 119.149 1438.32 130.371 1433.73 136.831 1429.18 148.285 1417.81 157.254 1408.9 160.235 1405.19 163.206 1399.21 168.011 1389.54 167.971 1386.26 162.835 1368.9 160.588 1361.3 158.978 1354.16 159.257 1353.03 160.965 1346.13 173.262 1340.21 233.177 1317.47 266.341 1304.88 306.942 1288.55 317.367 1283.6 325.271 1279.85 326.105 1279.12 334.331 1268.81 339.09 1262.85 354.572 1242.04 368.738 1222.56 395.068 1186.36 411.509 1165.08 420.627 1155.4 425.336 1150.4 426.036 1150 429.117 1150.59 434.105 1151.54 470.148 1169.72 492.667 1182.65 516.436 1196.3 538 1210.27 538.889 1212.58 540.789 1217.54 530.503 1241.24 500.749 1300.46 462.695 1376.2 458.818 1386.69 462.719 1403.4 464.353 1410.4 468.328 1419.36 471.285 1422.72 478.866 1431.34 547.058 1452.86 593.764 1461.39 616.916 1465.61 624.995 1464 635.85 1453.02 645.447 1443.31 650.44 1429.37 650.467 1412.2 650.502 1389.18 640.135 1370.77 622.662 1362.84 608.895 1356.58 604.46 1353.97 604.157 1351.94 603.799 1349.53 608.327 1339.83 638.768 1277.82 678.732 1196.41 679.976 1191.42 664.935 1172.78 652.054 1156.82 653.722 1158.4 555.388 1069.28 542.869 1057.94 532.483 1048.09 532.308 1047.39 531.979 1046.08 538.095 1014.52 543.354 990.392 547.431 971.685 552.391 954.906 554.029 954.278 555.648 953.656 574.114 964.897 654.421 1015.39 687.586 1036.25 716.655 1054.52 719.018 1055.99 721.851 1057.76 723.317 1059.4 723.318 1060.8 723.319 1061.96 722.363 1069.93 721.193 1078.5 718.776 1096.22 719.022 1106.49 722.054 1114.43 723.141 1117.27 728.228 1126.04 733.359 1133.93 744.243 1150.64 748.087 1158.67 748.971 1166.54 750.319 1178.54 759.227 1201.16 769.926 1219.74 777.349 1232.63 778.133 1233.72 792.418 1251.18 800.042 1260.5 803.133 1265 802.483 1265.85 801.969 1266.52 791.193 1280.4 778.537 1296.69 740.862 1345.18 732.424 1358.19 732.424 1367.78 732.424 1371.85 733.03 1373.37 736.305 1377.5 749.553 1394.22 822.869 1454.29 847.245 1468.41 853.557 1472.07 863.698 1474.97 870.174 1474.97 874.746 1474.97 876.077 1475.31 876.077 1476.48 876.077 1477.76 878.437 1478 891.251 1478 900.693 1478 906.426 1477.62 906.426 1476.99 906.426 1476.43 907.35 1475.98 908.481 1475.98 914.84 1475.98 923.533 1468.99 932.989 1456.29 943.752 1441.83 947.559 1431.47 945.745 1421.58 944.149 1412.88 938.958 1407.16 914.961 1387.69 902.774 1377.8 890.13 1367.33 886.864 1364.42L880.925 1359.13 900 1340.42C911.286 1329.34 921.346 1320.38 924.637 1318.47 933.421 1313.36 945.442 1310.52 977.359 1306.03 1027.4 1299 1063.14 1291.04 1097.29 1279.35 1101.28 1277.98 1104.74 1277.05 1104.97 1277.29 1105.21 1277.52 1103.89 1284.39 1102.05 1292.54 1098 1310.5 1096.6 1322.33 1096.65 1338.1 1096.69 1351.87 1098.49 1362.66 1101.37 1366.52 1103.93 1369.95 1112.39 1372.82 1131.91 1376.89 1165.29 1383.84 1229.58 1392.91 1251.39 1393.74 1268.07 1394.37 1273.33 1393.44 1286.95 1387.45 1303.06 1380.37 1311.51 1373.39 1316.26 1363.24 1322.18 1350.58 1322.86 1325.9 1317.61 1314.2 1311.31 1300.15 1299 1294.33 1265.97 1289.76 1240.2 1286.19 1227.11 1282.89 1227.11 1279.95 1227.11 1277.01 1237.45 1268.56 1255.95 1256.38 1293.54 1231.62 1299.43 1227 1303.29 1219.18 1304.92 1215.88 1307.7 1212.9 1312.55 1209.23 1320.24 1203.43 1339.08 1193.32 1344.24 1192.23 1347.23 1191.6 1347.99 1191.98 1352.13 1196.18 1354.65 1198.73 1358.57 1201.78 1360.85 1202.94 1368.11 1206.64 1383.61 1209.86 1403.9 1211.89 1414.74 1212.97 1423.74 1213.99 1423.9 1214.16 1424.07 1214.33 1430.11 1224.99 1437.34 1237.85 1456.54 1272.02 1462.01 1280.39 1477.6 1299.51 1510.77 1340.2 1553.68 1371.46 1593.83 1384.19 1610.67 1389.53 1617.15 1390.5 1635.82 1390.44 1664.28 1390.35 1674.19 1386.02 1713.21 1356.63 1749.7 1329.12 1765.42 1313.1 1775.35 1293.25L1779.47 1285.03 1779.47 1229.38 1779.47 1173.72 1776.9 1164.87C1762.55 1115.33 1727.3 1059.09 1688.68 1024.08 1664.26 1001.95 1649.75 992.539 1613.51 975.342 1590.41 964.382 1583.24 956.18 1582.86 940.316 1582.63 930.398 1586.25 924.994 1612 896.815 1626.67 880.758 1632.9 872.298 1637.79 861.785 1648.55 838.687 1645.11 814.411 1627.31 787.653 1618.76 774.808 1606.62 763.866 1588.27 752.472 1579.64 747.117 1567.35 739.194 1560.95 734.864 1554.56 730.535 1545.02 724.1 1539.77 720.563 1526.4 711.562 1506.29 701.913 1489.7 696.546 1472.81 691.077 1468.85 688.671 1465.12 681.585 1462.58 676.765 1462.32 675.303 1462.32 665.656 1462.32 656.074 1462.6 654.47 1465.15 649.276 1468.37 642.723 1475.87 633.912 1480.1 631.724 1486.3 628.52 1492.41 630.335 1504.2 638.887 1506.1 640.259 1509.28 641.822 1511.28 642.36 1537.64 649.448 1595.76 643.192 1613.61 631.344 1623.32 624.904 1629.76 612.596 1627.63 604.553 1622.45 584.979 1587.06 566.338 1488.56 531.284 1407.48 502.428 1396.04 499.928 1330.3 496.697 1294.84 494.955 1275.79 492.719 1273.57 490.041 1272.72 489.021 1272.71 488.62 1273.52 488.62 1277.59 488.62 1290.71 471.189 1300.54 452.707 1310.78 433.468 1319.55 422.814 1326.39 421.32 1333.29 419.814 1339.15 412.568 1342 402.016 1344.21 393.864 1343.58 387.453 1339.83 379.805 1335.94 371.9 1335.9 363.987 1339.67 352.386 1344.39 337.876 1345.25 320.439 1342.38 297.421 1341.86 293.248 1340.77 282.199 1339.96 272.869 1339.03 262.165 1337.92 254.884 1336.96 253.142 1336.12 251.622 1334.75 248.954 1333.92 247.213 1333.08 245.471 1330.98 242.849 1329.24 241.385 1327.5 239.922 1325.75 237.518 1325.36 236.043 1324.96 234.567 1323.83 233.242 1322.84 233.097 1321.85 232.951 1316.64 228.569 1311.26 223.358 1285.26 198.194 1249.18 186.264 1221.36 193.639M1153.66 343.533C1154 344.413 1154.28 345.315 1154.28 345.535 1154.28 345.757 1156.01 346.823 1158.13 347.905 1162.94 350.357 1172.21 352.789 1184.09 354.707 1196.94 356.785 1208.34 359.834 1213.83 362.661 1220.02 365.856 1230.31 367.171 1254.93 367.914 1275.02 368.52 1298.94 367.66 1298.94 366.331 1298.94 365.95 1293.14 364.808 1286.04 363.793 1261.65 360.306 1201.29 350.129 1180.71 346.034 1157.82 341.48 1152.69 341.005 1153.66 343.533M1115.84 349.866C1109.98 355.728 1109.63 365.702 1115.06 371.895 1118.59 375.913 1122.62 376.418 1125.53 373.205 1128.27 370.175 1128.82 357.6 1126.49 351.482 1124.99 347.551 1124.39 346.991 1121.74 346.991 1119.76 346.991 1117.72 347.988 1115.84 349.866M1143.34 359.889C1141.05 363.122 1139 368.873 1136.18 380.009 1130.95 400.603 1130.69 426.21 1135.52 442.553 1142.6 466.485 1155.89 480.099 1173.28 481.253 1178.32 481.587 1182.74 481.048 1190.38 479.171 1196.05 477.777 1201.66 476.892 1202.85 477.204 1205.69 477.944 1206.88 481.332 1206.88 488.626 1206.88 497.18 1207.99 497.38 1213.82 489.885 1215.66 487.52 1217.86 485.585 1218.7 485.585 1219.54 485.585 1221.5 486.942 1223.05 488.6 1226.89 492.712 1230.61 493.942 1236.7 493.118 1248.92 491.467 1264.54 483.301 1275.81 472.673 1281.33 467.465 1283.72 464.233 1286.79 457.843 1294.08 442.646 1302.27 415.985 1305.55 396.746 1307.39 385.994 1306.89 381.387 1303.87 381.387 1298.81 381.387 1292.19 393.177 1291.18 404.017 1290.12 415.338 1285.94 419.732 1275.42 420.559 1268.03 421.14 1251.94 418.6 1245.91 415.899 1238.93 412.775 1238.03 411.043 1237.08 398.925 1235.83 382.941 1232.41 379.1 1227.66 388.365 1226.62 390.398 1225.54 395.865 1225.03 401.75 1223.91 414.657 1222.54 419.499 1219.02 423.024 1215.59 426.451 1212.36 426.672 1206.84 423.855 1202.15 421.462 1201.88 420.062 1205.46 416.717 1206.91 415.369 1208.95 412.591 1210 410.544 1212.57 405.532 1216.62 391.303 1217.52 384.171 1218.12 379.319 1217.97 378.274 1216.59 377.745 1215.69 377.398 1214.24 377.705 1213.37 378.428 1211.13 380.28 1207.44 387.936 1205.46 394.814 1204.53 398.026 1202.54 402.007 1201.03 403.66L1198.28 406.667 1179.01 405.3C1168.42 404.548 1158.75 403.402 1157.54 402.752 1153.78 400.739 1153.1 397.879 1152.26 380.515 1151.81 371.257 1150.9 362.204 1150.23 360.395 1148.72 356.301 1146.02 356.103 1143.34 359.889M1321.84 387.091C1317.31 391.617 1314.39 405.541 1317.35 408.499 1320.27 411.421 1327.75 408.164 1331.38 402.387 1332.93 399.923 1333.35 397.892 1333.04 394.343 1332.24 385.02 1327.18 381.747 1321.84 387.091M1171.86 422.486C1168.57 430.37 1173.62 441.033 1182.75 445.487 1197.83 452.836 1230.15 456.703 1230.15 451.158 1230.15 449.139 1219.16 445.011 1207.16 442.522 1200.61 441.164 1193.76 439.561 1191.94 438.959 1187.15 437.379 1182.6 433.223 1182.6 430.427 1182.6 425.288 1178.35 418.817 1174.96 418.817 1174.1 418.817 1172.7 420.468 1171.86 422.486M402.042 549.287C396.516 551.523 391.488 561.9 393.293 567.35 394.001 569.49 394.913 570.115 397.651 570.332 407.05 571.081 414.336 558.23 408.627 550.972 406.414 548.158 405.445 547.91 402.042 549.287M420.019 568.813C412.793 591.429 411.384 600.031 412.021 617.604 412.622 634.149 414.669 642.541 421.145 655.007 428.305 668.789 443.392 682.315 456.706 686.888 465.475 689.9 484.826 692.164 502.783 692.28 520.952 692.397 525.148 691.259 535.625 683.373 552.734 670.496 562.658 658.891 568.442 644.995 574.765 629.808 580.098 601.845 578.032 594.719L577.041 591.301 574.561 593.961C573.196 595.423 570.518 600.885 568.609 606.1 561.832 624.605 559.164 628.226 552.305 628.226 550.301 628.226 543.46 627.292 537.103 626.151 514.118 622.025 509.291 619.525 509.451 611.833 509.501 609.398 510.339 604.156 511.312 600.185 512.474 595.445 512.761 592.392 512.149 591.297 511.315 589.809 510.882 589.909 508.122 592.232 504.645 595.158 502.397 600.112 500.151 609.799 497.18 622.607 492.459 628.226 484.671 628.226 481.846 628.226 480.527 627.787 480.527 626.847 480.527 626.088 483.28 619.875 486.643 613.039 492.539 601.06 495.734 591.211 494.928 587.508 493.809 582.375 486.031 589.299 477.886 602.679L473.727 609.511 465.377 609.806C452.178 610.273 436.003 606.278 432.111 601.589 429.812 598.819 428.908 593.399 427.37 573.145 426.527 562.048 425.709 552.838 425.551 552.68 425.394 552.522 422.904 559.782 420.019 568.813M497.896 566.658C495.028 567.483 494.716 567.858 495.805 569.17 499.25 573.321 510.703 576.332 512.429 573.54 513.811 571.305 511.887 567.725 508.708 566.617 504.973 565.315 502.524 565.324 497.896 566.658M1289.11 566.547C1280.95 567.405 1273.58 570.487 1271.27 574.011 1268.85 577.703 1266.83 586.1 1264.59 601.751 1261.92 620.461 1261.87 629.22 1264.42 632.372 1267.04 635.6 1273.56 635.338 1293.04 631.225 1312.16 627.188 1324.01 627.265 1333.84 631.493 1342.98 635.425 1350 636.319 1371.71 636.32 1391.4 636.321 1391.54 636.335 1397.64 639.222 1405.21 642.805 1415.33 652.702 1420.59 661.676 1424.54 668.405 1428.01 677.025 1430.95 687.407 1433.21 695.389 1434.97 698.029 1438.04 698.029 1442.92 698.029 1445.45 691.194 1449.25 667.68 1450.64 659.055 1452.48 649.304 1453.33 646.01 1455.22 638.699 1459.77 629.506 1462.98 626.518 1465.62 624.056 1473.58 620.19 1476.07 620.155 1476.95 620.143 1480.5 618.72 1483.96 616.992 1488.34 614.804 1490.15 613.347 1489.94 612.186 1488.86 606.345 1407.66 575.013 1379.69 569.648 1373.75 568.508 1362.14 567.117 1353.89 566.556 1336.9 565.399 1300.07 565.394 1289.11 566.547M1546.3 569.953C1544.96 571.286 1543.13 575.041 1542.22 578.299 1541.32 581.555 1539.24 588.318 1537.61 593.326 1535.98 598.336 1534.65 603.41 1534.65 604.603 1534.65 607.94 1540.66 612.477 1547.88 614.588 1556.73 617.176 1571.86 617.263 1578.34 614.763 1590.34 610.131 1595.53 596.627 1589.75 585.038 1586.47 578.458 1581.85 575.274 1569.32 570.952 1556.95 566.687 1549.87 566.38 1546.3 569.953M595.151 591.211C592.366 593.605 592.313 593.857 592.313 604.597 592.313 614.044 592.545 615.589 594.013 615.876 596.285 616.319 603.61 609.583 606.043 604.815 608.899 599.217 608.543 596.201 604.554 592.212 600.471 588.129 598.93 587.965 595.151 591.211M443.299 624.382C441.503 626.177 441.823 630.828 444.041 635.177 448.556 644.027 465.876 656.123 479.515 659.954 486.857 662.016 499.764 663.704 502.572 662.969 509.986 661.031 497.999 653.525 480.186 648.951 464.64 644.959 460.347 642.099 455.729 632.661 452.02 625.081 446.366 621.314 443.299 624.382M1371.78 649.428C1367.05 650.388 1362.1 651.519 1360.79 651.943 1356.71 653.26 1350.31 659.86 1347.94 665.208 1341.86 678.915 1332.29 683.682 1292.9 692.608 1259.6 700.156 1252.22 702.879 1249.88 708.486 1244.88 720.454 1233.39 803.954 1235.56 812.585 1236.15 814.932 1236.88 815.315 1241.98 815.953 1251.87 817.188 1378.35 813.99 1380.08 812.46 1380.47 812.114 1381.97 805.794 1383.4 798.414 1386.27 783.709 1390.79 769.763 1397.53 754.791 1399.94 749.444 1403.99 740.435 1406.54 734.77 1420.27 704.228 1419.34 677.696 1403.94 660.993 1398.87 655.496 1386.15 647.404 1382.82 647.565 1381.48 647.631 1376.51 648.469 1371.78 649.428M1206.89 660.451C1201.76 663.206 1197.41 670.285 1193.32 682.582 1189.75 693.276 1188.96 698.357 1190.48 700.747 1191.94 703.054 1197.3 704.225 1209.09 704.818 1226.56 705.697 1231.47 703.305 1237.79 690.837 1242.29 681.968 1240.7 676.357 1231.12 667.218 1222.03 658.546 1214.41 656.418 1206.89 660.451M458.271 703.056C456.952 703.995 457.011 704.333 458.716 705.634 463.305 709.135 484.334 714.82 489.811 714.041 493.447 713.523 493.279 710.511 489.486 708.205 483.297 704.441 461.398 700.829 458.271 703.056M1455.15 730.28C1438.63 738.095 1421.17 762.531 1414.13 787.676 1410.17 801.809 1411.56 828.854 1416.49 833.792 1420.84 838.138 1429.72 833.551 1433.53 824.989 1434.54 822.727 1435.63 816.928 1436.02 811.838 1437.61 790.701 1443.84 777.887 1462.31 757.715 1474.26 744.666 1478.12 736.748 1474.68 732.378 1470.18 726.672 1464.15 726.024 1455.15 730.28M1705.44 739.256C1692.47 748.976 1673.25 768.507 1673.25 771.969 1673.25 776.266 1686.42 766.881 1701.7 751.7 1714.02 739.465 1718.41 733.434 1715 733.438 1714.01 733.439 1709.71 736.057 1705.44 739.256M1541.22 758.608C1523.09 763.533 1510.62 770.441 1499.14 781.902 1485.12 795.913 1478.6 811.555 1478.65 831.059 1478.74 862.726 1499.22 891.355 1529.76 902.502 1553.92 911.317 1586.47 905.562 1604.66 889.26 1611.55 883.086 1622.05 869.464 1625.34 862.42 1627.71 857.336 1628.47 851.365 1626.86 850.371 1625.48 849.521 1621.97 853.922 1620.07 858.879 1615.71 870.23 1603.29 881.034 1586.24 888.286 1572.18 894.268 1556.8 895.932 1545.71 892.672 1527.28 887.253 1509.51 872.017 1500.47 853.871 1496.85 846.614 1496.72 845.958 1496.81 836.168 1496.98 818.38 1503.68 802.949 1517.03 789.641 1524.98 781.704 1532.29 776.954 1542.5 773.081 1548.44 770.829 1550.95 770.486 1561.97 770.427 1574.13 770.364 1574.87 770.482 1581.37 773.562 1598.15 781.51 1616.2 797.897 1623.18 811.506 1627.24 819.412 1628.73 820.49 1628.73 815.502 1628.73 800.505 1609.18 777.202 1587.53 766.401 1570.63 757.97 1553.92 755.158 1541.22 758.608M1546.9 782.584C1538.27 784.903 1531.67 788.966 1523.91 796.736 1507.19 813.466 1503.84 833.627 1514.61 852.725 1518.9 860.314 1531.65 872.763 1539.29 876.804 1554.97 885.102 1569.47 885.172 1586.01 877.03 1608.71 865.853 1619.57 840.237 1611.51 816.833 1608.58 808.306 1605.43 803.461 1598.54 796.888 1585.1 784.073 1563.55 778.105 1546.9 782.584M1701.57 805.136C1690.68 807.086 1685.82 809.269 1684.14 812.971 1683.2 815.021 1683.26 815.705 1684.43 816.447 1686.6 817.817 1693.05 817.596 1701.33 815.868 1705.37 815.025 1713.74 813.928 1719.93 813.43 1731.4 812.509 1736.47 810.601 1736.47 807.207 1736.47 803.003 1719.2 801.978 1701.57 805.136M1533.13 809.489C1529.22 811.678 1520.19 819.853 1517.32 823.815 1513.77 828.721 1513.73 830.538 1517.02 837.635 1523.79 852.227 1536.47 857.744 1547.09 850.711 1554.01 846.126 1561.72 834.711 1561.92 828.739 1561.99 826.805 1553.21 817.717 1546.43 812.689 1540.36 808.194 1536.93 807.368 1533.13 809.489M1531.01 822.865C1526.82 827.057 1526.45 831.618 1529.88 836.713 1533.98 842.798 1540.39 843.177 1545.91 837.661 1550.31 833.263 1549.96 828.427 1544.89 823.352 1539.7 818.168 1535.84 818.031 1531.01 822.865M567.528 859.773C567.528 863.371 570.803 866.447 589.091 880.021 608.211 894.213 635.877 913.031 674.761 938.288 757.384 991.959 770.172 1003.19 772.589 1024.21 773.112 1028.75 773.893 1031.38 774.812 1031.68 776.266 1032.15 802.192 1005.96 802.156 1004.05 802.146 1003.49 784.745 991.894 763.488 978.275 742.23 964.656 699.344 937.085 668.185 917.008 569.873 853.656 567.528 852.322 567.528 859.773M1684.37 862.962C1678.59 866.839 1709.04 876.51 1731.01 877.771 1742.1 878.409 1744.62 877.673 1742.03 874.553 1737.17 868.692 1689.98 859.206 1684.37 862.962M29.3374 889.919C26.2772 890.094 19.2889 890.695 13.8078 891.256-2.9388 892.971-2.79414 895.217 14.1993 897.352 27.9586 899.082 124.764 899.867 147.422 898.433 165.374 897.297 173.52 895.961 172.506 894.323 171.682 892.987 159.831 891.308 143.652 890.232 130.529 889.36 43.3405 889.122 29.3374 889.919M1677.61 908.076C1677.26 908.982 1677.81 911.283 1678.84 913.187 1681.76 918.617 1695.89 935.264 1707.22 946.638 1721.62 961.101 1724.55 960.546 1715.07 945.153 1708.32 934.196 1697.7 920.914 1689.57 913.254 1682.35 906.456 1678.81 904.927 1677.61 908.076M957.008 913.236C948.13 914.281 896.537 924.01 885.181 926.78 847.293 936.022 815.747 950.817 806.288 963.781 803.081 968.177 801.781 972.998 803.205 975.217 804.588 977.374 812.921 976.826 824.037 973.847 865.115 962.841 881.616 959.069 917.554 952.472 941.518 948.074 951.208 945.045 956.895 940.177 962.517 935.365 964.13 931.913 965.05 922.732 965.852 914.713 965.187 912.363 962.195 912.657 961.289 912.746 958.955 913.007 957.008 913.236M1529.59 956.883C1518.26 959.888 1510.06 963.142 1507.12 965.802 1504.68 968.011 1504.87 971.86 1507.67 976.734 1510.75 982.106 1512.99 981.948 1527.17 975.358 1533.29 972.515 1540.97 969.269 1544.24 968.143 1553.62 964.916 1555.96 961.453 1552.3 956.222 1550.11 953.092 1543.13 953.295 1529.59 956.883M733.942 994.831C729.952 996.572 725.084 1002.07 717.983 1012.85 710.982 1023.48 707.121 1030.6 707.169 1032.78 707.244 1036.13 710.051 1039.27 717.262 1044.08 728.433 1051.54 733.971 1051.88 746.214 1045.89 755.884 1041.16 759.062 1036.51 759.576 1026.32 760.098 1015.98 757.977 1010.09 751.039 1002.6 746.211 997.383 740.378 993.349 737.836 993.466 737.363 993.488 735.611 994.101 733.942 994.831M1256.43 1041.51C1254.58 1043.73 1255.9 1057.02 1258.59 1063.26 1264.87 1077.87 1285.19 1085.28 1327.77 1088.49 1357.78 1090.76 1408.62 1092.43 1409.87 1091.19 1410.51 1090.56 1412.17 1086.85 1413.56 1082.96 1414.95 1079.06 1417.5 1072.34 1419.22 1068.01 1420.95 1063.68 1422.36 1059.7 1422.36 1059.16 1422.36 1058.54 1410.19 1058.17 1389.63 1058.17 1331.59 1058.17 1310.72 1055.44 1269.3 1042.44 1260.09 1039.55 1258.17 1039.41 1256.43 1041.51M770.392 1049.18C758.514 1050.91 747 1059.3 738.55 1072.37 729.532 1086.32 727.967 1101.8 734.222 1115.16 742.526 1132.91 762.086 1142.63 807.653 1151.68 840.966 1158.28 850.639 1159.61 862.316 1159.16 871.322 1158.81 873.185 1158.41 878.001 1155.77 883.963 1152.5 890.105 1145.52 899.79 1131.01 906.247 1121.33 916.275 1101.74 917.142 1097.1 918.315 1090.83 911.227 1086.02 888.91 1077.97 875.473 1073.12 826.075 1058.57 804.619 1053.15 794.488 1050.59 779.016 1047.83 776.936 1048.21 776.658 1048.26 773.713 1048.7 770.392 1049.18M1267.58 1110.48C1260.1 1113.21 1255.46 1125.17 1255.11 1142.65 1254.95 1150.52 1255.13 1151.39 1257.46 1153.72 1262.03 1158.3 1274.04 1160.41 1329.8 1166.44 1355.05 1169.17 1396.54 1174.42 1401.51 1175.51 1405.99 1176.5 1409.64 1175.46 1410.61 1172.92 1412.06 1169.16 1412.45 1156.7 1411.26 1152.32 1408.37 1141.68 1401.59 1139.27 1332.62 1124.37 1313.58 1120.26 1291.64 1115.29 1283.86 1113.33 1276.07 1111.37 1269.57 1109.8 1269.4 1109.84 1269.23 1109.89 1268.41 1110.17 1267.58 1110.48M1539.17 1114.88C1538.1 1116.6 1539.07 1119.17 1550.92 1146.24 1563.44 1174.84 1571.06 1196.26 1571.75 1204.79 1572.11 1209.25 1571.78 1211.1 1570.15 1213.68 1565.94 1220.37 1560 1219.06 1551.09 1209.49 1543.85 1201.7 1537.62 1190.77 1525.67 1164.89 1515.2 1142.21 1510.9 1134.8 1508.49 1135.27 1506.02 1135.75 1502.51 1142.86 1500.65 1151.15 1495.15 1175.68 1507.05 1210.9 1532.03 1244.06 1558.82 1279.62 1594.63 1295.39 1620.11 1282.84 1634.77 1275.62 1641.42 1261.32 1641.33 1237.23 1641.23 1212.65 1633.02 1187.77 1617.12 1163.87 1602.32 1141.63 1576.93 1121.84 1554.95 1115.42 1548.69 1113.58 1540.15 1113.29 1539.17 1114.88M1069.8 1133.98C1066.31 1135.43 1064.64 1138.25 1060.17 1150.23 1057.79 1156.63 1053.38 1167.71 1050.38 1174.85 1047.39 1182 1044.68 1189.1 1044.37 1190.65 1043.82 1193.4 1043.97 1193.5 1051.75 1195.55 1067 1199.57 1096.62 1204.65 1107.24 1205.08L1114.32 1205.36 1116.09 1198.28C1118.77 1187.58 1122.17 1161.51 1121.63 1155.85 1120.92 1148.39 1118.37 1146.66 1098.13 1139.94 1080.33 1134.02 1073.27 1132.54 1069.8 1133.98M1251.65 1169.92C1248.7 1172.08 1247.49 1174.45 1246.42 1180.16 1245.34 1185.96 1246.68 1191.36 1249.42 1192.23 1250.76 1192.65 1253.73 1191.57 1258.24 1189L1265.05 1185.13 1278.71 1185.12C1291.4 1185.11 1292.78 1184.92 1298.18 1182.4 1305.54 1178.96 1306.13 1176.17 1299.85 1174.48 1286.91 1171 1276.86 1169.31 1266.06 1168.82 1255.81 1168.35 1253.57 1168.52 1251.65 1169.92M1358.29 1184.29C1356.99 1185.59 1357.66 1186.39 1363.48 1190.47 1370.43 1195.34 1378.46 1198.22 1389.3 1199.72 1404.77 1201.86 1416.49 1200.32 1417.11 1196.08 1417.74 1191.71 1407.59 1187.77 1388.98 1185.18 1377.58 1183.59 1359.51 1183.06 1358.29 1184.29M1268.26 1197.3C1261.76 1200.64 1254.88 1205.43 1249.62 1210.26 1245.31 1214.23 1243.97 1218.01 1246.87 1218.01 1253.32 1218.01 1276.68 1201.26 1276.68 1196.64 1276.68 1194.07 1274.18 1194.26 1268.26 1197.3M1278.08 1213.84C1261.34 1221.93 1243.18 1234.67 1238.47 1241.62 1235.76 1245.62 1236.36 1248.36 1239.95 1248.36 1247.18 1248.36 1274.25 1233.91 1284.46 1224.61 1289.4 1220.11 1290.1 1218.98 1290.58 1214.72 1291.08 1210.16 1290.99 1209.92 1288.65 1209.92 1287.3 1209.92 1282.54 1211.68 1278.08 1213.84M1228.46 1301.83C1222.96 1303.72 1216.79 1308.05 1205.87 1317.64 1187.73 1333.57 1184.2 1334.38 1143.65 1331.88 1106.81 1329.61 1104.13 1330.29 1104.29 1341.78 1104.39 1349.15 1108.13 1358.52 1111.96 1361.03 1120.39 1366.56 1224.23 1382.91 1250.87 1382.91 1264.3 1382.91 1269.93 1381.31 1286.81 1372.75 1308.27 1361.86 1309.59 1359.58 1308.78 1334.85 1308.24 1318.05 1306.44 1310.04 1302.67 1307.57 1299.25 1305.33 1288.11 1303.29 1269.67 1301.54 1247.56 1299.43 1235.14 1299.52 1228.46 1301.83M753.552 1341.55C748.148 1346.95 742.099 1366.27 744.299 1371.1 746.585 1376.11 787.348 1411.1 815.326 1432.06 841.566 1451.71 863.777 1464.14 880.414 1468.47 889.403 1470.82 902.293 1470.09 908.969 1466.87 916.695 1463.15 922.873 1456.08 928.75 1444.26 939.282 1423.07 935.782 1415.9 902.838 1391.17 894.649 1385.02 884.084 1378.03 879.357 1375.63 870.945 1371.36 870.569 1371.28 861.533 1371.46 819.681 1372.32 817.169 1372.24 808.803 1369.94 798.38 1367.07 785.881 1361.05 779.465 1355.81 762.28 1341.77 759.109 1339.41 757.491 1339.41 756.501 1339.41 754.729 1340.37 753.552 1341.55" fill="#0F0E0E" fill-rule="evenodd" transform="matrix(1.00025 0 0 1 1245 363)"/></g></g></g></g></svg>