<svg width="1703" height="1703" xmlns="http://www.w3.org/2000/svg" xmlns:xlink="http://www.w3.org/1999/xlink" xml:space="preserve" overflow="hidden"><defs><clipPath id="clip0"><rect x="1540" y="590" width="1703" height="1703"/></clipPath></defs><g clip-path="url(#clip0)" transform="translate(-1540 -590)"><path d="M1547 1441.5C1547 975.096 1925.1 597 2391.5 597 2857.9 597 3236 975.096 3236 1441.5 3236 1907.9 2857.9 2286 2391.5 2286 1925.1 2286 1547 1907.9 1547 1441.5Z" stroke="#000000" stroke-width="13.75" stroke-miterlimit="8" fill="#FF0000" fill-rule="evenodd"/><path d="M2263.2 1060.95C2213.9 1070.55 2174.39 1096.97 2159.29 1130.42 2149.03 1153.16 2139.45 1205.07 2136.25 1255.27 2134.94 1275.92 2132.12 1302.71 2129.98 1314.82 2124.83 1343.89 2125 1395.86 2130.25 1399.34 2132.54 1400.86 2133.5 1403.67 2132.39 1405.59 2131.28 1407.52 2135.12 1424.24 2140.93 1442.75 2150.96 1474.75 2151.16 1477.12 2144.92 1491.21 2141.32 1499.35 2138.37 1509.7 2138.37 1514.19 2138.37 1518.69 2134.26 1524.32 2129.23 1526.71 2115.72 1533.11 2109.03 1550.08 2111.51 1571.68 2117.85 1627.09 2170.3 1675.66 2243.43 1693.84 2269.41 1700.3 2332.6 1700.79 2363.61 1694.76 2423.47 1683.13 2478.63 1639.15 2494 1590.77 2502.81 1563.06 2500.2 1546.72 2484.41 1530.75 2476.53 1522.78 2470.08 1513.07 2470.08 1509.16 2470.08 1505.25 2467.27 1496.22 2463.83 1489.09 2457.95 1476.9 2458.33 1473.82 2470.07 1438.15 2484.09 1395.54 2486.3 1363.25 2478.87 1309.26 2476.38 1291.15 2473.38 1262.18 2472.21 1244.88 2469.35 1202.63 2458.96 1145.87 2453.41 1142.19 2450.93 1140.55 2448.83 1137.45 2448.73 1135.31 2447.9 1116.32 2416.17 1084.99 2385.21 1072.57 2362.52 1063.47 2318.28 1054.36 2300.13 1055.04 2295.63 1055.21 2279.01 1057.86 2263.2 1060.95M2329.73 1421.37C2342.26 1434.81 2343.86 1438.88 2341.85 1452.15 2336.98 1484.38 2313.02 1504.81 2292.09 1494.59 2281.96 1489.64 2259.21 1444.21 2265.62 1441.75 2267.71 1440.94 2269.42 1437.66 2269.42 1434.45 2269.42 1425.27 2293.53 1405.88 2304.95 1405.88 2311.31 1405.88 2320.83 1411.83 2329.73 1421.37M2250.1 1274.31C2268.61 1284.19 2277.49 1291.4 2276.72 1295.91 2274.62 1308.18 2244.93 1320.24 2216.85 1320.24 2193.49 1320.24 2189.91 1319.01 2181.01 1307.92 2169.5 1293.56 2168.16 1273.55 2178.02 1262.99 2188.2 1252.07 2216.91 1256.58 2250.1 1274.31M2433.45 1263.37C2442.19 1271.86 2438 1297.32 2425.67 1310.54 2412.13 1325.05 2381.21 1325.69 2353.41 1312.04 2339.57 1305.25 2330.8 1298.36 2331.79 1295.06 2333.72 1288.61 2368.2 1267.23 2386.13 1261.37 2405.4 1255.07 2425.79 1255.93 2433.45 1263.37" fill-rule="evenodd"/><path d="M1748.51 1191.56C1725.5 1221.57 1698.3 1258.96 1688.07 1274.66 1670.19 1302.09 1650.17 1344.79 1647.92 1360.27 1647.33 1364.34 1645.73 1369.65 1644.38 1372.06 1638.51 1382.5 1624.24 1456.1 1619.98 1497.92 1616.7 1529.99 1611.83 1552.13 1603.46 1572.95 1592.42 1600.44 1591.99 1603.53 1597.33 1617.23 1605.68 1638.67 1621.25 1644.14 1664.59 1640.86 1689.36 1638.98 1719.29 1640.83 1763.68 1646.97 1843.93 1658.07 1960.52 1657.55 1953.93 1646.11 1952.72 1644 1953.44 1642.27 1955.53 1642.27 1957.63 1642.27 1960.53 1632.63 1961.99 1620.85 1969.11 1563.28 2011.87 1507.98 2076.61 1472.65 2098.27 1460.82 2116 1449.17 2116 1446.75 2116.02 1437.88 2095.59 1360.92 2088.93 1344.77 2085.15 1335.62 2081.6 1325.81 2081.02 1322.98 2079.76 1316.71 2043.55 1256 2035.61 1246.84 2032.47 1243.22 2014.93 1220.48 1996.64 1196.31 1978.35 1172.15 1961.79 1151.72 1959.84 1150.91 1957.89 1150.11 1956.3 1146.65 1956.3 1143.23 1956.3 1138.06 1942.18 1137 1873.33 1137L1790.36 1137 1748.51 1191.56M1878.48 1242.58C1878.48 1251.75 1880.1 1252.85 1900.73 1257.74 1907.34 1259.31 1919.78 1268.14 1928.38 1277.37 1940.83 1290.73 1944.01 1297.43 1944.01 1310.32 1944.01 1333.38 1937.81 1343.5 1923.68 1343.5 1900.35 1343.5 1892.33 1322.98 1907.55 1302.22 1914.23 1293.11 1915.09 1289.15 1911.41 1284.39 1905.77 1277.1 1884.28 1268.45 1880.88 1272.1 1879.56 1273.51 1878.48 1296.97 1878.48 1324.22L1878.48 1373.78 1905.99 1388.3C1921.11 1396.28 1937.15 1408.28 1941.63 1414.95 1951.59 1429.79 1955.29 1476.15 1948.31 1498.82 1942.05 1519.19 1919.49 1540.06 1896.68 1546.61 1881.85 1550.86 1878.48 1553.7 1878.48 1561.9 1878.48 1569.04 1876.1 1571.97 1870.29 1571.97 1864.28 1571.97 1862.1 1569.04 1862.1 1560.99 1862.1 1552.17 1860.06 1550.01 1851.73 1550.01 1825.52 1550.01 1794.51 1524.36 1790.08 1499.01 1784.35 1466.3 1801.94 1444.6 1822.48 1459.03 1836.31 1468.76 1838.35 1481.49 1827.99 1493.43 1813.42 1510.21 1814.99 1518.68 1834.45 1528.15 1862.86 1541.99 1862.1 1543.38 1862.1 1477.63L1862.1 1418.44 1841.13 1408.76C1776.71 1379.03 1778.7 1281.97 1844.23 1257.91 1854.9 1254 1860.48 1249.1 1861.36 1242.88 1863.12 1230.49 1878.48 1230.22 1878.48 1242.58" fill-rule="evenodd"/><path d="M2508.01 1616.42C2491.99 1653.85 2456.06 1685.82 2407.57 1705.76 2389.61 1713.14 2338.65 1725.86 2319.4 1727.76 2315.33 1728.17 2314.44 1749.88 2315.3 1827.5L2316.4 1926.73 2531.7 1927.87 2747 1929 2747.95 1916.88C2748.96 1904.13 2733.09 1779.88 2729.7 1774.02 2728.62 1772.14 2726.83 1765.25 2725.72 1758.7 2719.07 1719.37 2677.3 1671.12 2626.25 1643.81 2601.09 1630.35 2522.87 1595 2518.26 1595 2517.66 1595 2513.05 1604.64 2508.01 1616.42" fill-rule="evenodd"/><path d="M2043.98 1614.1C2020.18 1624.5 1988.86 1639.73 1974.37 1647.96 1928.26 1674.15 1885.7 1728.79 1883.33 1764.85 1882.89 1771.7 1881.35 1778.28 1879.92 1779.49 1877.24 1781.76 1860 1903.08 1860 1919.68L1860 1929 2077 1929 2294 1929 2294 1830.77 2294 1732.53 2283.57 1727.43C2277.84 1724.62 2269.05 1722.33 2264.04 1722.33 2249 1722.33 2196.43 1705.27 2174.22 1693.17 2145.73 1677.67 2113.23 1643.53 2101.62 1616.93 2096.32 1604.76 2090.91 1594.9 2089.61 1595 2088.3 1595.11 2067.77 1603.7 2043.98 1614.1" fill-rule="evenodd"/><path d="M2767.52 991.01C2746.11 999.689 2727.97 1008.49 2727.22 1010.58 2726.46 1012.66 2724.47 1013.45 2722.79 1012.34 2720.16 1010.6 2673.9 1027.86 2634.34 1045.34 2627.58 1048.33 2620.2 1051.26 2617.95 1051.86 2615.69 1052.45 2608.32 1055.42 2601.56 1058.44 2594.79 1061.47 2587.42 1064.42 2585.16 1065 2582.91 1065.58 2557.09 1075.65 2527.79 1087.37L2474.52 1108.69 2473.26 1127.34 2472 1146 2808.5 1146 3145 1146 3143.74 1127.42 3142.48 1108.84 3048.23 1071.33C2996.39 1050.71 2952.13 1033.21 2949.88 1032.45 2947.62 1031.69 2939.33 1028.17 2931.44 1024.64 2923.55 1021.11 2913.41 1017.83 2908.9 1017.36 2904.39 1016.89 2899.77 1015.19 2898.63 1013.59 2897 1011.3 2808.76 974.175 2806.92 975.014 2806.66 975.128 2788.93 982.327 2767.52 991.01" fill-rule="evenodd"/><path d="M2650.95 1583.9C2660.83 1604.68 2673.36 1650.08 2673.36 1665.12 2673.36 1672.61 2685.95 1673 2925.18 1673 3132.3 1673 3177 1671.96 3177 1667.14 3177 1663.91 3175.62 1659.78 3173.93 1657.97 3172.24 1656.15 3170.82 1653.35 3170.77 1651.73 3170.73 1650.12 3164.33 1629.5 3156.56 1605.9L3142.43 1563 2891.71 1563 2641 1563 2650.95 1583.9" fill-rule="evenodd"/><path d="M2850 1388 2850 1542 2885.92 1540.73 2921.84 1539.46 2922.92 1386.73 2924 1234 2887 1234 2850 1234 2850 1388" fill-rule="evenodd"/><path d="M2694 1388 2694 1542 2729.92 1540.73 2765.84 1539.46 2766.92 1386.73 2768 1234 2731 1234 2694 1234 2694 1388" fill-rule="evenodd"/><path d="M2500.42 1190.09 2506.83 1208 2808.03 1207.83 3109.22 1207.66 3114.52 1193.83C3117.44 1186.23 3118.79 1178.17 3117.53 1175.93 3116.18 1173.54 2986.59 1171.91 2804.61 1172L2494 1172.17 2500.42 1190.09" fill-rule="evenodd"/><path d="M3005.3 1387.5 3005.59 1541 3040.29 1541 3075 1541 3075 1387.5 3075 1234 3040 1234 3005 1234 3005.3 1387.5" fill-rule="evenodd"/><path d="M2538 1356.03 2538 1478.05 2574.7 1502.53 2611.4 1527 2611.7 1380.5 2612 1234 2575 1234 2538 1234 2538 1356.03" fill-rule="evenodd"/><path d="M1778.21 919.859C1770.24 928.361 1769.9 943.257 1777.43 954.707 1780.55 959.459 1783.15 964.904 1783.2 966.805 1783.25 968.705 1789.22 985.95 1796.47 1005.13L1809.66 1040 1867.75 1039.93C1899.71 1039.89 1927.88 1038.42 1930.36 1036.65 1935.78 1032.78 1969 942.088 1969 931.164 1969 911.174 1944.38 907.468 1906.29 921.738 1879.65 931.72 1854.47 932.662 1832.98 924.476 1824.85 921.379 1815.13 919.32 1811.41 919.903 1807.68 920.485 1804.63 919.167 1804.63 916.973 1804.63 910.35 1785.13 912.483 1778.21 919.859" fill-rule="evenodd"/><path d="M1789.84 1071.94C1783.28 1078.91 1783.42 1099.24 1790.07 1105.1 1793.45 1108.07 1823.55 1109.42 1874.8 1108.89L1954.29 1108.06 1958.2 1096.26C1961.28 1086.98 1960.56 1082.64 1954.87 1075.96 1948.19 1068.13 1941.61 1067.43 1871.24 1067.04 1815.95 1066.74 1793.47 1068.09 1789.84 1071.94" fill-rule="evenodd"/><path d="M1879 1476.5 1879 1531 1891.25 1529.88C1897.99 1529.26 1906.54 1526.03 1910.26 1522.71 1918.72 1515.14 1928 1491.68 1928 1477.86 1928 1453.53 1903.41 1422.12 1889.03 1428.07 1885.37 1429.58 1883.72 1428.85 1885.15 1426.35 1886.53 1423.96 1885.7 1422 1883.32 1422 1880.51 1422 1879 1441.08 1879 1476.5" fill-rule="evenodd"/><path d="M1858.51 1272.32C1858.03 1275.49 1855.85 1276.89 1853.66 1275.42 1842.42 1267.9 1817.03 1300.23 1817 1322.09 1816.98 1336.06 1829.83 1354.66 1845.6 1363.49 1852 1367.07 1858.3 1370 1859.6 1370 1860.9 1370 1861.38 1346.73 1860.67 1318.28 1859.97 1289.84 1858.99 1269.15 1858.51 1272.32" fill-rule="evenodd"/></g></svg>