<svg width="1703" height="1703" xmlns="http://www.w3.org/2000/svg" xmlns:xlink="http://www.w3.org/1999/xlink" xml:space="preserve" overflow="hidden"><defs><clipPath id="clip0"><rect x="1540" y="590" width="1703" height="1703"/></clipPath></defs><g clip-path="url(#clip0)" transform="translate(-1540 -590)"><path d="M1547 1441.5C1547 975.096 1925.1 597 2391.5 597 2857.9 597 3236 975.096 3236 1441.5 3236 1907.9 2857.9 2286 2391.5 2286 1925.1 2286 1547 1907.9 1547 1441.5Z" stroke="#000000" stroke-width="13.75" stroke-miterlimit="8" fill="#FF0000" fill-rule="evenodd"/><path d="M1748.51 1191.56C1725.5 1221.57 1698.3 1258.96 1688.07 1274.66 1670.19 1302.09 1650.17 1344.79 1647.92 1360.27 1647.33 1364.34 1645.73 1369.65 1644.38 1372.06 1638.51 1382.5 1624.24 1456.1 1619.98 1497.92 1616.7 1529.99 1611.83 1552.13 1603.46 1572.95 1592.42 1600.44 1591.99 1603.53 1597.33 1617.23 1605.68 1638.67 1621.25 1644.14 1664.59 1640.86 1689.36 1638.98 1719.29 1640.83 1763.68 1646.97 1843.93 1658.07 1960.52 1657.55 1953.93 1646.11 1952.72 1644 1953.44 1642.27 1955.53 1642.27 1957.63 1642.27 1960.53 1632.63 1961.99 1620.85 1969.11 1563.28 2011.87 1507.98 2076.61 1472.65 2098.27 1460.82 2116 1449.17 2116 1446.75 2116.02 1437.88 2095.59 1360.92 2088.93 1344.77 2085.15 1335.62 2081.6 1325.81 2081.02 1322.98 2079.76 1316.71 2043.55 1256 2035.61 1246.84 2032.47 1243.22 2014.93 1220.48 1996.64 1196.31 1978.35 1172.15 1961.79 1151.72 1959.84 1150.91 1957.89 1150.11 1956.3 1146.65 1956.3 1143.23 1956.3 1138.06 1942.18 1137 1873.33 1137L1790.36 1137 1748.51 1191.56M1878.48 1242.58C1878.48 1251.75 1880.1 1252.85 1900.73 1257.74 1907.34 1259.31 1919.78 1268.14 1928.38 1277.37 1940.83 1290.73 1944.01 1297.43 1944.01 1310.32 1944.01 1333.38 1937.81 1343.5 1923.68 1343.5 1900.35 1343.5 1892.33 1322.98 1907.55 1302.22 1914.23 1293.11 1915.09 1289.15 1911.41 1284.39 1905.77 1277.1 1884.28 1268.45 1880.88 1272.1 1879.56 1273.51 1878.48 1296.97 1878.48 1324.22L1878.48 1373.78 1905.99 1388.3C1921.11 1396.28 1937.15 1408.28 1941.63 1414.95 1951.59 1429.79 1955.29 1476.15 1948.31 1498.82 1942.05 1519.19 1919.49 1540.06 1896.68 1546.61 1881.85 1550.86 1878.48 1553.7 1878.48 1561.9 1878.48 1569.04 1876.1 1571.97 1870.29 1571.97 1864.28 1571.97 1862.1 1569.04 1862.1 1560.99 1862.1 1552.17 1860.06 1550.01 1851.73 1550.01 1825.52 1550.01 1794.51 1524.36 1790.08 1499.01 1784.35 1466.3 1801.94 1444.6 1822.48 1459.03 1836.31 1468.76 1838.35 1481.49 1827.99 1493.43 1813.42 1510.21 1814.99 1518.68 1834.45 1528.15 1862.86 1541.99 1862.1 1543.38 1862.1 1477.63L1862.1 1418.44 1841.13 1408.76C1776.71 1379.03 1778.7 1281.97 1844.23 1257.91 1854.9 1254 1860.48 1249.1 1861.36 1242.88 1863.12 1230.49 1878.48 1230.22 1878.48 1242.58" fill-rule="evenodd"/><path d="M2767.52 991.01C2746.11 999.689 2727.97 1008.49 2727.22 1010.58 2726.46 1012.66 2724.47 1013.45 2722.79 1012.34 2720.16 1010.6 2673.9 1027.86 2634.34 1045.34 2627.58 1048.33 2620.2 1051.26 2617.95 1051.86 2615.69 1052.45 2608.32 1055.42 2601.56 1058.44 2594.79 1061.47 2587.42 1064.42 2585.16 1065 2582.91 1065.58 2557.09 1075.65 2527.79 1087.37L2474.52 1108.69 2473.26 1127.34 2472 1146 2808.5 1146 3145 1146 3143.74 1127.42 3142.48 1108.84 3048.23 1071.33C2996.39 1050.71 2952.13 1033.21 2949.88 1032.45 2947.62 1031.69 2939.33 1028.17 2931.44 1024.64 2923.55 1021.11 2913.41 1017.83 2908.9 1017.36 2904.39 1016.89 2899.77 1015.19 2898.63 1013.59 2897 1011.3 2808.76 974.175 2806.92 975.014 2806.66 975.128 2788.93 982.327 2767.52 991.01" fill-rule="evenodd"/><path d="M2650.95 1583.9C2660.83 1604.68 2673.36 1650.08 2673.36 1665.12 2673.36 1672.61 2685.95 1673 2925.18 1673 3132.3 1673 3177 1671.96 3177 1667.14 3177 1663.91 3175.62 1659.78 3173.93 1657.97 3172.24 1656.15 3170.82 1653.35 3170.77 1651.73 3170.73 1650.12 3164.33 1629.5 3156.56 1605.9L3142.43 1563 2891.71 1563 2641 1563 2650.95 1583.9" fill-rule="evenodd"/><path d="M2850 1388 2850 1542 2885.92 1540.73 2921.84 1539.46 2922.92 1386.73 2924 1234 2887 1234 2850 1234 2850 1388" fill-rule="evenodd"/><path d="M2694 1388 2694 1542 2729.92 1540.73 2765.84 1539.46 2766.92 1386.73 2768 1234 2731 1234 2694 1234 2694 1388" fill-rule="evenodd"/><path d="M2500.42 1190.09 2506.83 1208 2808.03 1207.83 3109.22 1207.66 3114.52 1193.83C3117.44 1186.23 3118.79 1178.17 3117.53 1175.93 3116.18 1173.54 2986.59 1171.91 2804.61 1172L2494 1172.17 2500.42 1190.09" fill-rule="evenodd"/><path d="M3005.3 1387.5 3005.59 1541 3040.29 1541 3075 1541 3075 1387.5 3075 1234 3040 1234 3005 1234 3005.3 1387.5" fill-rule="evenodd"/><path d="M2538 1356.03 2538 1478.05 2574.7 1502.53 2611.4 1527 2611.7 1380.5 2612 1234 2575 1234 2538 1234 2538 1356.03" fill-rule="evenodd"/><path d="M1778.21 919.859C1770.24 928.361 1769.9 943.257 1777.43 954.707 1780.55 959.459 1783.15 964.904 1783.2 966.805 1783.25 968.705 1789.22 985.95 1796.47 1005.13L1809.66 1040 1867.75 1039.93C1899.71 1039.89 1927.88 1038.42 1930.36 1036.65 1935.78 1032.78 1969 942.088 1969 931.164 1969 911.174 1944.38 907.468 1906.29 921.738 1879.65 931.72 1854.47 932.662 1832.98 924.476 1824.85 921.379 1815.13 919.32 1811.41 919.903 1807.68 920.485 1804.63 919.167 1804.63 916.973 1804.63 910.35 1785.13 912.483 1778.21 919.859" fill-rule="evenodd"/><path d="M1789.84 1071.94C1783.28 1078.91 1783.42 1099.24 1790.07 1105.1 1793.45 1108.07 1823.55 1109.42 1874.8 1108.89L1954.29 1108.06 1958.2 1096.26C1961.28 1086.98 1960.56 1082.64 1954.87 1075.96 1948.19 1068.13 1941.61 1067.43 1871.24 1067.04 1815.95 1066.74 1793.47 1068.09 1789.84 1071.94" fill-rule="evenodd"/><path d="M1879 1476.5 1879 1531 1891.25 1529.88C1897.99 1529.26 1906.54 1526.03 1910.26 1522.71 1918.72 1515.14 1928 1491.68 1928 1477.86 1928 1453.53 1903.41 1422.12 1889.03 1428.07 1885.37 1429.58 1883.72 1428.85 1885.15 1426.35 1886.53 1423.96 1885.7 1422 1883.32 1422 1880.51 1422 1879 1441.08 1879 1476.5" fill-rule="evenodd"/><path d="M1858.51 1272.32C1858.03 1275.49 1855.85 1276.89 1853.66 1275.42 1842.42 1267.9 1817.03 1300.23 1817 1322.09 1816.98 1336.06 1829.83 1354.66 1845.6 1363.49 1852 1367.07 1858.3 1370 1859.6 1370 1860.9 1370 1861.38 1346.73 1860.67 1318.28 1859.97 1289.84 1858.99 1269.15 1858.51 1272.32" fill-rule="evenodd"/><path d="M2314.55 1459.33C2301.61 1464.15 2289.52 1471.44 2279.96 1480.19 2270.88 1488.5 2267.28 1494.14 2267.28 1500.06 2267.28 1502.17 2265.76 1505.28 2263.9 1506.97 2262.04 1508.66 2259.28 1511.19 2257.76 1512.6 2253.2 1516.82 2235.22 1554.68 2229.29 1572.56 2226.13 1582.08 2223.76 1592.19 2223.76 1596.14 2223.76 1601.73 2223.26 1603.04 2221.13 1603.01 2214.66 1602.93 2191.65 1589.39 2188.08 1583.56 2186.38 1580.79 2186.74 1579.85 2191.19 1575.26 2197.1 1569.17 2206.76 1550.1 2212.5 1533.19 2215.35 1524.8 2216.81 1516.85 2217.35 1506.86 2218.03 1494.28 2217.71 1491.59 2214.73 1484.65 2210.44 1474.66 2199.32 1464.43 2189.03 1461.01 2183.4 1459.14 2177.96 1458.64 2168.2 1459.11 2133.41 1460.77 2110.76 1484.73 2080.46 1551.9 2060.71 1595.69 2056.68 1615.23 2057.45 1663.47 2058.09 1703.69 2057.43 1702.43 2089.99 1725.58L2102.54 1734.49 2080.88 1735.35C2048.05 1736.66 2046.2 1737.93 2026.93 1772.47 2022.11 1781.12 2018.17 1788.35 2018.17 1788.54 2018.17 1788.73 2049.74 1789.29 2088.32 1789.79 2150.55 1790.58 2181.29 1792.08 2189.62 1794.71 2191.75 1795.38 2192.24 1797.29 2192.23 1804.83 2192.23 1814.4 2190.08 1824.72 2187.41 1828 2186.24 1829.44 2184.89 1829.02 2181.49 1826.16 2179.07 1824.12 2173.62 1821.42 2169.37 1820.15 2124.68 1806.87 2083.93 1813.54 2049.68 1839.75 2024.5 1859.01 2003.98 1889.74 1995.34 1921.1 1992.68 1930.77 1992.1 1937.09 1992.01 1957.58 1991.92 1979.23 1992.34 1983.89 1995.38 1994.39 2009.07 2041.77 2055.85 2089.84 2095.39 2097.15 2106.41 2099.19 2141.42 2099.24 2155.48 2097.24 2174.17 2094.57 2181.6 2091.7 2188.68 2084.41 2192.49 2080.48 2196.5 2077.76 2198.47 2077.76 2200.3 2077.76 2204.71 2076.35 2208.27 2074.63 2226.27 2065.91 2252.74 2023.16 2254.9 1999.34 2255.33 1994.55 2256.2 1990.63 2256.82 1990.63 2257.44 1990.63 2264.95 1989.89 2273.49 1988.98 2282.04 1988.07 2325.69 1986.88 2370.49 1986.35L2451.94 1985.37 2486.9 1908.76C2522.58 1830.58 2548.66 1775.93 2552.87 1770.55L2555.22 1767.54 2557.58 1770.55C2561.52 1775.56 2581.98 1818.1 2584.37 1826.25 2587.27 1836.15 2586.43 1839.79 2579.21 1848.77 2558.04 1875.06 2545.61 1901.89 2539.58 1934.3 2536.43 1951.19 2537.26 1986.52 2541.13 2000.4 2546.88 2020.99 2560.42 2042.04 2581.93 2063.84 2595.36 2077.45 2607.26 2085.8 2616.76 2088.28 2620.38 2089.23 2625.87 2091.68 2628.97 2093.74 2637.43 2099.34 2657.48 2101.31 2684.09 2099.14 2706.12 2097.34 2711.73 2095.96 2717.01 2091 2719.55 2088.62 2721.46 2088.13 2725.33 2088.86 2732.01 2090.11 2740.38 2084.78 2757.42 2068.41 2782.21 2044.59 2799.88 2016.28 2805.96 1990.63 2809.73 1974.76 2810.03 1948.92 2806.65 1932.35 2797.37 1886.91 2774.04 1851.22 2741.28 1832.32 2724.07 1822.39 2694.75 1814.87 2673.24 1814.87 2667.29 1814.87 2655.17 1814.42 2646.31 1813.88L2630.2 1812.89 2572.24 1696.83 2514.28 1580.78 2495.45 1579.63C2461.81 1577.58 2427.66 1578 2422.71 1580.52 2420.29 1581.76 2418.05 1583.57 2417.73 1584.55 2416.73 1587.62 2424.41 1591.29 2436.09 1593.33 2448.81 1595.54 2455.8 1599.26 2462.29 1607.29L2466.75 1612.81 2460.42 1609.55C2451.51 1604.96 2433.97 1601.89 2406.09 1600.05 2371.09 1597.74 2346 1591.39 2343.22 1584.15 2342.58 1582.47 2344.22 1579.52 2348.21 1575.18 2360.58 1561.75 2373.7 1529.2 2374.94 1508.87 2375.63 1497.48 2375.35 1495.84 2371.12 1486.78 2365.62 1475.02 2356.4 1465.39 2345.36 1459.89 2335.33 1454.88 2326.91 1454.73 2314.55 1459.33M2689.72 1874.06C2723.21 1887.54 2738.06 1902.28 2747.21 1931.13 2750.79 1942.42 2750.61 1970.73 2746.89 1981.62 2735.41 2015.2 2715.19 2032.91 2683.24 2037.36 2667.45 2039.56 2651.03 2037.08 2637.01 2030.37 2617.37 2020.97 2602.95 2001 2595.94 1973.49 2592.09 1958.33 2592.12 1947.86 2596.05 1936.13 2600.05 1924.2 2611.62 1901.69 2615.6 1898.08 2618.59 1895.38 2618.73 1895.4 2621.62 1899.03 2623.25 1901.08 2630.6 1915.05 2637.96 1930.1 2658.4 1971.9 2663.73 1975.91 2682.62 1963.69 2699.47 1952.79 2699.33 1949.58 2680.55 1915.36 2670.34 1896.75 2663.45 1880.19 2663.45 1874.25 2663.45 1866.25 2670.19 1866.2 2689.72 1874.06M2166.13 1878.67C2170.48 1881.52 2170.48 1881.08 2166.12 1901.2 2162.89 1916.14 2164.56 1921.39 2177.47 1936.84 2189.81 1951.6 2191.71 1954.58 2188.78 1954.58 2187.65 1954.58 2180.85 1949.21 2173.68 1942.65 2156.66 1927.09 2143.89 1921.87 2132.99 1926.02 2126.23 1928.6 2124.71 1935.2 2124.71 1962.04L2124.71 1986.12 2128.83 1986.12C2135.86 1986.12 2189.56 1989.16 2197.87 1990.03L2205.75 1990.85 2192.62 2005.04C2172.32 2026.97 2159.22 2035.02 2137.77 2038.76 2101.23 2045.13 2060.61 2016.67 2050.56 1977.65 2039.26 1933.78 2068.2 1887.41 2113.33 1877.08 2126.46 1874.08 2160.7 1875.11 2166.13 1878.67M2488.56 1630.63C2490.68 1633.4 2494.73 1641.01 2497.56 1647.53L2502.71 1659.38 2458.9 1660.44C2401.14 1661.84 2350.69 1664.33 2342.31 1666.19 2331.75 1668.54 2328.96 1670.53 2327.83 1676.52L2326.81 1681.91 2323.32 1674.4C2320.98 1669.36 2319.83 1664.09 2319.82 1658.36 2319.8 1650.93 2320.3 1649.44 2323.75 1646.72 2328.62 1642.89 2332.51 1642.87 2346.53 1646.6 2370.76 1653.05 2426.09 1654.34 2444.03 1648.88 2449.56 1647.2 2454.1 1644.34 2459.03 1639.46 2475.04 1623.62 2481.7 1621.62 2488.56 1630.63M2155.23 1622.35C2168.86 1634.71 2179.12 1641.78 2192.64 1648.12 2199.78 1651.47 2206.12 1655.01 2206.72 1655.98 2207.32 1656.96 2207.64 1660.53 2207.44 1663.92 2207.23 1667.32 2208.87 1677.15 2211.08 1685.77 2213.29 1694.39 2215.2 1702.25 2215.3 1703.23 2215.58 1705.72 2178.45 1683.1 2171.76 1676.71 2164.91 1670.17 2162.23 1663.82 2162.23 1654.13 2162.23 1644.39 2157.83 1631.93 2151.06 1622.5 2148.13 1618.41 2146.06 1615.06 2146.46 1615.06 2146.86 1615.06 2150.81 1618.34 2155.23 1622.35M2264.84 1873.58C2269.72 1877.42 2279.74 1897.92 2283.01 1910.77 2285.91 1922.17 2284.73 1924.53 2276.1 1924.53 2261.16 1924.53 2247.29 1899.47 2252.18 1881.3 2253.78 1875.34 2257.16 1870.45 2259.68 1870.45 2260.33 1870.45 2262.66 1871.86 2264.84 1873.58" fill-rule="evenodd"/><path d="M2380.25 1323.68C2364.19 1329.25 2347.91 1344.79 2339.46 1362.61 2327.17 1388.56 2332.7 1419.48 2353.57 1441.41 2373.61 1462.47 2402.94 1467.89 2428.62 1455.28 2447.32 1446.1 2466.74 1416.83 2467.91 1396.05 2470.04 1358.24 2434.63 1320.83 2396.87 1321 2391.92 1321.02 2384.44 1322.23 2380.25 1323.68" fill-rule="evenodd"/><path d="M2221.41 1324.74C2211.12 1327.26 2208.59 1328.84 2200.45 1337.85 2187.2 1352.52 2177.1 1377.8 2177 1396.56 2176.91 1413.69 2184.63 1430.29 2198.58 1442.97 2237.71 1478.52 2295.8 1458.97 2306.98 1406.49 2309.9 1392.82 2309.68 1383.38 2306.16 1369.66 2302.82 1356.7 2298.42 1348.33 2290.91 1340.7 2277.53 1327.11 2243.6 1319.31 2221.41 1324.74" fill-rule="evenodd"/><path d="M2599.84 1612.98C2584.95 1623.92 2579.07 1634.99 2579 1652.21 2578.94 1667.1 2583 1676.23 2594.59 1687.27 2614.47 1706.21 2619.11 1699.26 2619 1650.71 2618.92 1616.22 2617.58 1609.76 2610.34 1609.05 2607.18 1608.74 2603.97 1609.94 2599.84 1612.98" fill-rule="evenodd"/></g></svg>