<svg width="1703" height="1703" xmlns="http://www.w3.org/2000/svg" xmlns:xlink="http://www.w3.org/1999/xlink" xml:space="preserve" overflow="hidden"><defs><clipPath id="clip0"><rect x="1713" y="521" width="1703" height="1703"/></clipPath><clipPath id="clip1"><rect x="2609" y="1140" width="699" height="857"/></clipPath><clipPath id="clip2"><rect x="2609" y="1140" width="699" height="857"/></clipPath><clipPath id="clip3"><rect x="2609" y="1140" width="699" height="857"/></clipPath><clipPath id="clip4"><rect x="1721" y="526" width="1144" height="1143"/></clipPath><clipPath id="clip5"><rect x="1721" y="526" width="1144" height="1143"/></clipPath><clipPath id="clip6"><rect x="1721" y="526" width="1144" height="1143"/></clipPath></defs><g clip-path="url(#clip0)" transform="translate(-1713 -521)"><path d="M1720 1372.5C1720 906.095 2098.1 528 2564.5 528 3030.9 528 3409 906.095 3409 1372.5 3409 1838.9 3030.9 2217 2564.5 2217 2098.1 2217 1720 1838.9 1720 1372.5Z" stroke="#000000" stroke-width="13.75" stroke-miterlimit="8" fill="#FF0000" fill-rule="evenodd"/><g clip-path="url(#clip1)"><g clip-path="url(#clip2)"><g clip-path="url(#clip3)"><path d="M276.521 810.717C220.29 800.83 178.58 780.748 144.903 747.689 119.259 722.354 106.283 699.799 96.7052 664.269 88.0542 632.137 90.5259 555.823 103.811 452.63 106.283 431.929 117.406 373.535 122.349 354.071 126.366 338.314 126.366 335.533 122.658 330.899 113.698 321.012 108.137 305.564 105.974 287.335 104.738 274.358 102.884 268.797 99.7948 268.797 91.1439 268.797 77.2406 259.219 71.9882 249.333 64.2642 235.12 65.191 195.573 73.842 171.474 98.8679 101.649 180.434 43.2547 276.212 26.2618 311.434 20.3915 374.462 20.3915 409.684 26.2618 494.34 41.092 567.564 87.7453 601.858 148.302 612.054 166.222 621.014 198.045 621.014 216.274 621.014 243.153 608.347 264.163 590.118 267.561 581.776 269.415 580.849 270.651 580.849 280.847 580.849 296.604 575.906 312.67 566.946 325.646L559.531 336.769 566.946 369.828C574.361 401.96 583.63 463.134 590.736 525.236 592.59 541.302 594.134 575.597 594.443 600.932 594.752 641.715 593.825 650.057 587.337 670.448 583.63 683.116 576.833 700.108 572.816 708.141 562.62 728.224 529.87 762.21 508.243 775.186 483.217 790.325 441.816 804.847 408.139 810.717 372.608 816.587 310.507 816.896 276.521 810.717ZM241.608 605.257C282.083 591.663 322.248 574.361 325.646 569.108 328.118 564.783 298.458 548.408 270.651 539.139 233.267 526.472 208.55 529.252 189.394 547.481 170.547 565.71 168.693 605.566 186.304 614.217 197.118 619.469 201.443 618.851 241.608 605.257ZM498.665 614.526C518.439 605.257 515.967 565.092 494.34 545.627 474.875 528.016 445.215 526.781 406.594 542.229 374.153 555.205 357.469 565.401 361.486 570.035 366.12 575.597 397.634 589.191 441.507 604.33 484.144 618.851 487.542 619.469 498.665 614.526ZM376.316 431.311C404.432 421.425 422.969 397.017 418.953 375.08 416.172 361.795 401.651 344.802 384.967 335.842 366.12 325.955 322.557 326.264 301.856 336.46 272.505 350.672 260.146 382.186 275.594 404.432 290.116 425.75 311.125 435.328 343.257 435.637 354.689 435.637 369.519 433.783 376.316 431.311Z" transform="matrix(1.00107 0 0 -1 2609 1996.91)"/></g></g></g><g clip-path="url(#clip4)"><g clip-path="url(#clip5)"><g clip-path="url(#clip6)"><path d="M856.5 413.975 856.5 214.125 761.333 214.125 761.333 323.567 571 142.75 571 142.75 71.375 618.583 124.906 663.787 571 240.296 571 240.296 1017.09 663.787 1070.62 618.583Z" transform="matrix(1 0 0 1 1722 527)"/><path d="M214.125 645.944 214.125 999.25 499.625 999.25 499.625 701.854 642.375 701.854 642.375 999.25 927.875 999.25 927.875 645.944 571 306.912 214.125 645.944ZM428.25 844.604 285.5 844.604 285.5 701.854 428.25 701.854 428.25 844.604ZM713.75 701.854 856.5 701.854 856.5 844.604 713.75 844.604 713.75 701.854Z" transform="matrix(1 0 0 1 1722 527)"/></g></g></g></g></svg>