<svg width="1703" height="1703" xmlns="http://www.w3.org/2000/svg" xmlns:xlink="http://www.w3.org/1999/xlink" xml:space="preserve" overflow="hidden"><defs><clipPath id="clip0"><rect x="1713" y="521" width="1703" height="1703"/></clipPath></defs><g clip-path="url(#clip0)" transform="translate(-1713 -521)"><path d="M1720 1372.5C1720 906.095 2098.1 528 2564.5 528 3030.9 528 3409 906.095 3409 1372.5 3409 1838.9 3030.9 2217 2564.5 2217 2098.1 2217 1720 1838.9 1720 1372.5Z" stroke="#000000" stroke-width="13.75" stroke-miterlimit="8" fill="#FF0000" fill-rule="evenodd"/><path d="M2820.8 805.907C2821.56 808.719 2821.83 811.719 2821.58 814.907 2820.28 814.907 2818.97 814.907 2817.67 814.907 2818.51 814.066 2819.55 813.766 2820.8 814.007 2820.8 811.307 2820.8 808.607 2820.8 805.907Z" fill="#848485" fill-rule="evenodd"/><path d="M87.1718 272.528C58.4252 206.587-4.81742 13.1611-0.217867 7.66614 3.2318 5.46855 15.88 1.07201 27.3788-1.12558 48.0762-4.42298 73.3737 54.9235 144.665 267.033 148.115 278.023 141.216 290.112 127.417 297.805 106.72 307.696 102.12 304.399 87.1718 272.528Z" fill-rule="evenodd" transform="matrix(1 0 0 -1 2317 924)"/><path d="M140.427 167.914C-5.78065 34.7303-11.5369 27.0259 6.88317 9.41497 29.9077-11.4984 16.0932-21.4044 239.433 178.92 325.775 257.069 333.834 265.875 320.019 286.788 311.96 298.896 302.751 308.802 299.297 308.802 295.843 307.701 224.466 244.962 140.427 167.914Z" fill-rule="evenodd" transform="matrix(1 0 0 -1 2442 971)"/><path d="M290.351 577.326 213.529 519.493 211.433 545.781 209.338 572.068 163.943 572.068 119.247 572.068 119.247 509.562 118.549 446.472 59.1859 403.244-0.176672 360.015 26.362 336.065C41.028 323.213 53.5987 311.529 54.2971 309.777 54.9955 308.609 68.9631 317.371 85.7242 329.055L115.755 350.669 117.85 175.419 119.247-0.41592 171.626-0.41592 224.004-0.41592 224.004 92.4668 224.004 184.765 255.432 188.27C272.193 190.607 295.938 190.607 307.81 188.854L328.762 185.349 328.762 92.4668 328.762-0.41592 471.93-0.41592 615.099-0.41592 615.099 174.834C615.099 271.222 617.194 350.085 619.988 350.085 622.781 350.085 636.749 340.154 651.415 328.47L677.953 306.856 705.888 329.639C721.253 341.906 733.824 354.174 733.824 355.926 733.824 360.015 379.045 632.822 371.363 634.574 369.268 635.158 332.952 609.455 290.351 577.326ZM327.365 319.708 329.46 279.984 279.875 279.984 230.988 279.984 230.988 316.787C230.988 337.233 233.083 355.926 235.877 358.263 238.67 360.6 259.622 361.768 283.367 360.6L325.27 358.847 327.365 319.708ZM510.341 320.876 510.341 279.984 461.454 279.984 413.266 279.984 415.361 319.708C416.758 341.322 418.155 359.431 418.853 360.6 419.551 361.184 439.805 361.768 464.947 361.768L510.341 361.768 510.341 320.876Z" fill-rule="evenodd" transform="matrix(1 0 0 -1 1778 1531)"/><path d="M158.377 108.956C73.257 71.6915 1.94129 36.6197-0.359277 31.1397-1.50956 24.5637 0.791004 12.5077 6.54241 4.83552 18.0446-11.6043 60.6045 2.64327 275.703 96.8996 345.869 127.587 349.32 131.971 327.464 159.371 313.662 173.619 294.107 168.139 158.377 108.956Z" fill-rule="evenodd" transform="matrix(1 0 0 -1 2507 1054)"/><path d="M71.4719 188.038C44.1621 183.38 6.41059 142.229 0.787898 112.725-10.4571 58.376 40.1463-0.63184 97.9785-0.63184 134.927-0.63184 175.891 29.6486 187.94 65.3636 196.775 91.7619 196.775 101.079 184.727 129.806 174.285 156.981 164.646 167.074 138.14 178.721 104.404 193.473 101.995 193.473 71.4719 188.038Z" fill-rule="evenodd" transform="matrix(1 0 0 -1 3132 1198)"/><path d="M193.109 289.315C105.676 273.242 38.5266 229.616 13.3461 172.978-3.44106 133.943-4.84002 107.155 8.44973 72.7131 50.4178-39.0326 218.29-20.6633 371.473 112.513 420.436 154.608 453.31 194.408 462.403 221.962 478.491 270.181 313.417 311.511 193.109 289.315Z" fill-rule="evenodd" transform="matrix(1 0 0 -1 2616 1399)"/><path d="M447.217 571.969C402.477 535.11 350.746 493.572 332.57 479.53 314.394 466.074 288.529 440.916 275.247 424.535 253.575 398.208 248.682 385.337 235.4 315.715 227.011 272.421 217.923 234.978 215.826 233.222 213.729 230.882 173.882 233.807 127.744 239.658 33.3699 250.774 8.20344 247.849 1.21265 223.861-5.77778 201.044 8.20344 182.323 38.2631 175.887 85.7998 165.356 273.848 147.219 288.529 151.9 314.394 160.09 325.579 177.642 340.959 236.733 350.047 268.911 359.135 298.748 361.931 302.844 365.426 308.694 382.204 296.993 418.555 263.645L470.286 216.256 489.161 130.253C499.647 82.2782 508.035 38.9843 508.735 33.719 508.735 23.773 494.054 23.1879 302.51 23.1879 101.179 23.1879 96.2856 23.1879 96.2856 11.4869 96.2856-0.214412 101.179-0.214412 334.667-0.214412 475.179-0.214412 577.942 2.12571 585.632 5.63607 592.623 8.56131 599.613 17.3374 601.71 24.3578 604.507 31.9636 596.817 88.7138 586.331 150.145L566.757 262.475 516.424 315.715C489.161 344.382 466.791 370.125 466.791 373.05 466.791 375.391 487.063 394.697 512.23 415.174 552.776 449.107 557.669 451.448 557.669 438.576 557.669 409.324 572.35 379.486 589.826 373.05 620.585 361.349 635.265 373.635 683.501 452.033 726.843 523.409 727.542 525.75 716.357 539.791 693.288 569.043 658.335 564.948 636.663 530.43L625.479 511.708 613.594 563.193C607.303 591.275 597.516 618.773 591.224 623.453 585.632 628.134 569.553 633.399 555.572 635.74 529.707 639.25 527.609 637.495 447.217 571.969Z" fill-rule="evenodd" transform="matrix(1 0 0 -1 2604 1830)"/></g></svg>