<svg width="1703" height="1703" xmlns="http://www.w3.org/2000/svg" xmlns:xlink="http://www.w3.org/1999/xlink" xml:space="preserve" overflow="hidden"><defs><clipPath id="clip0"><rect x="1174" y="649" width="1703" height="1703"/></clipPath></defs><g clip-path="url(#clip0)" transform="translate(-1174 -649)"><path d="M1181 1500.5C1181 1034.1 1559.1 656 2025.5 656 2491.9 656 2870 1034.1 2870 1500.5 2870 1966.9 2491.9 2345 2025.5 2345 1559.1 2345 1181 1966.9 1181 1500.5Z" stroke="#000000" stroke-width="13.75" stroke-miterlimit="8" fill="#FF0000" fill-rule="evenodd"/><path d="M2281.8 933.907C2282.56 936.719 2282.83 939.719 2282.58 942.907 2281.28 942.907 2279.97 942.907 2278.67 942.907 2279.51 942.066 2280.55 941.766 2281.8 942.007 2281.8 939.307 2281.8 936.607 2281.8 933.907Z" fill="#848485" fill-rule="evenodd"/><path d="M1562.57 971.76C1562.13 1263.47 1562.45 1555.19 1563.53 1846.91 1563.85 1885 1564.17 1923.09 1564.5 1961.18 1568.51 1958.12 1570.43 1954.04 1570.27 1948.95 1580.69 1923.57 1599.3 1906.79 1626.09 1898.63 1677.41 1896.88 1728.74 1895.63 1780.09 1894.87 1780.87 1894.58 1781.51 1894.11 1782.01 1893.46 1789.38 1877.1 1796.44 1860.79 1803.19 1844.56 1803.41 1845.12 1803.9 1845.43 1804.63 1845.5 1810.8 1845.09 1814.81 1842.11 1816.66 1836.56 1816.58 1835.52 1816.26 1834.58 1815.7 1833.74 1817.3 1833.05 1817.78 1831.96 1817.14 1830.45 1816.82 1831.08 1816.5 1831.7 1816.18 1832.33 1815.54 1831.08 1815.54 1829.82 1816.18 1828.57 1817.29 1829.47 1818.25 1829.15 1819.07 1827.63 1831.85 1826.87 1838.43 1819.98 1838.8 1806.93 1848.47 1807.34 1854.89 1802.79 1858.05 1793.3 1856.77 1789.69 1858.06 1786.55 1861.9 1783.89 1861.68 1783.52 1861.36 1783.36 1860.94 1783.42 1941.68 1774.45 2021.57 1760.18 2100.59 1740.63 2114.37 1739.05 2128.16 1738.89 2141.98 1740.16 2144.45 1742.15 2146.7 1744.34 2148.72 1746.74 2149.51 1749.51 2149.99 1752.34 2150.16 1755.21 2150.72 1830.79 2152 1906.34 2154.01 1981.87 2160.02 1996.65 2171.08 2002.44 2187.21 1999.27 2192.65 1997.42 2196.98 1994.12 2200.21 1989.39 2201.98 1986.51 2202.95 1983.37 2203.1 1979.99 2204.31 1914.16 2204.79 1848.33 2204.54 1782.48 2205.25 1782.6 2205.89 1782.44 2206.46 1782.01 2206.14 1777.94 2205.82 1773.86 2205.5 1769.78 2207.3 1767.64 2209.38 1766.85 2211.76 1767.43 2219.01 1765.36 2223.66 1760.81 2225.71 1753.8 2223.77 1750.74 2222.65 1747.44 2222.34 1743.92 2223.01 1743.11 2223.81 1742.49 2224.75 1742.04 2228.09 1743.7 2231.45 1745.27 2234.86 1746.74 2238.85 1745.98 2241.74 1743.78 2243.52 1740.16 2244.97 1737.16 2246.41 1734.19 2247.85 1731.22 2246.72 1727.94 2246.24 1724.34 2246.41 1720.41 2246.73 1721.35 2247.05 1722.29 2247.37 1723.23 2249.57 1724.15 2251.5 1725.4 2253.14 1726.99 2253.33 1725.22 2253.82 1723.65 2254.59 1722.29 2255.1 1814.18 2253.81 1906.03 2250.74 1997.86 2328.99 1999.53 2407.26 2000.16 2485.58 1999.74 2485.42 1751.44 2485.58 1503.15 2486.06 1254.85 2486.24 1125.06 2486.88 995.27 2487.99 865.482 2503.77 844.491 2519.97 844.177 2536.59 864.542 2537.39 941.035 2537.87 1017.53 2538.04 1094.03 2538.52 1395.93 2538.68 1697.84 2538.52 1999.74 2568.55 1998.55 2598.38 2000.29 2628.03 2004.91 2646.4 2022.32 2644.48 2037.05 2622.25 2049.12 2409.06 2050.75 2195.88 2051.54 1982.69 2051.47 1797.08 2051.67 1611.49 2050.89 1425.9 2049.12 1416.97 2043.39 1411.84 2035.39 1410.5 2025.13 1411.09 2021.15 1412.53 2017.38 1414.83 2013.85 1418.49 2009.33 1422.5 2005.1 1426.86 2001.15 1455.4 1999.89 1483.95 1999.42 1512.52 1999.74 1512.36 1789.7 1512.52 1579.64 1513 1369.6 1513.12 1201.24 1513.92 1032.89 1515.41 864.542 1531.42 844.362 1546.98 844.675 1562.09 865.482 1562.57 900.907 1562.73 936.333 1562.57 971.76Z" stroke="#000000" stroke-width="3.4375" stroke-miterlimit="8" fill-rule="evenodd"/><path d="M2254.78 1724.25C2254.01 1725.62 2253.53 1727.19 2253.34 1728.96 2251.69 1727.36 2249.77 1726.11 2247.57 1725.19 2247.25 1724.25 2246.93 1723.31 2246.61 1722.37 2246.45 1726.3 2246.93 1729.91 2248.05 1733.19 2246.62 1736.15 2245.17 1739.13 2243.73 1742.13 2241.95 1745.75 2239.06 1747.95 2235.07 1748.71 2231.68 1747.24 2228.31 1745.67 2224.98 1744.01 2224.04 1744.46 2223.24 1745.08 2222.58 1745.89 2222.88 1749.42 2224 1752.71 2225.94 1755.77 2223.89 1762.79 2219.25 1767.34 2212 1769.41 2209.63 1768.83 2207.55 1769.62 2205.75 1771.76 2206.07 1775.84 2206.39 1779.92 2206.71 1783.99 2206.14 1784.43 2205.5 1784.59 2204.79 1784.47 2205.46 1768.78 2205.94 1753.1 2206.23 1737.42 2201.57 1701.5 2181.86 1677.19 2147.1 1664.51 2131.6 1660.4 2115.89 1659.46 2100 1661.69 2043.63 1680.75 1987.22 1699.73 1930.79 1718.61 1917.94 1715.71 1909.45 1708.18 1905.31 1696.03 1904.67 1693.83 1904.67 1691.64 1905.31 1689.44 1923.04 1617.94 1941.95 1546.75 1962.03 1475.87 1968.91 1468.51 1977.41 1465.53 1987.51 1466.94 2043.39 1493.8 2099.15 1520.93 2154.8 1548.32 2162.27 1549.94 2169.32 1548.84 2175.95 1545.02 2224.03 1475.71 2270.18 1405.15 2314.39 1333.34 2308.86 1322.12 2300.53 1313.5 2289.4 1307.47 2283.75 1309.21 2278.78 1312.03 2274.49 1315.93 2239.4 1363.14 2205.43 1411.12 2172.58 1459.88 2166.42 1467.67 2158.89 1473.78 2149.99 1478.23 2145.1 1479 2140.29 1478.69 2135.57 1477.28 2107.37 1463.49 2079.16 1449.69 2050.96 1435.89 2017.81 1434.58 1987.36 1425.17 1959.63 1407.66 1950.41 1401.35 1941.28 1394.92 1932.23 1388.38 1924.2 1390.65 1917.31 1394.73 1911.56 1400.61 1870.29 1494.54 1830.07 1588.94 1790.9 1683.8 1782 1727.99 1797.22 1761.39 1836.57 1783.99 1844.75 1786.53 1853.08 1787 1861.56 1785.41 1861.98 1785.34 1862.31 1785.5 1862.52 1785.88 1858.69 1788.54 1857.41 1791.67 1858.68 1795.28 1855.52 1804.78 1849.11 1809.33 1839.45 1808.93 1839.08 1821.98 1832.51 1828.87 1819.74 1829.62 1818.92 1831.15 1817.96 1831.47 1816.86 1830.57 1816.22 1831.82 1816.22 1833.08 1816.86 1834.33 1817.18 1833.7 1817.5 1833.08 1817.82 1832.45 1818.45 1833.96 1817.97 1835.05 1816.38 1835.74 1816.94 1836.58 1817.26 1837.52 1817.34 1838.56 1815.49 1844.11 1811.48 1847.1 1805.32 1847.5 1804.58 1847.43 1804.1 1847.12 1803.88 1846.56 1806.64 1840.25 1809.05 1833.97 1811.09 1827.74 1757.06 1796.65 1732.38 1750.23 1737.06 1688.5 1775.5 1589.59 1814.92 1491.43 1855.31 1394.02 1866.71 1371.73 1884.18 1355.74 1907.71 1346.04 1884.12 1269.27 1906.88 1209.84 1975.97 1167.75 2044.26 1140.2 2103.71 1152.59 2154.32 1204.91 2194.85 1261.65 2195.81 1319.04 2157.2 1377.09 2146.44 1390.58 2133.78 1402.02 2119.22 1411.43 2121.61 1415.64 2125.13 1418.46 2129.8 1419.89 2131.8 1420.65 2133.72 1420.5 2135.57 1419.42 2171.48 1374.05 2205.93 1327.64 2238.92 1280.18 2252.37 1268.97 2267.59 1260.82 2284.59 1255.72 2310.53 1203.92 2350.27 1190.6 2403.8 1215.73 2438.82 1244.22 2445.71 1278.24 2424.47 1317.81 2408.16 1339.21 2386.53 1352.38 2359.58 1357.33 2310.95 1432.03 2261.76 1506.36 2212 1580.31 2191.58 1596.94 2168.34 1602.43 2142.3 1596.77 2095.36 1573.96 2048.57 1550.91 2001.93 1527.62 1987.12 1568.73 1976.87 1610.75 1971.17 1653.69 2019.76 1634.28 2069.76 1619.23 2121.15 1608.53 2193.6 1616.08 2238.15 1654.65 2254.78 1724.25Z" stroke="#000000" stroke-width="3.4375" stroke-miterlimit="8" fill-rule="evenodd"/><path d="M2016.01 1203.89C2097.97 1199.2 2136.3 1236.63 2131.02 1316.16 2108.12 1368.91 2067.87 1388.72 2010.24 1375.56 2004.95 1374.06 1999.82 1372.19 1994.84 1369.95 1955.15 1343.1 1941.52 1306.77 1953.94 1260.96 1966.07 1233.11 1986.76 1214.08 2016.01 1203.89Z" stroke="#000000" stroke-width="3.4375" stroke-miterlimit="8" fill-rule="evenodd"/><path d="M2354.76 1245.51C2363.97 1245.34 2372.62 1247.37 2380.71 1251.6 2387.33 1257.22 2389.73 1264.25 2387.91 1272.69 2386.31 1289.03 2377.18 1295.75 2360.53 1292.84 2357.2 1290.54 2354.16 1287.88 2351.4 1284.88 2347.87 1280.5 2344.35 1276.13 2340.83 1271.75 2339.17 1259.68 2343.82 1250.93 2354.76 1245.51Z" stroke="#000000" stroke-width="3.4375" stroke-miterlimit="8" fill="#FFFFFF" fill-rule="evenodd"/><path d="M2204.89 1784.7C2205.14 1850.6 2204.66 1916.49 2203.45 1982.36 2203.3 1985.75 2202.34 1988.89 2200.56 1991.78 2197.34 1996.51 2193.01 1999.8 2187.58 2001.66 2171.47 2004.83 2160.41 1999.03 2154.41 1984.25 2152.41 1908.66 2151.13 1833.05 2150.56 1757.41 2150.39 1754.54 2149.91 1751.71 2149.12 1748.94 2147.11 1746.54 2144.86 1744.34 2142.39 1742.35 2128.59 1741.08 2114.81 1741.24 2101.05 1742.82 2022.1 1762.39 1942.29 1776.67 1861.63 1785.65 1853.15 1787.24 1844.82 1786.77 1836.63 1784.23 1797.29 1761.62 1782.06 1728.2 1790.96 1683.99 1830.14 1589.1 1870.36 1494.66 1911.63 1400.68 1917.39 1394.8 1924.28 1390.73 1932.3 1388.45 1941.35 1394.99 1950.49 1401.42 1959.71 1407.74 1987.44 1425.26 2017.89 1434.67 2051.05 1435.98 2079.25 1449.78 2107.46 1463.59 2135.66 1477.39 2140.38 1478.8 2145.19 1479.11 2150.08 1478.33 2158.99 1473.89 2166.52 1467.77 2172.68 1459.98 2205.53 1411.2 2239.5 1363.2 2274.6 1315.97 2278.89 1312.07 2283.85 1309.24 2289.5 1307.5 2300.64 1313.54 2308.97 1322.16 2314.5 1333.38 2270.28 1405.22 2224.13 1475.81 2176.04 1545.16 2169.41 1548.98 2162.36 1550.08 2154.89 1548.46 2099.24 1521.06 2043.47 1493.92 1987.59 1467.04 1977.49 1465.63 1968.99 1468.61 1962.11 1475.98 1942.03 1546.88 1923.12 1618.1 1905.38 1689.64 1904.74 1691.84 1904.74 1694.03 1905.38 1696.23 1909.52 1708.39 1918.02 1715.92 1930.86 1718.82 1987.3 1699.93 2043.71 1680.95 2100.08 1661.87 2115.98 1659.65 2131.69 1660.59 2147.2 1664.7 2181.96 1677.39 2201.67 1701.7 2206.33 1737.64 2206.04 1753.32 2205.56 1769.01 2204.89 1784.7Z" stroke="#000000" stroke-width="3.4375" stroke-miterlimit="8" fill-rule="evenodd"/><path d="M2109.2 1792.5C2114.02 1792.5 2118.83 1792.5 2123.65 1792.5 2122.99 1860.55 2124.27 1928.56 2127.5 1996.53 2066.88 1999.78 2006.22 2001.04 1945.5 2000.29 1957.85 1940.79 1971.49 1881.55 1986.43 1822.59 2027.32 1812.13 2068.25 1802.1 2109.2 1792.5Z" stroke="#000000" stroke-width="3.4375" stroke-miterlimit="8" fill="#FF0000" fill-rule="evenodd"/><path d="M1885.51 1830.5C1893.84 1830.5 1902.17 1830.5 1910.5 1830.5 1898.15 1884.46 1885.17 1938.35 1871.58 1992.15 1870.62 1995.12 1868.86 1997.47 1866.29 1999.2 1789.74 2001.92 1713.17 2002.23 1636.58 2000.14 1628.44 1996.66 1622.52 1990.87 1618.8 1982.75 1616.13 1974.74 1617.57 1967.54 1623.13 1961.14 1626.19 1957.99 1629.39 1955.01 1632.74 1952.21 1693.67 1951.24 1754.54 1948.89 1815.35 1945.16 1832.23 1910.53 1847.12 1875.12 1860.04 1838.96 1860.84 1838.18 1861.64 1837.39 1862.44 1836.61 1870.33 1834.84 1878.02 1832.8 1885.51 1830.5Z" stroke="#000000" stroke-width="3.4375" stroke-miterlimit="8" fill-rule="evenodd"/></g></svg>