<svg width="1703" height="1703" xmlns="http://www.w3.org/2000/svg" xmlns:xlink="http://www.w3.org/1999/xlink" xml:space="preserve" overflow="hidden"><defs><clipPath id="clip0"><rect x="1174" y="649" width="1703" height="1703"/></clipPath></defs><g clip-path="url(#clip0)" transform="translate(-1174 -649)"><path d="M1181 1500.5C1181 1034.1 1559.1 656 2025.5 656 2491.9 656 2870 1034.1 2870 1500.5 2870 1966.9 2491.9 2345 2025.5 2345 1559.1 2345 1181 1966.9 1181 1500.5Z" stroke="#000000" stroke-width="13.75" stroke-miterlimit="8" fill="#FF0000" fill-rule="evenodd"/><path d="M2281.8 933.907C2282.56 936.719 2282.83 939.719 2282.58 942.907 2281.28 942.907 2279.97 942.907 2278.67 942.907 2279.51 942.066 2280.55 941.766 2281.8 942.007 2281.8 939.307 2281.8 936.607 2281.8 933.907Z" fill="#848485" fill-rule="evenodd"/><path d="M2005.41 1010C2059.53 1010 2113.65 1010 2167.76 1010 2337.6 1011.01 2507.69 1011.96 2678 1012.85 2678 1093.18 2678 1173.51 2678 1253.84 2415.63 1254.35 2153.26 1253.64 1890.9 1251.7 1889.93 1251.23 1888.97 1250.75 1888 1250.28 1926.94 1170.09 1966.08 1090 2005.41 1010Z" fill="#000000" fill-rule="evenodd" fill-opacity="0.988235"/><path d="M2678 1270.09C2678 1497.02 2678 1723.96 2678 1950.9 2261.27 1951.29 1844.54 1950.58 1427.81 1948.75 1414.77 1948.28 1401.74 1947.8 1388.7 1947.33 1382.2 1947.12 1375.92 1945.93 1369.87 1943.76 1368.09 1940.34 1369.05 1937.72 1372.76 1935.91 1381.36 1934.28 1390.05 1933.33 1398.84 1933.05 1515.21 1932.34 1631.59 1932.1 1747.96 1932.34 1748.21 1894.75 1747.96 1857.17 1747.24 1819.59 1746.77 1811.93 1746.05 1804.32 1745.07 1796.75 1739.63 1799.42 1733.83 1801.32 1727.68 1802.46 1713.17 1798.88 1702.79 1790.31 1696.54 1776.77 1691.45 1767.92 1689.04 1758.41 1689.29 1748.22 1686.42 1745.14 1683.04 1742.77 1679.15 1741.09 1678 1737.2 1676.31 1733.64 1674.08 1730.38 1669.92 1730.21 1666.06 1729.26 1662.49 1727.53 1664.02 1725.55 1665.95 1724.12 1668.29 1723.25 1629.27 1718.52 1592.09 1707.11 1556.74 1688.99 1554.26 1687.03 1552.33 1684.65 1550.95 1681.86 1553.12 1678.76 1555.29 1675.67 1557.47 1672.58 1558.51 1670.28 1558.27 1668.14 1556.74 1666.16 1558.23 1663.73 1560.41 1662.54 1563.26 1662.59 1579.27 1663.16 1585.55 1671.24 1582.09 1686.85 1586.15 1681.43 1590.73 1676.43 1595.86 1671.86 1600.02 1669.15 1604.61 1667.96 1609.62 1668.3 1644.85 1675.27 1678.9 1685.97 1711.75 1700.41 1724.78 1720.61 1736.13 1741.78 1745.79 1763.92 1746.17 1711.11 1746.9 1658.3 1747.96 1605.5 1747.22 1585.04 1746.5 1564.58 1745.79 1544.12 1745.41 1538.77 1744.45 1533.54 1742.89 1528.42 1736.9 1543.85 1726.03 1554.55 1710.3 1560.54 1690.52 1566.66 1670.24 1569.75 1649.46 1569.82 1645.38 1602.2 1641.03 1634.55 1636.42 1666.87 1614.21 1664.77 1592 1662.63 1569.78 1660.45 1564.3 1659.91 1559.23 1658.25 1554.57 1655.45 1553.07 1652.07 1552.34 1648.5 1552.4 1644.75 1554.91 1617.85 1557.56 1590.97 1560.36 1564.11 1561.16 1555.64 1563.34 1547.55 1566.88 1539.84 1572.87 1537.53 1579.15 1536.34 1585.71 1536.27 1620 1535.8 1654.28 1535.32 1688.57 1534.85 1701.33 1522.15 1714.37 1509.78 1727.68 1497.74 1747.25 1481.49 1759.57 1486.01 1764.62 1511.3 1765.83 1512.49 1767.04 1513.68 1768.25 1514.87 1774.99 1515.58 1781.75 1515.82 1788.53 1515.58 1788.53 1654.5 1788.53 1793.42 1788.53 1932.34 1875.93 1932.34 1963.33 1932.34 2050.73 1932.34 2050.49 1754.41 2050.73 1576.47 2051.46 1398.54 2051.93 1356.67 2052.65 1314.8 2053.63 1272.94 2079.19 1271.83 2104.78 1271.12 2130.41 1270.8 2312.94 1270.09 2495.47 1269.85 2678 1270.09ZM2202.84 1342.88C2238.09 1342.88 2273.34 1342.88 2308.59 1342.88 2308.59 1376.66 2308.59 1410.44 2308.59 1444.22 2273.34 1444.22 2238.09 1444.22 2202.84 1444.22 2202.84 1410.44 2202.84 1376.66 2202.84 1342.88ZM2324.53 1342.88C2359.3 1342.88 2394.06 1342.88 2428.83 1342.88 2428.83 1376.66 2428.83 1410.44 2428.83 1444.22 2394.06 1444.22 2359.3 1444.22 2324.53 1444.22 2324.53 1410.44 2324.53 1376.66 2324.53 1342.88ZM2202.84 1465.62C2238.09 1465.62 2273.34 1465.62 2308.59 1465.62 2308.59 1499.4 2308.59 1533.18 2308.59 1566.96 2273.34 1566.96 2238.09 1566.96 2202.84 1566.96 2202.84 1533.18 2202.84 1499.4 2202.84 1465.62ZM2324.53 1465.62C2359.3 1465.62 2394.06 1465.62 2428.83 1465.62 2428.83 1499.4 2428.83 1533.18 2428.83 1566.96 2394.06 1566.96 2359.3 1566.96 2324.53 1566.96 2324.53 1533.18 2324.53 1499.4 2324.53 1465.62ZM1723.34 1511.3C1732.97 1512.96 1739.01 1518.19 1741.44 1527 1735.71 1521.24 1729.68 1516 1723.34 1511.3ZM1630.62 1682.57C1633.73 1682.85 1633.97 1684.28 1631.35 1686.85 1627.88 1690.99 1623.77 1694.32 1619.03 1696.84 1618.55 1696.37 1618.07 1695.89 1617.59 1695.41 1620.55 1689.64 1624.9 1685.35 1630.62 1682.57ZM1652.35 1701.12C1653.42 1700.94 1654.39 1701.18 1655.25 1701.84 1652.49 1706.93 1648.39 1710.5 1642.94 1712.54 1642.21 1712.07 1641.49 1711.59 1640.76 1711.11 1644.13 1707.1 1647.99 1703.77 1652.35 1701.12Z" fill="#000000" fill-rule="evenodd" fill-opacity="0.988235"/><path d="M1601.21 1398.21C1617.39 1397.06 1632.42 1400.64 1646.29 1408.96 1660.97 1419.37 1674.54 1431.07 1687 1444.07 1683.88 1473.39 1671.28 1497.99 1649.2 1517.88 1621.82 1530.93 1594.68 1529.97 1567.77 1515.02 1534.91 1491.28 1528.37 1461.9 1548.14 1426.87 1562.67 1411.47 1580.36 1401.92 1601.21 1398.21ZM1676.82 1445.51C1678.64 1446.7 1679.61 1448.61 1679.73 1451.24 1676.99 1477.43 1665.36 1498.69 1644.83 1515.02 1636.44 1520.53 1627.23 1522.68 1617.21 1521.46 1616.74 1511.17 1620.13 1502.33 1627.39 1494.95 1633.2 1491.13 1639.02 1487.31 1644.83 1483.49 1647.07 1481.89 1648.04 1479.74 1647.74 1477.04 1630.43 1478.86 1623.89 1471.7 1628.11 1455.54 1632.55 1452.01 1637.63 1449.86 1643.38 1449.09 1654.76 1448.02 1665.91 1446.83 1676.82 1445.51Z" fill="#000000" fill-rule="evenodd" fill-opacity="0.968627"/><path d="M1498.04 1525.09C1511.55 1524.85 1525.05 1525.09 1538.54 1525.8 1542.49 1526.39 1546.35 1527.34 1550.11 1528.66 1551.99 1529.8 1552.96 1531.47 1553 1533.65 1545.55 1580.53 1539.52 1627.61 1534.92 1674.89 1532.85 1694.17 1528.02 1712.72 1520.46 1730.53 1513.4 1742.22 1503.03 1749.6 1489.36 1752.65 1465.67 1756.16 1443.01 1752.83 1421.38 1742.66 1417.5 1740.03 1415.09 1736.46 1414.15 1731.96 1409.92 1735.25 1405.1 1737.16 1399.68 1737.67 1368.31 1727.4 1343.96 1708.38 1326.64 1680.6 1314.88 1651.72 1318.74 1625.09 1338.21 1600.7 1367.38 1568.34 1403.3 1546.23 1445.97 1534.36 1463.33 1530.16 1480.69 1527.07 1498.04 1525.09ZM1495.14 1707.71C1501.29 1711.03 1502.5 1715.78 1498.76 1721.97 1497.45 1724.74 1495.28 1726.17 1492.25 1726.25 1489.51 1719.34 1490.48 1713.16 1495.14 1707.71ZM1512.5 1711.99C1517.18 1711.61 1519.11 1713.75 1518.29 1718.41 1518.86 1724.03 1516.45 1725.93 1511.06 1724.11 1507.17 1719.67 1507.65 1715.62 1512.5 1711.99ZM1456.09 1730.53C1460.46 1730.3 1464.8 1730.54 1469.11 1731.25 1470.98 1734.23 1470.01 1736.13 1466.22 1736.95 1460.77 1738.68 1456.43 1737.25 1453.2 1732.67 1454.52 1732.28 1455.49 1731.56 1456.09 1730.53Z" fill="#000000" fill-rule="evenodd" fill-opacity="0.988235"/></g></svg>