<svg width="1699" height="1699" xmlns="http://www.w3.org/2000/svg" xmlns:xlink="http://www.w3.org/1999/xlink" xml:space="preserve" overflow="hidden"><defs><clipPath id="clip0"><rect x="1339" y="418" width="1699" height="1699"/></clipPath><clipPath id="clip1"><rect x="1570" y="456" width="1172" height="1571"/></clipPath><clipPath id="clip2"><rect x="1570" y="456" width="1172" height="1571"/></clipPath><clipPath id="clip3"><rect x="1570" y="456" width="1172" height="1571"/></clipPath></defs><g clip-path="url(#clip0)" transform="translate(-1339 -418)"><path d="M1344 1267.5C1344 801.096 1722.1 423 2188.5 423 2654.9 423 3033 801.096 3033 1267.5 3033 1733.9 2654.9 2112 2188.5 2112 1722.1 2112 1344 1733.9 1344 1267.5Z" stroke="#000000" stroke-width="10.3125" stroke-miterlimit="8" fill="#C6E0B4" fill-rule="evenodd"/><path d="M2462.13 686C2462.89 689.125 2463.16 692.458 2462.91 696 2461.61 696 2460.3 696 2459 696 2459.84 695.066 2460.88 694.732 2462.13 695 2462.13 692 2462.13 689 2462.13 686Z" fill="#848485" fill-rule="evenodd"/><g clip-path="url(#clip1)"><g clip-path="url(#clip2)"><g clip-path="url(#clip3)"><path d="M906.182 1493.6C867.088 1482.07 841.527 1453 841.026 1419.42 841.026 1396.36 848.042 1383.83 869.093 1369.3 888.139 1356.27 908.187 1355.26 917.71 1366.29 923.725 1373.81 923.224 1375.31 915.204 1380.32 878.616 1400.87 872.1 1429.44 897.161 1454.5 909.19 1466.53 915.204 1469.04 926.231 1466.53 954.8 1459.52 982.366 1410.9 975.349 1377.82 973.845 1370.3 965.826 1353.76 957.306 1340.23 940.766 1313.66 938.26 1297.63 950.289 1286.1 959.812 1276.07 972.342 1276.07 985.373 1285.1 992.891 1291.11 993.894 1293.62 988.882 1298.63 978.857 1308.65 981.364 1319.68 997.402 1341.23 1015.95 1365.79 1019.96 1386.34 1012.44 1417.91 1004.92 1449.99 973.845 1486.08 948.284 1493.6 927.233 1499.11 924.727 1499.11 906.182 1493.6Z" transform="matrix(1 0 0 -1.00014 1572.09 2026)"/><path d="M988.882 1240.49C973.845 1229.96 974.347 1220.44 989.884 1205.4 1003.92 1191.37 1022.96 1189.36 1034.49 1200.89 1045.02 1210.92 1044.52 1219.44 1033.99 1231.97 1021.46 1246.5 1002.41 1250.01 988.882 1240.49Z" transform="matrix(1 0 0 -1.00014 1572.09 2026)"/><path d="M754.818 1235.48C669.613 1205.4 656.581 1083.11 733.266 1035.49 809.449 988.38 904.178 1041.01 904.178 1130.22 904.178 1208.91 828.997 1262.04 754.818 1235.48Z" transform="matrix(1 0 0 -1.00014 1572.09 2026)"/><path d="M445.573 1144.26C428.031 1134.73 413.496 1122.7 403.472 1108.67 389.939 1088.62 388.436 1083.11 388.436 1045.52 388.436 1008.93 389.939 1001.91 401.968 983.368 434.045 935.253 502.711 919.214 552.831 948.785 568.87 958.308 581.4 970.838 591.926 988.882 605.458 1012.44 606.962 1018.45 605.458 1051.03 603.955 1081.1 601.449 1090.13 588.918 1108.67 569.872 1136.24 529.275 1157.79 496.195 1157.79 480.658 1157.79 463.617 1153.28 445.573 1144.26Z" transform="matrix(1 0 0 -1.00014 1572.09 2026)"/><path d="M706.201 982.366C676.128 966.327 654.075 937.257 639.54 894.154 620.996 837.016 611.473 786.394 609.969 735.772 608.967 686.153 609.969 684.148 643.55 678.634 668.61 674.124 686.654 658.085 691.165 636.533 694.172 620.494 696.678 618.49 718.731 612.976 732.264 609.468 743.791 606.461 744.293 605.458 748.302 601.95 733.266 549.323 727.753 547.318 724.745 546.316 700.688 550.325 674.124 556.34 640.543 564.359 626.509 569.872 626.509 574.885 626.509 578.894 623.502 581.4 620.494 579.897 616.986 578.894 613.979 573.882 613.979 568.87 613.979 561.352 619.993 558.345 639.039 553.834L664.099 548.822 666.605 328.291C668.61 158.883 670.615 105.253 675.627 96.2318 691.165 68.6654 732.765 57.6388 761.835 72.675 792.408 88.2124 791.907 85.7064 791.907 357.862L791.907 605.959 765.343 643.049C724.244 700.186 707.704 745.796 696.177 831.001 685.15 914.703 698.683 949.787 742.288 949.787 759.329 949.787 765.343 946.78 777.372 933.248 790.404 918.713 791.907 913.199 791.907 883.628 791.907 853.055 800.929 784.389 804.437 787.898 805.44 788.9 810.953 816.466 816.968 849.546 829.498 921.219 825.989 946.78 799.425 974.848 784.389 990.886 780.881 992.39 753.815 992.39 734.77 991.889 717.729 988.38 706.201 982.366Z" transform="matrix(1 0 0 -1.00014 1572.09 2026)"/><path d="M317.765 935.253C262.131 909.19 196.974 805.941 163.394 689.661 143.345 620.494 146.352 583.906 175.422 553.834 200.483 527.771 212.512 466.123 212.512 363.375 213.013 275.163 209.505 251.606 187.451 177.427 173.418 130.314 172.415 110.266 182.941 90.7185 190.459 75.6823 217.524 60.1449 235.567 60.1449 256.117 60.1449 280.676 76.1835 290.7 95.7306 306.238 125.302 324.782 194.97 333.804 256.618 344.831 331.298 341.322 437.053 325.785 512.735 314.758 565.362 314.758 568.369 322.777 598.441 327.789 615.482 341.823 652.07 355.356 679.136L378.913 729.256 359.867 759.83C337.814 794.914 320.773 839.522 320.773 862.076 320.773 884.631 344.831 909.19 366.884 909.19 393.949 909.19 407.983 896.66 420.513 862.577 426.527 845.536 433.544 832.004 435.549 832.004 448.079 832.004 449.082 886.134 437.554 910.693 421.014 945.778 365.38 957.306 317.765 935.253Z" transform="matrix(1 0 0 -1.00014 1572.09 2026)"/><path d="M723.242 936.255C705.198 927.734 699.685 906.684 703.194 855.561 709.709 761.835 741.285 679.637 791.907 624.504 822.982 590.923 858.568 566.364 875.609 566.364 893.652 566.364 912.197 587.916 912.197 608.465 912.197 624.003 908.688 629.015 881.122 651.569 820.476 700.186 788.9 770.355 783.387 867.088 780.881 912.698 778.876 920.717 768.852 930.742 756.322 943.272 741.285 944.775 723.242 936.255Z" transform="matrix(1 0 0 -1.00014 1572.09 2026)"/><path d="M353.351 896.66C327.288 882.125 324.281 858.067 342.826 812.457 373.399 737.276 442.065 666.605 524.764 625.005 551.328 610.971 630.519 586.412 647.058 586.412 663.097 586.412 682.143 607.463 682.644 625.506 683.145 649.063 666.104 663.097 625.506 674.124 526.267 699.685 446.074 766.847 415.501 850.047 409.486 866.086 400.966 883.628 396.455 888.139 385.929 899.667 365.38 903.175 353.351 896.66Z" transform="matrix(1 0 0 -1.00014 1572.09 2026)"/></g></g></g></g></svg>