<svg width="1756" height="1619" xmlns="http://www.w3.org/2000/svg" xmlns:xlink="http://www.w3.org/1999/xlink" xml:space="preserve" overflow="hidden"><defs><clipPath id="clip0"><rect x="1322" y="418" width="1756" height="1619"/></clipPath></defs><g clip-path="url(#clip0)" transform="translate(-1322 -418)"><path d="M1327 1227.5C1327 783.187 1717.86 423 2200 423 2682.14 423 3073 783.187 3073 1227.5 3073 1671.81 2682.14 2032 2200 2032 1717.86 2032 1327 1671.81 1327 1227.5Z" stroke="#000000" stroke-width="10.3125" stroke-miterlimit="8" fill="#C6E0B4" fill-rule="evenodd"/><path d="M2478.9 682.742C2480.44 682.742 2481.97 682.742 2483.51 682.742 2483.8 679.483 2483.49 676.416 2482.59 673.54 2477.81 673.224 2473.96 671.077 2471.05 667.098 2470.43 651.147 2470.43 635.196 2471.05 619.245 2473.3 616.973 2475.92 615.286 2478.9 614.183 2493.34 613.039 2507.81 612.579 2522.3 612.803 2528.13 586.777 2534.13 560.704 2540.3 534.582 2541.57 528.532 2544.19 523.164 2548.15 518.477 2559.3 517.615 2570.38 517.921 2581.4 519.397 2583.33 520.126 2585.02 521.2 2586.48 522.618 2595.04 552.123 2602.57 581.878 2609.1 611.883 2623.87 612.781 2638.64 613.548 2653.43 614.183 2655.7 615.525 2657.7 617.212 2659.43 619.245 2661.25 635.515 2661.25 651.773 2659.43 668.018 2656.46 671.721 2652.61 673.562 2647.89 673.54 2647.89 676.607 2647.89 679.675 2647.89 682.742 2653.05 682.482 2657.2 684.322 2660.35 688.264 2677.41 775.073 2692.79 862.19 2706.52 949.616 2710.03 997.107 2694.19 1036.83 2658.97 1068.79 2597.12 1072.55 2535.26 1073.01 2473.36 1070.17 2432.73 1033.21 2417.18 987.505 2426.72 933.051 2439.96 850.506 2454.89 768.297 2471.51 686.423 2473.52 684.322 2475.99 683.094 2478.9 682.742Z" fill="#090706" fill-rule="evenodd"/><path d="M2319.37 1051C2305.66 1047.82 2293.08 1042.14 2281.64 1033.97 2262.46 1012.47 2245.59 989.302 2231.04 964.454 2236.85 959.865 2242.37 954.954 2247.6 949.723 2248.21 949.723 2248.52 949.416 2248.52 948.802 2249.44 947.575 2250.36 946.346 2251.28 945.119 2251.89 945.119 2252.2 944.812 2252.2 944.198 2252.76 943.378 2253.07 942.457 2253.12 941.436 2253.73 941.436 2254.04 941.13 2254.04 940.516 2254.54 939.027 2254.84 937.492 2254.96 935.912 2255.57 935.912 2255.88 935.605 2255.88 934.991 2259.84 920.364 2260.3 905.633 2257.26 890.797 2256.78 887.691 2255.56 884.929 2253.58 882.511 2245.32 872.402 2235.05 865.189 2222.76 860.875 2213.92 860.047 2205.34 861.121 2196.99 864.097 2191.47 864.097 2185.95 864.097 2180.43 864.097 2180.74 861.335 2179.51 860.108 2176.75 860.414 2164.5 823.139 2143.65 791.682 2114.18 766.042 2099.65 758.959 2084.31 755.89 2068.18 756.835 2005.09 765.361 1942.22 775.182 1879.55 786.298 1859.33 787.498 1839.09 787.959 1818.82 787.679 1749.7 775.534 1719.18 734.409 1727.27 664.305 1733.45 612.189 1757.52 570.604 1799.5 539.549 1808.25 533.216 1818.06 530.3 1828.95 530.802 1822.8 545.025 1826.17 556.227 1839.07 564.408 1857.47 566.233 1875.87 566.233 1894.27 564.408 1941.28 549.273 1989.13 537.61 2037.81 529.422 2142.08 518.279 2234.71 545.592 2315.69 611.364 2363.57 653.323 2390.41 706.264 2396.2 770.185 2399.81 832.689 2391.22 893.455 2370.44 952.485 2360.97 975.407 2351.77 998.425 2342.83 1021.54 2336.89 1032.86 2329.07 1042.68 2319.37 1051Z" fill-rule="evenodd"/><path d="M2585 608.545C2575.01 612.187 2564.8 612.95 2554.36 610.833 2551.29 610.228 2548.51 609.161 2546 607.63 2550.95 584.763 2555.9 561.885 2560.86 539 2563.95 539 2567.05 539 2570.14 539 2574.8 562.242 2579.75 585.424 2585 608.545Z" fill="#E35521" fill-rule="evenodd"/><path d="M2546.82 608C2549.28 609.433 2552.01 610.434 2555.01 611 2565.25 612.983 2575.26 612.269 2585.06 608.857 2586.68 610.135 2587.29 611.849 2586.88 614 2572.92 614 2558.96 614 2545 614 2545 612.858 2545 611.714 2545 610.572 2545.39 609.534 2546 608.677 2546.82 608Z" fill="#6E2910" fill-rule="evenodd"/><path d="M2545 611C2545 612.301 2545 613.603 2545 614.904 2559 614.904 2573 614.904 2587 614.904 2572.86 615.876 2558.55 616.202 2544.09 615.88 2543.83 614.011 2544.13 612.385 2545 611Z" fill="#3A170A" fill-rule="evenodd"/><path d="M2492 635C2541.3 635 2590.6 635 2639.9 635 2640.18 640.581 2639.88 646.08 2638.97 651.499 2589.98 651.945 2540.99 652.093 2492 651.945 2492 646.297 2492 640.648 2492 635Z" fill="#7E2F13" fill-rule="evenodd"/><path d="M2637 637C2637 641 2637 645 2637 649 2589.33 649 2541.67 649 2494 649 2494 645 2494 641 2494 637 2541.67 637 2589.33 637 2637 637Z" fill="#EF5922" fill-rule="evenodd"/><path d="M2636.97 637C2637.88 641.448 2638.19 646.076 2637.89 650.885 2589.77 651.192 2541.81 650.884 2494 649.959 2541.66 649.959 2589.31 649.959 2636.97 649.959 2636.97 645.639 2636.97 641.32 2636.97 637Z" fill="#A63E18" fill-rule="evenodd"/><path d="M2482.91 673C2483.87 676.125 2484.2 679.458 2483.89 683 2482.26 683 2480.63 683 2479 683 2480.04 682.066 2481.35 681.732 2482.91 682 2482.91 679 2482.91 676 2482.91 673Z" fill="#848485" fill-rule="evenodd"/><path d="M2505 673C2545.67 673 2586.33 673 2627 673 2627 676.333 2627 679.667 2627 683 2586.33 683 2545.67 683 2505 683 2505 679.667 2505 676.333 2505 673Z" fill="#EDA737" fill-rule="evenodd"/><path d="M2648 737.774C2593.01 738.378 2538.35 737.771 2484 735.954 2485.47 725.236 2487.31 714.617 2489.53 704.096 2540.22 703.746 2590.89 704.353 2641.55 705.917 2644.53 716.372 2646.67 726.991 2648 737.774Z" fill="#F2A938" fill-rule="evenodd"/><path d="M2483.99 736C2538.34 737.917 2593.01 738.557 2648 737.921 2593.18 738.88 2538.2 739.2 2483.07 738.881 2482.85 737.641 2483.16 736.681 2483.99 736Z" fill="#B67F2B" fill-rule="evenodd"/><path d="M2177 860.277C2175.52 861.899 2173.68 862.968 2171.48 863.485 2159.52 863.943 2147.56 864.096 2135.59 863.943 2112.5 858.399 2089.8 851.525 2067.51 843.321 2023.5 836.925 1981.49 843.341 1941.45 862.568 1932.41 863.59 1923.52 862.979 1914.77 860.735 1898 854.356 1881.43 847.635 1865.08 840.571 1852.12 838.277 1839.24 837.819 1826.44 839.196 1823.32 832.919 1821.33 826.198 1820.45 819.032 1819.27 808.681 1818.81 798.294 1819.07 787.87 1839.34 788.149 1859.58 787.69 1879.8 786.495 1942.47 775.43 2005.34 765.653 2068.43 757.166 2084.56 756.225 2099.9 759.28 2114.43 766.331 2143.89 791.855 2164.75 823.17 2177 860.277Z" fill="#AEAAAA" fill-rule="evenodd"/><path d="M2647 765C2591.01 762.344 2535 762.344 2479 765 2535.01 758.333 2591.01 758.333 2647 765Z" fill="#A2A2A2" fill-rule="evenodd"/><path d="M2646.53 764.816C2648.38 764.816 2650.22 764.816 2652.06 764.816 2660.83 812.065 2668.82 859.448 2676 906.962 2602.33 907.884 2528.67 908.192 2455 907.884 2462.3 859.973 2470.28 812.283 2478.94 764.816 2534.81 762.395 2590.68 762.395 2646.53 764.816Z" fill="#E0E0E0" fill-rule="evenodd"/><path d="M2135.32 863.764C2142.1 865.812 2149.16 866.737 2156.49 866.54 2164.57 866.42 2172.55 865.495 2180.43 863.764 2185.95 863.764 2191.48 863.764 2197 863.764 2180.8 875.966 2171.74 892.313 2169.84 912.802 2146.99 934.854 2122.29 954.439 2095.73 971.555 2061.72 989.927 2025.51 997.021 1987.1 992.836 1972.11 986.538 1958.61 977.902 1946.6 966.929 1939.29 965.513 1931.93 965.205 1924.5 966.004 1921.51 966.235 1918.75 967.16 1916.22 968.779 1909.24 976.573 1901.56 983.512 1893.2 989.597 1876.85 991.183 1860.58 990.567 1844.41 987.747 1842.27 986.206 1841.35 984.047 1841.65 981.271 1843.63 967.041 1845.78 952.854 1848.09 938.709 1840.15 905.528 1832.78 872.219 1826 838.783 1838.81 837.392 1851.7 837.855 1864.66 840.171 1881.03 847.301 1897.6 854.086 1914.38 860.526 1923.13 862.791 1932.03 863.408 1941.07 862.377 1981.13 842.967 2023.17 836.49 2067.2 842.946 2089.5 851.228 2112.21 858.167 2135.32 863.764Z" fill="#312D2E" fill-rule="evenodd"/><path d="M2177.28 860.049C2180.04 859.72 2181.26 861.038 2180.95 864.006 2173.1 865.855 2165.15 866.844 2157.1 866.972 2149.79 867.183 2142.76 866.194 2136 864.006 2147.93 864.171 2159.86 864.006 2171.78 863.511 2173.97 862.953 2175.8 861.8 2177.28 860.049Z" fill="#8A7563" fill-rule="evenodd" fill-opacity="0.960784"/><path d="M2256.53 935.308C2255.91 935.308 2255.61 935.615 2255.61 936.228 2255.49 937.806 2255.18 939.34 2254.68 940.827 2254.07 940.827 2253.76 941.133 2253.76 941.746 2253.71 942.766 2253.4 943.686 2252.84 944.506 2252.23 944.506 2251.92 944.812 2251.92 945.426 2251 946.651 2250.07 947.878 2249.15 949.104 2248.54 949.104 2248.23 949.411 2248.23 950.024 2242.99 955.25 2237.46 960.156 2231.64 964.74 2246.22 989.561 2263.12 1012.71 2282.34 1034.18 2293.8 1042.35 2306.4 1048.02 2320.14 1051.19 2322.4 1059.3 2323.32 1067.58 2322.9 1076.03 2232.34 1056.94 2144.15 1064.76 2058.33 1099.48 2020.79 1100.52 1987.29 1112.47 1957.85 1135.35 1948.93 1144.24 1940.02 1153.13 1931.11 1162.02 1925.6 1165.03 1919.77 1167.02 1913.6 1168 1859.77 1120.01 1836.73 1059.92 1844.46 987.733 1860.65 990.536 1876.94 991.149 1893.32 989.573 1901.69 983.523 1909.37 976.625 1916.36 968.879 1918.89 967.269 1921.66 966.349 1924.66 966.12 1932.09 965.326 1939.47 965.632 1946.78 967.039 1958.81 977.947 1972.33 986.531 1987.34 992.792 2025.8 996.952 2062.06 989.9 2096.12 971.638 2122.72 954.624 2147.45 935.156 2170.33 913.235 2172.24 892.867 2181.3 876.619 2197.53 864.489 2205.89 861.516 2214.49 860.443 2223.34 861.27 2235.65 865.58 2245.95 872.785 2254.22 882.884 2256.2 885.299 2257.43 888.058 2257.91 891.161 2260.96 905.981 2260.49 920.697 2256.53 935.308Z" fill="#AEAAAA" fill-rule="evenodd"/><path d="M2474.64 877.027C2501.66 876.859 2528.66 877.47 2555.64 878.859 2563.08 885.366 2562.78 891.626 2554.72 897.635 2528.64 899.455 2502.56 899.455 2476.48 897.635 2469.85 891.342 2469.23 884.472 2474.64 877.027Z" fill="#080808" fill-rule="evenodd"/><path d="M2577.64 877.117C2584.04 876.722 2590.31 877.327 2596.45 878.932 2601.75 885.646 2601.12 891.847 2594.57 897.534 2583.82 901.188 2576.3 898.013 2572 888.006 2572.91 883.826 2574.79 880.196 2577.64 877.117Z" fill="#0E0E0E" fill-rule="evenodd"/><path d="M1999.23 883C2019.9 883.576 2030.48 894.417 2030.97 915.524 2031.29 924.924 2029.03 933.628 2024.17 941.635 2020.73 947.878 2015.44 950.626 2008.3 949.881 1994.68 949.41 1986.36 942.387 1983.36 928.809 1979.23 910.036 1984.51 894.766 1999.23 883Z" fill="#F6F4F4" fill-rule="evenodd"/><path d="M1872.45 893.003C1886.07 892.857 1894.76 899.318 1898.54 912.386 1899.15 919.463 1899.15 926.539 1898.54 933.616 1895.69 944.332 1888.83 950.793 1877.94 953 1867.19 950.32 1860.63 943.552 1858.25 932.693 1854.48 916.132 1859.21 902.902 1872.45 893.003Z" fill="#F4F4F4" fill-rule="evenodd"/><path d="M2450.68 929.052C2527.57 928.868 2604.44 929.176 2681.32 929.975 2686.37 952.819 2686.23 975.59 2680.86 998.289 2674.55 1017.85 2663.94 1034.63 2649.03 1048.6 2619.21 1049.63 2589.39 1050.09 2559.54 1049.99 2534.02 1049.83 2508.5 1049.68 2482.97 1049.52 2449.55 1015.61 2438.79 975.456 2450.68 929.052Z" fill="#F8AD39" fill-rule="evenodd"/><path d="M2322.54 1076.17C2342.6 1077.69 2362.57 1079.99 2382.46 1083.07 2406.74 1090.3 2425.18 1104.87 2437.77 1126.81 2427.97 1199.98 2387.41 1246.48 2316.09 1266.31 2266.2 1279.13 2215.65 1282.35 2164.46 1275.97 2157.74 1275.96 2151.6 1277.8 2146.02 1281.5 2144.7 1281.1 2143.63 1280.33 2142.8 1279.2 2144.49 1277.51 2146.18 1275.82 2147.87 1274.13 2148.41 1273.23 2148.1 1272.61 2146.95 1272.29 2107.4 1264.65 2069.46 1252.22 2033.11 1235 2017.61 1227.56 2002.25 1220.2 1987.02 1212.9 2023.59 1241.39 2063.07 1265.49 2105.47 1285.18 2111.37 1280.5 2117.98 1278.97 2125.28 1280.58 2130.15 1285.27 2129.53 1289.41 2123.44 1293.01 2173.79 1318.66 2227.26 1329.71 2283.83 1326.16 2293.52 1325.65 2303.05 1324.12 2312.4 1321.55 2326.51 1317.47 2340.49 1313.02 2354.34 1308.2 2358.14 1309.34 2361.98 1310.26 2365.87 1310.96 2367.41 1299.31 2374.17 1293.47 2386.15 1293.47 2387.45 1285.64 2390.53 1278.58 2395.36 1272.29 2393.62 1270.11 2393.16 1267.66 2393.98 1264.92 2394.95 1263.99 2396.02 1263.83 2397.21 1264.46 2400.42 1266.9 2403.49 1269.51 2406.43 1272.29 2441.72 1242.87 2457.24 1205.12 2452.97 1159.04 2451.63 1148.16 2449.63 1137.42 2446.98 1126.81 2462.95 1131.4 2472.47 1141.83 2475.56 1158.11 2475.07 1197.26 2467.85 1235.01 2453.9 1271.37 2428.89 1326.1 2386.95 1360.33 2328.07 1374.04 2322.7 1378.94 2318.71 1384.77 2316.09 1391.53 2312.54 1393.42 2309.31 1392.96 2306.41 1390.15 2306.56 1395.71 2305.34 1400.93 2302.73 1405.8 2297.7 1409.52 2292.01 1411.36 2285.67 1411.33 2287.46 1416.64 2286.53 1421.39 2282.91 1425.6 2348.33 1422 2402.26 1395.45 2444.68 1345.95 2479.69 1288.8 2491.82 1227.11 2481.09 1160.88 2520.08 1177.5 2554.95 1200.21 2585.71 1229.01 2607.82 1264.9 2626.26 1302.65 2641.02 1342.27 2667.23 1422.17 2692.74 1502.28 2717.52 1582.59 2723.09 1600.31 2725.55 1618.41 2724.9 1636.92 2719.16 1686.99 2691.05 1711.23 2640.55 1709.66 2651.66 1766.01 2654.73 1822.79 2649.77 1880 2411.96 1880 2174.14 1880 1936.32 1880 1940.16 1813.07 1944 1746.17 1947.84 1679.27 1946.31 1682.95 1944.77 1686.64 1943.23 1690.32 1936.58 1728.44 1920.91 1762.2 1896.22 1791.61 1874.93 1813.52 1848.96 1825.95 1818.33 1828.9 1797.5 1830.51 1776.92 1828.98 1756.58 1824.29 1723.67 1814.14 1701.7 1792.8 1690.67 1760.3 1686.97 1717.58 1689.42 1675.22 1698.04 1633.23 1720.17 1515.02 1753.05 1399.93 1796.67 1287.94 1813.43 1246.96 1841.85 1217.03 1881.94 1198.17 1890.16 1185.81 1900.61 1175.83 1913.28 1168.24 1919.45 1167.26 1925.28 1165.27 1930.79 1162.26 1939.7 1153.36 1948.61 1144.46 1957.52 1135.56 1986.97 1112.65 2020.46 1100.68 2057.99 1099.65 2143.81 1064.89 2231.99 1057.06 2322.54 1076.17Z" fill-rule="evenodd"/><path d="M2438.09 1127C2441.16 1127 2444.24 1127 2447.31 1127 2449.96 1137.61 2451.96 1148.35 2453.31 1159.23 2457.58 1205.31 2442.05 1243.07 2406.73 1272.49 2403.79 1269.7 2400.71 1267.09 2397.5 1264.66 2396.32 1264.03 2395.24 1264.18 2394.27 1265.12 2393.45 1267.85 2393.91 1270.31 2395.66 1272.49 2390.81 1278.77 2387.74 1285.83 2386.43 1293.66 2374.44 1293.67 2367.68 1299.5 2366.14 1311.16 2362.25 1310.46 2358.41 1309.54 2354.61 1308.4 2340.74 1313.21 2326.75 1317.66 2312.63 1321.75 2303.27 1324.31 2293.74 1325.85 2284.04 1326.35 2227.42 1329.9 2173.92 1318.86 2123.53 1293.2 2129.62 1289.61 2130.24 1285.47 2125.37 1280.77 2118.06 1279.16 2111.45 1280.7 2105.54 1285.38 2063.11 1265.68 2023.6 1241.59 1987 1213.09 2002.24 1220.39 2017.62 1227.76 2033.12 1235.19 2069.5 1252.41 2107.48 1264.84 2147.05 1272.49 2148.21 1272.81 2148.52 1273.42 2147.97 1274.33 2146.28 1276.01 2144.59 1277.7 2142.9 1279.39 2143.73 1280.53 2144.8 1281.3 2146.13 1281.69 2151.7 1278 2157.85 1276.15 2164.58 1276.17 2215.81 1282.55 2266.39 1279.32 2316.32 1266.5 2387.7 1246.67 2428.28 1200.17 2438.09 1127Z" fill="#ADA9A9" fill-rule="evenodd"/><path d="M2475.69 1158.11C2478.28 1157.67 2480.13 1158.59 2481.22 1160.87 2491.96 1227.21 2479.82 1288.99 2444.8 1346.23 2402.37 1395.81 2348.44 1422.39 2283 1426 2286.63 1421.79 2287.55 1417.03 2285.77 1411.71 2292.11 1411.74 2297.79 1409.9 2302.82 1406.17 2305.43 1401.29 2306.66 1396.07 2306.51 1390.5 2309.41 1393.31 2312.64 1393.77 2316.19 1391.88 2318.81 1385.11 2322.8 1379.27 2328.18 1374.36 2387.06 1360.63 2429.01 1326.35 2454.02 1271.53 2467.98 1235.12 2475.2 1197.31 2475.69 1158.11Z" fill="#ADA9A9" fill-rule="evenodd"/></g></svg>