<svg width="1703" height="1703" xmlns="http://www.w3.org/2000/svg" xmlns:xlink="http://www.w3.org/1999/xlink" xml:space="preserve" overflow="hidden"><defs><clipPath id="clip0"><rect x="1174" y="649" width="1703" height="1703"/></clipPath></defs><g clip-path="url(#clip0)" transform="translate(-1174 -649)"><path d="M1181 1500.5C1181 1034.1 1559.1 656 2025.5 656 2491.9 656 2870 1034.1 2870 1500.5 2870 1966.9 2491.9 2345 2025.5 2345 1559.1 2345 1181 1966.9 1181 1500.5Z" stroke="#000000" stroke-width="13.75" stroke-miterlimit="8" fill="#FF0000" fill-rule="evenodd"/><path d="M2281.8 933.907C2282.56 936.719 2282.83 939.719 2282.58 942.907 2281.28 942.907 2279.97 942.907 2278.67 942.907 2279.51 942.066 2280.55 941.766 2281.8 942.007 2281.8 939.307 2281.8 936.607 2281.8 933.907Z" fill="#848485" fill-rule="evenodd"/><path d="M516.869 817.576C513.988 815.337 510.786 809.899 510.146 805.422 509.185 800.944 508.545 642.941 508.545 454.233L508.225 111.039 501.181 111.999 493.818 112.959 492.857 363.716C492.537 542.509 491.256 615.754 488.695 618.952 485.814 622.151 457.64 623.11 339.821 623.11L194.789 623.11 110.587 483.338 26.3852 343.247 25.4247 227.463 24.4642 111.359 15.1796 111.359C9.09658 111.359 4.61434 109.12 2.37322 105.282-1.14853 98.2458-2.10901 12.5276 1.7329 7.09026 5.89498 0.693247 16.1401-0.266467 64.4838 1.97251L112.188 4.21148 116.35 24.042C131.397 98.2458 207.915 151.98 280.912 140.465 309.406 135.987 343.022 118.716 363.513 97.9259 383.362 78.0954 401.612 44.192 404.493 21.1632 406.414 8.36952 408.015 4.85129 414.418 2.29241 418.9 0.693247 499.58-0.586011 601.071-0.586011 740.66-0.586011 780.68 0.373343 782.601 3.57167 783.882 5.49074 787.724 17.325 790.605 29.4793 813.977 120.315 911.945 166.372 996.468 126.072 1020.8 114.878 1043.53 94.7275 1057.3 72.978 1067.22 57.6255 1078.11 27.5602 1078.11 16.6856 1078.11-0.905915 1076.19-0.586011 1230.18-0.586011 1355.05-0.586011 1372.65 0.0534378 1377.14 4.53138 1381.3 8.68942 1382.26 17.9649 1382.26 56.6661 1382.26 107.201 1381.62 109.76 1366.25 111.999L1358.25 112.959 1357.29 461.269C1356.65 779.834 1356.01 810.219 1351.2 815.657 1346.4 821.094 1328.79 821.414 934.036 821.414 609.715 821.414 521.031 820.454 516.869 817.576ZM996.147 733.457C1043.53 720.983 1077.47 702.432 1112.36 669.808 1153.03 632.066 1177.36 592.086 1190.16 541.55 1213.54 450.075 1189.2 358.279 1122.93 290.472 1071.06 237.058 1008.95 210.831 934.677 210.511 840.87 210.511 760.51 253.37 709.605 331.412 680.15 376.19 667.344 421.608 667.984 479.18 668.945 607.438 761.151 714.586 891.775 738.254 913.226 742.412 974.056 739.533 996.147 733.457ZM413.458 564.899C420.821 554.664 421.141 390.903 414.098 381.308 409.616 375.551 404.493 375.231 323.493 374.271L237.69 373.632 227.445 361.478 217.2 349.643 170.137 348.684C116.35 347.405 108.986 348.684 104.184 358.919 101.302 365.955 106.425 376.19 156.05 459.03 186.465 509.566 214.639 555.943 219.121 561.7L226.805 571.935 317.73 571.935C408.015 571.935 408.655 571.935 413.458 564.899Z" fill-rule="evenodd" transform="matrix(1 0 0 -1 1314 1859)"/><path d="M45.1778 97.197C35.56 92.3665 24.6598 83.3492 20.8126 77.2302 12.7978 65.9586 1.57695 31.1773-0.0260235 13.4646L-0.987808 2.51507 16.6449 0.904524C38.7659-1.34951 150.974-1.34951 170.53 0.904524 188.163 2.83682 189.125 5.73544 181.43 34.7198 167.324 89.1461 146.165 105.893 91.6641 106.215 65.6959 106.215 60.2458 105.248 45.1778 97.197Z" fill="#0070C0" fill-rule="evenodd" transform="matrix(1 0 0 -1 2154 1345)"/><path d="M88.7139 243.962C88.7139 229.266 93.5212 216.488 102.815 206.265 116.917 190.93 124.608 173.359 121.083 164.414 118.199 156.108 117.237 156.108 83.2656 154.511 36.154 152.594 16.2838 142.051 3.78478 112.98-4.86837 91.8947-2.94545 85.8247 19.4886 64.4202 111.789-24.0725 258.892-21.8362 347.347 69.2124L364.012 86.4637 360.807 100.84C356 121.925 344.462 137.259 326.835 145.885 314.336 151.955 305.042 153.552 277.16 154.511 243.829 155.788 242.868 156.108 240.304 163.775 237.099 173.359 246.073 193.805 261.456 211.376 269.789 220.641 271.391 225.113 271.391 238.531L271.391 254.824 257.931 243.323C250.559 236.934 238.381 228.947 230.689 225.113L216.908 218.405 200.884 226.71C181.655 236.934 177.488 236.934 163.387 228.308 156.977 224.475 148.004 221.28 143.196 221.599 133.261 221.919 111.468 234.058 97.6875 247.157L88.7139 255.463 88.7139 243.962Z" fill="#0070C0" fill-rule="evenodd" transform="matrix(1 0 0 -1 2066 1615)"/><path d="M1.06282 9.66334C-5.65489 5.59618 5.54128-0.974493 18.6568-0.661553 34.3314-0.0356737 39.1298 4.9703 27.9336 9.35075 17.3772 13.1053 6.82085 13.4179 1.06282 9.66334Z" fill="#0070C0" fill-rule="evenodd" transform="matrix(1 0 0 -1 2193 1373)"/><path d="M5.23691 8.24244C-5.69207 3.7846-2.15623-0.036304 14.5587-0.673241 27.7378-0.99171 38.6667 5.69505 31.9165 9.83443 26.1306 13.6553 16.4873 13.0184 5.23691 8.24244Z" fill="#0070C0" fill-rule="evenodd" transform="matrix(1 0 0 -1 2266 1373)"/><path d="M80.4417 233.837C18.0086 211.462-14.3286 147.535 5.52194 83.9278 17.3682 45.5715 42.9818 19.3615 82.0425 5.61705 108.616-3.65233 145.436-1.41518 171.049 11.0508 195.382 22.8774 218.434 46.2105 229.32 69.544 236.364 85.2062 237.645 92.2381 237.645 119.727 237.965 147.855 237.004 153.928 229.64 169.27 217.154 195.161 197.944 215.298 173.291 227.444 155.681 236.074 147.997 237.672 124.625 238.632 103.814 239.59 92.9283 238.312 80.4417 233.837Z" fill-rule="evenodd" transform="matrix(1 0 0 -1 1455 1983)"/><path d="M77.2913 231.786C53.3451 223.151 36.7424 210.999 22.3746 191.811 4.4948 168.145-0.613729 151.836-0.933012 118.256-1.25229 92.3521-0.294446 87.5549 8.96476 68.0472 21.0975 42.1429 41.5316 21.3558 66.755 8.88326 83.0384 0.88847 88.4662-0.0711209 116.882-0.0711209 144.979-0.0711209 151.046 0.88847 167.01 8.56375 191.275 19.7568 211.071 38.945 224.161 62.9301 234.697 82.4382 235.017 84.357 235.017 118.256 235.017 150.876 234.378 154.714 225.758 171.983 214.263 194.689 191.275 216.756 167.01 227.949 142.425 239.462 102.515 241.38 77.2913 231.786Z" fill-rule="evenodd" transform="matrix(1 0 0 -1 2129 1982)"/></g></svg>