<svg width="1703" height="1703" xmlns="http://www.w3.org/2000/svg" xmlns:xlink="http://www.w3.org/1999/xlink" xml:space="preserve" overflow="hidden"><defs><clipPath id="clip0"><rect x="1472" y="516" width="1703" height="1703"/></clipPath></defs><g clip-path="url(#clip0)" transform="translate(-1472 -516)"><path d="M1479 1367.5C1479 901.095 1857.1 523 2323.5 523 2789.9 523 3168 901.095 3168 1367.5 3168 1833.9 2789.9 2212 2323.5 2212 1857.1 2212 1479 1833.9 1479 1367.5Z" stroke="#000000" stroke-width="13.75" stroke-miterlimit="8" fill="#FF0000" fill-rule="evenodd"/><path d="M2281.8 933.907C2282.56 936.719 2282.83 939.719 2282.58 942.907 2281.28 942.907 2279.97 942.907 2278.67 942.907 2279.51 942.066 2280.55 941.766 2281.8 942.007 2281.8 939.307 2281.8 936.607 2281.8 933.907Z" fill="#C6E0B4" fill-rule="evenodd"/><path d="M2152.73 675C2172.9 675 2193.08 675 2213.25 675 2296.23 676.676 2369.85 703.765 2434.1 756.269 2469.51 786.918 2494.1 824.631 2507.9 869.407 2520.07 913.209 2517.77 956.234 2501 998.48 2507.28 999.751 2513.65 1000.46 2520.11 1000.61 2531.29 1002.94 2538.9 1009.49 2542.94 1020.26 2546.99 1035.2 2549.12 1050.43 2549.31 1065.94 2549.84 1100.64 2550.01 1135.34 2549.84 1170.05 2650.73 1170.5 2751.61 1171.74 2852.45 1173.77 2857.94 1179.96 2863.41 1186.16 2868.9 1192.36 2876.34 1203.69 2883.77 1215.02 2891.2 1226.35 2944.75 1313.72 2998.01 1401.18 3051 1488.75 3051 1565.24 3051 1641.72 3051 1718.21 3041.66 1727.03 3032.46 1736.06 3023.39 1745.3 2971.37 1745.83 2919.34 1746.01 2867.31 1745.83 2858.34 1795.3 2831.79 1831.6 2787.68 1854.72 2771.24 1861.84 2754.25 1866.27 2736.71 1868 2730.34 1868 2723.97 1868 2717.6 1868 2660.25 1862.06 2620.08 1832.68 2597.09 1779.83 2593.36 1768.64 2589.65 1757.49 2585.94 1746.36 2440.83 1745.83 2295.72 1745.65 2150.61 1745.83 2151.93 1761.77 2148.57 1776.64 2140.52 1790.45 2123.11 1820.62 2098.86 1843.46 2067.79 1858.97 2050.69 1864.3 2033.35 1867.31 2015.76 1868 2012.93 1868 2010.1 1868 2007.27 1868 1976.35 1867.31 1949.1 1856.86 1925.51 1836.66 1905.74 1820.08 1891.41 1799.72 1882.51 1775.58 1879.99 1765.76 1878.04 1755.85 1876.67 1745.83 1813.31 1746.01 1749.96 1745.83 1686.61 1745.3 1677.54 1736.06 1668.34 1727.03 1659 1718.21 1659 1531.59 1659 1344.98 1659 1158.36 1659.63 1120.62 1660.87 1082.73 1662.72 1044.69 1663.16 1032.88 1665.64 1021.55 1670.15 1010.7 1673.02 1006.87 1676.74 1004.21 1681.3 1002.73 1694.37 1001.58 1707.46 1000.87 1720.58 1000.61 1775.09 1000.43 1829.6 999.897 1884.1 999.011 1878.73 981.743 1876.07 964.038 1876.14 945.895 1875.43 926.773 1875.43 907.651 1876.14 888.529 1876.55 877.902 1878.67 867.632 1882.51 857.721 1900.86 811.376 1930.06 773.309 1970.1 743.521 2024.54 703.355 2085.41 680.514 2152.73 675ZM2182.46 782.296C2217.21 780.796 2248 790.888 2274.84 812.572 2282.09 819.831 2289.35 827.091 2296.6 834.35 2300.01 838.519 2303.02 842.944 2305.63 847.629 2305.2 848.633 2304.49 849.342 2303.5 849.754 2298.97 850.848 2294.37 851.557 2289.7 851.878 2226.35 853.998 2162.99 853.998 2099.64 851.878 2094.2 851.69 2088.89 850.803 2083.71 849.223 2083.36 848.869 2083.01 848.514 2082.65 848.16 2084.85 842.708 2087.85 837.749 2091.68 833.288 2107.87 816.371 2126.45 802.738 2147.42 792.388 2158.96 788.003 2170.64 784.639 2182.46 782.296ZM2099.64 884.28C2119.05 887.507 2137.81 892.996 2155.92 900.746 2163.72 905.757 2166.02 912.662 2162.82 921.461 2161.57 922.941 2159.98 923.827 2158.04 924.117 2137.09 924.544 2117.27 919.941 2098.58 910.307 2089.85 905.677 2087.9 899.126 2092.74 890.654 2094.93 888.28 2097.23 886.156 2099.64 884.28ZM2283.33 885.342C2293.42 887.071 2297.13 893.092 2294.48 903.402 2292.53 906.766 2289.88 909.422 2286.52 911.369 2267.16 921.262 2246.63 925.865 2224.93 925.179 2217.79 917.45 2218.5 910.367 2227.05 903.933 2245.02 894.933 2263.78 888.736 2283.33 885.342ZM2073.1 957.581C2152.21 956.056 2231.49 956.41 2310.94 958.643 2310.49 963.627 2308.89 968.231 2306.16 972.453 2293.64 991.706 2277.89 1007.82 2258.91 1020.79 2246.14 1029.53 2231.98 1034.49 2216.44 1035.66 2191.47 1038.53 2167.05 1036.05 2143.17 1028.23 2111.77 1012.56 2088.41 989.015 2073.1 957.581ZM1743.94 1029.82C1796.32 1029.64 1848.71 1029.82 1901.09 1030.35 1924.9 1066.21 1954.98 1095.6 1991.34 1118.52 2004.08 1125.96 2016.82 1133.4 2029.56 1140.83 1950.27 1140.9 1870.99 1141.61 1791.72 1142.96 1782.92 1143.36 1774.43 1145.13 1766.24 1148.27 1761.04 1153.78 1761.04 1159.45 1766.24 1165.27 1769.91 1167.12 1773.8 1168.18 1777.92 1168.45 1790.28 1169.54 1802.67 1170.25 1815.08 1170.58 1919.14 1171.84 2023.19 1172.9 2127.25 1173.77 2142.15 1201.29 2157.2 1228.74 2172.37 1256.1 2176.52 1262.43 2181.29 1268.27 2186.71 1273.62 2195.16 1277.83 2202.06 1275.89 2207.41 1267.78 2211.92 1261.23 2216.17 1254.5 2220.15 1247.6 2230.86 1227.24 2241.83 1207.06 2253.07 1187.04 2257.14 1178.72 2263.33 1172.53 2271.65 1168.45 2336.45 1154.63 2393.43 1125.94 2442.6 1082.4 2457.58 1067.77 2471.39 1052.19 2484.01 1035.66 2486.54 1033.69 2489.37 1032.27 2492.5 1031.41 2501.01 1030.88 2509.5 1031.06 2517.98 1031.94 2518.48 1217.85 2519.19 1403.76 2520.11 1589.67 2242.98 1589.67 1965.86 1589.67 1688.73 1589.67 1688.55 1469.98 1688.73 1350.29 1689.26 1230.6 1689.43 1164.72 1690.31 1098.86 1691.92 1033.01 1709.39 1031.61 1726.73 1030.55 1743.94 1029.82ZM2549.84 1200.85C2632.3 1200.68 2714.77 1200.85 2797.23 1201.39 2812.27 1201.33 2827.13 1202.74 2841.83 1205.64 2862.84 1237.23 2883.2 1269.28 2902.88 1301.78 2942.17 1366.93 2981.45 1432.09 3020.74 1497.25 3021.61 1561.7 3021.26 1626.15 3019.68 1690.59 3019.78 1698.01 3018.36 1705.1 3015.43 1711.84 3014.29 1712.57 3013.06 1713.1 3011.71 1713.43 2963.62 1715.99 2915.48 1716.7 2867.31 1715.56 2856.95 1660.57 2826.16 1621.98 2774.94 1599.76 2714.93 1581.3 2663.43 1594.93 2620.45 1640.66 2609.88 1652.93 2601.74 1666.74 2596.03 1682.09 2593.16 1692.13 2589.98 1702.05 2586.47 1711.84 2584.3 1714.07 2581.65 1715.31 2578.51 1715.56 2568.96 1716.09 2559.4 1716.26 2549.84 1716.09 2549.84 1544.34 2549.84 1372.6 2549.84 1200.85ZM1688.73 1619.41C1747.84 1619.24 1806.94 1619.41 1866.05 1619.95 1884.49 1620.25 1902.9 1621.13 1921.26 1622.6 1921.15 1625.03 1920.26 1627.15 1918.61 1628.98 1894.99 1652.51 1880.65 1680.84 1875.6 1713.96 1823.22 1714.81 1770.84 1714.98 1718.46 1714.49 1710.89 1714.3 1703.46 1713.24 1696.16 1711.31 1692.67 1706.04 1690.73 1700.2 1690.32 1693.78 1688.98 1669.01 1688.44 1644.22 1688.73 1619.41ZM2153.79 1619.41C2275.95 1618.79 2398.05 1620.91 2520.11 1625.79 2520.11 1655.89 2520.11 1685.99 2520.11 1716.09 2396.94 1716.09 2273.77 1716.09 2150.61 1716.09 2151.83 1702.2 2149.17 1689.1 2142.64 1676.78 2137.87 1666.53 2132.57 1656.61 2126.72 1647.03 2119.4 1639.71 2112.85 1631.74 2107.07 1623.13 2122.74 1621.2 2138.31 1619.96 2153.79 1619.41Z" fill="#000000" fill-rule="evenodd" fill-opacity="0.988235"/><path d="M2159.86 705.204C2193.96 704.395 2227.94 705.99 2261.81 709.987 2331.83 721.548 2390.77 753.256 2438.62 805.111 2477.81 851.584 2491.62 904.726 2480.04 964.536 2467.09 1008.34 2442.84 1044.65 2407.29 1073.48 2391.46 1086.48 2374.47 1097.82 2356.32 1107.49 2354.79 1108.32 2353.37 1108.14 2352.07 1106.96 2341.38 1085.89 2329.87 1065.34 2317.56 1045.31 2314.41 1041.1 2310.87 1037.2 2306.94 1033.62 2304.64 1028.31 2305.34 1023.35 2309.06 1018.74 2330.15 993.342 2343.25 964.291 2348.36 931.588 2353.65 862.462 2327.1 809.676 2268.71 773.226 2230.29 753.746 2190.11 749.672 2148.18 761.003 2090.45 780.155 2054.53 819.303 2040.39 878.446 2030.62 933.246 2044.43 981.073 2081.81 1021.93 2083.82 1026.54 2083.12 1030.79 2079.68 1034.68 2062.97 1055.37 2049.52 1078.04 2039.33 1102.7 2037.92 1106.62 2035.27 1108.21 2031.36 1107.49 1976.71 1080.06 1936.88 1038.44 1911.89 982.604 1909.47 976.406 1907.7 970.029 1906.58 963.473 1904.92 939.765 1904.57 916.029 1905.52 892.263 1917.91 842.457 1944.28 801.892 1984.64 770.569 2037.06 732.639 2095.47 710.85 2159.86 705.204ZM2182.16 782.791C2170.33 785.136 2158.65 788.501 2147.11 792.888 2126.14 803.243 2107.56 816.883 2091.36 833.807 2087.54 838.271 2084.53 843.232 2082.34 848.687 2082.69 849.041 2083.04 849.396 2083.4 849.75 2088.57 851.331 2093.88 852.218 2099.33 852.407 2162.69 854.527 2226.05 854.527 2289.42 852.407 2294.08 852.085 2298.68 851.376 2303.22 850.281 2304.21 849.869 2304.92 849.16 2305.35 848.156 2302.74 843.469 2299.73 839.041 2296.32 834.87 2289.06 827.608 2281.81 820.344 2274.55 813.082 2247.71 791.388 2216.91 781.291 2182.16 782.791ZM2099.33 884.823C2096.92 886.7 2094.61 888.826 2092.42 891.2 2087.59 899.677 2089.53 906.231 2098.27 910.863 2116.96 920.502 2136.78 925.107 2157.73 924.679 2159.68 924.389 2161.27 923.503 2162.51 922.023 2165.72 913.219 2163.42 906.31 2155.61 901.297 2137.5 893.544 2118.74 888.052 2099.33 884.823ZM2283.05 885.886C2263.49 889.282 2244.73 895.481 2226.76 904.486 2218.2 910.923 2217.49 918.009 2224.64 925.742 2246.34 926.428 2266.88 921.823 2286.23 911.926 2289.59 909.978 2292.25 907.32 2294.2 903.954 2296.85 893.639 2293.13 887.616 2283.05 885.886ZM2072.78 958.159C2088.09 989.608 2111.46 1013.17 2142.87 1028.84 2166.74 1036.67 2191.17 1039.15 2216.14 1036.28 2231.69 1035.11 2245.85 1030.15 2258.62 1021.4 2277.6 1008.42 2293.36 992.3 2305.88 973.038 2308.61 968.814 2310.21 964.209 2310.66 959.222 2231.2 956.988 2151.91 956.634 2072.78 958.159Z" fill="#EB7C30" fill-rule="evenodd"/><path d="M2152.31 962C2155.08 962.667 2157.58 963.908 2159.8 965.719 2166.48 973.284 2174.31 979.305 2183.31 983.783 2195.18 987.349 2205.86 985.224 2215.37 977.408 2220.06 971.317 2225.94 966.89 2233.01 964.126 2243.12 966.718 2247.75 973.094 2246.9 983.252 2242.22 996.059 2233.49 1005.09 2220.72 1010.35 2200.07 1019.1 2180.12 1017.69 2160.86 1006.1 2152.24 1000.36 2146 992.744 2142.16 983.252 2138.97 972.953 2142.35 965.869 2152.31 962Z" fill="#000000" fill-rule="evenodd" fill-opacity="0.968627"/><path d="M2647.22 1239.07C2688.68 1238.89 2730.14 1239.07 2771.6 1239.6 2781.9 1239.92 2792.18 1240.62 2802.43 1241.72 2806.92 1242.48 2811.17 1243.89 2815.19 1245.96 2825.4 1258.26 2834.79 1271.16 2843.36 1284.66 2874.26 1332.33 2903.15 1381.28 2930 1431.51 2926.74 1441.09 2920.01 1445.68 2909.8 1445.29 2810.58 1450.24 2711.36 1450.24 2612.14 1445.29 2603.44 1446.15 2597.95 1442.44 2595.66 1434.16 2594.52 1427.85 2593.81 1421.49 2593.53 1415.07 2592.82 1371.95 2592.82 1328.84 2593.53 1285.72 2593.43 1272.46 2594.85 1259.38 2597.78 1246.49 2599.19 1244.38 2601.14 1243.14 2603.63 1242.78 2618.27 1240.98 2632.8 1239.75 2647.22 1239.07Z" fill="#4471C3" fill-rule="evenodd"/><path d="M1916.91 1291.21C2007.84 1290.47 2098.73 1291.7 2189.6 1294.92 2202.1 1295.38 2214.48 1296.79 2226.74 1299.16 2231.79 1303.61 2233.2 1309.08 2230.98 1315.59 2229.74 1316.74 2228.33 1317.62 2226.74 1318.24 2214.8 1320.21 2202.77 1321.28 2190.66 1321.42 2054.83 1323.83 1919.02 1323.48 1783.22 1320.36 1778.22 1319.96 1773.27 1319.26 1768.37 1318.24 1764.37 1317.43 1762.25 1314.95 1762 1310.82 1762.63 1306.39 1764.39 1302.5 1767.31 1299.16 1787.32 1295.99 1807.48 1294.22 1827.78 1293.86 1857.67 1293.03 1887.38 1292.15 1916.91 1291.21Z" fill="#000000" fill-rule="evenodd" fill-opacity="0.968627"/><path d="M1882.63 1443.15C2024.92 1442.71 2167.21 1443.24 2309.49 1444.75 2325.52 1445.05 2341.45 1446.47 2357.27 1449 2361.04 1449.83 2364.57 1451.24 2367.89 1453.26 2370.52 1457.18 2370.69 1461.26 2368.42 1465.49 2367.02 1467.61 2365.07 1468.85 2362.58 1469.21 2348.5 1471.22 2334.34 1472.28 2320.1 1472.41 2150.21 1474.53 1980.32 1474.53 1810.43 1472.41 1798.37 1472.07 1786.34 1471.36 1774.33 1470.28 1761.86 1469.31 1758.85 1463.46 1765.3 1452.73 1766.98 1451.09 1768.93 1449.84 1771.14 1449 1779.53 1447.13 1788.03 1446.06 1796.63 1445.81 1825.47 1444.87 1854.13 1443.98 1882.63 1443.15Z" fill="#000000" fill-rule="evenodd" fill-opacity="0.968627"/><path d="M2631.03 1487.14C2653.48 1486.71 2675.89 1487.25 2698.26 1488.75 2705.12 1489.15 2709.04 1492.73 2710 1499.48 2707.39 1507.09 2702.06 1511.74 2693.99 1513.42 2669.61 1518.82 2645.42 1518.11 2621.43 1511.28 2611 1506.63 2609.22 1499.84 2616.09 1490.9 2621.08 1489.13 2626.06 1487.88 2631.03 1487.14Z" fill="#000000" fill-rule="evenodd" fill-opacity="0.960784"/><path d="M2007.01 1687.53C2018.47 1685.77 2028.7 1688.41 2037.71 1695.45 2042.47 1700.21 2047.24 1704.96 2052 1709.71 2053.97 1712.24 2055.38 1715.05 2056.23 1718.17 2059.16 1736.86 2053.69 1752.53 2039.83 1765.18 2023.43 1773.9 2006.85 1774.26 1990.08 1766.23 1977.49 1755.54 1971.14 1741.81 1971.02 1725.03 1970.84 1721.07 1971.72 1717.38 1973.67 1713.94 1982.03 1701.44 1993.14 1692.63 2007.01 1687.53Z" fill="#EB7B30" fill-rule="evenodd"/><path d="M2719.15 1687C2754.35 1688.23 2770.52 1706.27 2767.68 1741.11 2765.41 1749.69 2760.61 1756.59 2753.28 1761.8 2745.49 1769.03 2736.24 1773.11 2725.55 1774 2705.41 1770.06 2692.08 1758.39 2685.55 1738.99 2682.29 1712.19 2693.49 1694.86 2719.15 1687Z" fill="#EA7B30" fill-rule="evenodd"/></g></svg>