<svg width="1756" height="1619" xmlns="http://www.w3.org/2000/svg" xmlns:xlink="http://www.w3.org/1999/xlink" xml:space="preserve" overflow="hidden"><defs><clipPath id="clip0"><rect x="1322" y="418" width="1756" height="1619"/></clipPath><clipPath id="clip1"><rect x="1505" y="633" width="1390" height="1209"/></clipPath><clipPath id="clip2"><rect x="1505" y="633" width="1390" height="1209"/></clipPath><clipPath id="clip3"><rect x="1505" y="633" width="1390" height="1209"/></clipPath></defs><g clip-path="url(#clip0)" transform="translate(-1322 -418)"><path d="M1327 1227.5C1327 783.187 1717.86 423 2200 423 2682.14 423 3073 783.187 3073 1227.5 3073 1671.81 2682.14 2032 2200 2032 1717.86 2032 1327 1671.81 1327 1227.5Z" stroke="#000000" stroke-width="10.3125" stroke-miterlimit="8" fill="#C6E0B4" fill-rule="evenodd"/><g clip-path="url(#clip1)"><g clip-path="url(#clip2)"><g clip-path="url(#clip3)"><path d="M476.867 1168.12C381.127 1147.96 301.42 1092.53 266.606 1022.45 250.573 989.007 249.657 985.801 249.657 941.824 249.657 916.172 251.489 888.687 253.78 880.899L257.902 865.782 165.827 865.782C115.438 865.782 70.5452 864.408 66.4224 863.034 45.8086 854.788 45.8086 852.956 45.8086 513.056L45.8086 191.48 59.0931 178.195 72.3776 164.911 161.704 164.911 250.573 164.911 253.78 147.046C259.735 110.399 299.588 67.3386 339.442 55.4284 363.262 48.099 402.657 49.4733 427.394 57.7188 464.957 70.5452 508.017 122.309 508.475 154.833L508.475 164.911 713.698 164.911 918.92 164.911 926.708 140.174C944.115 86.1201 993.13 50.3894 1051.31 50.3894 1109.48 50.3894 1158.5 86.1201 1175.91 140.174L1183.69 164.911 1256.53 164.911 1329.37 164.911 1342.65 178.195 1355.93 191.48 1355.93 298.672 1355.93 405.864 1273.02 542.832C1227.67 618.416 1185.53 685.296 1179.11 691.71L1168.12 703.162 1026.11 704.536 884.106 705.91 884.106 770.042C884.106 849.291 877.692 865.782 847.001 865.782 842.42 865.782 838.297 866.24 838.297 867.156 838.297 867.615 841.504 878.151 845.168 890.519 859.827 939.534 849.749 998.169 818.141 1045.81 785.159 1095.28 733.854 1131.93 665.141 1155.75 629.41 1167.66 618.416 1169.49 561.155 1170.87 525.883 1171.78 487.861 1170.41 476.867 1168.12ZM652.772 1129.64C819.516 1076.5 875.86 921.669 767.752 813.56 748.054 793.863 707.285 765.003 699.497 765.003 698.581 765.003 691.252 777.83 683.464 793.863 675.219 809.896 665.141 826.387 660.102 830.968 651.398 838.755 651.398 839.671 668.805 863.95 710.491 923.959 703.62 1003.21 651.856 1055.43 588.182 1120.02 474.119 1108.11 425.562 1031.15 397.618 987.175 393.954 931.747 416.4 886.396 424.187 870.821 434.265 854.788 439.304 850.207 448.008 842.42 448.008 841.962 431.975 820.89 423.271 809.438 412.735 792.03 409.071 782.411 405.406 772.791 400.825 765.003 398.535 765.003 396.702 765.003 382.96 772.791 368.301 782.411 334.861 803.941 306.459 835.549 289.968 869.905 278.974 891.893 277.142 901.055 277.142 936.786 277.142 974.349 278.516 980.762 292.717 1009.16 314.247 1053.6 348.603 1085.66 400.367 1110.86 457.17 1138.34 492.9 1145.67 561.155 1143.38 603.757 1142.01 624.371 1138.8 652.772 1129.64ZM585.892 1064.59C602.383 1060.01 616.584 1050.85 632.617 1035.73 644.985 1023.82 655.063 1011.45 655.063 1008.71 655.063 1004.58 627.578 1003.21 549.703 1003.21 478.7 1003.21 444.343 1004.58 444.343 1008.25 444.343 1020.16 484.197 1054.51 508.475 1062.76 539.625 1073.75 554.742 1073.75 585.892 1064.59ZM492.442 967.477C513.972 961.064 520.385 956.941 521.302 949.154 523.592 934.495 513.056 932.663 481.448 941.366 453.505 949.612 444.801 958.316 453.963 969.31 460.376 977.097 459.46 977.097 492.442 967.477ZM644.985 962.896C646.817 951.444 628.952 941.824 595.97 936.327 580.853 934.037 576.73 934.953 574.44 940.908 570.317 951.902 578.104 958.316 606.048 967.477 635.823 976.639 643.153 976.181 644.985 962.896ZM659.644 904.72C659.644 890.061 626.661 853.872 600.092 840.129 576.272 827.303 521.302 828.219 496.565 841.504 474.119 853.414 451.215 874.944 441.595 893.725L434.723 907.01 547.413 907.01C609.254 907.01 659.644 906.094 659.644 904.72ZM289.968 815.851C310.582 789.282 336.235 767.294 371.05 747.596L396.244 732.937 274.393 732.937C146.587 732.937 137.426 731.563 144.755 712.782 147.046 706.368 165.827 705.452 316.995 704.536L486.487 703.162 512.598 655.063C547.871 590.015 551.077 590.015 585.892 656.437 606.048 694.916 613.835 705.91 622.997 708.201 704.994 726.982 770.958 766.836 814.477 823.638 823.638 836.007 828.677 838.297 840.129 837.381L854.33 836.007 855.704 573.982 856.62 311.498 464.957 311.498 73.2937 311.498 73.2937 571.691C73.2937 715.072 74.668 833.716 76.5003 835.09 77.8746 836.923 122.767 838.297 176.363 838.297L273.019 838.297 289.968 815.851ZM1159.87 672.47C1163.54 669.263 1202.93 606.048 1247.37 532.296L1328.45 398.077 1328.45 298.214C1328.45 211.178 1327.53 197.435 1321.12 195.145 1317 193.77 1284.47 192.396 1248.28 192.396L1182.78 192.396 1178.2 212.094C1166.74 256.986 1123.68 297.756 1077.42 307.376 1011 321.118 940.908 277.6 924.417 212.094 919.836 193.312 918.92 192.396 901.971 192.396L884.106 192.396 884.106 435.182 884.106 677.967 1018.32 677.967C1119.1 677.967 1154.38 676.593 1159.87 672.47ZM293.175 280.349C293.175 278.058 289.052 272.561 283.555 267.522 271.645 256.986 256.07 227.211 251.947 208.429L249.199 194.686 167.659 193.312C111.315 192.396 83.8297 193.77 79.7069 197.435 75.1261 201.1 73.2937 214.384 73.2937 243.244L73.2937 284.013 183.234 284.013C243.702 284.013 293.175 282.181 293.175 280.349ZM764.087 280.807 856.62 278.058 856.62 234.998 856.62 192.396 682.548 192.396 508.475 192.396 508.475 202.932C508.475 216.675 488.778 256.986 476.867 267.522 471.828 272.561 467.248 278.058 467.248 280.349 467.248 284.929 633.533 285.387 764.087 280.807ZM408.613 206.139C420.523 193.77 422.355 189.648 420.065 175.447 415.942 152.085 402.657 139.716 380.211 139.716 357.765 139.716 344.481 152.085 340.358 175.447 338.067 189.648 339.9 193.77 351.81 206.139 361.43 215.758 370.133 219.881 380.211 219.881 390.289 219.881 398.993 215.758 408.613 206.139ZM1068.71 214.384C1084.29 206.597 1089.79 196.519 1090.24 177.737 1090.24 164.911 1087.04 158.498 1076.04 149.336 1058.18 134.219 1044.44 134.219 1026.57 149.336 990.382 179.57 1027.49 236.83 1068.71 214.384Z" transform="matrix(1 0 0 -1.0009 1506 1840.43)"/><path d="M504.353 898.306C494.275 891.893 502.52 871.279 519.011 861.201 526.799 856.162 540.999 852.04 549.703 852.04 581.769 852.04 611.545 882.731 592.763 896.474 585.892 901.513 583.143 901.055 572.607 890.977 557.49 876.318 540.541 876.318 524.966 890.977 510.766 904.261 512.598 903.345 504.353 898.306Z" transform="matrix(1 0 0 -1.0009 1506 1840.43)"/><path d="M146.587 584.059C143.381 580.395 142.007 573.982 143.839 570.317 146.129 564.362 174.073 563.446 364.178 563.446 554.284 563.446 582.227 564.362 584.518 570.317 586.35 573.982 584.976 580.395 581.769 584.059 573.065 594.595 155.291 594.595 146.587 584.059Z" transform="matrix(1 0 0 -1.0009 1506 1840.43)"/><path d="M148.878 442.511C143.839 438.846 141.549 433.807 143.381 428.768 146.129 421.897 170.866 421.439 428.31 421.439 685.755 421.439 710.491 421.897 713.24 428.768 720.569 448.466 713.698 448.924 428.31 448.924 207.513 448.924 155.749 447.55 148.878 442.511Z" transform="matrix(1 0 0 -1.0009 1506 1840.43)"/><path d="M930.83 635.823C926.708 631.7 925.333 604.673 925.333 541.916 925.333 459.46 925.791 453.505 934.037 448.924 946.405 442.511 1220.34 442.511 1232.71 448.924 1237.29 451.673 1241.41 456.712 1241.41 459.918 1241.41 468.622 1146.59 623.913 1135.59 633.533 1126.89 640.404 1114.52 641.32 1031.15 641.32 963.354 641.32 934.953 639.946 930.83 635.823ZM1160.33 547.413C1182.32 511.224 1200.18 480.074 1200.18 478.7 1200.18 477.325 1144.76 476.409 1076.5 476.409L952.819 476.409 952.819 545.122 952.819 613.835 1036.65 613.835 1120.02 613.835 1160.33 547.413Z" transform="matrix(1 0 0 -1.0009 1506 1840.43)"/><path d="M945.031 400.367C939.992 387.541 956.483 380.211 989.465 380.211 1022.45 380.211 1038.94 387.541 1033.9 400.367 1031.61 406.322 1023.82 407.696 989.465 407.696 955.109 407.696 947.322 406.322 945.031 400.367Z" transform="matrix(1 0 0 -1.0009 1506 1840.43)"/></g></g></g></g></svg>