<svg width="1703" height="1703" xmlns="http://www.w3.org/2000/svg" xmlns:xlink="http://www.w3.org/1999/xlink" xml:space="preserve" overflow="hidden"><defs><clipPath id="clip0"><rect x="1927" y="463" width="1703" height="1703"/></clipPath><clipPath id="clip1"><rect x="1930" y="663" width="1102" height="1099"/></clipPath><clipPath id="clip2"><rect x="1930" y="663" width="1102" height="1099"/></clipPath><clipPath id="clip3"><rect x="1930" y="663" width="1102" height="1099"/></clipPath></defs><g clip-path="url(#clip0)" transform="translate(-1927 -463)"><path d="M1934 1314.5C1934 848.095 2312.1 470 2778.5 470 3244.9 470 3623 848.095 3623 1314.5 3623 1780.9 3244.9 2159 2778.5 2159 2312.1 2159 1934 1780.9 1934 1314.5Z" stroke="#000000" stroke-width="13.75" stroke-miterlimit="8" fill="#FF0000" fill-rule="evenodd"/><path d="M2736.8 880.907C2737.56 883.719 2737.83 886.719 2737.58 889.907 2736.28 889.907 2734.97 889.907 2733.67 889.907 2734.51 889.066 2735.55 888.766 2736.8 889.007 2736.8 886.307 2736.8 883.607 2736.8 880.907Z" fill="#C6E0B4" fill-rule="evenodd"/><path d="M106.078 230.8C56.7182 225.05 15.5846 191.676 1.30892 145.787-2.56244 133.159-4.01416 109.595-1.59486 95.9519 7.72071 41.6066 56.7182 0.565856 115.273-2.14032 184.474-5.29725 242.424 43.8617 246.053 108.693 250.046 180.965 182.659 239.82 106.078 230.8Z" fill-rule="evenodd" transform="matrix(1 0 0 -1 3172 1107)"/><g clip-path="url(#clip1)"><g clip-path="url(#clip2)"><g clip-path="url(#clip3)"><path d="M869.25 503.25C869.25 528.412 848.662 549 823.5 549 798.337 549 777.75 528.412 777.75 503.25L777.75 457.5 754.875 228.75 846.375 228.75 869.25 457.5 869.25 503.25ZM686.25 503.25C686.25 528.412 665.662 549 640.5 549 615.337 549 594.75 528.412 594.75 503.25L594.75 457.5 583.312 228.75 674.812 228.75 686.25 457.5 686.25 503.25ZM503.25 457.5 503.25 503.25C503.25 528.412 482.662 549 457.5 549 432.337 549 411.75 528.412 411.75 503.25L411.75 457.5 423.187 228.75 514.687 228.75 503.25 457.5ZM457.5 823.5 274.5 823.5 274.5 640.5 457.5 640.5 457.5 823.5ZM228.75 503.25 228.75 457.5 251.625 228.75 343.125 228.75 320.25 457.5 320.25 503.25C320.25 528.412 299.662 549 274.5 549 249.337 549 228.75 528.412 228.75 503.25ZM915 160.125 183 160.125 137.25 457.5 137.25 503.25C137.25 528.412 157.837 549 183 549L183 937.875 571.875 937.875 571.875 640.5 823.5 640.5 823.5 937.875 915 937.875 915 549C940.162 549 960.75 528.412 960.75 503.25L960.75 457.5 915 160.125Z" transform="matrix(1.00273 0 0 1 1931 663)"/></g></g></g><rect x="2123.5" y="1255.5" width="711" height="350" stroke="#000000" stroke-width="4.58333" stroke-miterlimit="8"/><path d="M11.6686 347.191C6.1514 344.64 1.7754 339.801 0.0630399 334.435-0.793005 331.884-0.697768 323.351 0.53868 298.719 1.395 280.949 3.39252 239.867 5.00965 207.406 6.81724 169.579 8.33913 146.267 9.19545 142.309 9.95625 138.966 12.049 133.336 13.8566 129.817 15.6639 126.298 28.9819 107.209 43.441 87.3276 57.9004 67.4463 70.9329 48.8847 72.4548 46.0696 77.7818 36.2169 79.1138 29.5312 79.1138 13.2566L79.1138-1.52235 192.696-1.52235 306.277-1.52235 306.658 14.1364C307.229 30.7629 308.465 36.5688 313.792 46.4213 315.124 48.8847 328.442 67.6221 343.377 88.2071 358.312 108.792 371.439 127.618 372.676 130.169 375.72 136.415 377.717 144.068 378.383 151.721 379.906 171.163 387.04 330.388 386.469 332.852 384.091 342.616 374.673 349.478 363.924 349.478 356.124 349.478 347.087 343.584 343.852 336.546 342.711 333.995 338.62 287.723 331.676 199.489 329.964 178.113 328.347 169.579 324.446 160.342 319.215 148.467 313.126 141.253 288.013 118.117L264.611 96.5642 195.835 96.3003C158.069 96.1245 125.631 96.3003 123.823 96.5642 121.065 97.092 116.784 100.523 100.232 115.742 76.1647 137.822 69.7912 144.86 64.1787 155.504 57.0441 169.315 56.9492 169.931 50.1 254.031 46.6753 296.168 43.6312 331.796 43.3461 333.204 42.4897 337.074 40.5872 340.065 37.0675 343.32 30.1234 349.742 20.5156 351.237 11.6686 347.191Z" fill="#FFFFFF" fill-rule="evenodd" transform="matrix(1 0 0 -1 2203 1571)"/><path d="M68.5975 146.228C35.9716 140.339 10.5959 119.581 1.82829 91.7847-0.616464 83.8837-1.20655 68.2977 0.648114 59.8222 9.07863 21.6109 49.7976-4.89261 94.2259-1.01402 105.607-0.0085778 113.531 1.85893 123.817 6.16846 133.849 10.3344 141.099 14.8594 149.108 22.0419 159.393 31.3073 166.306 41.9377 170.353 54.6508 172.376 61.0433 172.629 63.1263 172.545 73.3255 172.545 83.3811 172.292 85.6793 170.353 91.7128 161.332 120.659 134.607 141.703 100.296 146.875 92.5398 148.096 76.7748 147.737 68.5975 146.228Z" fill="#FFFFFF" fill-rule="evenodd" transform="matrix(1 0 0 -1 2300 1460)"/><path d="M26.7123 725.735C15.1117 722.054 6.57058 714.947 0.833921 704.032-2.09822 698.574-2.608 696.163-2.608 686.263-2.608 675.602-2.35311 674.333 1.72622 666.845 6.44295 658.087 11.9247 652.884 20.9757 648.441L26.7123 645.649 163.243 645.015 299.774 644.38 306.021 640.573C309.845 638.161 313.669 634.354 316.092 630.546L319.916 624.327 320.553 319.596C321.191 39.7419 321.318 14.6119 323.231 11.0583 332.027-4.80629 353.826-4.80629 363.004 11.0583 364.151 12.962 364.662 47.7378 365.171 142.419L365.809 271.241 368.613 276.317C380.469 298.147 410.172 299.036 421.645 277.84L424.449 272.51 425.087 148.765 425.724 25.0192 428.529 19.8156C435.54 6.8702 445.356 0.270304 459.506-0.618199 467.028-1.12561 468.558-0.74487 476.079 3.06249 481.56 5.85467 485.767 9.15462 488.444 12.7083 497.113 24.1311 496.603 0.524008 496.221 327.846L495.838 624.073 492.396 636.258C488.954 648.949 481.433 665.195 474.549 675.094 462.311 692.863 439.492 711.012 420.115 718.5 396.786 727.385 413.231 726.75 212.833 727.131 68.7808 727.258 30.7916 727.004 26.7123 725.735Z" fill-rule="evenodd" transform="matrix(1 0 0 -1 2916 1858)"/><path d="M73.8212 71.4736C70.3741 69.4432 64.3736 65.2556 60.7987 62.0831 47.6486 50.9155 38.839 49.9005 21.9866 58.0222-0.866768 68.8088-8.27188 59.672 3.47397 34.926 8.96399 23.3781 19.6884 6.62717 21.4757 6.62717 22.2418 6.62717 26.4551 7.89625 31.0511 9.29197 36.5411 11.0687 44.2012 12.2108 54.1597 12.5915 71.3952 13.3529 78.6725 11.8301 93.3549 3.96202L102.803-0.986895 108.293 5.10407C135.487 35.18 148.254 59.672 138.934 63.9865 136.38 65.1286 134.21 64.8749 127.698 62.5905 118.379 59.545 109.442 59.1643 103.441 61.7024 101.143 62.5905 96.5468 66.017 93.2271 69.3165 86.0776 76.2959 82.8858 76.6765 73.8212 71.4736Z" fill-rule="evenodd" transform="matrix(1 0 0 -1 2936 1460)"/><path d="M75.6325 340.031C44.6771 333.432 17.161 309.323 1.61955 275.316L-2.07462 267.067-2.07462 143.347-2.07462 19.7545 1.49238 17.8512C7.73434 14.6786 30.0272 8.08041 44.9318 4.90814 74.3586-1.18275 105.059-1.94406 134.231 2.62383 185.187 10.4914 218.945 34.4739 234.486 73.5568 237.671 81.8046 237.925 83.7083 237.925 99.5696 237.798 112.132 237.034 120.253 234.996 130.024 217.798 211.996 167.097 302.344 121.365 332.417 107.862 341.3 93.212 343.711 75.6325 340.031ZM101.747 286.101C103.913 283.817 104.295 281.533 104.677 268.59L105.187 253.617 113.722 249.556C129.263 242.451 139.327 228.239 141.365 210.601 142.129 204.129 142.002 203.495 138.308 199.941 131.046 192.709 122.257 196.388 120.856 207.174 120.473 210.474 119.072 215.295 118.053 217.96 116.015 222.655 108.626 230.269 106.206 230.269 105.441 230.269 104.932 220.244 104.932 204.51L104.932 178.75 112.321 175.705C122.384 171.518 134.104 159.717 137.798 150.073 143.021 136.242 142.512 122.41 136.524 110.482 132.066 101.854 122.129 92.4638 113.212 88.6569L105.187 85.1039 104.677 72.1608C104.295 60.4867 104.04 58.8374 101.238 55.9188 99.1993 53.7615 96.779 52.6196 94.2312 52.6196 85.8237 52.7466 83.2759 57.6951 83.2759 73.3032L83.2759 85.3579 77.4158 87.3882C61.2377 92.8445 48.6259 109.087 46.8426 127.105 46.2057 133.323 46.4604 134.973 48.7535 137.764 50.1549 139.668 52.8299 141.571 54.6135 141.952 58.8171 142.967 65.1866 139.668 65.9511 135.988 68.8808 121.776 69.9 119.238 74.1039 114.543 83.5306 104.138 83.2759 103.757 83.2759 133.704L83.2759 160.224 79.4542 161.112C73.3394 162.508 60.728 171.391 55.8871 177.862 45.4415 192.074 43.6579 211.489 51.4288 227.224 56.1421 236.994 66.4605 246.638 76.1419 250.571L83.0208 253.49 83.5306 268.59C83.9129 283.563 83.9129 283.817 87.607 286.99 91.9381 290.67 97.416 290.289 101.747 286.101Z" fill-rule="evenodd" transform="matrix(1 0 0 -1 2912 1808)"/><path d="M7.4886 44.2231C1.50468 39.2036-2.00747 31.4815-2.00747 23.1161-2.00747 15.2652 0.0739944 10.1169 5.6676 4.58289 14.1226-3.78254 13.9927-4.16899 13.9927 23.1161 13.9927 37.1444 13.4722 47.5694 12.8217 47.5694 12.1713 47.5694 9.69992 46.0247 7.4886 44.2231Z" fill-rule="evenodd" transform="matrix(1 0 0 -1 3004 1628)"/><path d="M-2.26262 23.6504C-2.26262 0.457338-2.12218-1.05518 0.269273 0.0792098 3.92707 1.84369 9.83548 7.8941 12.3678 12.432 17.2915 21.2555 14.1963 36.1294 5.89641 42.4317-2.96601 49.4904-2.26262 51.0029-2.26262 23.6504Z" fill-rule="evenodd" transform="matrix(1 0 0 -1 2993 1696)"/></g></svg>