<svg width="1703" height="1703" xmlns="http://www.w3.org/2000/svg" xmlns:xlink="http://www.w3.org/1999/xlink" xml:space="preserve" overflow="hidden"><defs><clipPath id="clip0"><rect x="1927" y="463" width="1703" height="1703"/></clipPath></defs><g clip-path="url(#clip0)" transform="translate(-1927 -463)"><path d="M1934 1314.5C1934 848.095 2312.1 470 2778.5 470 3244.9 470 3623 848.095 3623 1314.5 3623 1780.9 3244.9 2159 2778.5 2159 2312.1 2159 1934 1780.9 1934 1314.5Z" stroke="#000000" stroke-width="13.75" stroke-miterlimit="8" fill="#FF0000" fill-rule="evenodd"/><path d="M2736.8 880.907C2737.56 883.719 2737.83 886.719 2737.58 889.907 2736.28 889.907 2734.97 889.907 2733.67 889.907 2734.51 889.066 2735.55 888.766 2736.8 889.007 2736.8 886.307 2736.8 883.607 2736.8 880.907Z" fill="#C6E0B4" fill-rule="evenodd"/><path d="M3012 756C2771.01 752.979 2530.01 751.645 2289 752 2290.61 751.266 2292.36 750.599 2294.26 750 2354.64 750.456 2415.38 750.456 2476.47 750 2479.19 749.333 2481.92 748.667 2484.64 748 2487.92 748.857 2491.42 748.857 2495.15 748 2496.71 748.667 2498.27 749.333 2499.83 750 2582.82 749.304 2665.36 748.637 2747.45 748 2749 748.667 2750.56 749.333 2752.12 750 2754.32 749.403 2756.46 749.069 2758.54 749 2825.2 749.997 2891.59 751.663 2957.69 754 2959.32 753.384 2961.07 753.051 2962.94 753 2979.49 753.75 2995.85 754.751 3012 756Z" stroke="#000000" stroke-width="1.99718" stroke-miterlimit="8" fill="#C9CACA" fill-rule="evenodd"/><path d="M2288.66 752.065C2529.56 751.697 2770.45 753.079 3011.32 756.21 3028.15 766.531 3036.72 780.866 3037 799.214 3035.27 815.576 3033.91 831.983 3032.91 848.435 3029.76 855.549 3024.12 860.385 3015.99 862.943 3013.38 880.802 3011.83 898.764 3011.32 916.828 3010.15 935.3 3009.76 953.952 3010.15 972.785 3007.16 972.472 3004.44 972.818 3001.98 973.821 2993.7 973.656 2985.53 974.346 2977.46 975.894 2975.51 975.894 2973.57 975.894 2971.62 975.894 2972.01 938.067 2971.62 900.417 2970.46 862.943 2743.19 862.943 2515.93 862.943 2288.66 862.943 2288.66 935.48 2288.66 1008.02 2288.66 1080.55 2289.83 1080.55 2291 1080.55 2292.16 1080.55 2294.75 1081.45 2297.48 1081.8 2300.34 1081.59 2317.22 1084.52 2334.34 1085.21 2351.71 1083.66 2352.87 1056.38 2353.26 1029.1 2352.87 1001.8 2354.06 997.802 2356.79 994.865 2361.04 992.992 2377.75 991.738 2394.48 991.22 2411.25 991.437 2425.25 991.437 2439.26 991.437 2453.27 991.437 2453.27 978.311 2453.27 965.186 2453.27 952.06 2453.08 937.528 2453.66 923.02 2455.02 908.538 2457.99 905.562 2461.29 902.971 2464.95 900.766 2513.63 897.14 2562.28 897.313 2610.88 901.284 2613.88 903.475 2616.6 905.892 2619.05 908.538 2620.72 921.967 2621.5 935.439 2621.39 948.951 2621.39 963.114 2621.39 977.275 2621.39 991.437 2635.01 991.437 2648.63 991.437 2662.25 991.437 2662.62 987.083 2662.23 982.938 2661.08 979.002 2661.03 954.443 2662 929.92 2664 905.429 2665.75 903.875 2667.5 902.32 2669.25 900.766 2718.28 897.326 2767.32 897.326 2816.35 900.766 2819.85 902.485 2821.99 905.076 2822.77 908.538 2826.22 936.086 2827.58 963.719 2826.86 991.437 2858.79 991.062 2890.7 991.58 2922.59 992.992 2926.53 996.89 2927.11 1001.21 2924.34 1005.94 2910.29 1018.12 2900.75 1032.62 2895.74 1049.47 2895.02 1049.35 2894.43 1049.01 2893.99 1048.43 2892.15 1041.19 2889.62 1034.28 2886.4 1027.71 2860.14 1026.67 2833.68 1026.33 2807.01 1026.67 2805.85 1044.45 2805.46 1062.41 2805.84 1080.55 2812.07 1081.25 2818.3 1081.94 2824.52 1082.63 2824.91 1082.63 2825.3 1082.63 2825.69 1082.63 2845.57 1084.61 2865.41 1084.95 2885.23 1083.66 2886.19 1086.64 2887.17 1089.75 2888.15 1092.99 2888.6 1093.57 2889.18 1093.91 2889.9 1094.03 2889.9 1094.37 2889.9 1094.72 2889.9 1095.06 2889.54 1101.89 2889.93 1108.63 2891.07 1115.27 2803.71 1115.45 2716.35 1115.28 2628.98 1114.75 2581.23 1116.83 2533.56 1117.18 2485.96 1115.79 2459.54 1117.81 2433.07 1118.16 2406.58 1116.82 2389.65 1117.33 2372.91 1118.02 2356.37 1118.9 2333.8 1118.9 2311.23 1118.9 2288.66 1118.9 2288.66 1191.43 2288.66 1263.97 2288.66 1336.51 2296.95 1338.33 2305.51 1339.53 2314.35 1340.13 2327.18 1340.65 2340.02 1340.82 2352.87 1340.65 2352.87 1313.02 2352.87 1285.39 2352.87 1257.75 2355.76 1251.24 2361.21 1248.31 2369.22 1248.94 2397.21 1247.59 2425.23 1247.07 2453.27 1247.39 2453.08 1224.59 2453.27 1201.79 2453.86 1179 2454.06 1174.12 2454.64 1169.29 2455.61 1164.49 2458.9 1162.09 2462.01 1159.5 2464.95 1156.72 2513.2 1154.65 2561.46 1154.65 2609.71 1156.72 2613.02 1159.65 2616.33 1162.59 2619.64 1165.53 2621.17 1192.8 2621.76 1220.08 2621.39 1247.39 2634.8 1248.42 2648.42 1248.77 2662.25 1248.43 2662.25 1233.23 2662.25 1218.03 2662.25 1202.83 2662.32 1189.66 2663.29 1176.53 2665.17 1163.45 2665.54 1161.84 2666.51 1160.63 2668.08 1159.83 2718.22 1153.99 2768.42 1153.65 2818.69 1158.79 2823.5 1162.04 2825.64 1166.35 2825.11 1171.74 2826.21 1193.55 2825.82 1215.31 2823.94 1237.03 2786.32 1264.55 2776.2 1298.75 2793.59 1339.62 2800.87 1352.03 2810.02 1363.26 2821.02 1373.29 2643.58 1375.17 2466.13 1376.03 2288.66 1375.88 2288.66 1448.08 2288.66 1520.27 2288.66 1592.46 2295.68 1594.75 2303.07 1595.96 2310.84 1596.09 2324.85 1596.6 2338.86 1596.78 2352.87 1596.6 2352.87 1569.32 2352.87 1542.03 2352.87 1514.74 2354.47 1511.41 2356.8 1508.48 2359.88 1505.93 2390.97 1504 2422.1 1503.14 2453.27 1503.34 2452.86 1476.03 2453.44 1448.75 2455.02 1421.48 2458.07 1419.03 2460.98 1416.44 2463.78 1413.71 2511.25 1410.28 2558.72 1410.28 2606.21 1413.71 2611.61 1414.89 2615.89 1417.48 2619.05 1421.48 2619.98 1427.64 2620.56 1433.86 2620.8 1440.13 2621.39 1461.2 2621.58 1482.27 2621.39 1503.34 2634.8 1504.37 2648.42 1504.72 2662.25 1504.38 2662.25 1489.87 2662.25 1475.36 2662.25 1460.86 2662.01 1446.15 2663.56 1431.64 2666.92 1417.33 2668.3 1415.93 2669.86 1414.72 2671.59 1413.71 2719.45 1410.28 2767.31 1410.28 2815.18 1413.71 2818.1 1416.3 2821.02 1418.89 2823.94 1421.48 2825.4 1432.84 2825.98 1444.24 2825.69 1455.67 2825.69 1471.91 2825.69 1488.14 2825.69 1504.38 2841.65 1504.38 2857.6 1504.38 2873.56 1504.38 2888.76 1504.84 2903.93 1505.7 2919.09 1506.97 2923.2 1507.49 2926.12 1509.39 2927.84 1512.67 2929.27 1520.19 2930.05 1527.79 2930.18 1535.47 2930.76 1555.84 2930.96 1576.22 2930.76 1596.6 2944.38 1596.6 2958 1596.6 2971.62 1596.6 2971.62 1567.93 2971.62 1539.27 2971.62 1510.6 2983.38 1510.37 2995.05 1511.06 3006.65 1512.67 2994.52 1571.9 2983.62 1631.31 2973.96 1690.9 2973.18 1689.18 2972.4 1687.45 2971.62 1685.72 2971.03 1667.76 2970.64 1649.8 2970.46 1631.84 2743.19 1631.84 2515.93 1631.84 2288.66 1631.84 2288.66 1668.8 2288.66 1705.75 2288.66 1742.71 2513.2 1742.71 2737.74 1742.71 2962.28 1742.71 2959.58 1754.33 2958.41 1766.07 2958.78 1777.95 2728.79 1777.95 2498.8 1777.95 2268.82 1777.95 2267.65 1789.85 2267.26 1801.94 2267.65 1814.22 2279.32 1814.22 2291 1814.22 2302.67 1814.22 2327.94 1815.18 2353.24 1815.53 2378.56 1815.25 2425.62 1816.23 2472.71 1816.92 2519.82 1817.32 2535.99 1817.3 2551.75 1816.95 2567.1 1816.29 2570.3 1817.1 2573.61 1817.61 2577.02 1817.84 2597.84 1818.02 2618.66 1818.18 2639.48 1818.36 2666.08 1818.29 2690.99 1817.95 2714.2 1817.32 2715.44 1818.04 2716.81 1818.56 2718.29 1818.88 2764.98 1819.22 2811.68 1819.57 2858.38 1819.92 2856.37 1825.5 2852.28 1827.05 2846.12 1824.58 2834.81 1830.82 2824.49 1838.24 2815.18 1846.86 2812.09 1847.38 2808.98 1847.54 2805.84 1847.38 2773.34 1847.03 2741.04 1847.38 2708.95 1848.41 2630.33 1848.57 2551.72 1849.43 2473.12 1851 2476.46 1851.19 2479.58 1851.71 2482.46 1852.56 2452.29 1852.21 2422.33 1852.56 2392.57 1853.59 2392.77 1873.64 2392.19 1893.67 2390.81 1913.7 2379.94 1926.31 2367.87 1927.34 2354.62 1916.8 2353.1 1895.42 2352.52 1874 2352.87 1852.56 2320.16 1852.95 2287.47 1852.43 2254.81 1851 2240.8 1845.83 2232.43 1836.67 2229.71 1823.54 2227.43 1799.36 2227.43 1775.18 2229.71 1751 2233.67 1744.84 2239.7 1742.08 2247.8 1742.71 2248 1532.36 2247.8 1322 2247.22 1111.64 2246.09 1028.39 2244.73 945.148 2243.13 861.907 2236.73 858.823 2232.26 854.333 2229.71 848.435 2228.31 830.141 2227.92 811.834 2228.54 793.515 2229.29 784.324 2231.24 775.343 2234.38 766.572 2241.2 758.465 2250.35 753.802 2261.81 752.583 2270.75 752.065 2279.7 751.892 2288.66 752.065Z" stroke="#000000" stroke-width="1.99718" stroke-miterlimit="8" fill="#0B0B0D" fill-rule="evenodd"/><path d="M2269 787C2509.67 787 2750.33 787 2991 787 2991 799.333 2991 811.666 2991 824 2750.33 824 2509.67 824 2269 824 2269 811.666 2269 799.333 2269 787Z" stroke="#000000" stroke-width="1.99718" stroke-miterlimit="8" fill="#FCFCFC" fill-rule="evenodd"/><path d="M2971 863C2972.16 900.443 2972.55 938.061 2972.17 975.857 2974.11 975.857 2976.06 975.857 2978 975.857 2975.94 976.852 2973.61 977.198 2971 976.893 2971 938.928 2971 900.965 2971 863Z" stroke="#000000" stroke-width="1.99718" stroke-miterlimit="8" fill="#808182" fill-rule="evenodd"/><path d="M3012 917C3012 936 3012 955 3012 974 3008.67 974 3005.33 974 3002 974 3004.63 972.997 3007.55 972.651 3010.75 972.964 3010.34 954.129 3010.75 935.474 3012 917Z" stroke="#000000" stroke-width="1.99718" stroke-miterlimit="8" fill="#6F7071" fill-rule="evenodd"/><path d="M2702 934C2730 934 2758 934 2786 934 2786 953 2786 972 2786 991 2758 991 2730 991 2702 991 2702 972 2702 953 2702 934Z" stroke="#000000" stroke-width="1.99718" stroke-miterlimit="8" fill-rule="evenodd"/><path d="M2498 934C2524.33 934 2550.67 934 2577 934 2577 953 2577 972 2577 991 2550.67 991 2524.33 991 2498 991 2498 972 2498 953 2498 934Z" stroke="#000000" stroke-width="1.99718" stroke-miterlimit="8" fill="#F8F9F9" fill-rule="evenodd"/><path d="M2454 952C2454 965.334 2454 978.666 2454 992 2440 992 2426 992 2412 992 2425.4 990.953 2439.01 990.602 2452.83 990.947 2452.45 977.778 2452.84 964.795 2454 952Z" stroke="#000000" stroke-width="1.99718" stroke-miterlimit="8" fill="#7E8080" fill-rule="evenodd"/><path d="M2622 949C2623.16 962.798 2623.55 976.782 2623.17 990.951 2636.01 990.951 2648.85 990.951 2661.7 990.951 2661.7 987.106 2661.7 983.261 2661.7 979.415 2662.85 983.398 2663.24 987.593 2662.86 992 2649.24 992 2635.62 992 2622 992 2622 977.666 2622 963.334 2622 949Z" stroke="#000000" stroke-width="1.99718" stroke-miterlimit="8" fill="#B4B5B5" fill-rule="evenodd"/><path d="M3009.4 1006.25C3055.46 1003.62 3085.41 1021.94 3099.24 1061.19 3124.47 1060.71 3146.25 1067.96 3164.57 1082.96 3169.57 1093.61 3166.85 1102.42 3156.41 1109.39 3150.93 1109.73 3145.49 1109.39 3140.07 1108.35 3130.2 1106.42 3120.48 1104.35 3110.9 1102.13 3122.79 1185.55 3082.34 1218.72 2989.56 1201.65 2971.68 1192.33 2958.26 1179.37 2949.31 1162.77 2944.36 1144.94 2938.53 1127.32 2931.81 1109.91 2923.23 1075.07 2934.31 1046.56 2965.06 1024.39 2978.37 1015.19 2993.15 1009.14 3009.4 1006.25Z" stroke="#000000" stroke-width="1.99718" stroke-miterlimit="8" fill="#0D0E0F" fill-rule="evenodd"/><path d="M2393 1027C2419.67 1027 2446.33 1027 2473 1027 2473 1044.67 2473 1062.33 2473 1080 2446.33 1080 2419.67 1080 2393 1080 2393 1062.33 2393 1044.67 2393 1027Z" stroke="#000000" stroke-width="1.99718" stroke-miterlimit="8" fill="#FCFCFC" fill-rule="evenodd"/><path d="M2518 1027C2531.33 1027 2544.67 1027 2558 1027 2558 1044.67 2558 1062.33 2558 1080 2544.67 1080 2531.33 1080 2518 1080 2518 1062.33 2518 1044.67 2518 1027Z" stroke="#000000" stroke-width="1.99718" stroke-miterlimit="8" fill="#FBFBFB" fill-rule="evenodd"/><path d="M2762 1029.31C2762 1046.21 2762 1063.11 2762 1080 2749.54 1080 2737.08 1080 2724.62 1080 2722.3 1062.79 2721.52 1045.21 2722.28 1027.25 2735.97 1026.58 2749.21 1027.27 2762 1029.31Z" stroke="#000000" stroke-width="1.99718" stroke-miterlimit="8" fill="#F7F8F7" fill-rule="evenodd"/><path d="M2807.32 1027C2807.32 1044.63 2807.32 1062.26 2807.32 1079.89 2809.29 1079.89 2811.25 1079.89 2813.22 1079.89 2817.32 1080.43 2821.24 1081.46 2825 1083 2818.72 1082.31 2812.43 1081.62 2806.15 1080.93 2805.76 1062.77 2806.15 1044.79 2807.32 1027Z" stroke="#000000" stroke-width="1.99718" stroke-miterlimit="8" fill="#828485" fill-rule="evenodd"/><path d="M2887.02 1028C2890.12 1034.52 2892.55 1041.36 2894.32 1048.54 2894.75 1049.11 2895.31 1049.45 2896 1049.57 2893.77 1054.51 2892.08 1059.64 2890.95 1064.97 2890.2 1066.34 2889.45 1066.34 2888.7 1064.97 2887.44 1052.67 2886.88 1040.35 2887.02 1028Z" stroke="#000000" stroke-width="1.99718" stroke-miterlimit="8" fill="#6C6E6F" fill-rule="evenodd"/><path d="M3006.16 1044C3012.3 1043.97 3018.3 1044.68 3024.14 1046.13 3024.98 1045.53 3025.95 1045.18 3027.04 1045.07 3033.6 1047.08 3040.17 1049.04 3046.76 1050.92 3052.91 1056.24 3055.61 1062.8 3054.88 1070.61 3030.22 1071.72 3005.67 1073.85 2981.22 1077 2979.48 1076.65 2977.74 1076.29 2976 1075.94 2976.19 1070.17 2977.93 1064.49 2981.22 1058.9 2989.07 1053.26 2997.38 1048.3 3006.16 1044Z" stroke="#000000" stroke-width="1.99718" stroke-miterlimit="8" fill-rule="evenodd"/><path d="M2598 1027C2626 1027 2654 1027 2682 1027 2682 1044.67 2682 1062.33 2682 1080 2654 1080 2626 1080 2598 1080 2598 1062.33 2598 1044.67 2598 1027Z" stroke="#000000" stroke-width="1.99718" stroke-miterlimit="8" fill="#F7F7F7" fill-rule="evenodd"/><path d="M2350 1035C2350 1050.3 2350 1065.6 2350 1080.9 2333.22 1080.55 2316.65 1080.9 2300.29 1081.94 2297.39 1082.15 2294.62 1081.8 2292 1080.9 2310.73 1079.86 2329.67 1079.51 2348.82 1079.85 2348.43 1064.72 2348.82 1049.77 2350 1035Z" stroke="#000000" stroke-width="1.99718" stroke-miterlimit="8" fill="#8E8F90" fill-rule="evenodd"/><path d="M2813 1080C2838.67 1080 2864.33 1080 2890 1080 2890 1084.67 2890 1089.33 2890 1094 2889.28 1093.89 2888.7 1093.56 2888.25 1093 2887.27 1089.87 2886.3 1086.87 2885.33 1084 2867.06 1083.9 2848.58 1083.24 2829.92 1082 2828.3 1082.01 2826.94 1082.35 2825.83 1083 2825.44 1083 2825.06 1083 2824.67 1083 2820.95 1081.52 2817.06 1080.52 2813 1080Z" stroke="#000000" stroke-width="1.99718" stroke-miterlimit="8" fill="#4E5051" fill-rule="evenodd"/><path d="M2352.86 1002C2353.24 1029.41 2352.86 1056.81 2351.7 1084.2 2334.56 1085.75 2317.66 1085.05 2301 1082.11 2316.93 1081.08 2333.06 1080.73 2349.4 1081.07 2349.4 1065.81 2349.4 1050.55 2349.4 1035.29 2350.01 1024 2351.17 1012.9 2352.86 1002Z" stroke="#000000" stroke-width="1.99718" stroke-miterlimit="8" fill="#686A6A" fill-rule="evenodd"/><path d="M2762.16 1029C2764.47 1036.33 2765.86 1043.93 2766.33 1051.8 2766.93 1062.51 2767.12 1073.22 2766.93 1083.94 2757.78 1084.11 2748.63 1083.94 2739.5 1083.42 2733.91 1083.04 2728.75 1081.83 2724 1079.79 2736.72 1079.79 2749.44 1079.79 2762.16 1079.79 2762.16 1062.86 2762.16 1045.93 2762.16 1029Z" stroke="#000000" stroke-width="1.99718" stroke-miterlimit="8" fill="#595B5B" fill-rule="evenodd"/><path d="M2826 1083.1C2827.12 1082.38 2828.49 1082.02 2830.12 1082 2848.94 1083.35 2867.57 1084.08 2886 1084.19 2866.03 1085.56 2846.03 1085.19 2826 1083.1Z" stroke="#000000" stroke-width="1.99718" stroke-miterlimit="8" fill="#747676" fill-rule="evenodd"/><path d="M2890.33 1095C2891.71 1102.93 2893.27 1110.93 2895 1119 2715.67 1119 2536.33 1119 2357 1119 2373.53 1118.12 2390.26 1117.43 2407.18 1116.91 2433.67 1118.26 2460.12 1117.91 2486.54 1115.87 2534.12 1117.27 2581.78 1116.92 2629.5 1114.83 2716.84 1115.36 2804.17 1115.53 2891.5 1115.35 2890.36 1108.66 2889.97 1101.88 2890.33 1095Z" stroke="#000000" stroke-width="1.99718" stroke-miterlimit="8" fill="#272929" fill-rule="evenodd"/><path d="M3047.64 1104.45C3060.51 1102.49 3068.85 1106.97 3072.65 1117.9 3076.18 1164.28 3053.1 1180.84 3003.43 1167.57 2990.45 1153.95 2982.3 1138.26 2979 1120.49 2980.38 1118.69 2982.31 1117.66 2984.82 1117.38 3005.82 1112.71 3026.76 1108.4 3047.64 1104.45Z" stroke="#000000" stroke-width="1.99718" stroke-miterlimit="8" fill="#F7F8F7" fill-rule="evenodd"/><path d="M3350.55 1575.32C3340.41 1575.32 3330.29 1575.32 3320.16 1575.32 3320.16 1592.26 3320.16 1609.2 3320.16 1626.14 3319 1714 3315.69 1801.8 3310.22 1889.54 3294.28 1919.5 3267.98 1930.75 3231.33 1923.24 3208.21 1914.47 3194.77 1899.1 3191.01 1877.09 3182.8 1813.64 3173.06 1750.38 3161.79 1687.32 3145.28 1749.14 3128.92 1811.01 3112.7 1872.94 3109.94 1882.04 3106.83 1891.03 3103.35 1899.91 3082.63 1924.7 3055.55 1932.48 3022.12 1923.24 2990.15 1910.23 2977.88 1888.28 2985.31 1857.39 3005.11 1742.17 3025.95 1627.06 3047.83 1512.07 3042.7 1493.84 3036.86 1475.86 3030.3 1458.14 3018.2 1461.12 3007.68 1466.48 2998.75 1474.21 2990.42 1476.41 2982.24 1476.07 2974.2 1473.18 2931.15 1430.14 2888.1 1387.11 2845.05 1344.07 2819.69 1316.61 2821.05 1290.17 2849.14 1264.74 2865.98 1254.99 2883.9 1252.92 2902.91 1258.52 2911.03 1263.31 2918.82 1268.49 2926.28 1274.07 2940.49 1286.16 2954.51 1298.43 2968.36 1310.89 2967.66 1268.86 2989.09 1240 3032.64 1224.3 3097.07 1212.08 3160.96 1197.91 3224.32 1181.78 3296.55 1167.76 3367.84 1170.53 3438.2 1190.08 3521.09 1226.39 3558.29 1285.67 3549.82 1367.92 3537.97 1430.26 3508.17 1484.7 3460.41 1531.25 3428.26 1554.43 3391.63 1569.12 3350.55 1575.32Z" stroke="#000000" stroke-width="1.99718" stroke-miterlimit="8" fill="#0D0E0F" fill-rule="evenodd"/><path d="M2498 1191C2524.33 1191 2550.67 1191 2577 1191 2577 1210 2577 1229 2577 1248 2550.67 1248 2524.33 1248 2498 1248 2498 1229 2498 1210 2498 1191Z" stroke="#000000" stroke-width="1.99718" stroke-miterlimit="8" fill-rule="evenodd"/><path d="M2702 1191C2730 1191 2758 1191 2786 1191 2786 1210 2786 1229 2786 1248 2758 1248 2730 1248 2702 1248 2702 1229 2702 1210 2702 1191Z" stroke="#000000" stroke-width="1.99718" stroke-miterlimit="8" fill="#DADBDB" fill-rule="evenodd"/><path d="M2706 1194C2731.67 1194 2757.33 1194 2783 1194 2783 1210.67 2783 1227.33 2783 1244 2757.33 1244 2731.67 1244 2706 1244 2706 1227.33 2706 1210.67 2706 1194Z" stroke="#000000" stroke-width="1.99718" stroke-miterlimit="8" fill="#FDFEFD" fill-rule="evenodd"/><path d="M3258.16 1211.14C3287 1211.29 3314.8 1211.29 3341.57 1211.14 3380.37 1209.75 3416.73 1218.75 3450.64 1238.11 3475.99 1253.78 3492.9 1274.19 3501.38 1299.33 3502.69 1301.98 3502.89 1304.58 3501.97 1307.11 3504.53 1308.84 3504.92 1310.92 3503.13 1313.34 3504.22 1313.74 3504.99 1314.43 3505.47 1315.41 3504.25 1317.95 3504.64 1320.37 3506.63 1322.67 3506.53 1323.82 3506.14 1324.86 3505.47 1325.79 3507.33 1328.62 3508.5 1331.73 3508.97 1335.12 3508.19 1336.85 3507.42 1338.58 3506.63 1340.31 3508.19 1343.08 3508.19 1345.85 3506.63 1348.61 3508.4 1350.35 3509.18 1352.08 3508.97 1353.8 3508.52 1357.86 3507.36 1361.66 3505.47 1365.21 3505.77 1367.93 3506.17 1371.04 3506.63 1374.55 3505.85 1375.93 3504.69 1376.97 3503.13 1377.66 3504.8 1379.44 3504.41 1380.82 3501.97 1381.81 3502.35 1384.23 3502.75 1386.66 3503.13 1389.08 3502.35 1389.42 3501.58 1389.77 3500.8 1390.11 3502.38 1392.14 3501.99 1394.22 3499.63 1396.34 3499.63 1398.07 3499.63 1399.8 3499.63 1401.53 3498.53 1402.03 3497.36 1402.2 3496.13 1402.05 3495.85 1404.86 3495.85 1407.45 3496.13 1409.83 3489.54 1420.3 3483.71 1431.71 3478.64 1444.07 3478.45 1447.27 3476.5 1449.86 3472.8 1451.85 3458.36 1474.66 3440.08 1495.58 3417.98 1514.62 3418.36 1514.96 3418.76 1515.31 3419.14 1515.66 3417.7 1516.13 3416.72 1515.61 3416.23 1514.1 3414.84 1516.28 3412.89 1518.01 3410.39 1519.29 3410.01 1518.94 3409.61 1518.59 3409.23 1518.25 3408.84 1519.29 3408.44 1520.32 3408.06 1521.36 3406.44 1520.27 3404.69 1520.1 3402.81 1520.84 3397.48 1523.22 3392.61 1526.16 3388.23 1529.66 3387.84 1529.32 3387.45 1528.97 3387.06 1528.62 3372 1534.18 3356.25 1537.46 3339.82 1538.48 3328.63 1538.7 3317.55 1538.87 3306.57 1539 3293.83 1532.16 3283.91 1523 3276.82 1511.51 3276.99 1510.7 3277.38 1510.01 3277.99 1509.43 3276.43 1508.74 3275.27 1507.7 3274.49 1506.32 3274.48 1504.68 3274.87 1502.95 3275.66 1501.13 3273.9 1499.74 3272.73 1498.01 3272.16 1495.94 3273.92 1494.21 3274.69 1492.48 3274.49 1490.75 3272.93 1490.06 3271.77 1489.03 3270.99 1487.64 3270.78 1485.92 3271.56 1484.19 3273.32 1482.45 3270.04 1479.83 3269.65 1477.06 3272.16 1474.15 3270.6 1473.46 3269.43 1472.42 3268.66 1471.04 3268.45 1469.32 3269.23 1467.59 3270.99 1465.85 3267.11 1464.18 3266.72 1462.1 3269.82 1459.63 3267.26 1457.9 3266.87 1455.82 3268.66 1453.4 3267.88 1452.02 3266.71 1450.98 3265.16 1450.29 3266.92 1448.55 3267.69 1446.83 3267.49 1445.1 3265.93 1444.41 3264.77 1443.37 3263.99 1441.99 3265.11 1437.34 3265.11 1432.84 3263.99 1428.5 3262.43 1427.81 3261.27 1426.77 3260.49 1425.39 3261.51 1423.28 3261.9 1420.86 3261.66 1418.13 3260.1 1415.71 3258.55 1413.28 3256.99 1410.86 3257.77 1409.83 3258.55 1408.79 3259.32 1407.75 3257.77 1407.06 3256.6 1406.02 3255.82 1404.64 3256.84 1402.53 3257.23 1400.11 3256.99 1397.38 3254.55 1396.39 3254.16 1395 3255.82 1393.23 3253.17 1392.16 3252.39 1390.6 3253.49 1388.56 3251.8 1386.17 3250.63 1383.92 3249.99 1381.81 3250.38 1381.47 3250.77 1381.12 3251.16 1380.78 3249.21 1375.59 3247.27 1370.4 3245.32 1365.21 3246.86 1363.77 3246.47 1362.73 3244.16 1362.1 3244.07 1360.12 3244.45 1358.05 3245.32 1355.88 3242.49 1354.67 3241.71 1352.94 3242.99 1350.69 3242.07 1344.95 3239.73 1339.76 3235.99 1335.12 3237.31 1334.07 3236.93 1333.38 3234.83 1333.05 3235.1 1330.39 3233.94 1327.97 3231.33 1325.79 3232.23 1323.71 3231.45 1321.98 3228.99 1320.6 3229.53 1320.17 3229.92 1319.65 3230.16 1319.04 3225.71 1312 3221.44 1304.91 3217.33 1297.77 3215.38 1296.74 3213.44 1295.7 3211.49 1294.66 3211.88 1294.31 3212.27 1293.97 3212.66 1293.62 3211.65 1291.47 3210.1 1289.74 3207.99 1288.44 3209.1 1287.69 3209.3 1286.83 3208.58 1285.84 3200.72 1277.11 3192.35 1268.64 3183.5 1260.42 3182.39 1259.78 3181.42 1259.95 3180.58 1260.94 3173.64 1251.74 3164.12 1244.3 3152 1238.63 3186.57 1226.71 3221.95 1217.55 3258.16 1211.14Z" stroke="#000000" stroke-width="1.99718" stroke-miterlimit="8" fill-rule="evenodd"/><path d="M2663 1203C2663 1218.29 2663 1233.58 2663 1248.87 2649.12 1249.21 2635.46 1248.87 2622 1247.83 2635.28 1247.83 2648.55 1247.83 2661.83 1247.83 2661.44 1232.7 2661.83 1217.76 2663 1203Z" stroke="#000000" stroke-width="1.99718" stroke-miterlimit="8" fill="#464748" fill-rule="evenodd"/><path d="M3075.83 1251C3133.59 1262.43 3173.07 1292.81 3194.25 1342.14 3199.38 1353.72 3204.04 1365.46 3208.25 1377.35 3217.02 1428.19 3228.3 1478.59 3242.08 1528.55 3249.56 1543.14 3260.84 1554.87 3275.92 1563.77 3277.77 1573.03 3279.13 1582.35 3280 1591.73 3276 1685.95 3272.69 1780.2 3270.08 1874.46 3259.58 1891.08 3247.52 1892.12 3233.92 1877.57 3219.01 1776.44 3204.23 1675.29 3189.58 1574.12 3183.2 1561.53 3172.9 1557.9 3158.67 1563.25 3152.78 1567.1 3148.69 1572.1 3146.42 1578.27 3122.34 1679.54 3095.51 1780.34 3065.92 1880.67 3046.7 1893.14 3032.7 1889.7 3023.92 1870.32 3046.53 1748.52 3068.89 1626.66 3091 1504.73 3082.76 1481.41 3073.82 1458.28 3064.17 1435.35 3065.01 1433.04 3066.56 1431.14 3068.83 1429.65 3095.84 1409.47 3123.84 1390.48 3152.83 1372.69 3161.01 1351.33 3152.45 1342.36 3127.17 1345.76 3081.57 1373.99 3036.46 1402.81 2991.83 1432.24 2949.38 1390.07 2907.77 1347.26 2867 1303.82 2874.29 1294.54 2884.02 1291.95 2896.17 1296.05 2920.51 1321.81 2946.57 1346.32 2974.33 1369.58 2981.92 1372.67 2989.69 1373.02 2997.67 1370.62 3015.55 1359.57 3033.44 1348.52 3051.33 1337.48 3060.43 1331.17 3065.29 1323.05 3065.92 1313.14 3061.98 1304.82 3054.98 1299.64 3044.92 1297.6 3034.89 1300.5 3025.95 1304.99 3018.08 1311.07 3010.28 1294.72 3013.2 1280.05 3026.83 1267.05 3042.67 1260.13 3059.01 1254.77 3075.83 1251Z" stroke="#000000" stroke-width="1.99718" stroke-miterlimit="8" fill="#F8F8F8" fill-rule="evenodd"/><path d="M2353 1258C2353 1285.65 2353 1313.29 2353 1340.94 2340.19 1341.11 2327.39 1340.94 2314.6 1340.42 2305.8 1339.82 2297.26 1338.61 2289 1336.79 2308.78 1336.79 2328.56 1336.79 2348.35 1336.79 2347.49 1310.25 2349.05 1283.99 2353 1258Z" stroke="#000000" stroke-width="1.99718" stroke-miterlimit="8" fill="#858787" fill-rule="evenodd"/><path d="M2518 1283C2531.33 1283 2544.67 1283 2558 1283 2558 1302 2558 1321 2558 1340 2544.67 1340 2531.33 1340 2518 1340 2518 1321 2518 1302 2518 1283Z" stroke="#000000" stroke-width="1.99718" stroke-miterlimit="8" fill="#F2F3F3" fill-rule="evenodd"/><path d="M2678.52 1337C2653.01 1337 2627.51 1337 2602 1337 2602 1319.77 2602 1302.55 2602 1285.32 2628.25 1283.26 2654.92 1282.57 2682 1283.25 2682 1301.17 2682 1319.08 2682 1337 2680.84 1337 2679.68 1337 2678.52 1337Z" stroke="#000000" stroke-width="1.99718" stroke-miterlimit="8" fill="#FBFBFB" fill-rule="evenodd"/><path d="M2762 1284.16C2762 1301.77 2762 1319.39 2762 1337 2749.11 1337 2736.21 1337 2723.32 1337 2722.15 1319.22 2721.76 1301.27 2722.14 1283.13 2735.64 1282.79 2748.93 1283.13 2762 1284.16Z" stroke="#000000" stroke-width="1.99718" stroke-miterlimit="8" fill="#F4F5F5" fill-rule="evenodd"/><path d="M2393 1283C2419.67 1283 2446.33 1283 2473 1283 2473 1302 2473 1321 2473 1340 2446.33 1340 2419.67 1340 2393 1340 2393 1321 2393 1302 2393 1283Z" stroke="#000000" stroke-width="1.99718" stroke-miterlimit="8" fill="#F3F3F3" fill-rule="evenodd"/><path d="M2601.75 1285C2601.75 1302.26 2601.75 1319.53 2601.75 1336.79 2627.5 1336.79 2653.25 1336.79 2679 1336.79 2667.58 1338.86 2655.87 1340.06 2643.89 1340.42 2628.29 1340.94 2612.68 1341.11 2597.07 1340.94 2596.88 1329.19 2597.07 1317.45 2597.66 1305.72 2598.65 1298.61 2600.01 1291.7 2601.75 1285Z" stroke="#000000" stroke-width="1.99718" stroke-miterlimit="8" fill="#767778" fill-rule="evenodd"/><path d="M2762 1284C2766.11 1302.66 2767.69 1321.64 2766.73 1340.94 2758.05 1341.11 2749.39 1340.94 2740.73 1340.42 2734.44 1340.05 2728.53 1338.84 2723 1336.79 2736 1336.79 2749 1336.79 2762 1336.79 2762 1319.2 2762 1301.6 2762 1284Z" stroke="#000000" stroke-width="1.99718" stroke-miterlimit="8" fill="#737575" fill-rule="evenodd"/><path d="M2498 1447C2524.33 1447 2550.67 1447 2577 1447 2577 1466 2577 1485 2577 1504 2550.67 1504 2524.33 1504 2498 1504 2498 1485 2498 1466 2498 1447Z" stroke="#000000" stroke-width="1.99718" stroke-miterlimit="8" fill="#F5F6F5" fill-rule="evenodd"/><path d="M2702 1447C2730 1447 2758 1447 2786 1447 2786 1466 2786 1485 2786 1504 2758 1504 2730 1504 2702 1504 2702 1485 2702 1466 2702 1447Z" stroke="#000000" stroke-width="1.99718" stroke-miterlimit="8" fill="#F5F6F5" fill-rule="evenodd"/><path d="M2826 1456C2827.17 1471.8 2827.56 1487.79 2827.17 1503.96 2842.99 1503.61 2858.6 1503.96 2874 1505 2858 1505 2842 1505 2826 1505 2826 1488.67 2826 1472.33 2826 1456Z" stroke="#000000" stroke-width="1.99718" stroke-miterlimit="8" fill="#525455" fill-rule="evenodd"/><path d="M2663 1461C2663 1475.62 2663 1490.25 2663 1504.87 2649.12 1505.22 2635.46 1504.87 2622 1503.83 2635.28 1503.83 2648.55 1503.83 2661.83 1503.83 2661.44 1489.37 2661.83 1475.09 2663 1461Z" stroke="#000000" stroke-width="1.99718" stroke-miterlimit="8" fill="#6B6C6D" fill-rule="evenodd"/><path d="M2353 1515C2353 1542.31 2353 1569.62 2353 1596.94 2339.03 1597.11 2325.07 1596.94 2311.11 1596.42 2303.36 1596.29 2295.99 1595.08 2289 1592.79 2308.78 1592.79 2328.56 1592.79 2348.35 1592.79 2347.37 1566.57 2348.93 1540.64 2353 1515Z" stroke="#000000" stroke-width="1.99718" stroke-miterlimit="8" fill="#9D9F9F" fill-rule="evenodd"/><path d="M2678.52 1593C2653.01 1593 2627.51 1593 2602 1593 2602 1576.72 2602 1560.44 2602 1544.16 2602 1542.77 2602 1541.39 2602 1540 2628.67 1540 2655.33 1540 2682 1540 2682 1557.67 2682 1575.33 2682 1593 2680.84 1593 2679.68 1593 2678.52 1593Z" stroke="#000000" stroke-width="1.99718" stroke-miterlimit="8" fill="#FBFBFB" fill-rule="evenodd"/><path d="M2713 1540C2731 1540 2749 1540 2767 1540 2767 1558.67 2767 1577.33 2767 1596 2749 1596 2731 1596 2713 1596 2713 1577.33 2713 1558.67 2713 1540Z" stroke="#000000" stroke-width="1.99718" stroke-miterlimit="8" fill-rule="evenodd"/><path d="M2887 1542.32C2887 1559.21 2887 1576.11 2887 1593 2861.56 1593 2836.13 1593 2810.7 1593 2809.13 1593 2807.56 1593 2806 1593 2806 1575.42 2806 1557.83 2806 1540.25 2833.42 1539.57 2860.42 1540.26 2887 1542.32Z" stroke="#000000" stroke-width="1.99718" stroke-miterlimit="8" fill="#FBFBFB" fill-rule="evenodd"/><path d="M2518 1540C2531.33 1540 2544.67 1540 2558 1540 2558 1559 2558 1578 2558 1597 2544.67 1597 2531.33 1597 2518 1597 2518 1578 2518 1559 2518 1540Z" stroke="#000000" stroke-width="1.99718" stroke-miterlimit="8" fill="#F6F7F7" fill-rule="evenodd"/><path d="M2473 1542.32C2473 1559.21 2473 1576.11 2473 1593 2447.88 1593 2422.76 1593 2397.64 1593 2396.09 1593 2394.55 1593 2393 1593 2393 1575.42 2393 1557.83 2393 1540.25 2420.08 1539.57 2446.75 1540.26 2473 1542.32Z" stroke="#000000" stroke-width="1.99718" stroke-miterlimit="8" fill="#FAFAFA" fill-rule="evenodd"/><path d="M3350 1575C3342 1578.01 3333.55 1579.4 3324.62 1579.16 3322.1 1594.74 3320.57 1610.35 3320 1626 3320 1609 3320 1592 3320 1575 3330 1575 3340 1575 3350 1575Z" stroke="#000000" stroke-width="1.99718" stroke-miterlimit="8" fill="#9FA0A1" fill-rule="evenodd"/><path d="M2398 1593C2423 1593 2448 1593 2473 1593 2451.46 1593.67 2429.92 1594.33 2408.38 1595 2404.66 1594.82 2401.2 1594.16 2398 1593Z" stroke="#000000" stroke-width="1.99718" stroke-miterlimit="8" fill="#626464" fill-rule="evenodd"/><path d="M2602 1593C2627.67 1593 2653.33 1593 2679 1593 2674.95 1594.02 2670.67 1594.69 2666.17 1595 2644.78 1594.33 2623.39 1593.67 2602 1593Z" stroke="#000000" stroke-width="1.99718" stroke-miterlimit="8" fill="#707273" fill-rule="evenodd"/><path d="M2811 1593C2836.33 1593 2861.67 1593 2887 1593 2865.17 1593.67 2843.35 1594.33 2821.52 1595 2817.75 1594.82 2814.24 1594.16 2811 1593Z" stroke="#000000" stroke-width="1.99718" stroke-miterlimit="8" fill="#666869" fill-rule="evenodd"/><path d="M2473.47 1542C2477.92 1559.97 2479.09 1578.2 2476.98 1596.68 2453.94 1597.41 2430.95 1596.89 2408 1595.11 2429.82 1594.42 2451.65 1593.73 2473.47 1593.03 2473.47 1576.02 2473.47 1559.01 2473.47 1542Z" stroke="#000000" stroke-width="1.99718" stroke-miterlimit="8" fill="#898B8B" fill-rule="evenodd"/><path d="M2601.8 1544C2601.8 1560.27 2601.8 1576.53 2601.8 1592.8 2623.2 1593.49 2644.6 1594.18 2666 1594.87 2643.09 1596.51 2620.14 1597.2 2597.14 1596.95 2596.62 1579.92 2597.59 1562.96 2600.05 1546.08 2600.38 1545.13 2600.96 1544.43 2601.8 1544Z" stroke="#000000" stroke-width="1.99718" stroke-miterlimit="8" fill="#979999" fill-rule="evenodd"/><path d="M2886.32 1542C2888.81 1550.73 2890.18 1559.74 2890.41 1569.03 2891.36 1578.3 2891.17 1587.48 2889.82 1596.58 2866.83 1597.47 2843.89 1596.95 2821 1595.02 2842.78 1594.33 2864.55 1593.64 2886.32 1592.94 2886.32 1575.96 2886.32 1558.98 2886.32 1542Z" stroke="#000000" stroke-width="1.99718" stroke-miterlimit="8" fill="#858687" fill-rule="evenodd"/><path d="M2972.07 1686C2972.7 1687.67 2973.32 1689.33 2973.95 1691 2974.09 1692.37 2973.94 1693.71 2973.48 1695 2972.27 1692.15 2971.8 1689.15 2972.07 1686Z" stroke="#000000" stroke-width="1.99718" stroke-miterlimit="8" fill="#878889" fill-rule="evenodd"/><path d="M2269.3 1778C2269.3 1789.98 2269.3 1801.97 2269.3 1813.94 2280.54 1813.94 2291.77 1813.94 2303 1813.94 2303 1814.29 2303 1814.65 2303 1815 2291.38 1815 2279.76 1815 2268.14 1815 2267.76 1802.47 2268.15 1790.15 2269.3 1778Z" stroke="#000000" stroke-width="1.99718" stroke-miterlimit="8" fill="#868788" fill-rule="evenodd"/><path d="M2303 1814.96C2303 1814.64 2303 1814.32 2303 1814 2332.33 1814 2361.67 1814 2391 1814 2387.09 1814.64 2383.18 1815.27 2379.27 1815.91 2353.82 1816.17 2328.4 1815.85 2303 1814.96Z" stroke="#000000" stroke-width="1.99718" stroke-miterlimit="8" fill="#515354" fill-rule="evenodd"/><path d="M2390.67 1814C2577.47 1813.92 2764.24 1815.47 2951 1818.64 2948.91 1829.31 2945.79 1839.79 2941.66 1850.04 2931.97 1853.5 2922.05 1854.53 2911.89 1853.13 2911.53 1873.44 2910.36 1893.69 2908.39 1913.89 2894.09 1928.02 2880.86 1927.34 2868.7 1911.83 2867.49 1902.59 2866.9 1893.32 2866.95 1884.02 2866.95 1873.73 2866.95 1863.43 2866.95 1853.13 2738.93 1853.13 2610.91 1853.13 2482.89 1853.13 2480.01 1852.29 2476.9 1851.77 2473.56 1851.59 2552.15 1850.02 2630.75 1849.17 2709.36 1849.01 2719.85 1850.02 2729.77 1850.36 2739.13 1850.04 2761.61 1849.36 2783.99 1848.67 2806.25 1847.98 2809.39 1848.15 2812.5 1847.98 2815.59 1847.47 2824.9 1838.9 2835.21 1831.53 2846.52 1825.33 2852.68 1827.79 2856.77 1826.25 2858.78 1820.7 2812.09 1820.36 2765.39 1820.01 2718.7 1819.67 2717.22 1819.35 2715.86 1818.83 2714.61 1818.12 2691.4 1818.74 2666.5 1819.08 2639.9 1819.15 2619.08 1818.98 2598.27 1818.81 2577.45 1818.64 2574.03 1818.41 2570.73 1817.9 2567.53 1817.09 2552.17 1817.75 2536.42 1818.1 2520.25 1818.12 2473.15 1817.72 2426.06 1817.03 2379 1816.06 2382.89 1815.37 2386.78 1814.69 2390.67 1814Z" stroke="#000000" stroke-width="1.99718" stroke-miterlimit="8" fill="#202222" fill-rule="evenodd"/><path d="M2709 1849.01C2741.13 1848.11 2773.47 1847.82 2806 1848.11 2783.71 1848.71 2761.31 1849.31 2738.8 1849.9 2729.44 1850.18 2719.51 1849.88 2709 1849.01Z" stroke="#000000" stroke-width="1.99718" stroke-miterlimit="8" fill="#383A3B" fill-rule="evenodd"/><path d="M2393 1854.16C2422.76 1853.13 2452.73 1852.79 2482.9 1853.13 2610.93 1853.13 2738.97 1853.13 2867 1853.13 2867 1863.42 2867 1873.71 2867 1884 2865.84 1874.23 2865.45 1864.29 2865.83 1854.16 2708.22 1854.16 2550.61 1854.16 2393 1854.16Z" stroke="#000000" stroke-width="1.99718" stroke-miterlimit="8" fill="#C9CBCB" fill-rule="evenodd"/></g></svg>