<svg width="1756" height="1619" xmlns="http://www.w3.org/2000/svg" xmlns:xlink="http://www.w3.org/1999/xlink" xml:space="preserve" overflow="hidden"><defs><clipPath id="clip0"><rect x="1322" y="418" width="1756" height="1619"/></clipPath><clipPath id="clip1"><rect x="1392" y="863" width="1616" height="729"/></clipPath><clipPath id="clip2"><rect x="1392" y="863" width="1616" height="729"/></clipPath><clipPath id="clip3"><rect x="1392" y="863" width="1616" height="729"/></clipPath></defs><g clip-path="url(#clip0)" transform="translate(-1322 -418)"><path d="M1327 1227.5C1327 783.187 1717.86 423 2200 423 2682.14 423 3073 783.187 3073 1227.5 3073 1671.81 2682.14 2032 2200 2032 1717.86 2032 1327 1671.81 1327 1227.5Z" stroke="#000000" stroke-width="10.3125" stroke-miterlimit="8" fill="#C6E0B4" fill-rule="evenodd"/><g clip-path="url(#clip1)"><g clip-path="url(#clip2)"><g clip-path="url(#clip3)"><path d="M1271.78-0.66971C1281.15-0.66971 1290.53-0.66971 1299.91-0.66971 1347.21 4.88646 1375.57 31.2284 1384.96 78.356 1390.2 115.382 1378.81 145.966 1350.8 170.106 1344.47 174.165 1337.78 177.513 1330.71 180.152 1328.45 179.804 1326.44 178.91 1324.69 177.473 1310.62 182.682 1296.11 185.808 1281.15 186.849 1268.29 186.195 1255.56 184.41 1242.98 181.491 1240.83 181.852 1239.27 182.969 1238.29 184.84 1236.95 185.733 1235.61 185.733 1234.27 184.84 1228.48 180.641 1223.35 176.846 1218.87 173.455 1218.2 171.446 1217.53 169.437 1216.86 167.427 1213.45 164.686 1210.77 161.337 1208.83 157.382 1209.67 155.027 1211.01 153.018 1212.84 151.354 1231.68 146.518 1247.98 137.365 1261.73 123.896 1270.45 114.743 1271.12 105.143 1263.74 95.0988 1254.44 90.7837 1245.06 90.7837 1235.61 95.0988 1218.16 103.041 1201.42 112.194 1185.39 122.557 1184.2 104.196 1184.65 85.8903 1186.73 67.6407 1195.19 35.0656 1215.51 13.8582 1247.67 4.01826 1255.86 2.28581 1263.9 0.723155 1271.78-0.66971Z" fill="#000000" fill-rule="evenodd" fill-opacity="0.987" transform="matrix(1 0 0 1.00049 1393 863)"/><path d="M268.554 59.6042C270.225 60.7211 271.119 62.5069 271.232 64.9618 262.237 114.338 249.066 162.556 231.72 209.619 230.73 211.058 229.39 211.951 227.701 212.298 193.541 200.42 182.825 177.65 195.555 143.988 208.138 118.439 225.326 96.3384 247.123 77.6863 254.129 71.3371 261.272 65.3097 268.554 59.6042Z" fill="#000000" fill-rule="evenodd" fill-opacity="0.975" transform="matrix(1 0 0 1.00049 1393 863)"/><path d="M-0.66971 513.667C-0.66971 508.756-0.66971 503.845-0.66971 498.934 5.83071 416.734 46.4598 358.021 121.217 322.8 152.287 308.672 184.879 302.421 218.995 304.048 230.142 255.668 242.866 207.672 257.168 160.061 260.989 148.615 267.016 138.57 275.251 129.924 278.047 128.545 280.95 127.428 283.957 126.575 293.021 128.986 301.727 132.335 310.076 136.621 311.861 137.514 313.648 137.514 315.433 136.621 325.081 122.053 336.242 108.659 348.919 96.4382 390.999 68.3615 436.986 59.432 486.879 69.6498 549.094 82.2354 604.903 108.131 654.306 147.336 683.081 170.976 709.422 197.094 733.332 225.692 724.618 235.98 717.251 247.142 711.232 259.178 712.524 268.484 713.418 277.86 713.91 287.305 707.858 298.275 700.267 308.097 691.14 316.773 654.755 306.995 617.921 299.628 580.638 294.672 588.005 300.254 594.478 306.727 600.06 314.094 606.756 333.961 601.174 349.365 583.317 360.304 567.468 365.975 553.85 362.626 542.465 350.258 529.454 321.649 537.713 302.006 567.244 291.324 568.612 290.651 568.835 289.759 567.914 288.645 546.626 295.221 525.865 303.258 505.631 312.754 455.532 292.409 405.081 272.987 354.276 254.49 334.47 245.703 314.825 236.551 295.342 227.032 294.896 227.478 294.449 227.925 294.003 228.371 297.318 240.223 298.881 252.278 298.69 264.535 298.19 265.762 297.52 266.879 296.681 267.884 291.411 267.996 286.499 269.336 281.948 271.902 278.346 282.6 279.909 292.646 286.636 302.039 286.266 287.916 292.739 283.452 306.057 288.645 315.666 288.053 323.703 284.257 330.167 277.26 326.735 274.028 322.717 271.795 318.112 270.563 310.078 263.195 311.194 258.061 321.461 255.159 334.075 257.876 346.352 261.672 358.295 266.544 393.414 281.202 428.685 295.489 464.109 309.406 474.588 314.422 484.858 319.78 494.915 325.479 497.841 328.179 500.52 331.082 502.952 334.185 502.162 335.925 500.822 337.041 498.934 337.534 491.034 336.98 483.221 337.204 475.494 338.203 474.6 340.882 474.6 343.561 475.494 346.24 479.559 359.153 482.461 372.324 484.2 385.753 484.025 388.77 483.355 391.672 482.191 394.459 481.114 396.206 479.551 397.099 477.503 397.138 422.293 377.791 367.825 356.584 314.094 333.515 312.754 332.622 311.415 332.622 310.076 333.515 345.805 360.306 373.709 393.568 393.789 433.302 425.946 531.794 401.613 612.381 320.791 675.067 240.383 726.415 160.464 725.522 81.0349 672.388 28.4817 632.695 1.24688 579.788-0.66971 513.667ZM462.769 85.0531C463.596 85.2014 464.265 85.6478 464.778 86.3925 467.298 97.5673 467.298 108.729 464.778 119.878 462.001 126.541 457.759 132.122 452.054 136.621 436.238 149.218 419.719 160.827 402.495 171.446 390.958 178.72 378.457 181.845 364.992 180.822 398.564 169.061 428.254 150.979 454.063 126.575 456.187 123.668 457.974 120.543 459.421 117.199 460.921 106.52 462.038 95.8042 462.769 85.0531ZM335.525 173.455C341.078 171.918 346.883 171.695 352.937 172.785 347.184 175.148 341.379 175.372 335.525 173.455ZM276.59 206.94C279.743 207.393 282.868 208.063 285.966 208.949 287.378 210.809 287.6 212.818 286.636 214.977 280.691 218.226 274.664 221.351 268.554 224.353 264.428 229.4 261.972 235.205 261.187 241.765 259.328 243.177 257.319 243.399 255.159 242.435 249.275 222.661 256.418 210.829 276.59 206.94ZM358.295 288.645C369.539 288.957 378.469 293.645 385.083 302.709 381.626 306.258 378.054 309.829 374.368 313.424 371.87 315.167 369.191 315.614 366.331 314.764 358.272 307.353 355.593 298.646 358.295 288.645ZM331.506 299.36C339.828 299.424 343.846 303.665 343.561 312.085 344.043 319.201 340.918 321.88 334.185 320.121 327.839 318.33 321.588 316.544 315.433 314.764 318.92 307.477 324.277 302.343 331.506 299.36ZM413.211 312.754C423.822 315.054 434.537 316.841 445.357 318.112 445.629 320.644 444.737 322.653 442.678 324.139 437.766 328.158 432.856 332.176 427.944 336.194 425.333 338.198 422.654 338.422 419.908 336.864 416.032 329.256 413.799 321.22 413.211 312.754ZM390.441 318.112C394.18 318.048 396.636 319.833 397.808 323.47 398.701 329.721 398.701 335.971 397.808 342.222 397.166 345.096 395.38 346.435 392.45 346.24 385.114 344.923 379.532 341.129 375.707 334.855 379.48 328.186 384.392 322.604 390.441 318.112ZM452.054 342.222C455.794 342.157 458.249 343.943 459.421 347.579 460.314 353.83 460.314 360.08 459.421 366.331 458.093 368.259 456.308 369.598 454.063 370.349 448.072 368.352 442.045 366.343 435.981 364.322 429.004 360.584 429.004 356.565 435.981 352.267 441.214 348.572 446.572 345.223 452.054 342.222ZM198.904 348.919C203.771 348.458 206.003 350.691 205.601 355.616 203.523 365.81 202.854 376.078 203.592 386.422 204.799 389.866 206.584 392.991 208.949 395.798 209.493 413.614 205.922 430.58 198.234 446.696 191.29 451.846 183.478 455.195 174.794 456.742 157.777 465.522 148.623 479.586 147.336 498.934 142.019 525.119 150.725 544.987 173.455 558.538 190.84 570.638 208.699 571.531 227.032 561.217 263.158 538.958 270.525 509.267 249.132 472.145 243.745 465.421 237.94 459.172 231.72 453.393 227.956 438.433 229.741 424.147 237.077 410.532 242.881 404.728 248.686 398.923 254.49 393.12 257.065 386.617 259.074 379.92 260.517 373.028 262.783 371.061 265.462 370.169 268.554 370.349 274.3 371.209 279.657 373.218 284.627 376.377 350.109 420.986 372.21 481.93 350.928 559.208 337.148 598.585 311.923 628.276 275.251 648.279 186.84 683.97 116.967 662.317 65.6315 583.317 31.1588 511.021 42.5438 446.952 99.7867 391.11 117.707 376.566 137.798 365.85 160.061 358.964 173.12 355.365 186.068 352.017 198.904 348.919Z" fill="#000000" fill-rule="evenodd" fill-opacity="0.984" transform="matrix(1 0 0 1.00049 1393 863)"/><path d="M322.13 71.6589C328.566 72.5058 332.808 76.0777 334.855 82.3743 337.41 91.0123 334.955 97.7094 327.488 102.466 326.703 102.185 326.033 101.739 325.479 101.126 324.308 92.8724 322.299 84.8359 319.451 77.0166 320.362 75.1951 321.256 73.4093 322.13 71.6589Z" fill="#000000" fill-rule="evenodd" fill-opacity="0.883" transform="matrix(1 0 0 1.00049 1393 863)"/><path d="M295.342 72.9984C308.525 73.6252 316.114 80.5456 318.112 93.7593 316.269 105.872 309.35 113.239 297.351 115.86 281.582 110.657 276.224 100.389 281.278 85.0531 285.434 80.2125 290.122 76.1942 295.342 72.9984Z" fill="#000000" fill-rule="evenodd" fill-opacity="0.948" transform="matrix(1 0 0 1.00049 1393 863)"/><path d="M1613.33 356.955C1613.33 363.206 1613.33 369.456 1613.33 375.707 1610.44 381.538 1606.63 386.895 1601.95 391.78 1590.51 402.77 1578.68 413.262 1566.45 423.256 1524.15 455.508 1481.29 486.985 1437.87 517.686 1478.16 557.299 1517.21 597.927 1555.07 639.573 1564.52 649.866 1567.64 661.921 1564.44 675.737 1557.64 711.391 1536.43 725.901 1500.82 719.268 1481.55 709.363 1464.13 696.862 1448.58 681.764 1427.42 661.936 1406.66 641.621 1386.3 620.821 1387.42 627.068 1386.97 633.319 1384.96 639.573 1377.65 661.498 1368.27 682.482 1356.83 702.525 1349.99 716.072 1339.04 723.885 1324.02 725.965 1303.62 729.483 1285.32 725.017 1269.1 712.571 1259 700.247 1255.66 686.183 1259.05 670.379 1260.89 659.454 1263.57 648.738 1267.09 638.233 1279.82 604.288 1293.66 570.803 1308.61 537.777 1309.49 539.379 1310.16 539.379 1310.62 537.777 1296.64 515.28 1298.65 494.295 1316.65 474.824 1343.6 449.197 1372.84 426.651 1404.38 407.183 1392.61 392.28 1380.33 377.77 1367.55 363.652 1365.87 377.426 1361.85 390.374 1355.49 402.495 1340.21 418.232 1323.02 431.404 1303.92 442.008 1283.61 454.178 1263.07 466.009 1242.31 477.503 1237.32 472.451 1232.63 467.093 1228.25 461.43 1218.2 444.911 1208.16 428.39 1198.11 411.871 1190.73 418.251 1182.24 421.6 1172.66 421.917 1161.59 413.53 1151.32 404.154 1141.85 393.789 1128.97 382.698 1114.68 373.768 1098.99 367.001 1088.2 365.106 1084.85 369.348 1088.95 379.725 1097.05 389.166 1104.64 398.988 1111.72 409.193 1119.23 421.472 1124.37 434.644 1127.12 448.705 1126.26 454.951 1123.13 459.863 1117.75 463.439 1113.05 466.458 1108.14 469.137 1103.01 471.476 1100.5 473.542 1098.49 475.997 1096.98 478.842 1097.12 495.832 1096.9 512.798 1096.31 529.74 1094.57 528.95 1093.46 527.611 1092.97 525.722 1092.21 516.204 1089.31 507.498 1084.26 499.603 1080.18 496.691 1075.71 495.798 1070.87 496.925 1077.8 499.258 1082.71 503.722 1085.6 510.319 1084.69 514.802 1082.01 517.481 1077.56 518.355 1071.15 519.533 1064.9 519.085 1058.81 517.016 1057.37 516.026 1056.48 514.687 1056.13 512.998 1057.68 509.733 1058.35 506.385 1058.14 502.952 1053.2 508.373 1049.62 514.624 1047.43 521.704 1045.19 536.437 1042.96 551.171 1040.73 565.905 1039.98 570.591 1037.3 572.824 1032.69 572.602 1020.75 569.158 1010.49 562.907 1001.89 553.85 992.567 542.592 984.754 530.314 978.446 517.016 950.58 518.823 922.899 522.395 895.402 527.731 890.141 528.303 887.462 531.206 887.365 536.437 900.437 600.626 937.94 643.264 999.876 664.352 1054.33 677.573 1103.44 666.858 1147.21 632.206 1148.19 630.332 1148.86 628.323 1149.22 626.179 1157.7 619.041 1165.73 611.452 1173.33 603.408 1176.98 596.035 1180.1 588.444 1182.71 580.638 1184.49 579.745 1185.83 578.405 1186.73 576.62 1194.36 557.248 1198.82 537.157 1200.12 516.346 1201.91 506.953 1206.16 498.916 1212.84 492.237 1212.14 491.31 1211.25 490.64 1210.17 490.227 1174.01 494.705 1159.94 479.302 1167.97 444.017 1178.84 423.137 1190.45 422.691 1202.8 442.678 1209.05 454.287 1215.3 465.894 1221.55 477.503 1227.64 484.805 1235.23 487.484 1244.32 485.539 1250.26 527.025 1244.68 566.984 1227.58 605.417 1228.73 606.34 1229.62 607.456 1230.26 608.766 1218.74 632.097 1202.67 651.519 1182.04 667.031 1163.92 680.193 1144.72 691.802 1124.44 701.856 1084.96 719.469 1044.34 723.487 1002.56 713.91 988.396 710.929 974.556 706.911 961.033 701.856 955.717 700.713 950.359 699.821 944.96 699.177 931.12 687.122 917.279 675.067 903.438 663.013 888.669 648.251 875.944 631.954 865.265 614.124 854.91 593.418 845.31 572.434 836.467 551.171 816.681 560.171 796.59 568.431 776.193 575.95 701.59 593.805 630.155 585.322 561.886 550.501 504.408 518.343 483.201 469.902 498.264 405.174 502.065 386.172 508.762 368.314 518.355 351.598 523.201 345.089 528.559 344.642 534.428 350.258 535.322 352.937 535.322 355.616 534.428 358.295 527.467 371.326 521.216 384.72 515.676 398.477 502.408 445.196 512.9 485.602 547.153 519.695 578.814 542.431 614.086 556.718 652.967 562.556 680.934 566.951 709.062 568.29 737.35 566.574 765.42 564.809 790.869 555.88 813.697 539.786 778.089 543.566 742.37 546.691 706.544 549.162 684.194 550.118 661.87 549.671 639.573 547.822 567.428 537.502 530.371 495.757 528.401 422.587 528.167 407.008 531.515 392.274 538.447 378.386 548.713 363.548 559.875 362.656 571.932 375.707 572.437 380.421 573.107 385.108 573.941 389.771 572.098 407.366 571.428 425 571.932 442.678 573.223 464.679 584.162 479.635 604.748 487.549 639.926 498.881 675.645 500.667 711.901 492.906 752.401 484.902 792.138 474.187 831.11 460.76 837.475 457.08 843.056 452.392 847.852 446.696 873.639 388.318 915.831 346.572 974.427 321.461 982.239 318.411 990.275 316.178 998.537 314.764 1039.92 309.927 1080.54 313.499 1120.42 325.479 1152.92 340.965 1181.27 362.174 1205.48 389.101 1207.6 392.008 1209.39 395.134 1210.83 398.477 1226.36 389.713 1241.32 380.114 1255.71 369.68 1272.41 353.987 1281.11 334.565 1281.82 311.415 1282.87 289.061 1284.21 266.739 1285.84 244.444 1287.64 235.97 1291.21 228.379 1296.56 221.674 1321.72 197.392 1349.18 176.185 1378.93 158.051 1395.06 148.196 1412.47 142.169 1431.17 139.969 1435.86 139.837 1440.32 140.73 1444.56 142.648 1446.01 141.088 1447.14 139.302 1447.91 137.29 1497.03 197.118 1546.13 256.945 1595.25 316.773 1603.15 329.44 1609.18 342.834 1613.33 356.955ZM1044.08 330.167C1046.35 329.953 1048.59 330.175 1050.77 330.837 1053.68 333.739 1056.58 336.64 1059.48 339.543 1066.91 351.946 1073.83 364.67 1080.24 377.716 1048.91 398.066 1016.32 415.924 982.464 431.293 973.526 418.552 966.159 404.935 960.364 390.441 959.47 387.316 959.47 384.19 960.364 381.065 986.056 360.517 1013.96 343.55 1044.08 330.167ZM552.51 378.386C557.011 377.435 559.466 379.222 559.877 383.744 559.431 399.371 558.984 414.996 558.538 430.623 563.196 479.037 589.761 504.709 638.233 507.64 671.613 509.249 704.651 506.57 737.35 499.603 779.904 490.081 821.873 478.473 863.256 464.778 883.456 457.14 901.76 446.424 918.172 432.632 928.258 422.098 938.751 412.052 949.648 402.495 962.489 425.051 974.991 447.821 987.152 470.806 991.497 478.825 995.292 487.085 998.537 495.585 997.995 496.851 997.101 497.744 995.858 498.264 892.049 518.524 787.351 531.249 681.764 536.437 659.839 537.214 638.185 535.205 616.803 530.41 556.076 506.985 531.744 463.006 543.804 398.477 544.546 390.751 547.449 384.054 552.51 378.386ZM1086.94 397.138C1089.44 397.619 1091.45 398.958 1092.97 401.156 1103.54 416.925 1111.12 433.891 1115.74 452.054 1085.73 469.513 1054.92 485.586 1023.32 500.273 1010.45 484.801 1001.52 467.389 996.528 448.036 1026.21 430.185 1056.34 413.219 1086.94 397.138Z" fill="#000000" fill-rule="evenodd" fill-opacity="0.981" transform="matrix(1 0 0 1.00049 1393 863)"/><path d="M1070.87 146.666C1085.21 148.055 1091.69 156.092 1090.29 170.776 1088.33 174.071 1085.88 176.973 1082.92 179.482 1073.24 185.885 1062.97 191.242 1052.11 195.555 1023.08 207.092 994.054 218.477 965.052 229.71 965.139 206.159 966.031 182.72 967.73 159.391 1002.38 155.766 1036.76 151.524 1070.87 146.666Z" fill="#000000" fill-rule="evenodd" fill-opacity="0.972" transform="matrix(1 0 0 1.00049 1393 863)"/><path d="M922.19 194.885C932.023 194.663 941.845 194.885 951.657 195.555 956.631 197.82 958.192 201.616 956.345 206.94 954.453 216.402 952.221 225.778 949.648 235.068 931.251 241.181 912.723 247.209 894.062 253.15 893.616 253.596 893.169 254.044 892.723 254.49 895.848 255.383 898.974 255.383 902.099 254.49 914.312 251.992 926.366 249.313 938.263 246.453 890.938 286.636 843.61 326.818 796.285 367.001 782.734 374.711 775.813 370.915 775.524 355.616 777.852 350.605 781.2 346.363 785.569 342.891 792.793 339.24 799.266 334.552 804.991 328.827 810.14 322.949 810.809 316.698 807 310.076 803.728 309.256 800.379 308.81 796.954 308.736 776.455 311.298 755.916 313.531 735.341 315.433 713.237 313.435 711.674 306.961 730.653 296.012 768.934 285.326 807.33 275.056 845.843 265.205 871.066 258.027 870.619 256.242 844.504 259.847 816.234 265.464 788.106 271.715 760.12 278.599 749.945 280.884 739.676 281.776 729.314 281.278 719.35 277.07 716.001 269.703 719.268 259.178 730.727 237.463 748.809 225.186 773.515 222.344 823.385 213.75 872.944 204.598 922.19 194.885Z" fill="#000000" fill-rule="evenodd" fill-opacity="0.972" transform="matrix(1 0 0 1.00049 1393 863)"/><path d="M891.383 311.415C897.738 310.799 903.095 312.808 907.457 317.442 910.307 321.635 913.655 325.429 917.502 328.827 919.245 331.325 919.692 334.004 918.842 336.864 908.717 348.327 897.332 358.372 884.686 367.001 870.006 373.853 859.515 369.611 853.21 354.276 852.69 344.923 856.039 337.11 863.256 330.837 872.502 324.023 881.878 317.55 891.383 311.415Z" fill="#000000" fill-rule="evenodd" fill-opacity="0.961" transform="matrix(1 0 0 1.00049 1393 863)"/><path d="M694.489 316.773C696.765 316.558 698.997 316.781 701.186 317.442 733.474 337.792 753.119 366.813 760.12 404.505 760.194 410.545 758.185 415.679 754.093 419.908 750.533 417.91 747.632 415.231 745.387 411.871 743.384 419.316 741.823 426.906 740.699 434.642 733.75 441.298 727.946 439.959 723.286 430.623 719.256 408.232 710.328 388.141 696.498 370.349 685.521 359.39 672.351 352.47 656.985 349.588 642.242 348.289 627.509 346.95 612.784 345.57 604.308 339.114 603.862 331.971 611.445 324.139 654.337 317.452 690.279 330.176 719.268 362.313 726.078 373.702 733.221 384.863 740.699 395.798 741.592 393.566 741.592 391.334 740.699 389.101 730.434 366.338 715.254 347.586 695.159 332.846 692.716 327.587 692.493 322.229 694.489 316.773Z" fill="#000000" fill-rule="evenodd" fill-opacity="0.952" transform="matrix(1 0 0 1.00049 1393 863)"/><path d="M831.11 354.276C834.887 353.939 838.458 354.609 841.825 356.286 850.105 364.341 858.142 372.601 865.935 381.065 857.228 398.477 848.522 415.89 839.816 433.302 836.128 439.34 832.11 445.144 827.761 450.715 818.175 458.818 807.013 463.284 794.276 464.109 786.412 462.943 781.5 458.479 779.542 450.715 776.1 429.611 772.527 408.626 768.827 387.762 769.496 386.199 770.612 385.083 772.175 384.413 780.205 383.634 787.795 381.402 794.945 377.716 807.234 370.087 819.289 362.273 831.11 354.276Z" fill="#000000" fill-rule="evenodd" fill-opacity="0.978" transform="matrix(1 0 0 1.00049 1393 863)"/><path d="M634.215 359.634C663.747 354.642 684.954 365.357 697.837 391.78 704.485 405.817 707.164 420.551 705.874 435.981 694.588 466.698 672.935 485.002 640.912 490.897 613.609 486.137 593.742 471.403 581.308 446.696 569.173 413.602 577.879 387.483 607.427 368.34 616.122 364.176 625.051 361.274 634.215 359.634Z" fill="#000000" fill-rule="evenodd" fill-opacity="0.985" transform="matrix(1 0 0 1.00049 1393 863)"/><path d="M393.12 375.707C418.232 384.898 443.234 394.498 468.127 404.505 475.529 406.549 480.217 411.237 482.191 418.569 483.307 435.552 483.083 452.517 481.521 469.466 452.481 441.542 424.13 412.968 396.468 383.744 394.38 381.444 393.264 378.765 393.12 375.707Z" fill="#000000" fill-rule="evenodd" fill-opacity="0.953" transform="matrix(1 0 0 1.00049 1393 863)"/><path d="M758.781 427.944C762.044 427.699 764.946 428.593 767.487 430.623 773.8 440.216 775.585 450.484 772.845 461.43 764.412 469.553 754.366 474.688 742.708 476.833 727.61 481.054 712.43 484.85 697.168 488.218 695.496 487.495 693.933 486.602 692.48 485.539 697.728 470.458 707.773 459.52 722.617 452.724 730.722 451.675 738.758 450.336 746.726 448.705 748.289 447.142 749.851 445.581 751.414 444.017 753.24 438.291 755.696 432.934 758.781 427.944Z" fill="#000000" fill-rule="evenodd" fill-opacity="0.951" transform="matrix(1 0 0 1.00049 1393 863)"/><path d="M1052.11 525.722C1054.96 530.505 1057.87 535.417 1060.82 540.456 1065.33 545.416 1070.24 549.88 1075.55 553.85 1078.8 558.38 1078.13 562.174 1073.54 565.235 1055.7 572.162 1047.66 566.135 1049.43 547.153 1049.34 539.822 1050.23 532.679 1052.11 525.722Z" fill="#000000" fill-rule="evenodd" fill-opacity="0.915" transform="matrix(1 0 0 1.00049 1393 863)"/><path d="M1036.04 580.638C1061.49 580.638 1086.94 580.638 1112.39 580.638 1110.85 602.052 1109.51 623.482 1108.37 644.93 1085.6 644.93 1062.83 644.93 1040.06 644.93 1038.62 623.512 1037.28 602.081 1036.04 580.638Z" fill="#000000" fill-rule="evenodd" fill-opacity="0.986" transform="matrix(1 0 0 1.00049 1393 863)"/></g></g></g></g></svg>