<svg width="1753" height="1703" xmlns="http://www.w3.org/2000/svg" xmlns:xlink="http://www.w3.org/1999/xlink" xml:space="preserve" overflow="hidden"><defs><clipPath id="clip0"><rect x="1927" y="463" width="1753" height="1703"/></clipPath><clipPath id="clip1"><rect x="1961" y="668" width="1719" height="1032"/></clipPath><clipPath id="clip2"><rect x="1961" y="668" width="1719" height="1032"/></clipPath><clipPath id="clip3"><rect x="1961" y="668" width="1719" height="1032"/></clipPath></defs><g clip-path="url(#clip0)" transform="translate(-1927 -463)"><path d="M1934 1314.5C1934 848.095 2312.1 470 2778.5 470 3244.9 470 3623 848.095 3623 1314.5 3623 1780.9 3244.9 2159 2778.5 2159 2312.1 2159 1934 1780.9 1934 1314.5Z" stroke="#000000" stroke-width="13.75" stroke-miterlimit="8" fill="#FF0000" fill-rule="evenodd"/><path d="M2736.8 880.907C2737.56 883.719 2737.83 886.719 2737.58 889.907 2736.28 889.907 2734.97 889.907 2733.67 889.907 2734.51 889.066 2735.55 888.766 2736.8 889.007 2736.8 886.307 2736.8 883.607 2736.8 880.907Z" fill="#C6E0B4" fill-rule="evenodd"/><g clip-path="url(#clip1)"><g clip-path="url(#clip2)"><g clip-path="url(#clip3)"><path d="M588.403 855.803C469.49 848.41 356.123 823.148 333.326 798.503 325.932 791.11 308.064 749.213 292.661 706.7 277.874 663.571 264.319 625.987 261.855 622.29 260.006 619.21 235.977 616.129 209.484 616.129 163.89 616.129 159.577 614.897 150.335 600.726 131.852 572.384 152.184 536.032 185.455 536.032L203.939 536.032 188.535 516.316C162.658 481.813 154.648 451.622 144.79 357.971 139.245 308.681 133.7 253.845 131.852 236.594 126.923 194.697 134.932 180.526 169.435 171.9L197.161 165.123 197.161 126.306C197.161 70.8548 202.09 67.7742 294.51 67.7742 367.213 67.7742 369.061 67.7742 381.384 83.7935 390.626 95.5 394.323 109.055 394.323 130.003L394.323 160.194 521.245 160.194C635.845 160.194 652.481 161.426 691.913 173.748L736.274 187.919 619.21 191 502.145 194.081 500.297 216.261C499.064 229.816 501.529 240.906 507.074 245.835 513.852 250.764 557.597 252.613 670.964 251.381L825.613 249.532 828.693 277.258C830.542 292.661 833.622 314.226 835.471 325.316L838.551 346.264 799.735 342.568C690.064 332.71 658.642 332.093 553.9 338.871L440.532 345.648 422.664 364.748C408.493 380.768 406.029 387.545 409.11 405.413 413.423 433.755 423.897 443.613 457.168 449.774 501.529 458.4 699.922 463.329 783.716 457.784L861.964 452.855 878.6 495.984C887.842 519.397 902.013 552.052 910.639 568.687 919.264 584.706 924.193 599.493 922.345 601.958 913.103 611.2 532.335 611.2 415.887 601.342 351.81 596.413 298.206 593.332 296.974 593.948 292.661 598.877 359.819 755.99 371.526 768.313 404.181 801.584 610.584 826.229 750.445 813.906 857.651 804.048 940.213 786.797 958.697 769.545 966.09 762.768 978.413 740.587 985.806 720.255 993.2 700.539 1001.21 683.903 1003.67 683.903 1005.52 683.903 1014.15 689.448 1022.16 695.61L1036.94 706.7 1023.39 746.748C1016 768.929 1003.67 792.958 995.664 800.351 956.232 837.319 746.132 866.277 588.403 855.803ZM326.548 465.177C391.242 431.906 363.516 332.71 289.581 332.71 276.642 332.71 263.703 339.487 247.684 353.658 227.968 372.142 224.887 378.303 224.887 402.332 224.887 456.552 279.106 489.822 326.548 465.177Z" transform="matrix(-1 0 0 -1.01878 3680 1699.22)"/><path d="M1085 692.529C1069.6 686.984 1047.42 676.51 1035.1 668.5 950.687 615.513 881.064 466.41 861.964 299.439 858.268 264.935 852.106 226.119 847.793 212.564L841.016 187.919 751.677 162.042C666.035 136.781 661.106 134.316 636.461 107.206 621.674 91.8032 609.968 75.1677 609.968 70.2387 609.968 62.8451 645.703 61.6129 834.855 61.6129 958.697 61.6129 1059.74 62.229 1059.74 63.4613 1059.74 64.0774 1042.49 83.1774 1020.93 105.358 975.332 151.568 962.393 181.758 956.848 255.077L953.151 303.752 971.019 299.439C1052.96 278.49 1102.87 284.035 1128.13 316.074L1138.61 328.397 1144.77 316.074C1151.54 303.752 1171.26 293.893 1202.07 287.116 1216.85 284.035 1264.3 289.581 1302.5 299.439L1320.36 303.752 1317.28 245.219C1313.59 172.516 1300.03 141.71 1251.97 94.8839L1217.47 61.6129 1440.51 61.6129C1627.81 61.6129 1663.55 62.8451 1663.55 70.2387 1663.55 75.1677 1651.84 91.8032 1637.67 107.206 1613.64 133.084 1605.63 137.397 1546.48 154.032 1436.81 185.455 1430.65 188.535 1423.26 214.413 1420.18 226.735 1417.1 247.068 1417.1 258.774 1417.1 325.316 1383.21 456.552 1345.63 534.184 1284.63 661.722 1178.04 726.416 1085 692.529ZM1182.97 547.739C1240.27 521.861 1274.77 483.661 1298.18 418.968L1311.12 385.081 1136.14 385.081C1040.03 385.081 961.161 386.929 961.161 389.393 961.161 403.564 988.887 464.561 1004.91 484.277 1039.41 528.022 1094.86 560.061 1136.76 560.061 1147.23 560.061 1167.56 554.516 1182.97 547.739ZM1091.16 357.355C1133.06 334.558 1063.44 302.519 1005.52 317.923 985.19 323.468 988.887 351.81 1010.45 357.971 1034.48 364.748 1077.61 364.132 1091.16 357.355ZM1256.9 355.506C1265.53 351.193 1272.92 341.952 1274.15 335.174 1275.39 324.7 1271.69 321.003 1256.29 317.923 1195.29 305.6 1144.15 328.397 1171.88 356.123 1181.74 365.981 1237.19 365.364 1256.9 355.506Z" transform="matrix(-1 0 0 -1.01878 3680 1699.22)"/></g></g></g></g></svg>