<svg width="1751" height="1703" xmlns="http://www.w3.org/2000/svg" xmlns:xlink="http://www.w3.org/1999/xlink" xml:space="preserve" overflow="hidden"><defs><clipPath id="clip0"><rect x="1927" y="463" width="1751" height="1703"/></clipPath><clipPath id="clip1"><rect x="1988" y="541" width="1691" height="1285"/></clipPath><clipPath id="clip2"><rect x="1988" y="541" width="1691" height="1285"/></clipPath><clipPath id="clip3"><rect x="1988" y="541" width="1691" height="1285"/></clipPath></defs><g clip-path="url(#clip0)" transform="translate(-1927 -463)"><path d="M1934 1314.5C1934 848.095 2312.1 470 2778.5 470 3244.9 470 3623 848.095 3623 1314.5 3623 1780.9 3244.9 2159 2778.5 2159 2312.1 2159 1934 1780.9 1934 1314.5Z" stroke="#000000" stroke-width="13.75" stroke-miterlimit="8" fill="#FF0000" fill-rule="evenodd"/><path d="M2736.8 880.907C2737.56 883.719 2737.83 886.719 2737.58 889.907 2736.28 889.907 2734.97 889.907 2733.67 889.907 2734.51 889.066 2735.55 888.766 2736.8 889.007 2736.8 886.307 2736.8 883.607 2736.8 880.907Z" fill="#C6E0B4" fill-rule="evenodd"/><g clip-path="url(#clip1)"><g clip-path="url(#clip2)"><g clip-path="url(#clip3)"><path d="M371.353 1005.6C358.385 1002.06 333.628 985.56 315.945 969.055 288.83 944.298 282.936 928.972 282.936 880.638 282.936 833.482 288.83 818.156 317.124 788.683 345.417 760.39 361.922 754.495 406.72 754.495 451.518 754.495 468.023 760.39 496.316 788.683 585.913 879.459 495.138 1036.25 371.353 1005.6Z" transform="matrix(-1.2296 0 0 -1 3674.25 1826)"/><path d="M701.445 925.436C627.174 894.784 598.881 877.101 568.229 837.018 547.009 809.904 530.505 778.073 532.862 767.463 534.041 756.853 531.683 725.023 526.968 695.55 518.716 644.858 515.179 641.321 456.234 617.743 412.615 600.06 393.752 584.734 391.394 567.05 389.037 554.083 381.963 542.294 376.069 542.294 370.174 542.294 365.459 526.968 365.459 508.105 365.459 468.023 338.344 436.193 305.335 436.193 235.78 436.193 154.436 350.133 145.005 266.431 136.752 195.697 157.972 139.11 211.023 90.7752 292.367 17.6835 416.151 22.3991 491.601 101.385 543.472 156.794 557.619 258.179 524.61 334.807 515.179 357.206 515.179 357.206 551.725 334.807 572.945 323.018 589.45 310.05 589.45 305.335 589.45 301.798 602.417 292.367 618.922 285.294 636.605 277.041 648.394 261.716 648.394 247.569 648.394 232.243 660.183 218.096 681.404 208.665 699.087 201.592 715.592 192.161 719.128 187.445 730.917 173.298 760.39 168.583 780.431 178.014 796.936 186.266 804.009 180.372 820.514 146.183 851.165 81.344 920.72 41.2615 1000.89 41.2615 1110.52 42.4404 1187.15 109.638 1198.94 218.096 1217.8 378.427 1053.94 489.243 903.037 418.509 861.775 398.468 857.06 398.468 839.376 417.33 821.693 435.014 821.693 439.729 848.807 490.422 865.312 521.073 893.605 559.977 911.289 578.839 938.404 605.954 944.298 621.28 940.761 656.647 937.225 697.908 928.972 707.339 842.913 768.642 791.041 805.188 747.422 840.555 745.064 846.45 742.706 853.523 760.39 864.133 783.968 872.385 822.872 885.353 831.124 882.995 901.858 842.913 944.298 819.335 978.486 793.399 978.486 783.968 978.486 774.537 989.096 761.569 1003.24 754.495 1020.93 745.064 1025.64 733.275 1020.93 715.592 1011.5 674.33 1024.46 664.899 1129.39 636.605 1202.48 616.564 1230.77 613.028 1241.38 623.638 1250.81 633.069 1250.81 636.605 1240.2 636.605 1218.98 636.605 1222.52 661.362 1247.28 688.477 1274.39 719.128 1312.11 845.271 1306.22 884.174 1302.68 908.931 1289.72 916.005 1208.37 939.583 1156.5 953.729 1109.34 966.697 1104.63 966.697 1099.91 966.697 1089.3 951.372 1083.41 931.33 1072.8 901.858 1065.72 897.142 1043.33 903.037 1029.18 906.573 1012.67 904.216 1009.14 897.142 1003.24 888.89 971.413 899.5 919.541 925.436 874.743 947.835 828.766 966.697 816.977 965.518 805.188 965.518 753.316 946.656 701.445 925.436ZM1061.01 859.417C1061.01 847.628 1057.47 837.018 1051.58 837.018 1039.79 837.018 1013.85 880.638 1022.11 887.711 1033.89 900.679 1061.01 880.638 1061.01 859.417ZM1193.05 801.651C1188.33 754.495 1181.26 742.706 1155.32 742.706 1132.92 742.706 1130.56 747.422 1137.64 781.61 1149.43 832.303 1154.14 839.376 1176.54 834.661 1189.51 831.124 1195.4 820.514 1193.05 801.651ZM1042.15 785.147C1035.07 766.284 990.275 758.032 990.275 775.716 990.275 786.326 1039.79 813.44 1046.86 807.546 1048.04 806.367 1046.86 795.757 1042.15 785.147ZM655.468 649.573 683.761 627.174 655.468 609.491C634.248 595.344 624.816 575.303 618.922 530.505L610.67 471.56 493.959 471.56 377.248 471.56 377.248 502.211C377.248 529.326 380.784 531.683 405.541 525.789 424.404 521.073 459.771 530.505 510.463 554.083 585.913 588.271 601.239 604.775 601.239 649.573 601.239 677.867 618.922 677.867 655.468 649.573ZM756.853 517.537C729.739 468.023 707.339 459.771 707.339 499.853 707.339 521.073 716.771 535.22 740.349 547.009 758.032 556.44 773.358 562.335 775.716 559.977 778.073 558.798 769.821 539.936 756.853 517.537ZM594.165 410.257C589.45 381.963 582.376 354.849 577.661 350.133 569.408 339.523 413.794 435.014 412.615 451.518 412.615 456.234 455.055 459.771 506.927 459.771L601.239 459.771 594.165 410.257ZM719.128 389.037C719.128 335.986 714.413 315.945 701.445 310.05 690.835 306.514 680.225 306.514 676.688 310.05 667.257 319.482 696.729 459.771 708.518 459.771 714.413 459.771 719.128 427.94 719.128 389.037ZM351.312 359.564C347.775 323.018 337.165 285.294 326.555 273.505 315.945 261.716 306.514 242.853 306.514 232.243 306.514 212.202 350.133 192.161 363.101 206.307 367.816 211.023 371.353 260.537 371.353 315.945 371.353 411.436 372.532 418.509 394.931 414.972 425.583 410.257 470.381 377.248 499.853 338.344 531.683 295.904 532.862 196.876 502.211 145.005 453.876 66.0183 330.092 34.1881 249.927 82.5229 130.858 155.615 137.931 343.06 261.716 404.362 282.936 414.972 313.587 424.404 328.913 424.404 354.849 424.404 356.028 422.046 351.312 359.564ZM1106.99 390.216C1211.91 314.766 1207.19 160.33 1095.2 84.8807 1062.19 61.3027 1043.33 57.7661 986.739 61.3027 928.972 66.0183 913.647 71.9128 878.28 106.101 838.197 145.005 807.546 216.917 821.693 239.317 833.482 258.179 953.729 241.674 970.234 218.096 982.023 203.95 993.812 200.413 1011.5 205.128 1048.04 216.917 1044.5 257 1005.6 273.505 970.234 288.83 884.174 364.28 884.174 380.784 884.174 385.5 901.858 398.468 923.078 407.899 974.95 431.477 1061.01 423.225 1106.99 390.216ZM833.482 357.206C814.619 338.344 813.44 339.523 813.44 377.248 813.44 414.972 814.619 416.151 833.482 397.289 852.344 378.427 852.344 376.069 833.482 357.206ZM894.784 261.716C854.702 259.358 820.514 260.537 818.156 262.895 812.261 268.789 842.913 344.239 855.881 357.206 860.596 361.922 887.711 343.06 916.005 315.945L967.876 265.252 894.784 261.716Z" transform="matrix(-1.2296 0 0 -1 3674.25 1826)"/></g></g></g></g></svg>