<svg width="1703" height="1703" xmlns="http://www.w3.org/2000/svg" xmlns:xlink="http://www.w3.org/1999/xlink" xml:space="preserve" overflow="hidden"><defs><clipPath id="clip0"><rect x="1939" y="535" width="1703" height="1703"/></clipPath></defs><g clip-path="url(#clip0)" transform="translate(-1939 -535)"><path d="M1946 1386.5C1946 920.096 2324.1 542 2790.5 542 3256.9 542 3635 920.096 3635 1386.5 3635 1852.9 3256.9 2231 2790.5 2231 2324.1 2231 1946 1852.9 1946 1386.5Z" stroke="#000000" stroke-width="13.75" stroke-miterlimit="8" fill="#FF0000" fill-rule="evenodd"/><path d="M2749.8 952.907C2750.56 955.719 2750.83 958.719 2750.58 961.907 2749.28 961.907 2747.97 961.907 2746.67 961.907 2747.51 961.067 2748.55 960.766 2749.8 961.007 2749.8 958.307 2749.8 955.607 2749.8 952.907Z" fill="#C6E0B4" fill-rule="evenodd"/><path d="M417.568 396.447C415.919 396.305 410.371 395.806 405.198 395.378 339.601 389.889 274.378 367.934 218.527 332.506 196.711 318.677 180.293 305.774 160.726 287.169 132.013 259.867 112.071 233.778 95.9529 202.627 89.5057 190.152 86.207 182.311 78.7103 162.351 68.8144 135.691 67.39 134.123 49.8474 131.343 34.6287 128.919 23.5333 123.644 13.1877 113.95-0.456634 101.19-1.88095 96.485-1.88095 63.2667-1.88095 34.0404-0.906354 30.3337 9.36415 20.2114 19.7098 10.018 30.0555 3.24607 40.8512-0.318348 50.2222-3.38352 53.9706-3.81104 83.9578-4.52403 122.417-5.52194 446.206-5.52194 676.584-4.52403L856.883-3.81104 871.127 9.94653C886.196 24.4885 888.97 28.1953 891.069 36.1791 891.894 39.1017 892.119 46.2299 892.119 64.6924 892.119 91.1388 891.744 94.0614 887.846 101.617 884.097 108.675 873.902 118.369 864.455 123.787 857.933 127.494 851.861 129.561 841.89 131.343 836.792 132.269 831.319 133.695 829.67 134.479 823.148 137.616 819.249 144.316 809.803 168.411 790.012 218.808 767.896 251.171 726.138 290.662 696.901 318.32 665.639 339.563 628.979 356.6 584.223 377.415 539.917 389.461 486.914 395.164 476.718 396.233 426.04 397.231 417.568 396.447Z" fill-rule="evenodd" transform="matrix(1 0 0 -1 2149 1068)"/><path d="M662.402 210.826C635.111 209.613 608.344 206.972 582.928 202.903 565.608 200.12 555.636 197.979 524.822 190.556 486.809 181.42 458.993 176.495 428.478 173.568 413.333 172.141 369.322 172.355 353.877 173.925 317.439 177.708 288.498 183.275 238.04 196.194 213.823 202.404 190.655 206.258 167.263 207.971 139.372 210.041 65.3707 210.041 45.7272 207.971 36.5053 206.972 17.9111 203.903 13.1877 202.618 8.38945 201.262 3.51602 198.478 1.94155 196.194 1.26661 195.266 0.141904 192.411-0.53274 189.985-1.65745 186.059-1.80747 181.134-1.88233 150.942L-1.88233 116.397 10.8634 111.972C26.6084 106.547 27.8829 106.047 34.6308 102.264 50.6007 93.4138 70.8439 79.4243 94.8361 60.6525 126.176 36.0997 155.866 16.4 170.936 10.2617 201.377-2.15776 231.667-5.65493 260.907-0.0163098 274.928 2.69599 293.897 10.4045 307.167 18.7554 313.915 23.0378 316.464 24.9649 340.456 44.0935 371.421 68.8606 386.491 76.3552 397.888 72.7865 406.51 70.0742 421.43 60.4385 445.797 42.0236 469.265 24.2513 482.835 15.6863 498.955 8.40586 535.993-8.29598 570.257-7.86763 611.043 9.83339 634.061 19.8259 659.478 36.0997 692.392 62.0088 718.109 82.2794 740.601 97.6964 754.322 104.477 757.621 106.119 766.318 109.473 773.591 111.972L786.861 116.397 787.086 120.608C787.461 127.531 784.387 199.549 783.712 200.12 782.888 200.834 748.624 207.115 738.727 208.328 718.184 210.826 686.844 211.825 662.402 210.826ZM165.313 153.726C177.234 151.727 205.8 145.946 225.294 141.521 270.129 131.457 302.819 120.965 308.892 114.898 310.616 113.042 310.691 112.828 309.791 108.974 306.567 94.2705 289.248 74.3568 270.654 63.7932 248.461 51.2312 213.148 47.3769 188.556 54.7999 169.587 60.5813 152.717 76.8548 140.646 100.908 133.074 116.04 130.15 127.174 130.599 138.951 130.749 144.947 131.124 146.874 132.699 149.8 135.548 155.153 137.797 156.081 148.069 155.653 152.642 155.439 160.365 154.583 165.313 153.726ZM652.805 154.226C655.429 151.727 653.854 129.101 650.031 113.97 641.933 81.637 618.991 59.0825 588.176 53.0155 571.456 49.7321 548.514 51.0168 532.694 56.0846 514.625 61.9373 499.93 72.1441 487.858 87.2043 478.711 98.6956 475.338 104.691 475.338 109.402 475.338 111.686 478.037 115.969 480.586 117.896 487.634 123.106 509.077 129.673 552.188 139.808 583.977 147.302 609.169 152.156 632.412 155.368 633.686 155.582 638.409 155.653 643.058 155.582 650.106 155.51 651.68 155.296 652.805 154.226Z" fill-rule="evenodd" transform="matrix(1 0 0 -1 2192 1309)"/><path d="M2889.2 1356.18C2934.62 1357.61 2966.99 1360.13 3005.73 1365.33 3194.36 1390.64 3352.41 1466.36 3431 1569.11 3459.47 1606.37 3476.03 1644.73 3481.92 1686.97 3483.91 1701.62 3483.91 1725.55 3481.92 1740.2 3476.03 1782.45 3459.47 1820.8 3431 1858.06 3342.48 1973.74 3154.9 2053.88 2937.86 2068.71 2892.04 2071.85 2838.68 2071.85 2792.86 2068.71 2586.94 2054.62 2406.78 1981.7 2313.02 1874.37 2285.88 1843.29 2265.88 1808.15 2255.95 1773.97 2249.73 1752.28 2247.41 1736.14 2247.41 1713.59 2247.41 1691.03 2249.73 1674.89 2255.95 1653.2 2279.26 1572.83 2351.36 1498.48 2458.69 1444.33 2559.66 1393.33 2683.87 1363.16 2818.68 1356.98 2831.86 1356.35 2878.4 1355.83 2889.2 1356.18ZM2819.01 1420.8C2733.4 1424.41 2657.72 1437.29 2582.97 1460.87 2534.3 1476.27 2480.8 1500.54 2444.72 1523.6L2439.49 1526.98 2443.86 1528.7C2446.24 1529.61 2452.93 1531.9 2458.69 1533.74 2489.61 1543.87 2515.76 1549.36 2547.21 1552.57 2561.45 1554 2598.26 1554 2611.77 1552.57 2648.25 1548.73 2677.65 1541.35 2713.73 1527.1 2746.38 1514.16 2775.64 1506.78 2808.75 1503.17 2820 1501.91 2849.07 1501.74 2860.72 1502.88 2903.3 1506.95 2934.48 1517.48 2964.34 1537.69L2971.03 1542.21 2980.96 1542.89C2992.88 1543.7 3004.8 1545.53 3019.96 1548.96 3070.02 1560.12 3067.17 1559.67 3089.48 1560.01 3105.71 1560.24 3107.3 1560.18 3116.63 1558.81 3143.84 1554.74 3194.83 1542.84 3232.83 1531.68 3243.82 1528.41 3267.99 1520.8 3268.45 1520.4 3268.59 1520.28 3264.75 1517.88 3259.85 1515.08 3163.57 1459.38 3034.93 1425.9 2896.48 1420.57 2876.35 1419.83 2839.87 1419.89 2819.01 1420.8ZM2814.38 1522.46C2786.44 1524.69 2753.59 1532.88 2718.77 1546.21 2678.71 1561.67 2643.62 1569.8 2604.16 1572.77 2593.63 1573.58 2565.95 1573.58 2555.16 1572.77 2512.12 1569.57 2468.89 1559.44 2423.13 1541.75L2419.62 1540.38 2423 1538.14C2424.85 1536.94 2426.25 1535.8 2426.05 1535.68 2425.91 1535.51 2422.41 1537.86 2418.3 1540.83 2367.98 1577.41 2332.03 1622.75 2316.86 1668.71 2314.02 1677.24 2310.91 1689.83 2311.37 1690.8 2311.57 1691.26 2311.77 1691.15 2311.77 1690.52 2311.83 1690 2312.1 1689.54 2312.36 1689.54 2313.42 1689.54 2333.88 1693.55 2348.91 1696.76 2414.99 1710.67 2489.87 1732.07 2541.32 1751.88 2547.15 1754.11 2552.11 1755.94 2552.38 1755.94 2552.64 1755.94 2571.84 1741.69 2595.02 1724.29 2715.59 1633.91 2759.09 1602.71 2784.85 1588.11 2796.1 1581.76 2803.58 1578.78 2814.24 1576.32 2822.98 1574.32 2823.71 1574.26 2834.9 1574.26 2844.63 1574.26 2847.42 1574.43 2852.25 1575.52 2864.56 1578.15 2878.87 1583.94 2893.1 1592.06 2901.44 1596.87 2921.9 1610.04 2929.65 1615.7 2942.76 1625.21 2958.45 1634.77 2968.25 1639.23 2977.12 1643.24 2980.43 1644.21 2989.7 1645.53 3005.13 1647.76 3022.81 1646.21 3033.67 1641.81 3038.57 1639.8 3042.81 1636.6 3042.81 1634.82 3042.81 1632.42 2987.25 1581.36 2969.31 1567.34 2939.18 1543.75 2913.36 1531.85 2878.87 1525.67 2857.41 1521.77 2836.36 1520.74 2814.38 1522.46ZM3279.18 1524.52C3279.25 1524.81 3281.76 1526.52 3284.87 1528.36 3287.92 1530.24 3290.24 1531.96 3289.97 1532.19 3289.24 1532.76 3265.81 1540.55 3253.03 1544.44 3209.46 1557.83 3156.82 1570.6 3123.25 1575.92 3117.49 1576.84 3108.29 1577.7 3098.89 1578.21 3073.13 1579.64 3064.39 1578.44 3013.27 1566.42 3006.65 1564.88 3000.89 1563.62 3000.36 1563.62 2999.9 1563.62 3001.42 1565.33 3003.87 1567.45 3006.26 1569.63 3019.9 1582.39 3034.13 1595.96 3064.66 1625.03 3064.99 1625.38 3064.99 1634.02 3064.99 1639.06 3064.85 1639.63 3063.07 1642.04 3059.82 1646.39 3052.27 1652.22 3046.71 1654.63 3032.01 1661.04 3010.83 1664.99 2995.13 1664.19 2970.37 1662.87 2956.27 1656.86 2920.98 1632.36 2893.96 1613.64 2875.03 1602.77 2859.53 1597.1 2847.95 1592.87 2833.11 1591.32 2822.32 1593.27 2804.44 1596.47 2789.35 1605 2745.19 1636.88 2692.35 1675.01 2566.22 1768.82 2560.32 1774.43 2554.89 1779.58 2551.38 1787.54 2551.25 1795.15 2551.19 1799.27 2551.38 1800.13 2553.44 1803.74 2560.72 1816.56 2581.25 1824.57 2597.47 1820.91 2606.21 1818.91 2606.21 1818.97 2644.81 1788.97 2693.54 1751.08 2696.98 1748.5 2699.57 1747.59 2703.87 1746.04 2707.11 1747.07 2708.84 1750.51 2710.82 1754.74 2711.68 1753.94 2668.45 1791.43 2626.67 1827.67 2625.74 1828.52 2623.42 1835.45 2620.77 1843.24 2623.75 1852.57 2630.77 1858.8 2634.28 1861.9 2641.96 1866.42 2647.13 1868.48 2658.32 1872.89 2671.23 1872.83 2681.62 1868.31 2686.12 1866.3 2690.89 1862.7 2709.43 1846.96 2738.3 1822.51 2753.73 1811.47 2759.02 1811.47 2761.41 1811.47 2762.07 1811.81 2763.59 1813.76 2766.11 1816.9 2764.45 1821.08 2758.49 1826.35 2756.18 1828.41 2743.4 1840.6 2730.02 1853.48 2703.74 1878.9 2702.41 1880.44 2701.95 1886.8 2701.55 1892 2702.61 1894.01 2708.64 1899.45 2712.94 1903.34 2714.99 1904.65 2719.3 1906.49 2726.31 1909.41 2733.73 1910.72 2742.14 1910.38 2751.21 1910.03 2752.53 1909.35 2764.72 1898.99 2777.89 1887.71 2801.33 1869.45 2810.01 1863.67 2817.69 1858.58 2825.37 1863.61 2821.06 1870.88 2820.33 1872.03 2809.01 1883.02 2795.9 1895.32 2769.15 1920.22 2770.35 1918.68 2775.31 1922.57 2778.36 1924.97 2784.71 1927.21 2792.66 1928.58 2801.73 1930.18 2813.32 1929.04 2825.9 1925.26 2832.58 1923.31 2845.5 1918.22 2845.5 1917.59 2845.5 1917.36 2844.77 1915.3 2843.84 1913.01 2837.68 1897.56 2838.61 1882.27 2846.62 1868.42 2856.16 1851.99 2876.81 1839.51 2897.07 1838.08 2899.46 1837.91 2902.64 1837.63 2904.16 1837.45L2906.87 1837.17 2907.27 1829.33C2908.07 1814.27 2912.83 1803.57 2922.63 1795.15 2928.66 1789.89 2933.82 1786.97 2941.97 1784.22 2956.86 1779.13 2970.63 1777.98 2983.22 1780.79 2986.66 1781.53 2989.57 1781.99 2989.7 1781.76 2990.56 1779.87 2996.06 1773.52 2999.37 1770.6 3010.63 1760.69 3024.07 1756.12 3043.2 1755.54 3057.97 1755.08 3067.7 1757.15 3077.57 1762.81 3079.75 1764.07 3081.8 1765.1 3082.13 1765.1 3082.47 1765.1 3084.39 1763.67 3086.44 1761.9 3097.69 1752.17 3112.72 1747.3 3129.08 1748.1 3140.27 1748.62 3151.39 1752.22 3159.27 1757.78 3161.26 1759.09 3163.18 1760.47 3163.64 1760.75 3164.24 1761.15 3165.83 1760.47 3168.67 1758.69 3190.46 1745.47 3233.89 1729.1 3282.62 1715.93 3309.77 1708.55 3350.42 1699.16 3383.13 1692.69 3394.78 1690.35 3409.62 1685.94 3409.62 1684.79 3409.62 1683.71 3406.77 1673.57 3404.52 1666.65 3388.36 1617.25 3347.84 1569.57 3286.6 1528.07 3281.3 1524.46 3279.11 1523.43 3279.18 1524.52ZM2310.71 1693.09C2310.91 1693.55 2311.1 1693.38 2311.1 1692.75 2311.17 1692.12 2310.97 1691.78 2310.77 1692.01 2310.57 1692.18 2310.51 1692.69 2310.71 1693.09ZM3344.07 1719.94C3285.67 1732.47 3238.46 1746.44 3203.7 1761.44 3194.1 1765.56 3180.92 1772.14 3176.62 1774.89L3175.16 1775.81 3176.68 1780.61C3178.01 1784.68 3178.21 1786.8 3178.21 1794.58 3178.21 1802.59 3178.01 1804.25 3176.68 1808.03 3170.99 1823.6 3158.34 1834.76 3140.27 1840.14 3134.04 1841.98 3133.51 1842.03 3123.12 1842.09L3112.39 1842.09 3111.67 1844.67C3108.95 1853.94 3102.4 1863.56 3094.12 1870.37 3088.23 1875.18 3083.86 1877.69 3075.65 1881.07 3066.51 1884.73 3059.42 1886.11 3049.43 1886.11 3044.86 1886.17 3040.36 1885.94 3039.43 1885.71 3037.84 1885.36 3037.57 1885.54 3036.58 1887.65 3033.73 1893.78 3026.85 1900.93 3019.17 1905.68 3013.67 1909.18 2999.37 1914.9 2992.88 1916.33 2985.8 1917.88 2972.82 1917.59 2967.46 1915.76L2963.95 1914.56 2962.62 1917.25C2958.52 1925.55 2947.06 1936.42 2937 1941.63 2925.68 1947.47 2911.97 1950.45 2899.79 1949.76 2884.69 1948.96 2872.31 1944.44 2860.59 1935.62L2856.22 1932.24 2850.66 1934.76C2842.91 1938.31 2830.86 1942.32 2821.79 1944.44 2814.31 1946.15 2813.58 1946.21 2799.81 1946.21 2786.9 1946.27 2785.11 1946.15 2780.41 1944.95 2768.89 1942.09 2758.36 1935.79 2753.79 1929.1 2753.13 1928.12 2752.8 1928.12 2746.58 1929.1 2738.9 1930.3 2726.38 1930.01 2720.03 1928.52 2710.03 1926.18 2694.6 1917.36 2687.45 1909.98 2683.08 1905.46 2678.97 1898.42 2678.31 1894.47L2677.85 1891.6 2675.13 1892.06C2669.77 1892.86 2657.46 1892.4 2651.23 1891.09 2636.73 1888.05 2620.05 1878.67 2612.1 1868.99 2606.6 1862.35 2603.1 1854.23 2602.17 1846.1L2601.71 1842.09 2592.57 1842.26C2578.4 1842.61 2568.33 1840.37 2557.15 1834.42 2539.93 1825.26 2530.99 1812.27 2530.79 1796.3 2530.73 1789.37 2531.92 1784.56 2535.69 1776.95 2536.75 1774.78 2537.48 1772.83 2537.35 1772.71 2536.75 1772.2 2517.48 1765.39 2504.97 1761.32 2450.35 1743.52 2382.94 1725.66 2323.42 1713.3L2308.85 1710.27 2308.46 1711.81C2308.19 1712.61 2307.99 1717.59 2307.93 1722.86 2307.4 1786.45 2342.62 1847.7 2409.49 1899.56 2513.45 1980.1 2681.49 2027.89 2860.33 2027.84 3020.76 2027.72 3171.98 1989.31 3277.79 1921.77 3296.06 1910.15 3312.22 1897.96 3328.18 1883.82 3375.52 1841.86 3402.8 1795.44 3409.75 1744.78 3410.61 1738.26 3410.94 1709.46 3410.15 1707.8 3409.81 1707 3407.03 1707.4 3387.63 1711.07 3375.52 1713.41 3355.92 1717.36 3344.07 1719.94ZM3108.82 1762.87C3103.72 1764.36 3096.64 1768.36 3093.39 1771.57 3088.09 1776.95 3085.64 1781.93 3084.32 1790.23L3083.53 1795.5 3080.61 1791.03C3076.71 1785.08 3073.92 1782.22 3068.43 1778.5 3056.64 1770.54 3043.33 1768.08 3026.78 1770.83 3018.37 1772.2 3012.81 1774.55 3008.11 1778.67 3002.35 1783.65 2997.78 1792.75 2997.78 1799.33 2997.78 1801.91 2996.06 1804.03 2994.07 1804.03 2993.48 1804.03 2991.29 1802.65 2989.24 1800.99 2977.26 1791.43 2961.23 1790 2944.94 1797.1 2929.72 1803.74 2922.63 1816.56 2924.88 1833.5 2925.54 1838.2 2926.21 1840.95 2929.25 1850.33 2930.11 1853.14 2930.11 1853.6 2929.25 1854.8 2927.86 1856.63 2924.49 1856.51 2916.14 1854.34 2903.3 1850.96 2893.3 1851.54 2882.38 1856.29 2874.63 1859.61 2866.62 1866.53 2862.84 1873.29 2858.94 1880.16 2857.81 1884.33 2857.81 1892.18 2857.88 1903.8 2862.25 1913.01 2871.25 1920.11 2882.38 1928.98 2900.38 1932.47 2914.55 1928.47 2924.29 1925.78 2933.82 1919.25 2938.99 1911.87 2942.36 1907.12 2945.34 1899.16 2945.87 1893.44 2946.27 1889.31 2946.53 1888.57 2947.99 1887.6 2948.92 1886.97 2950.18 1886.45 2950.9 1886.45 2952.56 1886.45 2956.86 1888.4 2958.12 1889.66 2959.78 1891.37 2965.67 1894.35 2970.04 1895.67 2976.53 1897.56 2984.41 1897.04 2991.76 1894.29 2994.74 1893.21 2998.91 1891.43 3000.96 1890.34 3006.12 1887.71 3013.14 1881.64 3015.26 1877.92 3017.65 1873.92 3019.04 1868.08 3018.51 1864.3 3017.78 1858.92 3021.29 1856.74 3025.85 1859.78 3028.9 1861.78 3035.39 1864.47 3039.76 1865.56 3044.99 1866.88 3054.13 1866.53 3060.02 1864.76 3073.66 1860.69 3085.05 1850.73 3088.76 1839.51 3090.68 1833.79 3091.14 1828.24 3090.34 1821.31L3089.62 1814.84 3091.34 1813.36 3092.99 1811.87 3097.03 1814.5C3112.72 1824.69 3131.53 1824.06 3144.44 1812.9 3157.48 1801.62 3158.15 1783.19 3145.9 1771.63 3136.23 1762.41 3121.93 1759.03 3108.82 1762.87Z" fill-rule="evenodd"/></g></svg>