<svg width="1756" height="1619" xmlns="http://www.w3.org/2000/svg" xmlns:xlink="http://www.w3.org/1999/xlink" xml:space="preserve" overflow="hidden"><defs><clipPath id="clip0"><rect x="1322" y="418" width="1756" height="1619"/></clipPath><clipPath id="clip1"><rect x="1424" y="719" width="1552" height="1001"/></clipPath><clipPath id="clip2"><rect x="1424" y="719" width="1552" height="1001"/></clipPath><clipPath id="clip3"><rect x="1424" y="719" width="1552" height="1001"/></clipPath></defs><g clip-path="url(#clip0)" transform="translate(-1322 -418)"><path d="M1327 1227.5C1327 783.187 1717.86 423 2200 423 2682.14 423 3073 783.187 3073 1227.5 3073 1671.81 2682.14 2032 2200 2032 1717.86 2032 1327 1671.81 1327 1227.5Z" stroke="#000000" stroke-width="10.3125" stroke-miterlimit="8" fill="#C6E0B4" fill-rule="evenodd"/><g clip-path="url(#clip1)"><g clip-path="url(#clip2)"><g clip-path="url(#clip3)"><path d="M718.352 999.454C663.636 997.454 625.559 994.014 578.282 986.735 377.575 955.857 202.867 869.143 99.5934 749.15 43.7571 684.195 11.4392 613.959 2.31985 537.564-0.159989 516.686-0.159989 483.488 2.31985 462.769 11.4392 385.574 43.2771 316.539 100.473 249.583 117.272 229.905 150.31 198.387 173.988 179.428 277.982 96.3136 421.092 37.4375 577.642 13.2791 637.398 4.07973 684.275 0.479968 747.151 0.479968 810.186 0.479968 856.743 3.99974 916.739 13.2791 1157.12 50.3967 1357.03 167.109 1445.1 321.579 1520.46 453.89 1508.38 602.12 1411.99 727.952 1388.23 759.07 1353.03 794.507 1319.91 820.826 1215.04 904.18 1073.61 962.336 916.739 986.655 876.662 992.894 845.784 996.014 803.547 998.334 787.628 999.214 731.472 999.934 718.352 999.454ZM803.547 909.14C831.385 907.78 842.584 906.9 866.743 904.26 986.495 891.381 1100.01 856.983 1192.72 805.307 1213.28 793.867 1239.68 777.069 1255.36 765.469L1261.68 760.75 1256.4 758.35C1253.52 757.07 1245.44 753.87 1238.48 751.31 1201.12 737.151 1169.52 729.472 1131.53 724.992 1114.33 722.992 1069.85 722.992 1053.53 724.992 1010.01 730.272 972.656 740.991 931.938 759.95 893.701 777.629 856.503 788.748 818.346 793.708 802.587 795.787 768.109 796.187 752.75 794.427 701.234 788.668 663.636 774.109 627.479 745.711L619.399 739.391 610.68 738.831C592.281 737.711 578.362 734.911 541.724 725.232 505.087 715.553 497.647 714.353 471.809 714.353 457.81 714.353 453.49 714.673 443.411 716.353 411.653 721.712 351.497 737.951 305.58 753.47 289.181 758.99 265.102 767.709 262.783 768.989 261.903 769.469 260.943 769.789 260.623 769.709 258.623 769.149 261.183 771.069 270.542 777.389 282.301 785.228 303.9 798.587 311.979 802.987 314.859 804.507 320.299 807.547 324.139 809.626 327.898 811.706 336.378 816.106 342.937 819.386 448.13 872.102 576.202 903.62 709.153 909.46 734.111 910.5 778.748 910.42 803.547 909.14ZM808.747 767.069C842.504 763.949 882.182 752.51 924.259 733.871 988.015 705.473 1045.45 693.634 1107.85 696.034 1160.32 698.114 1213.04 710.993 1272.16 736.191L1285.67 741.871 1283.76 743.391C1282.72 744.271 1280.88 745.791 1279.52 746.831 1278.24 747.871 1277.52 748.75 1277.92 748.75 1278.8 748.75 1289.35 739.951 1299.91 730.432 1334.79 699.074 1367.03 658.516 1385.03 623.159 1387.19 618.999 1389.19 615.239 1389.59 614.759 1390.87 613.079 1400.55 590.361 1403.75 581.562 1409.75 565.003 1417.51 534.445 1416.47 531.805 1416.23 531.165 1415.99 531.325 1415.99 532.205 1415.91 532.925 1415.59 533.565 1415.27 533.565 1413.99 533.565 1389.27 527.965 1371.11 523.485 1291.27 504.047 1200.8 474.129 1138.64 446.45 1131.61 443.331 1125.61 440.771 1125.29 440.771 1124.97 440.771 1101.77 460.69 1073.77 485.008 928.099 611.32 875.542 654.917 844.424 675.315 830.825 684.195 821.786 688.354 808.906 691.794 798.347 694.594 797.467 694.674 783.948 694.674 772.189 694.674 768.829 694.434 762.99 692.914 748.111 689.234 730.832 681.155 713.633 669.796 703.553 663.076 678.835 644.677 669.476 636.758 653.637 623.479 634.678 610.12 622.839 603.88 612.12 598.28 608.12 596.921 596.921 595.081 578.282 591.961 556.923 594.121 543.804 600.28 537.884 603.08 532.765 607.56 532.765 610.04 532.765 613.399 599.88 684.755 621.559 704.353 657.956 737.311 689.154 753.95 730.832 762.59 756.75 768.029 782.188 769.469 808.747 767.069ZM247.184 764.189C247.104 763.789 244.064 761.39 240.304 758.83 236.624 756.19 233.825 753.79 234.145 753.47 235.024 752.67 263.343 741.791 278.782 736.351 331.418 717.633 395.014 699.794 435.571 692.354 442.531 691.074 453.65 689.874 465.009 689.154 496.127 687.155 506.686 688.834 568.442 705.633 576.442 707.793 583.401 709.553 584.041 709.553 584.601 709.553 582.761 707.153 579.802 704.193 576.922 701.154 560.443 683.315 543.244 664.356 506.367 623.719 505.967 623.239 505.967 611.16 505.967 604.12 506.127 603.32 508.286 599.96 512.206 593.881 521.326 585.721 528.045 582.361 545.804 573.402 571.402 567.882 590.361 569.002 620.279 570.842 637.318 579.242 679.955 613.479 712.593 639.638 735.471 654.837 754.19 662.756 768.189 668.676 786.108 670.836 799.147 668.116 820.746 663.636 838.984 651.717 892.341 607.16 956.177 553.883 1108.57 422.772 1115.69 414.933 1122.25 407.733 1126.49 396.614 1126.65 385.974 1126.73 380.215 1126.49 379.015 1124.01 373.975 1115.21 356.056 1090.41 344.857 1070.81 349.977 1060.25 352.777 1060.25 352.697 1013.61 394.614 954.737 447.57 950.577 451.17 947.457 452.45 942.258 454.61 938.338 453.17 936.258 448.37 933.858 442.451 932.818 443.571 985.055 391.174 1035.53 340.537 1036.65 339.338 1039.45 329.658 1042.65 318.779 1039.05 305.74 1030.57 297.02 1026.33 292.701 1017.05 286.381 1010.81 283.501 997.294 277.342 981.695 277.422 969.136 283.741 963.696 286.541 957.937 291.581 935.538 313.579 900.66 347.737 882.022 363.176 875.622 363.176 872.742 363.176 871.942 362.696 870.102 359.976 867.063 355.576 869.062 349.737 876.262 342.377 879.062 339.498 894.501 322.459 910.66 304.46 942.418 268.942 944.018 266.782 944.578 257.903 945.057 250.623 943.778 247.824 936.498 240.224 931.298 234.784 928.819 232.945 923.619 230.385 915.139 226.305 906.18 224.465 896.021 224.945 885.061 225.425 883.302 226.465 869.942 239.744 863.783 245.824 854.263 254.943 848.744 259.983 843.224 264.942 837.145 270.542 835.145 272.382 831.465 275.742 818.266 286.941 814.026 290.221 804.827 297.34 795.467 290.301 800.667 280.141 801.547 278.542 815.226 263.183 831.065 245.984 856.663 218.386 859.943 214.546 859.543 212.786 858.343 208.066 851.864 203.987 840.264 200.627 835.145 199.187 832.025 198.867 823.945 198.867 812.986 198.947 806.347 200.147 794.827 204.146 786.748 206.866 771.149 213.986 771.149 214.866 771.149 215.186 772.029 218.066 773.149 221.265 777.469 233.745 778.908 245.744 777.549 257.263 775.309 276.222 767.309 292.061 753.23 305.34 747.711 310.699 735.231 319.179 732.992 319.179 732.432 319.179 731.952 319.579 731.952 319.979 731.952 320.459 731.712 320.699 731.392 320.619 730.992 320.539 727.872 321.419 724.352 322.619 717.793 324.779 710.273 326.298 703.953 326.698 701.954 326.858 699.634 327.018 698.674 327.018 697.074 327.178 696.994 327.738 696.514 338.138 695.554 359.256 689.794 374.215 677.955 385.974 670.676 393.334 664.436 397.414 654.597 401.253 636.598 408.373 619.959 409.973 604.76 406.053 600.6 405.013 597.081 404.373 596.921 404.693 595.881 407.333 589.241 416.212 585.241 420.292 576.682 428.932 567.242 434.531 555.403 437.971 545.964 440.771 538.924 441.651 528.125 441.571 513.326 441.491 502.687 438.611 491.168 431.491 487.968 429.572 485.168 427.972 484.848 427.972 484.528 427.972 483.168 429.172 481.888 430.612 478.608 434.131 472.689 439.331 470.369 440.691 455.49 449.49 443.651 452.61 428.532 451.73 415.013 451.01 401.573 445.97 392.054 438.211 389.654 436.371 387.334 434.451 386.854 434.051 386.054 433.491 375.495 439.811 369.176 444.531 367.416 445.891 354.937 452.37 343.577 457.89 290.621 483.568 220.225 506.207 121.592 529.165 113.273 531.085 98.1535 535.725 93.4338 537.804 88.8741 539.804 88.8741 538.364 92.9538 555.163 108.313 618.999 149.91 682.755 211.986 737.391 219.266 743.791 227.025 750.43 229.185 752.19 231.425 753.87 234.464 756.35 235.984 757.55 243.984 764.029 247.264 765.949 247.184 764.189ZM1417.27 528.605C1417.03 527.965 1416.79 528.205 1416.79 529.085 1416.71 529.965 1416.95 530.445 1417.19 530.125 1417.43 529.885 1417.51 529.165 1417.27 528.605ZM132.391 499.887C136.791 498.927 152.63 495.167 167.509 491.408 238.704 473.729 293.741 455.01 336.378 433.971 349.577 427.492 365.416 418.452 371.095 414.293L372.855 413.013 371.015 406.293C369.416 400.613 369.176 397.654 369.176 386.774 369.176 375.575 369.416 373.255 371.015 367.976 377.895 346.217 393.174 330.618 415.013 323.099 422.532 320.539 423.172 320.459 435.731 320.379L448.69 320.379 449.57 316.779C451.41 309.42 455.49 300.38 460.05 293.661 475.009 271.182 502.927 257.023 528.925 258.703 533.165 258.943 537.164 259.343 537.804 259.663 538.604 259.903 539.404 259.023 540.284 256.783 543.724 248.144 552.043 238.144 561.323 231.505 566.443 227.745 582.761 219.745 590.361 217.106 593.961 215.906 597.081 215.586 607.16 215.586 618.039 215.586 620.119 215.826 623.799 217.346L628.038 219.105 629.638 215.506C634.038 205.026 645.957 191.107 656.357 184.148 659.396 182.068 662.116 180.148 662.356 179.908 663.156 178.948 676.515 173.589 680.995 172.469 694.594 168.949 707.393 168.869 720.832 172.309 732.592 175.268 742.591 180.708 752.91 189.667L758.19 194.387 764.909 190.867C774.269 185.908 788.828 180.308 799.787 177.348 808.826 174.948 809.706 174.868 826.345 174.868 841.944 174.788 844.104 174.948 849.784 176.628 863.703 180.628 876.422 189.427 881.942 198.787 882.742 200.147 883.142 200.147 890.661 198.787 899.94 197.107 915.059 197.507 922.739 199.587 934.818 202.867 953.457 215.186 962.096 225.505 967.376 231.825 972.336 241.664 973.136 247.184L973.696 251.183 976.975 250.543C983.535 249.424 998.334 250.063 1005.85 251.903 1023.45 256.143 1043.53 269.262 1053.13 282.781 1059.77 292.061 1064.01 303.42 1065.13 314.779L1065.69 320.379 1076.73 320.139C1093.85 319.659 1106.01 322.779 1119.53 331.098 1140.32 343.897 1151.12 362.056 1151.36 384.375 1151.44 394.054 1150 400.773 1145.44 411.413 1144.16 414.453 1143.28 417.172 1143.44 417.332 1144.16 418.052 1167.44 427.572 1182.56 433.251 1248.56 458.13 1329.99 483.088 1401.91 500.367L1419.51 504.607 1419.99 502.447C1420.31 501.327 1420.55 494.367 1420.63 487.008 1421.27 398.134 1378.71 312.539 1297.91 240.064 1253.92 200.627 1199.36 166.069 1137.36 138.391 1128.41 134.391 1120.41 130.791 1119.53 130.391 1118.65 129.991 1113.29 127.832 1107.53 125.512 998.974 82.7145 878.662 60.716 753.23 60.796 559.243 60.956 376.775 114.552 248.864 209.026 226.785 225.265 207.266 242.304 187.988 262.063 130.791 320.699 97.8335 385.574 89.4341 456.37 88.3941 465.489 87.9942 505.727 88.9541 508.046 89.3541 509.166 91.5139 508.846 106.953 505.407 116.552 503.327 127.992 500.767 132.391 499.887ZM453.01 431.091C459.17 429.012 467.729 423.412 471.649 418.932 478.048 411.413 481.008 404.453 482.608 392.854L483.568 385.495 487.088 391.734C491.807 400.054 495.167 404.053 501.807 409.253 516.046 420.372 532.125 423.812 552.123 419.972 562.283 418.052 569.002 414.773 574.682 409.013 581.642 402.053 587.161 389.334 587.161 380.135 587.161 376.535 589.241 373.575 591.641 373.575 592.361 373.575 595.001 375.495 597.48 377.815 611.96 391.174 631.318 393.174 650.997 383.255 669.396 373.975 677.955 356.056 675.235 332.378 674.435 325.818 673.635 321.979 669.956 308.86 668.916 304.94 668.916 304.3 669.956 302.62 671.636 300.06 675.715 300.22 685.795 303.26 701.314 307.98 713.393 307.18 726.592 300.54 735.951 295.9 745.631 286.221 750.19 276.782 754.91 267.182 756.27 261.343 756.27 250.383 756.19 234.145 750.91 221.265 740.031 211.346 726.592 198.947 704.833 194.067 687.714 199.667 675.955 203.427 664.436 212.546 658.196 222.865 654.117 229.505 650.517 240.624 649.877 248.624 649.397 254.383 649.077 255.423 647.317 256.783 646.197 257.663 644.677 258.383 643.797 258.383 641.798 258.383 636.598 255.663 635.078 253.903 633.078 251.503 625.959 247.344 620.679 245.504 612.839 242.864 603.32 243.584 594.441 247.424 590.841 248.944 585.801 251.423 583.321 252.943 577.082 256.623 568.602 265.102 566.043 270.302 563.163 275.902 561.483 284.061 562.123 289.341 563.003 296.86 558.763 299.9 553.243 295.66 549.564 292.861 541.724 289.101 536.445 287.581 530.125 285.741 519.086 286.221 511.966 288.701 495.487 294.381 481.728 308.3 477.248 323.979 474.929 331.978 474.369 339.738 475.329 349.417L476.208 358.456 474.129 360.536 472.129 362.616 467.249 358.936C448.29 344.697 425.572 345.577 409.973 361.176 394.214 376.935 393.414 402.693 408.213 418.852 419.892 431.731 437.171 436.451 453.01 431.091Z" transform="matrix(1.03861 0 0 -1 1424 1718.97)"/></g></g></g></g></svg>