<svg width="2475" height="2476" xmlns="http://www.w3.org/2000/svg" xmlns:xlink="http://www.w3.org/1999/xlink" xml:space="preserve" overflow="hidden"><defs><clipPath id="clip0"><rect x="962" y="-1" width="2475" height="2476"/></clipPath></defs><g clip-path="url(#clip0)" transform="translate(-962 1)"><path d="M972.577 1237.27C972.577 559.343 1521.93 9.76572 2199.58 9.76572 2877.22 9.76572 3426.58 559.343 3426.58 1237.27 3426.58 1915.19 2877.22 2464.77 2199.58 2464.77 1521.93 2464.77 972.577 1915.19 972.577 1237.27Z" stroke="#000000" stroke-width="19.983" stroke-miterlimit="8" fill="#C5E0B4" fill-rule="evenodd"/><path d="M2572.26 413.767C2573.4 417.829 2573.8 422.162 2573.43 426.767 2571.48 426.767 2569.51 426.767 2567.56 426.767 2568.82 425.552 2570.38 425.119 2572.26 425.467 2572.26 421.567 2572.26 417.667 2572.26 413.767Z" fill="#848485" fill-rule="evenodd"/><path d="M2170.19 524.766C2248.84 524.766 2327.48 524.766 2406.11 524.766 2652.92 526.231 2900.09 527.61 3147.58 528.901 3147.58 645.446 3147.58 761.99 3147.58 878.534 2766.31 879.274 2385.04 878.244 2003.79 875.43 2002.38 874.748 2000.99 874.052 1999.58 873.37 2056.16 757.028 2113.04 640.832 2170.19 524.766Z" fill="#000000" fill-rule="evenodd" fill-opacity="0.988235"/><path d="M3147.58 902.897C3147.58 1232.46 3147.58 1562.04 3147.58 1891.62 2542.06 1892.18 1936.54 1891.15 1331.02 1888.49 1312.08 1887.81 1293.14 1887.11 1274.2 1886.43 1264.75 1886.13 1255.63 1884.4 1246.84 1881.25 1244.25 1876.28 1245.64 1872.48 1251.04 1869.85 1263.53 1867.48 1276.16 1866.1 1288.93 1865.69 1458.02 1864.66 1627.12 1864.31 1796.21 1864.66 1796.57 1810.07 1796.21 1755.49 1795.16 1700.92 1794.48 1689.79 1793.43 1678.74 1792.01 1667.75 1784.11 1671.63 1775.68 1674.39 1766.74 1676.04 1745.66 1670.84 1730.58 1658.4 1721.49 1638.73 1714.1 1625.88 1710.6 1612.07 1710.96 1597.27 1706.79 1592.8 1701.88 1589.36 1696.23 1586.92 1694.56 1581.27 1692.1 1576.1 1688.86 1571.36 1682.82 1571.11 1677.21 1569.74 1672.02 1567.22 1674.24 1564.35 1677.05 1562.27 1680.45 1561.01 1623.75 1554.14 1569.73 1537.57 1518.36 1511.25 1514.76 1508.41 1511.95 1504.95 1509.95 1500.9 1513.1 1496.4 1516.26 1491.91 1519.42 1487.42 1520.93 1484.08 1520.59 1480.97 1518.36 1478.1 1520.53 1474.57 1523.69 1472.84 1527.84 1472.91 1551.1 1473.74 1560.22 1485.47 1555.2 1508.14 1561.1 1500.27 1567.75 1493.01 1575.2 1486.37 1581.25 1482.44 1587.92 1480.71 1595.2 1481.21 1646.39 1491.33 1695.86 1506.87 1743.6 1527.84 1762.53 1557.17 1779.02 1587.92 1793.06 1620.07 1793.61 1543.38 1794.67 1466.68 1796.21 1390 1795.13 1360.29 1794.09 1330.58 1793.06 1300.86 1792.5 1293.09 1791.11 1285.5 1788.84 1278.06 1780.14 1300.47 1764.34 1316.01 1741.49 1324.71 1712.75 1333.6 1683.28 1338.08 1653.09 1338.19 1647.16 1385.21 1640.84 1432.19 1634.14 1479.13 1601.87 1476.08 1569.6 1472.97 1537.31 1469.8 1529.35 1469.02 1521.98 1466.61 1515.21 1462.54 1513.03 1457.63 1511.97 1452.45 1512.06 1447 1515.7 1407.94 1519.55 1368.9 1523.62 1329.89 1524.78 1317.59 1527.95 1305.84 1533.1 1294.65 1541.8 1291.29 1550.92 1289.56 1560.46 1289.46 1610.28 1288.78 1660.09 1288.08 1709.91 1287.4 1728.45 1268.96 1747.4 1250.99 1766.74 1233.51 1795.18 1209.91 1813.08 1216.47 1820.42 1253.2 1822.17 1254.93 1823.93 1256.66 1825.69 1258.38 1835.48 1259.41 1845.31 1259.76 1855.16 1259.41 1855.16 1461.16 1855.16 1662.91 1855.16 1864.66 1982.15 1864.66 2109.15 1864.66 2236.14 1864.66 2235.79 1606.26 2236.14 1347.84 2237.2 1089.44 2237.88 1028.63 2238.93 967.828 2240.35 907.036 2277.49 905.424 2314.68 904.393 2351.92 903.928 2617.14 902.897 2882.36 902.549 3147.58 902.897ZM2457.16 1008.61C2508.38 1008.61 2559.6 1008.61 2610.82 1008.61 2610.82 1057.67 2610.82 1106.72 2610.82 1155.78 2559.6 1155.78 2508.38 1155.78 2457.16 1155.78 2457.16 1106.72 2457.16 1057.67 2457.16 1008.61ZM2633.98 1008.61C2684.5 1008.61 2735.01 1008.61 2785.53 1008.61 2785.53 1057.67 2785.53 1106.72 2785.53 1155.78 2735.01 1155.78 2684.5 1155.78 2633.98 1155.78 2633.98 1106.72 2633.98 1057.67 2633.98 1008.61ZM2457.16 1186.86C2508.38 1186.86 2559.6 1186.86 2610.82 1186.86 2610.82 1235.92 2610.82 1284.97 2610.82 1334.03 2559.6 1334.03 2508.38 1334.03 2457.16 1334.03 2457.16 1284.97 2457.16 1235.92 2457.16 1186.86ZM2633.98 1186.86C2684.5 1186.86 2735.01 1186.86 2785.53 1186.86 2785.53 1235.92 2785.53 1284.97 2785.53 1334.03 2735.01 1334.03 2684.5 1334.03 2633.98 1334.03 2633.98 1284.97 2633.98 1235.92 2633.98 1186.86ZM1760.44 1253.2C1774.43 1255.61 1783.2 1263.2 1786.73 1276 1778.41 1267.63 1769.65 1260.02 1760.44 1253.2ZM1625.71 1501.93C1630.23 1502.34 1630.58 1504.41 1626.77 1508.14 1621.73 1514.16 1615.76 1518.99 1608.87 1522.65 1608.17 1521.97 1607.48 1521.27 1606.78 1520.58 1611.08 1512.2 1617.4 1505.97 1625.71 1501.93ZM1657.29 1528.87C1658.84 1528.61 1660.25 1528.96 1661.5 1529.91 1657.49 1537.31 1651.53 1542.49 1643.61 1545.45 1642.55 1544.77 1641.51 1544.07 1640.44 1543.38 1645.34 1537.55 1650.95 1532.72 1657.29 1528.87Z" fill="#000000" fill-rule="evenodd" fill-opacity="0.988235"/><path d="M1582.9 1089.07C1606.41 1087.4 1628.25 1092.59 1648.41 1104.65 1669.75 1119.74 1689.47 1136.71 1707.58 1155.55 1703.04 1198.05 1684.73 1233.71 1652.64 1262.55 1612.85 1281.47 1573.41 1280.07 1534.3 1258.4 1486.54 1223.99 1477.04 1181.4 1505.77 1130.62 1526.88 1108.29 1552.59 1094.45 1582.9 1089.07ZM1692.78 1157.64C1695.43 1159.36 1696.84 1162.13 1697.01 1165.94 1693.03 1203.91 1676.13 1234.73 1646.29 1258.4 1634.1 1266.39 1620.71 1269.51 1606.15 1267.74 1605.47 1252.82 1610.39 1240.01 1620.94 1229.31 1629.39 1223.77 1637.85 1218.23 1646.29 1212.69 1649.55 1210.38 1650.96 1207.26 1650.52 1203.34 1625.36 1205.98 1615.86 1195.6 1621.99 1172.18 1628.44 1167.06 1635.83 1163.94 1644.18 1162.83 1660.72 1161.28 1676.93 1159.55 1692.78 1157.64Z" fill="#000000" fill-rule="evenodd" fill-opacity="0.968627"/><path d="M1432.85 1272.9C1452.45 1272.55 1472.03 1272.9 1491.6 1273.93 1497.33 1274.79 1502.93 1276.17 1508.38 1278.09 1511.11 1279.75 1512.52 1282.17 1512.58 1285.34 1501.77 1353.51 1493.02 1421.98 1486.35 1490.73 1483.35 1518.76 1476.34 1545.74 1465.37 1571.64 1455.13 1588.63 1440.09 1599.37 1420.26 1603.8 1385.89 1608.91 1353.02 1604.06 1321.64 1589.27 1316.02 1585.45 1312.52 1580.26 1311.16 1573.72 1305.02 1578.5 1298.03 1581.28 1290.17 1582.02 1244.66 1567.08 1209.34 1539.43 1184.21 1499.03 1167.15 1457.03 1172.75 1418.31 1200.99 1382.84 1243.31 1335.79 1295.42 1303.64 1357.32 1286.38 1382.5 1280.27 1407.68 1275.78 1432.85 1272.9ZM1428.64 1538.45C1437.56 1543.28 1439.32 1550.19 1433.89 1559.19 1431.99 1563.22 1428.85 1565.3 1424.45 1565.41 1420.48 1555.36 1421.88 1546.38 1428.64 1538.45ZM1453.83 1544.68C1460.62 1544.12 1463.41 1547.24 1462.23 1554.01 1463.05 1562.18 1459.56 1564.95 1451.74 1562.3 1446.09 1555.84 1446.79 1549.95 1453.83 1544.68ZM1372 1571.64C1378.34 1571.3 1384.63 1571.65 1390.88 1572.68 1393.6 1577.02 1392.19 1579.78 1386.69 1580.97 1378.78 1583.49 1372.49 1581.41 1367.8 1574.75 1369.72 1574.18 1371.13 1573.13 1372 1571.64Z" fill="#000000" fill-rule="evenodd" fill-opacity="0.988235"/></g></svg>