<svg width="2475" height="2476" xmlns="http://www.w3.org/2000/svg" xmlns:xlink="http://www.w3.org/1999/xlink" xml:space="preserve" overflow="hidden"><defs><clipPath id="clip0"><rect x="962" y="-1" width="2475" height="2476"/></clipPath></defs><g clip-path="url(#clip0)" transform="translate(-962 1)"><path d="M972.577 1237.27C972.577 559.343 1521.93 9.76572 2199.58 9.76572 2877.22 9.76572 3426.58 559.343 3426.58 1237.27 3426.58 1915.19 2877.22 2464.77 2199.58 2464.77 1521.93 2464.77 972.577 1915.19 972.577 1237.27Z" stroke="#000000" stroke-width="19.983" stroke-miterlimit="8" fill="#C5E0B4" fill-rule="evenodd"/><path d="M2572.26 413.767C2573.4 417.829 2573.8 422.162 2573.43 426.767 2571.48 426.767 2569.51 426.767 2567.56 426.767 2568.82 425.552 2570.38 425.119 2572.26 425.467 2572.26 421.567 2572.26 417.667 2572.26 413.767Z" fill="#848485" fill-rule="evenodd"/><path d="M1527.13 468.96C1526.49 892.934 1526.96 1316.92 1528.53 1740.91 1528.99 1796.27 1529.46 1851.63 1529.94 1906.99 1535.77 1902.55 1538.56 1896.62 1538.33 1889.22 1553.47 1852.33 1580.53 1827.94 1619.47 1816.08 1694.07 1813.54 1768.69 1811.72 1843.33 1810.62 1844.47 1810.2 1845.4 1809.51 1846.12 1808.57 1856.84 1784.79 1867.1 1761.09 1876.91 1737.5 1877.23 1738.31 1877.94 1738.76 1879.01 1738.86 1887.98 1738.27 1893.8 1733.94 1896.49 1725.87 1896.38 1724.36 1895.91 1722.99 1895.1 1721.77 1897.42 1720.77 1898.12 1719.18 1897.19 1716.99 1896.73 1717.9 1896.26 1718.81 1895.8 1719.72 1894.87 1717.9 1894.87 1716.07 1895.8 1714.26 1897.41 1715.56 1898.8 1715.1 1900 1712.89 1918.57 1711.79 1928.14 1701.77 1928.68 1682.8 1942.73 1683.4 1952.07 1676.79 1956.66 1662.99 1954.8 1657.75 1956.67 1653.18 1962.26 1649.32 1961.94 1648.78 1961.47 1648.55 1960.86 1648.64 2078.23 1635.6 2194.36 1614.86 2309.23 1586.44 2329.26 1584.15 2349.31 1583.91 2369.4 1585.76 2372.99 1588.65 2376.26 1591.84 2379.19 1595.32 2380.34 1599.35 2381.04 1603.46 2381.29 1607.63 2382.1 1717.48 2383.96 1827.29 2386.88 1937.06 2395.62 1958.55 2411.7 1966.96 2435.15 1962.35 2443.05 1959.66 2449.35 1954.87 2454.04 1947.99 2456.62 1943.81 2458.03 1939.24 2458.24 1934.33 2460 1838.65 2460.7 1742.98 2460.34 1647.27 2461.37 1647.44 2462.3 1647.21 2463.13 1646.59 2462.66 1640.67 2462.2 1634.74 2461.73 1628.81 2464.35 1625.7 2467.37 1624.55 2470.83 1625.4 2481.37 1622.39 2488.13 1615.77 2491.11 1605.59 2488.29 1601.14 2486.66 1596.34 2486.21 1591.23 2487.19 1590.05 2488.35 1589.15 2489.72 1588.49 2494.57 1590.91 2499.46 1593.19 2504.41 1595.32 2510.21 1594.22 2514.41 1591.02 2517 1585.76 2519.11 1581.4 2521.2 1577.08 2523.3 1572.77 2521.65 1568 2520.95 1562.77 2521.2 1557.06 2521.67 1558.42 2522.13 1559.79 2522.6 1561.15 2525.8 1562.49 2528.6 1564.31 2530.98 1566.62 2531.26 1564.05 2531.97 1561.76 2533.09 1559.79 2533.83 1693.34 2531.96 1826.84 2527.5 1960.3 2641.25 1962.73 2755.02 1963.65 2868.87 1963.04 2868.64 1602.15 2868.87 1241.29 2869.57 880.406 2869.83 691.768 2870.76 503.13 2872.38 314.494 2895.32 283.986 2918.86 283.529 2943.02 313.128 2944.19 424.304 2944.89 535.482 2945.13 646.668 2945.83 1085.45 2946.06 1524.25 2945.83 1963.04 2989.48 1961.31 3032.85 1963.84 3075.95 1970.55 3102.65 1995.85 3099.86 2017.26 3067.54 2034.81 2757.64 2037.18 2447.75 2038.32 2137.84 2038.22 1868.03 2038.51 1598.25 2037.38 1328.46 2034.81 1315.48 2026.48 1308.02 2014.85 1306.08 1999.94 1306.93 1994.15 1309.03 1988.67 1312.37 1983.54 1317.69 1976.97 1323.52 1970.83 1329.86 1965.09 1371.35 1963.25 1412.85 1962.57 1454.38 1963.04 1454.15 1657.76 1454.38 1352.46 1455.08 1047.18 1455.25 802.488 1456.41 557.807 1458.58 313.128 1481.85 283.798 1504.47 284.253 1526.44 314.494 1527.13 365.981 1527.37 417.47 1527.13 468.96Z" stroke="#000000" stroke-width="4.99583" stroke-miterlimit="8" fill-rule="evenodd"/><path d="M2533.06 1563.07C2531.95 1565.07 2531.25 1567.35 2530.97 1569.92 2528.58 1567.6 2525.79 1565.78 2522.59 1564.44 2522.12 1563.07 2521.66 1561.71 2521.2 1560.34 2520.96 1566.06 2521.66 1571.3 2523.29 1576.07 2521.21 1580.38 2519.1 1584.71 2517.01 1589.07 2514.42 1594.33 2510.23 1597.53 2504.43 1598.64 2499.5 1596.5 2494.61 1594.22 2489.77 1591.8 2488.4 1592.46 2487.24 1593.36 2486.28 1594.54 2486.72 1599.67 2488.35 1604.45 2491.16 1608.9 2488.19 1619.11 2481.44 1625.72 2470.91 1628.73 2467.47 1627.89 2464.45 1629.04 2461.83 1632.15 2462.3 1638.08 2462.76 1644.01 2463.23 1649.93 2462.4 1650.57 2461.47 1650.8 2460.44 1650.63 2461.41 1627.82 2462.11 1605.02 2462.53 1582.22 2455.76 1530 2427.12 1494.65 2376.62 1476.22 2354.1 1470.24 2331.28 1468.88 2308.19 1472.12 2226.29 1499.83 2144.34 1527.43 2062.35 1554.87 2043.68 1550.66 2031.35 1539.71 2025.33 1522.05 2024.4 1518.85 2024.4 1515.66 2025.33 1512.46 2051.09 1408.51 2078.57 1305.01 2107.74 1201.96 2117.74 1191.26 2130.08 1186.93 2144.76 1188.98 2225.94 1228.03 2306.96 1267.47 2387.81 1307.29 2398.66 1309.65 2408.9 1308.05 2418.54 1302.49 2488.39 1201.73 2555.44 1099.14 2619.67 994.737 2611.64 978.424 2599.53 965.892 2583.36 957.125 2575.15 959.654 2567.93 963.755 2561.7 969.425 2510.72 1038.06 2461.37 1107.82 2413.64 1178.71 2404.69 1190.04 2393.75 1198.92 2380.82 1205.39 2373.72 1206.51 2366.73 1206.06 2359.87 1204.01 2318.9 1183.96 2277.91 1163.9 2236.94 1143.83 2188.78 1141.93 2144.54 1128.25 2104.25 1102.79 2090.86 1093.62 2077.59 1084.27 2064.44 1074.76 2052.78 1078.06 2042.77 1083.99 2034.41 1092.54 1974.45 1229.1 1916.02 1366.35 1859.11 1504.27 1846.18 1568.51 1868.29 1617.07 1925.46 1649.93 1937.35 1653.62 1949.45 1654.31 1961.77 1651.99 1962.38 1651.89 1962.86 1652.13 1963.17 1652.68 1957.6 1656.54 1955.74 1661.1 1957.59 1666.34 1953 1680.16 1943.68 1686.77 1929.65 1686.19 1929.11 1705.16 1919.56 1715.18 1901.01 1716.27 1899.82 1718.49 1898.43 1718.96 1896.83 1717.65 1895.9 1719.47 1895.9 1721.3 1896.83 1723.12 1897.29 1722.2 1897.76 1721.3 1898.22 1720.39 1899.14 1722.58 1898.44 1724.16 1896.13 1725.17 1896.94 1726.39 1897.41 1727.76 1897.53 1729.27 1894.84 1737.34 1889.01 1741.68 1880.06 1742.27 1878.99 1742.16 1878.29 1741.71 1877.97 1740.9 1881.98 1731.73 1885.48 1722.59 1888.44 1713.54 1809.95 1668.34 1774.09 1600.85 1780.89 1511.1 1836.74 1367.29 1894.01 1224.58 1952.69 1082.96 1969.25 1050.55 1994.63 1027.3 2028.82 1013.2 1994.55 901.587 2027.61 815.182 2127.99 753.988 2227.21 713.934 2313.58 731.947 2387.11 808.014 2446 890.508 2447.39 973.946 2391.29 1058.34 2375.66 1077.96 2357.27 1094.59 2336.11 1108.27 2339.59 1114.39 2344.7 1118.49 2351.49 1120.57 2354.39 1121.68 2357.18 1121.46 2359.87 1119.89 2412.04 1053.92 2462.09 986.45 2510.02 917.449 2529.56 901.15 2551.68 889.301 2576.38 881.886 2614.06 806.575 2671.8 787.209 2749.57 823.745 2800.45 865.167 2810.46 914.628 2779.6 972.158 2755.91 1003.27 2724.48 1022.42 2685.32 1029.62 2614.67 1138.22 2543.21 1246.29 2470.91 1353.8 2441.24 1377.98 2407.48 1385.96 2369.65 1377.73 2301.45 1344.57 2233.47 1311.06 2165.71 1277.2 2144.19 1336.97 2129.3 1398.06 2121.02 1460.49 2191.61 1432.27 2264.26 1410.39 2338.92 1394.83 2444.18 1405.81 2508.9 1461.88 2533.06 1563.07Z" stroke="#000000" stroke-width="4.99583" stroke-miterlimit="8" fill-rule="evenodd"/><path d="M2186.55 806.835C2305.44 800.013 2361.04 854.457 2353.38 970.136 2320.16 1046.86 2261.78 1075.68 2178.18 1056.54 2170.51 1054.35 2163.07 1051.63 2155.85 1048.38 2098.27 1009.32 2078.5 956.478 2096.52 889.846 2114.11 849.336 2144.13 821.657 2186.55 806.835Z" stroke="#000000" stroke-width="4.99583" stroke-miterlimit="8" fill-rule="evenodd"/><path d="M2678.87 867.28C2692.3 867.031 2704.92 869.992 2716.72 876.161 2726.37 884.357 2729.87 894.609 2727.22 906.917 2724.88 930.747 2711.57 940.547 2687.28 936.303 2682.43 932.949 2677.99 929.07 2673.97 924.695 2668.82 918.307 2663.69 911.934 2658.55 905.546 2656.13 887.944 2662.91 875.184 2678.87 867.28Z" stroke="#000000" stroke-width="4.99583" stroke-miterlimit="8" fill="#FFFFFF" fill-rule="evenodd"/><path d="M2460.87 1650.75C2461.23 1746.52 2460.54 1842.27 2458.78 1938 2458.56 1942.92 2457.17 1947.49 2454.58 1951.69 2449.91 1958.56 2443.62 1963.34 2435.73 1966.05 2412.33 1970.65 2396.27 1962.22 2387.55 1940.74 2384.65 1830.89 2382.79 1721.01 2381.96 1611.09 2381.71 1606.92 2381.02 1602.81 2379.87 1598.78 2376.95 1595.3 2373.68 1592.1 2370.09 1589.21 2350.05 1587.36 2330.03 1587.59 2310.05 1589.89 2195.38 1618.33 2079.45 1639.08 1962.3 1652.13 1949.98 1654.44 1937.88 1653.76 1925.99 1650.07 1868.85 1617.21 1846.73 1568.64 1859.65 1504.39 1916.56 1366.5 1974.98 1229.25 2034.92 1092.68 2043.29 1084.13 2053.3 1078.22 2064.94 1074.91 2078.09 1084.41 2091.36 1093.75 2104.76 1102.94 2145.03 1128.4 2189.26 1142.07 2237.42 1143.98 2278.38 1164.03 2319.36 1184.1 2360.32 1204.16 2367.17 1206.21 2374.16 1206.66 2381.26 1205.52 2394.2 1199.07 2405.14 1190.18 2414.09 1178.86 2461.8 1107.97 2511.14 1038.21 2562.12 969.575 2568.35 963.907 2575.56 959.794 2583.76 957.266 2599.95 966.043 2612.04 978.57 2620.08 994.875 2555.85 1099.28 2488.82 1201.86 2418.97 1302.64 2409.34 1308.19 2399.1 1309.79 2388.25 1307.44 2307.42 1267.62 2226.41 1228.18 2145.25 1189.12 2130.58 1187.07 2118.24 1191.4 2108.24 1202.11 2079.08 1305.14 2051.61 1408.64 2025.84 1512.61 2024.91 1515.8 2024.91 1518.99 2025.84 1522.18 2031.86 1539.85 2044.2 1550.8 2062.85 1555.01 2144.83 1527.56 2226.76 1499.98 2308.64 1472.25 2331.73 1469.02 2354.55 1470.39 2377.08 1476.36 2427.57 1494.8 2456.19 1530.13 2462.96 1582.36 2462.54 1605.15 2461.85 1627.95 2460.87 1650.75Z" stroke="#000000" stroke-width="4.99583" stroke-miterlimit="8" fill-rule="evenodd"/><path d="M2321.53 1662.27C2328.52 1662.27 2335.5 1662.27 2342.49 1662.27 2341.54 1761.07 2343.39 1859.81 2348.08 1958.5 2260.14 1963.22 2172.15 1965.05 2084.08 1963.96 2101.99 1877.57 2121.78 1791.56 2143.45 1705.95 2202.76 1690.77 2262.13 1676.2 2321.53 1662.27Z" stroke="#000000" stroke-width="4.99583" stroke-miterlimit="8" fill="#C5E0B4" fill-rule="evenodd"/><path d="M1996.74 1717.27C2008.85 1717.27 2020.97 1717.27 2033.08 1717.27 2015.12 1795.84 1996.25 1874.31 1976.49 1952.64 1975.09 1956.97 1972.54 1960.39 1968.8 1962.91 1857.5 1966.87 1746.17 1967.32 1634.82 1964.28 1622.98 1959.21 1614.38 1950.78 1608.97 1938.96 1605.08 1927.29 1607.18 1916.81 1615.26 1907.49 1619.71 1902.9 1624.36 1898.57 1629.23 1894.49 1717.82 1893.08 1806.32 1889.65 1894.74 1884.22 1919.28 1833.8 1940.93 1782.24 1959.71 1729.58 1960.87 1728.45 1962.04 1727.3 1963.2 1726.16 1974.67 1723.58 1985.85 1720.61 1996.74 1717.27Z" stroke="#000000" stroke-width="4.99583" stroke-miterlimit="8" fill-rule="evenodd"/></g></svg>