<svg width="2437" height="2515" xmlns="http://www.w3.org/2000/svg" xmlns:xlink="http://www.w3.org/1999/xlink" xml:space="preserve" overflow="hidden"><g transform="translate(-22 23)"><path d="M25.4999 1234.5C25.4999 541.935 569.474-19.5001 1240.5-19.5001 1911.53-19.5001 2455.5 541.935 2455.5 1234.5 2455.5 1927.06 1911.53 2488.5 1240.5 2488.5 569.474 2488.5 25.4999 1927.06 25.4999 1234.5Z" stroke="#042433" stroke-width="6.875" stroke-miterlimit="8" fill-rule="evenodd"/><path d="M1192 355C1184.81 355.433 1177.61 355.867 1170.42 356.083 982.267 365.396 799.133 429.292 644.341 542.57 502.412 646.534 387.517 790.785 319.931 960.594 282.65 1053.95 260.849 1151.41 254.526 1253 254.308 1257.76 253.654 1269.02 253 1287" stroke="#7E7E7E" stroke-width="3.56056" stroke-miterlimit="8" fill="none" fill-rule="evenodd"/><path d="M1247 355C1255.94 355.434 1264.66 355.867 1273.61 356.3 1500.84 368.435 1719.79 459.663 1890.33 621.317 1965.78 692.826 2028.15 774.736 2077.65 867.264 2137.19 978.645 2173.39 1101.94 2184.51 1228.71 2186.26 1248 2187.13 1267.5 2188 1287" stroke="#7E7E7E" stroke-width="3.56056" stroke-miterlimit="8" fill="none" fill-rule="evenodd"/><path d="M2188 1338C2186.91 1361.61 2186.04 1377.21 2185.38 1384.79 2174.91 1513.47 2140.65 1634.14 2082.39 1746.78 2013.87 1879.15 1915.46 1992.44 1799.37 2078.01 1644.45 2192.18 1461.15 2257.17 1272.4 2266.7 1263.67 2267.13 1254.95 2267.57 1246 2268" stroke="#7E7E7E" stroke-width="3.56056" stroke-miterlimit="8" fill="none" fill-rule="evenodd"/><path d="M1193 2268C1178.38 2267.35 1163.54 2266.48 1148.92 2265.4 1042.66 2257.82 940.326 2233.34 842.137 2192.17 623.938 2100.53 439.123 1927.86 336.788 1701.46 288.785 1595.3 261.291 1482.86 254.309 1364.56 253.873 1356.12 253.437 1347.67 253 1339" stroke="#7E7E7E" stroke-width="3.56056" stroke-miterlimit="8" fill="none" fill-rule="evenodd"/><path d="M2447 1237.5C2447 1920.81 1909.58 2475 1246.5 2475 583.419 2475 46.0001 1920.81 46.0001 1237.5 46.0001 554.194 583.419 0 1246.5 0 1909.58 0 2447 553.91 2447 1237.5Z" fill="#E4171E" fill-rule="evenodd"/><path d="M1790.48 1090.42C1778.05 1095.17 1765.18 1098.62 1752.32 1100.35 1746.43 1101.22 1740.1 1101.22 1733.78 1100.35 1723.31 1099.06 1713.06 1097.33 1702.59 1094.95 1699.1 1094.09 1697.79 1096.47 1695.61 1098.62 1695.39 1099.06 1694.96 1099.27 1694.52 1099.27 1692.99 1099.49 1691.47 1099.06 1690.16 1097.98 1685.14 1093.87 1680.34 1089.99 1675.54 1086.32 1672.71 1084.16 1673.36 1079.19 1670.31 1076.17 1667.69 1073.79 1665.73 1070.77 1664.2 1067.53 1662.46 1063.86 1667.47 1059.32 1670.31 1058.46 1690.38 1052.2 1708.7 1040.75 1722.65 1025.42 1731.16 1015.92 1731.6 1005.34 1724.18 993.677 1723.96 993.245 1723.53 993.029 1723.09 992.813 1712.19 988.494 1701.93 988.926 1691.9 993.893 1674.02 1002.75 1656.35 1013.33 1638.47 1025.42 1638.03 1025.85 1637.59 1025.64 1637.59 1024.99 1636.5 1002.31 1636.94 982.448 1638.69 965.388 1639.34 960.422 1640.87 953.943 1643.7 946.385 1650.46 927.814 1660.93 913.13 1674.89 902.333 1684.05 895.207 1695.61 889.161 1706.51 885.921 1710.88 884.626 1716.11 883.546 1722.22 882.466 1734.65 880.307 1747.3 881.171 1759.95 881.171 1767.37 881.171 1774.13 881.819 1780.23 883.33 1807.28 890.24 1830.18 905.572 1843.7 931.917 1858.32 959.99 1862.46 989.358 1856.13 1020.02 1854.39 1029.09 1851.34 1037.51 1847.41 1045.07 1839.78 1059.76 1830.4 1072.06 1819.27 1081.78 1816.88 1083.94 1810.55 1087.4 1800.95 1092.15 1797.46 1093.87 1795.06 1093.23 1792.45 1090.64 1791.58 1090.42 1791.14 1090.2 1790.48 1090.42Z" fill="#040404" fill-rule="evenodd"/><path d="M581.476 1131.84C567.177 1127.08 555.299 1118.85 547.16 1106.94 537.922 1093.31 538.802 1074.69 543.201 1059.32 544.521 1054.34 546.94 1048.93 550.02 1043.08 561.238 1021.87 573.777 1003.9 587.635 988.963 597.313 978.573 610.291 966.233 626.789 952.162 627.229 951.946 627.449 951.946 627.889 952.162 629.648 954.11 630.309 956.275 629.869 958.656 620.19 1016.24 605.672 1072.52 586.535 1127.72 585.875 1129.46 584.775 1130.97 583.015 1131.84 582.355 1132.05 581.916 1132.05 581.476 1131.84Z" fill="#040404" fill-rule="evenodd"/><path d="M972.665 1230.57C980.304 1237.07 986.633 1243.78 991.434 1250.72 992.525 1252.02 993.18 1253.75 993.616 1255.48 998.854 1275.42 994.053 1291.66 978.776 1303.8 976.594 1305.53 974.193 1306.83 971.792 1307.7 956.952 1312.9 943.858 1309.86 932.51 1298.81 930.109 1296.43 928.363 1293.83 927.271 1290.8 925.089 1284.51 923.562 1278.66 922.907 1272.82 920.506 1252.45 932.073 1236.63 948.877 1229.27 951.933 1227.97 954.988 1226.45 957.825 1224.72 958.043 1224.5 958.262 1224.07 958.043 1223.85L957.825 1223.42C957.607 1222.77 956.952 1222.55 956.297 1222.77 933.819 1230.35 911.776 1239.45 889.953 1250.28 889.08 1250.72 888.207 1250.72 887.552 1250.28 836.047 1227.97 784.761 1206.95 734.13 1186.81 725.618 1183.34 717.544 1179.87 710.342 1176.19 692.664 1167.31 675.205 1158.42 657.746 1149.54 657.091 1149.11 656.437 1149.32 655.782 1149.97 655.564 1150.41 655.564 1151.27 655.782 1152.57 659.056 1165.79 660.583 1179.01 660.583 1192.22 660.583 1195.47 659.056 1197.2 656.218 1197.64 652.509 1198.07 642.906 1199.59 641.815 1204.14 638.76 1215.4 640.287 1226.24 646.398 1235.98 647.271 1237.5 647.707 1237.28 647.707 1235.55 647.052 1221.47 655.564 1216.7 667.348 1221.25 668.876 1221.9 670.404 1222.12 672.15 1221.9 681.316 1220.6 688.954 1216.49 695.283 1209.34 695.72 1208.9 695.72 1208.47 695.283 1208.04 692.228 1205 688.954 1202.84 684.808 1201.32 682.189 1200.45 680.006 1198.29 678.26 1195.25 673.459 1187.02 682.625 1181.17 688.954 1182.91 702.049 1186.37 711.215 1189.4 716.889 1191.79 743.296 1203.27 769.267 1214.54 794.364 1225.37 807.022 1230.79 819.461 1236.2 831.683 1241.4 840.194 1245.08 848.051 1248.77 854.816 1252.45 862.236 1256.57 869.438 1260.47 875.985 1264.58 879.041 1266.53 882.314 1270 885.806 1274.98 886.025 1275.42 886.025 1275.85 885.806 1276.28 884.715 1278.45 882.751 1279.53 880.35 1279.32 871.402 1278.88 863.328 1279.32 856.344 1280.4 855.907 1280.4 855.689 1280.61 855.689 1281.05 855.034 1283.21 855.034 1285.38 855.471 1287.33 856.562 1291.88 857.871 1296.43 858.963 1301.2 862.236 1313.98 864.419 1325.68 865.292 1336.51 865.51 1339.54 864.419 1343.88 863.109 1346.69 861.145 1350.59 858.09 1349.73 854.816 1348.64 796.546 1326.54 737.185 1301.85 676.296 1274.12 675.424 1273.68 674.987 1273.68 674.769 1273.68 673.896 1274.33 673.896 1275.2 674.769 1275.85 713.397 1307.26 743.296 1345.61 764.465 1390.46 767.957 1398.04 769.921 1407.57 772.103 1416.24 784.543 1468.67 784.543 1522.4 765.338 1572.01 750.061 1611.44 724.309 1643.72 693.755 1671.24 687.427 1676.87 680.443 1682.07 672.805 1686.62 658.837 1694.85 645.961 1701.57 634.395 1706.55 603.841 1719.55 572.196 1724.97 539.242 1722.37 503.014 1719.55 467.223 1705.25 434.924 1684.67 411.354 1669.5 390.839 1649.14 374.69 1626.39 354.83 1598.44 341.735 1566.59 335.407 1531.06 331.697 1509.83 330.387 1489.03 331.26 1468.45 332.133 1453.07 334.534 1436.39 338.898 1418.4 352.211 1363.81 380.582 1320.26 424.012 1287.55 435.578 1278.66 449.109 1270.43 464.604 1262.42 497.995 1245.3 535.314 1237.72 572.415 1239.67 572.851 1239.67 573.069 1239.45 573.287 1239.02 584.854 1185.94 597.73 1133.08 612.134 1080.65 617.154 1062.66 622.391 1049.66 633.521 1036.02 635.486 1033.63 638.104 1031.9 641.815 1030.82 644.215 1030.17 646.616 1030.17 649.453 1031.25 658.401 1034.5 666.694 1038.4 674.987 1042.52 677.388 1043.6 679.57 1042.08 680.879 1040.13 689.609 1026.05 699.866 1012.4 712.088 999.185 715.143 995.719 719.071 992.686 723.436 989.653 761.41 964.954 801.566 954.772 844.341 958.888 853.07 959.755 861.364 961.055 869.656 962.788 941.894 978.82 1009.11 1013.48 1064.54 1064.61 1092.04 1089.96 1117.14 1117.26 1139.84 1146.51 1140.05 1146.94 1140.05 1147.59 1139.84 1148.02 1130.89 1159.29 1123.25 1171.86 1116.48 1185.72 1116.05 1186.37 1116.05 1187.24 1116.05 1188.1 1117.14 1196.99 1118.01 1206.74 1118.67 1217.14 1118.89 1218.87 1118.45 1220.39 1117.58 1221.9 1111.25 1233.6 1103.39 1244.65 1094.01 1254.4 1093.79 1254.62 1093.35 1254.83 1092.92 1254.62 1083.97 1251.8 1074.36 1249.2 1064.11 1246.6 1042.72 1241.4 1021.33 1236.85 1000.38 1232.95 990.561 1231.22 981.831 1229.7 973.538 1228.62 971.792 1229.49 971.792 1229.92 972.665 1230.57Z" fill="#040404" fill-rule="evenodd"/><path d="M699.186 975.699C702.916 986.1 700.941 994.334 692.821 1000.62 691.504 1001.48 689.749 1000.83 689.529 999.101 688.212 989.567 686.018 980.683 683.165 972.015 682.945 971.582 682.945 971.149 683.165 970.499L685.359 965.731C685.579 965.081 686.018 964.865 686.676 965.081 693.04 966.598 697.21 970.065 699.186 975.699Z" fill="#040404" fill-rule="evenodd"/><path d="M679.724 998.495C676.253 1008.2 669.962 1013.59 661.067 1016.61 659.331 1017.26 657.596 1017.04 655.861 1016.39 642.844 1010.36 636.335 1000.87 640.023 984.263 641.325 978.44 650.003 971.755 654.559 968.089 656.294 966.579 658.03 967.011 659.983 967.226 669.528 968.52 676.036 974.127 679.508 983.616 681.46 988.576 681.46 993.535 679.724 998.495Z" fill="#040404" fill-rule="evenodd"/><path d="M1859.7 1616.04C1860.57 1623.83 1859.7 1630.98 1857.52 1637.9 1848.78 1665.4 1837.65 1691.16 1824.55 1715.4 1812.54 1737.27 1788.74 1741.81 1766.04 1739.43 1756.65 1738.35 1746.39 1734.24 1735.47 1726.88 1721.93 1718 1716.47 1697 1718 1681.63 1719.97 1662.37 1725.21 1642.45 1731.98 1623.4 1744.42 1588.33 1757.96 1553.48 1772.59 1519.06 1772.8 1518.62 1772.8 1518.41 1773.02 1517.98 1773.46 1517.11 1773.9 1516.68 1774.77 1516.89 1775.86 1517.11 1776.08 1516.68 1775.42 1515.59 1764.07 1497.19 1761.89 1475.11 1772.8 1455.85 1778.26 1446.32 1783.28 1440.91 1792.02 1432.47 1818.44 1406.71 1847.26 1383.33 1878.69 1362.33 1878.91 1362.11 1878.91 1361.68 1878.91 1361.46 1866.47 1344.79 1853.37 1328.13 1839.39 1311.46 1839.18 1311.02 1838.52 1311.24 1838.52 1311.67 1836.56 1327.26 1832.63 1341.33 1826.29 1354.32 1825.42 1356.05 1824.33 1357.78 1822.8 1359.3 1808.83 1373.8 1795.07 1385.71 1781.54 1394.58 1758.39 1409.74 1731.54 1426.62 1701.41 1444.59 1700.97 1444.81 1700.75 1444.81 1700.32 1444.37 1692.02 1435.06 1686.34 1427.7 1683.29 1422.29 1673.68 1405.19 1663.42 1387.01 1652.5 1367.96 1652.28 1367.52 1651.63 1367.31 1651.19 1367.74 1643.33 1374.67 1634.82 1378.56 1624.34 1379 1624.12 1379 1623.68 1379 1623.46 1378.78 1613.42 1370.77 1604.47 1362.11 1596.39 1353.24 1591.81 1348.04 1587.22 1343.5 1582.64 1339.82 1568.88 1328.77 1555.56 1320.33 1542.46 1314.49 1540.72 1313.62 1538.53 1313.41 1536.35 1313.62 1526.74 1314.7 1528.49 1325.53 1532.86 1331.16 1538.32 1338.3 1543.77 1345.66 1549.01 1353.02 1560.8 1369.69 1567.79 1386.57 1572.59 1406.49 1573.25 1409.52 1573.25 1412.12 1572.59 1414.5 1571.06 1419.7 1568.44 1423.81 1564.51 1426.84 1559.93 1430.3 1554.91 1433.55 1549.45 1436.36 1545.3 1438.53 1540.06 1443.51 1540.06 1448.92 1540.28 1467.75 1540.06 1486.59 1539.41 1505.42 1539.41 1506.29 1538.97 1506.5 1538.32 1506.07 1536.57 1504.77 1535.48 1502.82 1535.26 1500.44 1534.39 1491.13 1531.77 1482.04 1527.18 1473.16 1524.56 1468.19 1517.57 1467.1 1512.99 1467.54 1511.9 1467.54 1511.9 1467.97 1512.77 1468.4 1513.64 1469.05 1514.74 1469.48 1515.83 1470.13 1521.29 1473.16 1525 1477.49 1527.18 1483.12 1527.4 1483.56 1527.4 1483.99 1527.18 1484.42 1525.87 1489.83 1522.16 1492.86 1516.05 1493.51 1511.02 1493.95 1491.81 1494.81 1495.74 1484.21 1496.61 1481.61 1497.27 1479.01 1497.27 1476.2 1497.27 1475.11 1496.83 1475.11 1496.4 1475.76 1492.68 1480.31 1489.85 1485.29 1487.66 1490.92 1486.13 1494.81 1485.04 1500.01 1484.17 1506.29 1482.42 1520.36 1480.24 1534.86 1478.06 1549.8 1476.96 1556.73 1471.29 1558.02 1466.05 1556.08 1452.73 1550.88 1442.47 1543.52 1435.04 1534.21 1425.44 1521.87 1416.92 1508.02 1410.15 1492.43 1409.94 1492 1409.5 1491.78 1409.06 1491.78 1381.12 1493.51 1350.33 1497.84 1316.49 1504.77 1311.47 1505.85 1308.41 1510.62 1309.5 1515.81 1314.09 1539.19 1321.07 1559.97 1330.46 1577.72 1350.99 1617.12 1383.08 1645.05 1422.6 1661.5 1430.24 1664.75 1438.32 1667.13 1446.83 1668.64 1461.24 1671.24 1474.56 1672.32 1487.01 1672.11 1526.53 1670.81 1563.2 1655.22 1593.77 1629.68 1595.95 1627.95 1597.26 1625.56 1597.7 1622.53 1597.92 1621.45 1598.36 1620.37 1599.45 1619.5 1608.18 1611.71 1615.82 1603.7 1622.81 1596.12 1624.12 1594.61 1625.21 1592.88 1626.08 1590.93 1628.92 1584.43 1631.76 1577.29 1634.16 1569.93 1635.25 1566.25 1638.31 1565.17 1639.62 1561.92 1647.48 1540.71 1652.28 1519.06 1653.81 1496.76 1654.9 1483.34 1659.05 1472.73 1667.79 1462.99 1668.22 1462.56 1668.22 1461.69 1667.79 1461.48 1666.91 1460.83 1665.82 1460.18 1664.73 1460.39 1661.89 1460.61 1658.62 1460.83 1654.69 1461.04 1641.8 1461.91 1628.05 1458.66 1621.06 1445.89 1616.04 1436.8 1616.26 1425.76 1617.57 1415.15 1618.22 1409.3 1619.53 1404.33 1621.72 1400.43 1626.96 1391.12 1636.35 1380.95 1646.83 1390.04 1650.97 1393.72 1654.47 1398.05 1657.31 1403.46 1663.42 1414.93 1669.31 1426.84 1675.43 1439.61 1680.89 1451.08 1689.62 1457.15 1702.06 1454.76 1702.94 1454.55 1703.59 1454.98 1703.59 1456.06 1709.71 1504.55 1703.59 1550.88 1685.25 1595.26 1685.03 1595.91 1685.03 1596.56 1685.69 1597.21 1686.56 1598.07 1687.22 1598.94 1687.65 1599.8 1687.87 1600.45 1687.87 1601.1 1687.65 1601.75 1674.99 1627.51 1659.27 1648.29 1640.71 1664.31 1623.68 1679.03 1602.07 1693.54 1576.52 1707.61 1568.66 1711.94 1560.8 1715.4 1552.94 1718.43 1536.79 1724.06 1522.38 1727.74 1509.5 1729.26 1489.41 1731.64 1467.58 1730.99 1446.83 1726.88 1429.15 1723.41 1412.34 1718.65 1396.4 1712.37 1389.19 1709.56 1382.21 1708.48 1375 1707.39 1374.13 1707.18 1373.04 1706.74 1372.38 1706.09 1360.59 1694.84 1349.02 1684.01 1337.89 1673.84 1319.98 1657.39 1305.35 1638.55 1292.47 1617.99 1288.11 1610.84 1283.96 1603.05 1280.03 1594.18 1271.08 1573.83 1262.34 1553.48 1254.26 1532.91 1254.05 1532.7 1253.83 1532.48 1253.61 1532.7 1235.71 1541.14 1216.49 1549.8 1196.41 1558.24 1190.08 1560.84 1183.96 1563 1178.29 1564.09 1168.02 1566.25 1157.76 1568.2 1147.94 1569.5 1113.22 1574.26 1078.73 1573.18 1044.45 1566.25 1018.25 1560.84 992.703 1552.18 967.595 1540.06 939.648 1526.63 913.23 1507.37 896.2 1479.88 881.79 1456.5 875.022 1429.65 876.114 1399.78 876.769 1381.16 880.044 1361.25 885.938 1340.25 889.869 1325.74 895.545 1311.67 902.969 1297.82 906.68 1290.89 912.357 1288.29 918.907 1293.27 923.055 1296.52 921.963 1302.8 919.999 1307.13 911.92 1323.36 905.589 1338.08 901.003 1351.29 898.82 1357.35 897.074 1365.58 895.763 1375.75 891.833 1406.06 896.2 1433.55 908.645 1458.44 915.414 1472.08 923.71 1483.56 933.099 1493.08 936.592 1496.54 941.832 1500.66 948.818 1505.2 979.385 1525.34 1011.7 1538.54 1046.41 1545.04 1073.27 1550.23 1101.21 1552.18 1129.82 1551.31 1140.08 1551.1 1148.37 1550.45 1155.14 1549.58 1180.69 1546.33 1204.7 1536.81 1226.97 1520.79 1228.5 1519.71 1228.5 1519.06 1226.54 1519.27 1192.7 1523.17 1159.29 1526.42 1126.1 1529.02 1117.37 1529.67 1108.86 1530.1 1101 1530.31 1078.51 1530.96 1057.98 1530.31 1039.64 1528.37 1026.76 1527.07 1012.79 1523.6 998.161 1517.98 957.77 1502.82 930.697 1470.57 920.435 1426.62 916.942 1412.12 915.195 1396.32 914.758 1379.65 914.322 1362.33 917.815 1345.66 925.02 1329.86 926.766 1326.18 929.387 1322.71 932.88 1319.47 943.578 1309.72 954.277 1314.92 962.136 1324.66 962.355 1325.1 962.573 1325.53 962.791 1325.96 963.665 1333.1 965.193 1339.82 964.32 1347.39 963.01 1361.9 962.355 1377.48 962.355 1394.15 962.355 1405.41 963.447 1414.28 965.193 1420.99 968.468 1432.47 975.018 1441.99 984.406 1449.14 990.083 1453.47 997.943 1457.15 1007.99 1459.96 1042.05 1469.7 1075.01 1471.43 1107.11 1465.37 1147.72 1457.58 1192.7 1445.02 1242.26 1427.92 1251.43 1424.67 1257.98 1418.83 1264.31 1411.9 1268.46 1407.36 1270.2 1401.08 1272.6 1395.67 1299.9 1337 1341.82 1293.49 1397.93 1265.13 1405.79 1261.23 1413.65 1257.99 1421.29 1255.61 1427.62 1253.66 1435.92 1252.36 1445.96 1251.49 1484.39 1248.68 1522.38 1252.58 1559.93 1263.18 1565.39 1264.7 1570.41 1266.86 1575.21 1269.46 1607.31 1287.21 1635.25 1310.16 1659.49 1338.52 1662.76 1342.2 1665.17 1346.53 1666.91 1351.29 1667.13 1351.72 1667.57 1351.72 1667.79 1351.72 1681.1 1343.5 1694.42 1334.62 1707.96 1324.88 1713.85 1320.55 1718.88 1316 1722.81 1311.24 1732.41 1299.33 1738.96 1286.35 1742.46 1272.27 1744.2 1265.13 1745.29 1256.69 1745.73 1246.95 1746.82 1224.65 1747.91 1201.7 1749.44 1177.89 1749.88 1171.61 1750.75 1166.63 1751.84 1162.52 1755.34 1151.91 1760.36 1143.9 1768.44 1136.33 1798.57 1107.1 1828.26 1083.29 1857.73 1064.89 1870.4 1057.1 1884.81 1051.47 1900.96 1048.22 1909.26 1046.49 1916.03 1045.84 1923.89 1049.52 1924.54 1049.95 1925.42 1049.52 1925.85 1048.87L1928.26 1044.32C1928.47 1043.89 1928.91 1043.89 1929.13 1044.32 1981.09 1112.08 2033.06 1180.06 2085.24 1248.25 2089.6 1253.87 2093.1 1259.29 2095.72 1264.48 2102.05 1276.6 2106.85 1289.16 2110.56 1301.93 2110.78 1303.01 2111 1304.1 2111 1305.4 2111 1310.59 2111 1316.22 2111 1322.06 2111 1324.23 2110.56 1326.39 2109.47 1328.34 2104.45 1338.3 2097.03 1346.09 2088.73 1354.1 2076.5 1366.01 2064.5 1377.27 2051.18 1388.09 2007.29 1423.81 1962.97 1458.44 1918.21 1492.43 1917.78 1492.86 1917.78 1493.51 1917.99 1493.95 1962.53 1540.71 2005.76 1588.76 2047.25 1638.12 2055.98 1648.51 2059.47 1660.42 2057.73 1674.49 2055.11 1696.79 2046.16 1719.3 2026.51 1728.61 2014.93 1734.02 2003.36 1734.02 1990.7 1732.07 1988.08 1731.64 1985.46 1730.56 1982.4 1729.04 1963.41 1718 1945.07 1703.5 1927.6 1685.75 1903.37 1661.07 1881.32 1638.12 1861.67 1616.47 1859.92 1614.96 1859.7 1614.96 1859.7 1616.04Z" fill="#040404" fill-rule="evenodd"/><path d="M1522.02 1094.25C1511.36 1101.44 1499.83 1107.75 1488.09 1112.76 1456.55 1126.04 1425.88 1139.1 1395.87 1151.94 1395.43 1152.16 1395 1151.72 1395 1151.29 1395.43 1123.64 1396.52 1096.43 1398.04 1069.65 1398.04 1069.22 1398.26 1068.78 1398.91 1068.78 1434.58 1064.64 1470.25 1059.85 1505.92 1054.41 1509.18 1053.98 1512.23 1053.76 1514.84 1054.41 1521.36 1055.5 1528.54 1059.85 1531.15 1067.04 1532.67 1071.39 1534.2 1079.88 1531.59 1084.24 1528.98 1087.94 1525.93 1091.86 1522.02 1094.25Z" fill="#040404" fill-rule="evenodd"/><path d="M1316.55 1182.13C1318.73 1182.78 1321.35 1182.78 1324.41 1182.13 1337.51 1179.1 1350.62 1175.86 1363.72 1172.61 1364.81 1172.4 1364.81 1172.61 1364.16 1173.26 1314.8 1218.23 1263.92 1264.28 1211.95 1311.63 1209.11 1314.22 1206.27 1315.95 1202.99 1317.46 1189.67 1322.87 1186.83 1313.14 1185.74 1301.9 1185.74 1301.47 1185.74 1301.03 1185.96 1300.82 1189.24 1294.33 1192.95 1289.57 1197.32 1286.12 1199.72 1284.17 1202.56 1282.22 1205.61 1280.06 1208.89 1277.9 1212.17 1275.09 1215.88 1271.85 1222.87 1265.36 1225.49 1257.15 1220.68 1247.63 1220.46 1247.2 1220.25 1246.99 1219.81 1246.99 1215.01 1245.69 1210.2 1245.47 1205.61 1245.9 1187.27 1248.07 1168.05 1250.23 1147.96 1252.82 1143.81 1253.25 1140.1 1253.47 1137.04 1252.82 1132.46 1252.17 1116.52 1249.8 1123.94 1240.5 1126.34 1237.47 1129.18 1234.88 1132.89 1232.72 1135.3 1231.2 1138.57 1229.69 1142.72 1228.61 1179.41 1218.02 1218.72 1206.77 1260.86 1195.1 1266.32 1193.59 1272 1191.64 1278.12 1189.48 1279.86 1188.83 1281.39 1188.18 1282.92 1187.32 1283.36 1187.1 1283.36 1186.88 1283.36 1186.45 1283.36 1186.24 1283.14 1186.24 1283.14 1186.02 1283.14 1185.8 1282.92 1185.8 1282.7 1185.8 1273.31 1186.24 1265.23 1187.32 1258.24 1188.83 1233.13 1194.45 1204.09 1201.15 1171.11 1209.37 1159.97 1212.18 1148.84 1213.26 1137.7 1213.04 1135.3 1213.04 1132.89 1212.18 1130.71 1210.66 1120.88 1203.75 1120.88 1191.42 1127 1181.7 1129.62 1177.59 1132.24 1173.7 1134.86 1170.02 1145.78 1155.32 1163.9 1146.89 1181.16 1143.86 1234.44 1134.35 1287.29 1123.97 1339.26 1112.73 1344.5 1111.65 1349.53 1111 1354.11 1111 1362.41 1111 1370.27 1111.22 1377.91 1111.86 1384.68 1112.51 1387.09 1117.92 1385.56 1124.4 1382.94 1136.29 1380.54 1147.32 1378.35 1157.48 1378.13 1158.13 1377.7 1158.78 1377.26 1158.99L1316.99 1179.97C1314.58 1180.83 1314.58 1181.48 1316.55 1182.13Z" fill="#040404" fill-rule="evenodd"/><path d="M1306.9 1313.73C1298.48 1319.97 1287.25 1319.11 1280.55 1312.87 1277.1 1309.86 1273.86 1304.7 1272.56 1300.18 1271.91 1298.46 1271.91 1296.53 1272.13 1294.38 1273.21 1284.91 1276.88 1277.39 1283.14 1272.01 1290.7 1265.56 1299.78 1258.68 1309.93 1251.8 1311.87 1250.51 1313.38 1249 1315.97 1249 1323.1 1249.21 1329.37 1253.3 1333.47 1259.32 1335.41 1262.33 1338.01 1265.34 1340.6 1268.14 1343.62 1271.15 1345.57 1276.53 1342.33 1280.18 1331.53 1293.3 1319.65 1304.27 1306.9 1313.73Z" fill="#040404" fill-rule="evenodd"/><path d="M1147.23 1348.8C1147.88 1345.77 1147.67 1342.95 1146.58 1340.13 1135.48 1313.92 1119.37 1292.47 1098.03 1275.57 1097.38 1275.14 1096.94 1274.27 1096.51 1273.62 1094.55 1268.21 1094.33 1262.57 1096.07 1256.73 1096.29 1256.29 1096.51 1256.08 1096.94 1256.08 1100.21 1255.86 1102.6 1256.08 1104.13 1257.16 1137 1279.69 1157.9 1311.32 1166.82 1352.05 1169 1362.45 1168.56 1369.16 1162.03 1377.18 1161.82 1377.61 1161.38 1377.61 1160.94 1377.39 1157.68 1374.79 1154.85 1371.98 1152.45 1368.95 1152.02 1368.51 1151.8 1368.51 1151.58 1369.16 1150.06 1376.53 1148.75 1384.11 1147.45 1391.91 1147.01 1394.51 1146.14 1396.24 1145.05 1397.11 1141.14 1400.36 1136.13 1401.44 1132.21 1397.33 1129.82 1394.73 1128.29 1392.13 1127.64 1389.09 1125.9 1381.08 1124.59 1373.5 1121.76 1365.91 1118.06 1355.51 1113.92 1345.98 1109.57 1337.53 1107.61 1333.63 1105 1329.3 1101.73 1324.53 1093.24 1311.75 1078.88 1302.65 1065.16 1297.67 1059.28 1295.5 1052.1 1294.2 1043.61 1293.55 1031.85 1292.69 1020.1 1291.6 1008.56 1290.52 1006.38 1290.3 1004.64 1289.22 1003.12 1287.49 996.806 1280.34 998.33 1272.32 1003.77 1265.61 1005.08 1264.09 1007.47 1264.31 1009.21 1264.09 1022.06 1262.79 1032.51 1262.57 1040.56 1263.44 1065.6 1266.04 1088.45 1276.44 1108.7 1294.85 1111.75 1297.67 1115.23 1301.14 1119.37 1305.9 1122.41 1309.15 1124.81 1312.62 1126.77 1316.09 1133.3 1327.57 1139.83 1338.62 1146.79 1349.66 1147.01 1349.01 1147.23 1349.01 1147.23 1348.8Z" fill="#040404" fill-rule="evenodd"/><path d="M1263.33 1380.02C1258.3 1391.27 1252.39 1401.87 1245.18 1411.61 1244.52 1412.69 1243.43 1413.56 1242.55 1414.43 1233.59 1422 1223.09 1426.76 1211.06 1428.71 1207.56 1429.36 1204.5 1428.92 1201.66 1427.41 1193.56 1423.3 1191.16 1417.02 1189.63 1407.72 1186.35 1386.08 1182.85 1363.79 1179.13 1341.06 1178.25 1335.87 1181.97 1334.79 1185.91 1334.14 1195.31 1332.62 1203.41 1329.81 1209.97 1325.27 1221.12 1317.48 1232.93 1309.25 1245.61 1300.38 1250.21 1297.13 1258.3 1300.16 1261.8 1303.84 1269.45 1312.5 1277.55 1321.15 1285.64 1329.81 1286.08 1330.24 1286.08 1330.89 1285.86 1331.32 1277.98 1347.99 1270.33 1363.79 1263.33 1380.02Z" fill="#040404" fill-rule="evenodd"/><path d="M1105.64 1405.03C1092.37 1435.75 1070.17 1454.35 1039.05 1460.84 1037.74 1461.05 1036.22 1461.05 1034.91 1460.84 1009.23 1455.43 989.427 1440.94 975.715 1416.93 972.886 1411.74 970.492 1406.33 968.969 1400.27 963.963 1380.15 964.616 1358.31 976.151 1341.22 984.421 1329.1 993.344 1320.45 1003.36 1315.26 1015.33 1309.2 1027.95 1305.74 1041.66 1305.09 1066.25 1303.8 1084.97 1315.91 1096.72 1338.19 1106.08 1355.93 1110.22 1374.96 1108.69 1395.08 1108.69 1397.03 1107.6 1400.49 1105.64 1405.03Z" fill="#040404" fill-rule="evenodd"/><path d="M833.033 1352.96C837.854 1355.12 842.676 1357.07 847.059 1358.79 856.044 1362.25 862.18 1368.74 862.399 1379.11 862.619 1391.42 863.495 1403.96 862.619 1416.27 862.18 1422.33 861.961 1428.38 861.742 1434.64 861.742 1435.07 861.523 1435.07 861.303 1434.86 848.374 1421.03 835.443 1407.42 822.514 1394.02 804.543 1375.43 787.231 1355.99 769.917 1336.75 766.63 1333.08 764.658 1329.41 764 1325.52 764 1325.09 764 1324.87 764.658 1325.09 790.299 1335.03 813.09 1344.32 833.033 1352.96Z" fill="#040404" fill-rule="evenodd"/><path d="M1177.95 1392.22C1182.95 1401.36 1184.91 1411.37 1183.61 1422.24 1183.39 1424.64 1183.17 1426.16 1181.43 1427.9 1173.38 1435.3 1165.12 1440.3 1156.64 1442.69 1139.24 1447.92 1120.75 1452.92 1101.39 1457.92 1099.44 1458.36 1097.04 1456.84 1095.52 1455.75 1095.09 1455.31 1094.87 1454.88 1095.09 1454.23 1099.87 1439 1109.44 1427.03 1123.58 1418.33 1126.19 1416.81 1128.8 1415.72 1131.84 1415.28 1138.37 1414.19 1145.11 1413.11 1151.85 1412.02 1155.77 1411.37 1159.25 1406.36 1160.55 1402.88 1162.07 1397.88 1164.25 1393.09 1166.86 1388.31 1167.29 1387.44 1168.16 1387 1169.25 1387 1172.73 1387.44 1175.78 1388.31 1177.95 1392.22Z" fill="#040404" fill-rule="evenodd"/><path d="M1492.13 1503.76C1494.09 1507.2 1495.83 1510.64 1497.78 1514.3 1501.92 1522.05 1508.44 1528.07 1514.96 1533.66 1519.75 1537.54 1520.83 1544.2 1515.18 1548.08 1510.18 1551.52 1499.09 1554.1 1493.44 1549.58 1487.78 1544.85 1488.22 1537.32 1488 1530.44 1488 1520.97 1488.87 1512.15 1490.61 1504.19 1491.04 1502.68 1491.48 1502.68 1492.13 1503.76Z" fill="#040404" fill-rule="evenodd"/><path d="M1551.98 1643 1477.58 1643C1477.36 1643 1477.15 1642.78 1477.15 1642.57L1473 1567.43C1473 1567.22 1473.22 1567 1473.44 1567L1556.56 1567C1556.78 1567 1557 1567.22 1557 1567.43L1552.42 1642.57C1552.42 1642.78 1552.2 1643 1551.98 1643Z" fill="#040404" fill-rule="evenodd"/><path d="M770.936 1085.77C759.556 1092.52 747.738 1095.57 735.264 1094.91 733.732 1094.91 733.513 1094.48 735.045 1093.83 751.24 1087.51 766.997 1079.46 781.878 1070.1 783.41 1069.01 784.942 1067.93 786.255 1066.84 787.349 1065.97 788.444 1065.1 789.538 1064.44 790.632 1063.79 791.727 1063.14 792.82 1062.27 794.134 1061.18 795.447 1060.31 796.76 1059.66 798.073 1059 799.386 1057.91 800.699 1056.83 802.669 1055.08 804.857 1053.56 806.608 1051.82 817.113 1043.33 824.991 1036.15 830.462 1030.27 832.213 1028.31 833.964 1025.7 835.496 1022.66 836.59 1020.26 837.465 1017.65 837.684 1015.04 838.997 1003.72 840.091 992.403 840.748 981.521 840.748 981.086 841.186 980.868 841.623 981.086 842.499 981.739 842.936 982.609 843.155 983.697 845.125 993.056 845.562 1003.29 844.249 1014.6 843.593 1020.04 842.28 1024.61 839.872 1028.75 836.809 1034.19 833.088 1038.54 828.93 1042.03 821.708 1048.12 814.705 1054 807.702 1059.66 805.951 1061.18 803.982 1062.48 802.012 1063.79 800.042 1065.1 798.073 1066.62 796.103 1067.93 788.225 1073.58 780.346 1079.24 772.468 1084.68 772.249 1084.9 771.811 1085.12 771.374 1085.12 771.592 1085.34 771.155 1085.56 770.936 1085.77Z" fill="#E4171E" fill-rule="evenodd"/><path d="M718.216 1085.36C718.246 1086.08 714.658 1086.81 710.203 1087 705.747 1087.18 702.111 1086.75 702.081 1086.04 702.051 1085.32 705.639 1084.59 710.094 1084.4 714.55 1084.22 718.186 1084.65 718.216 1085.36Z" fill="#E4171E" fill-rule="evenodd"/><path d="M625.503 1148.07C622.072 1152.87 619.928 1159.64 619.07 1165.54 619.07 1165.98 618.856 1166.42 618.427 1166.64 616.926 1167.73 615.211 1168.16 613.495 1167.95 612.852 1167.95 612.423 1167.51 612.209 1166.85 607.92 1152.65 609.207 1137.58 622.072 1129.94 626.575 1127.32 630.649 1125.79 634.723 1125.13 637.296 1124.69 640.512 1125.35 644.587 1127.1 646.945 1127.97 647.374 1131.03 646.731 1133.43 646.516 1134.09 646.302 1134.52 645.873 1134.74 641.156 1137.58 636.009 1140.42 630.435 1143.48 628.505 1145.01 626.789 1146.32 625.503 1148.07Z" fill="#E4171E" fill-rule="evenodd"/><path d="M727.187 1222C738.42 1223.07 748.141 1228.19 754.838 1237.79 755.054 1238.22 755.054 1238.65 754.838 1239.07 750.95 1243.34 747.277 1247.18 743.821 1250.6 741.013 1253.58 736.044 1254.01 733.02 1250.6 725.891 1242.49 723.515 1233.31 725.891 1222.85 726.107 1222.21 726.539 1222 727.187 1222Z" fill="#E4171E" fill-rule="evenodd"/><path d="M702.794 1236.21C706.338 1237.71 708.775 1240.5 709.44 1244.35 710.104 1249.07 711.212 1258.29 705.673 1259.79 704.123 1260.21 701.686 1260 699.028 1259.14 692.604 1257.21 685.959 1255.28 679.313 1253.14 679.091 1253.14 678.87 1252.71 679.091 1252.28 682.857 1244.35 688.617 1238.78 696.148 1235.35 697.477 1234.71 699.693 1234.92 702.794 1236.21Z" fill="#E4171E" fill-rule="evenodd"/><path d="M792.223 1276.27C788.667 1267.76 786.667 1259.25 786 1250.74 786 1250.08 786.222 1249.86 786.667 1250.08 798 1252.48 809.556 1254.66 821.111 1256.41 821.778 1256.41 822 1256.85 822 1257.5 821.778 1259.68 820.889 1261.65 819.333 1262.96 813.778 1267.76 808 1272.78 802 1277.8 798.667 1280.85 794.222 1281.07 792.223 1276.27Z" fill="#E4171E" fill-rule="evenodd"/><path d="M755.007 1287.24C751.07 1285.07 747.789 1281.8 745.164 1277.23 744.945 1276.8 744.945 1276.58 745.164 1276.15 749.32 1268.75 754.351 1262.66 760.475 1257.44 760.912 1257 761.35 1257 762.006 1257 766.381 1257.65 769.006 1260.26 769.443 1265.27 770.318 1272.01 770.099 1278.54 769.225 1285.07 767.912 1292.9 759.6 1289.64 755.007 1287.24Z" fill="#E4171E" fill-rule="evenodd"/><path d="M1474.27 1274.86C1478.43 1272.7 1481.92 1270.32 1486.95 1271.18 1488.7 1271.4 1490.01 1272.26 1491.32 1273.56 1496.13 1278.54 1499.4 1282.21 1500.71 1284.81 1507.93 1298.22 1515.14 1312.06 1521.91 1326.76 1522.13 1326.98 1521.91 1327.2 1521.69 1327.41 1487.6 1350.99 1451.99 1371.96 1415.06 1389.92 1414.62 1390.13 1413.97 1389.92 1413.75 1389.48 1404.79 1375.86 1397.14 1360.72 1390.58 1344.07 1388.84 1339.74 1387.74 1332.6 1391.68 1329.36 1417.24 1307.95 1444.78 1289.78 1474.27 1274.86Z" fill="#E4171E" fill-rule="evenodd"/><path d="M828.67 1285.43C829.112 1285.22 829.774 1285 830.216 1285 834.412 1285.43 837.062 1288.67 837.503 1292.99 838.166 1298.83 838.166 1305.09 837.503 1311.36 837.283 1314.81 834.633 1316.76 831.762 1317.84 831.32 1318.05 830.878 1318.05 830.216 1317.84 824.253 1315.68 818.291 1313.73 812.107 1311.36 809.236 1310.28 805.703 1307.9 805.04 1304.44 804.599 1301.85 807.911 1299.04 809.678 1297.75 816.082 1293.21 822.265 1289.1 828.67 1285.43Z" fill="#E4171E" fill-rule="evenodd"/><path d="M614.59 1505.7C617.643 1497.48 618.951 1489.48 618.514 1481.7 617.424 1463.75 612.192 1448.4 603.035 1435.42 600.637 1432.18 595.404 1426.12 587.555 1417.69 586.901 1416.82 586.247 1415.96 586.029 1414.66 582.977 1400.17 584.067 1385.9 589.736 1371.63 591.044 1368.16 592.788 1365.35 594.75 1363.19 599.764 1358 604.561 1353.03 609.357 1347.84 610.884 1346.11 612.192 1343.94 613.064 1341.35 615.026 1334.86 616.77 1328.59 618.079 1322.54 618.079 1322.1 618.297 1321.89 618.514 1321.67 625.273 1314.75 639.009 1321.89 645.331 1326.43 661.683 1338.32 675.855 1351.95 688.064 1367.08 710.084 1394.55 723.165 1428.07 725.563 1463.97 727.09 1487.1 724.474 1509.16 719.895 1531.65 718.369 1539.01 716.189 1546.14 713.572 1553.06 698.965 1590.47 675.419 1619.88 642.933 1641.29 639.009 1643.89 635.084 1646.05 630.942 1647.78 604.343 1659.24 578.616 1665.3 553.98 1665.95 546.785 1666.16 538.5 1665.73 529.561 1664.65 478.108 1658.16 439.736 1624.21 410.521 1580.96 405.288 1573.17 401.146 1565.17 397.658 1556.52 389.155 1534.46 384.14 1513.27 382.614 1492.73 379.78 1457.91 386.756 1425.04 403.544 1393.9 410.957 1380.06 420.986 1365.79 433.413 1351.51 455.434 1326 487.701 1309.78 519.314 1301.56 529.561 1298.96 539.59 1296.15 549.401 1293.34 554.852 1291.83 558.34 1295.5 557.468 1301.34 555.288 1315.4 554.634 1327.08 555.506 1336.59 555.724 1339.62 557.468 1343.08 560.302 1346.97 560.957 1347.84 561.175 1348.7 561.175 1349.78 561.611 1369.03 558.122 1387.84 550.273 1406.44 547.875 1412.06 534.358 1417.25 528.907 1418.77 513.427 1423.09 500.782 1438.45 496.422 1453.59 494.024 1461.37 493.588 1468.94 492.497 1476.94 488.791 1501.38 497.948 1523.22 516.916 1537.06 519.096 1538.57 523.457 1541.6 529.779 1545.71 537.846 1550.9 550.491 1553.28 560.084 1551.76 569.023 1550.25 576.872 1547.01 583.631 1542.25 596.712 1532.95 608.921 1520.84 614.59 1505.7Z" fill="#E4171E" fill-rule="evenodd"/><path d="M996.114 1472.08C1007.9 1477.29 1019.89 1480.12 1032.33 1480.77 1067.02 1482.5 1101.05 1479.9 1134.87 1472.95 1148.4 1470.13 1163.45 1466.44 1179.82 1461.88 1218.43 1451.24 1252.03 1440.6 1280.39 1430.4 1298.28 1423.89 1316.17 1413.68 1333.84 1399.57 1338.86 1395.45 1344.54 1390.23 1350.43 1383.5 1358.93 1374.17 1367.66 1365.27 1376.61 1356.8 1377.04 1356.37 1377.7 1356.37 1377.92 1357.02 1393.19 1386.11 1407.81 1414.77 1421.77 1443.21 1424.17 1448.2 1427.22 1455.15 1430.5 1463.83 1431.59 1466.44 1430.93 1468.83 1428.31 1469.48 1377.04 1479.9 1333.84 1487.72 1298.72 1492.93 1257.48 1499.01 1216.03 1504 1174.8 1507.91 1135.96 1511.6 1104.11 1513.99 1079.02 1514.85 1061.13 1515.5 1041.71 1513.99 1021.42 1510.29 1014.66 1508.99 1008.55 1507.25 1003.1 1504.43 988.914 1497.7 976.915 1490.1 967.533 1482.07 944.407 1462.1 931.098 1436.26 927.826 1404.35 925.862 1385.46 927.608 1367 930.88 1347.68 931.971 1340.73 934.589 1334.66 938.298 1329.44 942.007 1324.23 947.898 1328.14 947.898 1333.79 947.68 1348.12 947.243 1362.66 946.807 1377.21 946.371 1386.11 946.807 1394.14 948.116 1401.31 953.134 1433.66 967.315 1459.49 996.114 1472.08Z" fill="#E4171E" fill-rule="evenodd"/><path d="M1536.55 1355.46C1547.53 1373.28 1555.87 1393.26 1560.91 1414.12 1561.13 1414.77 1560.91 1415.21 1560.48 1415.42 1527.55 1436.06 1493.75 1454.96 1459.07 1471.91 1458.85 1472.13 1458.63 1471.91 1458.41 1471.69 1444.58 1453.88 1434.71 1433.46 1429 1410.43 1429 1410.21 1429 1409.78 1429.22 1409.56 1460.83 1389.35 1493.75 1369.58 1528.21 1350.25 1531.28 1348.95 1535.01 1353.07 1536.55 1355.46Z" fill="#E4171E" fill-rule="evenodd"/></g></svg>