<?xml version="1.0" encoding="utf-8"?>
<!-- Generator: Adobe Illustrator 25.0.1, SVG Export Plug-In . SVG Version: 6.00 Build 0)  -->
<svg version="1.1" id="Capa_1" xmlns="http://www.w3.org/2000/svg" xmlns:xlink="http://www.w3.org/1999/xlink" x="0px" y="0px"
	 viewBox="0 0 1508 1390" style="enable-background:new 0 0 1508 1390;" xml:space="preserve">
<style type="text/css">
	.st0{fill:none;stroke:#7E7E7E;stroke-width:2;}
	.st1{fill:#040404;}
	.st2{fill:#E4171E;}
</style>
<g>
	<g>
		<path vector-effect="non-scaling-stroke" class="st0" d="M771.3,316.3c-3.3,0.2-6.6,0.4-9.9,0.5c-86.3,4.3-170.3,33.8-241.3,86.1
			c-65.1,48-117.8,114.6-148.8,193c-17.1,43.1-27.1,88.1-30,135c-0.1,2.2-0.4,7.4-0.7,15.7"/>
		<path vector-effect="non-scaling-stroke" class="st0" d="M796.2,316.3c4.1,0.2,8.1,0.4,12.2,0.6c104.2,5.6,204.6,47.7,282.8,122.3
			c34.6,33,63.2,70.8,85.9,113.5c27.3,51.4,43.9,108.3,49,166.8c0.8,8.9,1.2,17.9,1.6,26.9"/>
		<path vector-effect="non-scaling-stroke" class="st0" d="M1227.7,770.1c-0.5,10.9-0.9,18.1-1.2,21.6
			c-4.8,59.4-20.5,115.1-47.2,167.1c-31.4,61.1-76.5,113.4-129.7,152.9c-71,52.7-155,82.7-241.5,87.1c-4,0.2-8,0.4-12.1,0.6"/>
		<path vector-effect="non-scaling-stroke" class="st0" d="M771.4,1199.5c-6.7-0.3-13.5-0.7-20.2-1.2
			c-48.7-3.5-95.6-14.8-140.6-33.8c-100-42.3-184.7-122-231.6-226.5c-22-49-34.6-100.9-37.8-155.5c-0.2-3.9-0.4-7.8-0.6-11.8"/>
	</g>
	<path class="st1" d="M771.3,316.3h25c4.1,0.2,8.1,0.4,12.2,0.6c104.2,5.6,204.6,47.7,282.8,122.3c34.6,33,63.2,70.8,85.9,113.5
		c27.3,51.4,43.9,108.3,49,166.8c0.8,8.9,1.2,17.9,1.6,26.9v23.8c-0.5,10.9-0.9,18.1-1.2,21.6c-4.8,59.4-20.5,115.1-47.2,167.1
		c-31.4,61.1-76.5,113.4-129.7,152.9c-71,52.7-155,82.7-241.5,87.1c-4,0.2-8,0.4-12.1,0.6h-24.6c-6.7-0.3-13.5-0.7-20.2-1.2
		c-48.7-3.5-95.6-14.8-140.6-33.8c-100-42.3-184.7-122-231.6-226.5c-22-49-34.6-100.9-37.8-155.5c-0.2-3.9-0.4-7.8-0.6-11.8v-24.2
		c0.4-8.3,0.6-13.5,0.7-15.7c2.9-46.9,12.9-91.8,30-135c31-78.4,83.7-144.9,148.8-193c71-52.4,155-81.9,241.3-86.1
		C764.7,316.7,768,316.5,771.3,316.3z"/>
	<path class="st2" d="M1223.8,757.9c0,240.8-196.3,436.1-438.5,436.1S346.8,998.7,346.8,757.9s196.3-436.1,438.5-436.1
		S1223.8,517,1223.8,757.9z"/>
	<g>
		<path class="st1" d="M1045.5,656c-5.7,2.2-11.6,3.8-17.5,4.6c-2.7,0.4-5.6,0.4-8.5,0c-4.8-0.6-9.5-1.4-14.3-2.5
			c-1.6-0.4-2.2,0.7-3.2,1.7c-0.1,0.2-0.3,0.3-0.5,0.3c-0.7,0.1-1.4-0.1-2-0.6c-2.3-1.9-4.5-3.7-6.7-5.4c-1.3-1-1-3.3-2.4-4.7
			c-1.2-1.1-2.1-2.5-2.8-4c-0.8-1.7,1.5-3.8,2.8-4.2c9.2-2.9,17.6-8.2,24-15.3c3.9-4.4,4.1-9.3,0.7-14.7c-0.1-0.2-0.3-0.3-0.5-0.4
			c-5-2-9.7-1.8-14.3,0.5c-8.2,4.1-16.3,9-24.5,14.6c-0.2,0.2-0.4,0.1-0.4-0.2c-0.5-10.5-0.3-19.7,0.5-27.6c0.3-2.3,1-5.3,2.3-8.8
			c3.1-8.6,7.9-15.4,14.3-20.4c4.2-3.3,9.5-6.1,14.5-7.6c2-0.6,4.4-1.1,7.2-1.6c5.7-1,11.5-0.6,17.3-0.6c3.4,0,6.5,0.3,9.3,1
			c12.4,3.2,22.9,10.3,29.1,22.5c6.7,13,8.6,26.6,5.7,40.8c-0.8,4.2-2.2,8.1-4,11.6c-3.5,6.8-7.8,12.5-12.9,17c-1.1,1-4,2.6-8.4,4.8
			c-1.6,0.8-2.7,0.5-3.9-0.7C1046,656,1045.8,655.9,1045.5,656z"/>
		<path class="st1" d="M491.4,674.8c-6.5-2.2-11.9-6-15.6-11.5c-4.2-6.3-3.8-14.9-1.8-22c0.6-2.3,1.7-4.8,3.1-7.5
			c5.1-9.8,10.8-18.1,17.1-25c4.4-4.8,10.3-10.5,17.8-17c0.2-0.1,0.3-0.1,0.5,0c0.8,0.9,1.1,1.9,0.9,3c-4.4,26.6-11,52.6-19.7,78.1
			c-0.3,0.8-0.8,1.5-1.6,1.9C491.8,674.9,491.6,674.9,491.4,674.8z"/>
		<path class="st1" d="M670.4,720.4c3.5,3,6.4,6.1,8.6,9.3c0.5,0.6,0.8,1.4,1,2.2c2.4,9.2,0.2,16.7-6.8,22.3c-1,0.8-2.1,1.4-3.2,1.8
			c-6.8,2.4-12.8,1-18-4.1c-1.1-1.1-1.9-2.3-2.4-3.7c-1-2.9-1.7-5.6-2-8.3c-1.1-9.4,4.2-16.7,11.9-20.1c1.4-0.6,2.8-1.3,4.1-2.1
			c0.1-0.1,0.2-0.3,0.1-0.4l-0.1-0.2c-0.1-0.3-0.4-0.4-0.7-0.3c-10.3,3.5-20.4,7.7-30.4,12.7c-0.4,0.2-0.8,0.2-1.1,0
			c-23.6-10.3-47.1-20-70.3-29.3c-3.9-1.6-7.6-3.2-10.9-4.9c-8.1-4.1-16.1-8.2-24.1-12.3c-0.3-0.2-0.6-0.1-0.9,0.2
			c-0.1,0.2-0.1,0.6,0,1.2c1.5,6.1,2.2,12.2,2.2,18.3c0,1.5-0.7,2.3-2,2.5c-1.7,0.2-6.1,0.9-6.6,3c-1.4,5.2-0.7,10.2,2.1,14.7
			c0.4,0.7,0.6,0.6,0.6-0.2c-0.3-6.5,3.6-8.7,9-6.6c0.7,0.3,1.4,0.4,2.2,0.3c4.2-0.6,7.7-2.5,10.6-5.8c0.2-0.2,0.2-0.4,0-0.6
			c-1.4-1.4-2.9-2.4-4.8-3.1c-1.2-0.4-2.2-1.4-3-2.8c-2.2-3.8,2-6.5,4.9-5.7c6,1.6,10.2,3,12.8,4.1c12.1,5.3,24,10.5,35.5,15.5
			c5.8,2.5,11.5,5,17.1,7.4c3.9,1.7,7.5,3.4,10.6,5.1c3.4,1.9,6.7,3.7,9.7,5.6c1.4,0.9,2.9,2.5,4.5,4.8c0.1,0.2,0.1,0.4,0,0.6
			c-0.5,1-1.4,1.5-2.5,1.4c-4.1-0.2-7.8,0-11,0.5c-0.2,0-0.3,0.1-0.3,0.3c-0.3,1-0.3,2-0.1,2.9c0.5,2.1,1.1,4.2,1.6,6.4
			c1.5,5.9,2.5,11.3,2.9,16.3c0.1,1.4-0.4,3.4-1,4.7c-0.9,1.8-2.3,1.4-3.8,0.9c-26.7-10.2-53.9-21.6-81.8-34.4
			c-0.4-0.2-0.6-0.2-0.7-0.2c-0.4,0.3-0.4,0.7,0,1c17.7,14.5,31.4,32.2,41.1,52.9c1.6,3.5,2.5,7.9,3.5,11.9
			c5.7,24.2,5.7,49-3.1,71.9c-7,18.2-18.8,33.1-32.8,45.8c-2.9,2.6-6.1,5-9.6,7.1c-6.4,3.8-12.3,6.9-17.6,9.2
			c-14,6-28.5,8.5-43.6,7.3c-16.6-1.3-33-7.9-47.8-17.4c-10.8-7-20.2-16.4-27.6-26.9c-9.1-12.9-15.1-27.6-18-44
			c-1.7-9.8-2.3-19.4-1.9-28.9c0.4-7.1,1.5-14.8,3.5-23.1c6.1-25.2,19.1-45.3,39-60.4c5.3-4.1,11.5-7.9,18.6-11.6
			c15.3-7.9,32.4-11.4,49.4-10.5c0.2,0,0.3-0.1,0.4-0.3c5.3-24.5,11.2-48.9,17.8-73.1c2.3-8.3,4.7-14.3,9.8-20.6
			c0.9-1.1,2.1-1.9,3.8-2.4c1.1-0.3,2.2-0.3,3.5,0.2c4.1,1.5,7.9,3.3,11.7,5.2c1.1,0.5,2.1-0.2,2.7-1.1c4-6.5,8.7-12.8,14.3-18.9
			c1.4-1.6,3.2-3,5.2-4.4c17.4-11.4,35.8-16.1,55.4-14.2c4,0.4,7.8,1,11.6,1.8c33.1,7.4,63.9,23.4,89.3,47
			c12.6,11.7,24.1,24.3,34.5,37.8c0.1,0.2,0.1,0.5,0,0.7c-4.1,5.2-7.6,11-10.7,17.4c-0.2,0.3-0.2,0.7-0.2,1.1
			c0.5,4.1,0.9,8.6,1.2,13.4c0.1,0.8-0.1,1.5-0.5,2.2c-2.9,5.4-6.5,10.5-10.8,15c-0.1,0.1-0.3,0.2-0.5,0.1
			c-4.1-1.3-8.5-2.5-13.2-3.7c-9.8-2.4-19.6-4.5-29.2-6.3c-4.5-0.8-8.5-1.5-12.3-2C670,719.9,670,720.1,670.4,720.4z"/>
		<path class="st1" d="M545.2,603.1c1.7,4.8,0.8,8.6-2.9,11.5c-0.6,0.4-1.4,0.1-1.5-0.7c-0.6-4.4-1.6-8.5-2.9-12.5
			c-0.1-0.2-0.1-0.4,0-0.7l1-2.2c0.1-0.3,0.3-0.4,0.6-0.3C542.4,598.9,544.3,600.5,545.2,603.1z"/>
		<path class="st1" d="M536.4,613.6c-1.6,4.5-4.5,7-8.6,8.4c-0.8,0.3-1.6,0.2-2.4-0.1c-6-2.8-9-7.2-7.3-14.9
			c0.6-2.7,4.6-5.8,6.7-7.5c0.8-0.7,1.6-0.5,2.5-0.4c4.4,0.6,7.4,3.2,9,7.6C537.2,609,537.2,611.3,536.4,613.6z"/>
		<path class="st1" d="M1076.9,898.6c0.4,3.6,0,6.9-1,10.1c-4,12.7-9.1,24.6-15.1,35.8c-5.5,10.1-16.4,12.2-26.8,11.1
			c-4.3-0.5-9-2.4-14-5.8c-6.2-4.1-8.7-13.8-8-20.9c0.9-8.9,3.3-18.1,6.4-26.9c5.7-16.2,11.9-32.3,18.6-48.2
			c0.1-0.2,0.1-0.3,0.2-0.5c0.2-0.4,0.4-0.6,0.8-0.5c0.5,0.1,0.6-0.1,0.3-0.6c-5.2-8.5-6.2-18.7-1.2-27.6c2.5-4.4,4.8-6.9,8.8-10.8
			c12.1-11.9,25.3-22.7,39.7-32.4c0.1-0.1,0.1-0.3,0.1-0.4c-5.7-7.7-11.7-15.4-18.1-23.1c-0.1-0.2-0.4-0.1-0.4,0.1
			c-0.9,7.2-2.7,13.7-5.6,19.7c-0.4,0.8-0.9,1.6-1.6,2.3c-6.4,6.7-12.7,12.2-18.9,16.3c-10.6,7-22.9,14.8-36.7,23.1
			c-0.2,0.1-0.3,0.1-0.5-0.1c-3.8-4.3-6.4-7.7-7.8-10.2c-4.4-7.9-9.1-16.3-14.1-25.1c-0.1-0.2-0.4-0.3-0.6-0.1
			c-3.6,3.2-7.5,5-12.3,5.2c-0.1,0-0.3,0-0.4-0.1c-4.6-3.7-8.7-7.7-12.4-11.8c-2.1-2.4-4.2-4.5-6.3-6.2c-6.3-5.1-12.4-9-18.4-11.7
			c-0.8-0.4-1.8-0.5-2.8-0.4c-4.4,0.5-3.6,5.5-1.6,8.1c2.5,3.3,5,6.7,7.4,10.1c5.4,7.7,8.6,15.5,10.8,24.7c0.3,1.4,0.3,2.6,0,3.7
			c-0.7,2.4-1.9,4.3-3.7,5.7c-2.1,1.6-4.4,3.1-6.9,4.4c-1.9,1-4.3,3.3-4.3,5.8c0.1,8.7,0,17.4-0.3,26.1c0,0.4-0.2,0.5-0.5,0.3
			c-0.8-0.6-1.3-1.5-1.4-2.6c-0.4-4.3-1.6-8.5-3.7-12.6c-1.2-2.3-4.4-2.8-6.5-2.6c-0.5,0-0.5,0.2-0.1,0.4c0.4,0.3,0.9,0.5,1.4,0.8
			c2.5,1.4,4.2,3.4,5.2,6c0.1,0.2,0.1,0.4,0,0.6c-0.6,2.5-2.3,3.9-5.1,4.2c-2.3,0.2-11.1,0.6-9.3-4.3c0.4-1.2,0.7-2.4,0.7-3.7
			c0-0.5-0.2-0.5-0.4-0.2c-1.7,2.1-3,4.4-4,7c-0.7,1.8-1.2,4.2-1.6,7.1c-0.8,6.5-1.8,13.2-2.8,20.1c-0.5,3.2-3.1,3.8-5.5,2.9
			c-6.1-2.4-10.8-5.8-14.2-10.1c-4.4-5.7-8.3-12.1-11.4-19.3c-0.1-0.2-0.3-0.3-0.5-0.3c-12.8,0.8-26.9,2.8-42.4,6
			c-2.3,0.5-3.7,2.7-3.2,5.1c2.1,10.8,5.3,20.4,9.6,28.6c9.4,18.2,24.1,31.1,42.2,38.7c3.5,1.5,7.2,2.6,11.1,3.3
			c6.6,1.2,12.7,1.7,18.4,1.6c18.1-0.6,34.9-7.8,48.9-19.6c1-0.8,1.6-1.9,1.8-3.3c0.1-0.5,0.3-1,0.8-1.4c4-3.6,7.5-7.3,10.7-10.8
			c0.6-0.7,1.1-1.5,1.5-2.4c1.3-3,2.6-6.3,3.7-9.7c0.5-1.7,1.9-2.2,2.5-3.7c3.6-9.8,5.8-19.8,6.5-30.1c0.5-6.2,2.4-11.1,6.4-15.6
			c0.2-0.2,0.2-0.6,0-0.7c-0.4-0.3-0.9-0.6-1.4-0.5c-1.3,0.1-2.8,0.2-4.6,0.3c-5.9,0.4-12.2-1.1-15.4-7c-2.3-4.2-2.2-9.3-1.6-14.2
			c0.3-2.7,0.9-5,1.9-6.8c2.4-4.3,6.7-9,11.5-4.8c1.9,1.7,3.5,3.7,4.8,6.2c2.8,5.3,5.5,10.8,8.3,16.7c2.5,5.3,6.5,8.1,12.2,7
			c0.4-0.1,0.7,0.1,0.7,0.6c2.8,22.4,0,43.8-8.4,64.3c-0.1,0.3-0.1,0.6,0.2,0.9c0.4,0.4,0.7,0.8,0.9,1.2c0.1,0.3,0.1,0.6,0,0.9
			c-5.8,11.9-13,21.5-21.5,28.9c-7.8,6.8-17.7,13.5-29.4,20c-3.6,2-7.2,3.6-10.8,5c-7.4,2.6-14,4.3-19.9,5
			c-9.2,1.1-19.2,0.8-28.7-1.1c-8.1-1.6-15.8-3.8-23.1-6.7c-3.3-1.3-6.5-1.8-9.8-2.3c-0.4-0.1-0.9-0.3-1.2-0.6
			c-5.4-5.2-10.7-10.2-15.8-14.9c-8.2-7.6-14.9-16.3-20.8-25.8c-2-3.3-3.9-6.9-5.7-11c-4.1-9.4-8.1-18.8-11.8-28.3
			c-0.1-0.1-0.2-0.2-0.3-0.1c-8.2,3.9-17,7.9-26.2,11.8c-2.9,1.2-5.7,2.2-8.3,2.7c-4.7,1-9.4,1.9-13.9,2.5
			c-15.9,2.2-31.7,1.7-47.4-1.5c-12-2.5-23.7-6.5-35.2-12.1c-12.8-6.2-24.9-15.1-32.7-27.8c-6.6-10.8-9.7-23.2-9.2-37
			c0.3-8.6,1.8-17.8,4.5-27.5c1.8-6.7,4.4-13.2,7.8-19.6c1.7-3.2,4.3-4.4,7.3-2.1c1.9,1.5,1.4,4.4,0.5,6.4
			c-3.7,7.5-6.6,14.3-8.7,20.4c-1,2.8-1.8,6.6-2.4,11.3c-1.8,14,0.2,26.7,5.9,38.2c3.1,6.3,6.9,11.6,11.2,16c1.6,1.6,4,3.5,7.2,5.6
			c14,9.3,28.8,15.4,44.7,18.4c12.3,2.4,25.1,3.3,38.2,2.9c4.7-0.1,8.5-0.4,11.6-0.8c11.7-1.5,22.7-5.9,32.9-13.3
			c0.7-0.5,0.7-0.8-0.2-0.7c-15.5,1.8-30.8,3.3-46,4.5c-4,0.3-7.9,0.5-11.5,0.6c-10.3,0.3-19.7,0-28.1-0.9c-5.9-0.6-12.3-2.2-19-4.8
			c-18.5-7-30.9-21.9-35.6-42.2c-1.6-6.7-2.4-14-2.6-21.7c-0.2-8,1.4-15.7,4.7-23c0.8-1.7,2-3.3,3.6-4.8c4.9-4.5,9.8-2.1,13.4,2.4
			c0.1,0.2,0.2,0.4,0.3,0.6c0.4,3.3,1.1,6.4,0.7,9.9c-0.6,6.7-0.9,13.9-0.9,21.6c0,5.2,0.5,9.3,1.3,12.4c1.5,5.3,4.5,9.7,8.8,13
			c2.6,2,6.2,3.7,10.8,5c15.6,4.5,30.7,5.3,45.4,2.5c18.6-3.6,39.2-9.4,61.9-17.3c4.2-1.5,7.2-4.2,10.1-7.4c1.9-2.1,2.7-5,3.8-7.5
			c12.5-27.1,31.7-47.2,57.4-60.3c3.6-1.8,7.2-3.3,10.7-4.4c2.9-0.9,6.7-1.5,11.3-1.9c17.6-1.3,35,0.5,52.2,5.4
			c2.5,0.7,4.8,1.7,7,2.9c14.7,8.2,27.5,18.8,38.6,31.9c1.5,1.7,2.6,3.7,3.4,5.9c0.1,0.2,0.3,0.2,0.4,0.2
			c6.1-3.8,12.2-7.9,18.4-12.4c2.7-2,5-4.1,6.8-6.3c4.4-5.5,7.4-11.5,9-18c0.8-3.3,1.3-7.2,1.5-11.7c0.5-10.3,1-20.9,1.7-31.9
			c0.2-2.9,0.6-5.2,1.1-7.1c1.6-4.9,3.9-8.6,7.6-12.1c13.8-13.5,27.4-24.5,40.9-33c5.8-3.6,12.4-6.2,19.8-7.7
			c3.8-0.8,6.9-1.1,10.5,0.6c0.3,0.2,0.7,0,0.9-0.3l1.1-2.1c0.1-0.2,0.3-0.2,0.4,0c23.8,31.3,47.6,62.7,71.5,94.2
			c2,2.6,3.6,5.1,4.8,7.5c2.9,5.6,5.1,11.4,6.8,17.3c0.1,0.5,0.2,1,0.2,1.6c0,2.4,0,5,0,7.7c0,1-0.2,2-0.7,2.9
			c-2.3,4.6-5.7,8.2-9.5,11.9c-5.6,5.5-11.1,10.7-17.2,15.7c-20.1,16.5-40.4,32.5-60.9,48.2c-0.2,0.2-0.2,0.5-0.1,0.7
			c20.4,21.6,40.2,43.8,59.2,66.6c4,4.8,5.6,10.3,4.8,16.8c-1.2,10.3-5.3,20.7-14.3,25c-5.3,2.5-10.6,2.5-16.4,1.6
			c-1.2-0.2-2.4-0.7-3.8-1.4c-8.7-5.1-17.1-11.8-25.1-20c-11.1-11.4-21.2-22-30.2-32C1077,898.1,1076.9,898.1,1076.9,898.6z"/>
		<path class="st1" d="M922.4,657.7c-4.9,3.3-10.2,6.2-15.6,8.5c-14.5,6.1-28.6,12.1-42.4,18c-0.2,0.1-0.4-0.1-0.4-0.3
			c0.2-12.7,0.7-25.2,1.4-37.5c0-0.2,0.1-0.4,0.4-0.4c16.4-1.9,32.8-4.1,49.2-6.6c1.5-0.2,2.9-0.3,4.1,0c3,0.5,6.3,2.5,7.5,5.8
			c0.7,2,1.4,5.9,0.2,7.9C925.6,654.8,924.2,656.6,922.4,657.7z"/>
		<path class="st1" d="M828.2,698.1c1,0.3,2.2,0.3,3.6,0c6-1.4,12-2.9,18-4.4c0.5-0.1,0.5,0,0.2,0.3c-22.6,20.8-45.9,42.1-69.7,64
			c-1.3,1.2-2.6,2-4.1,2.7c-6.1,2.5-7.4-2-7.9-7.2c0-0.2,0-0.4,0.1-0.5c1.5-3,3.2-5.2,5.2-6.8c1.1-0.9,2.4-1.8,3.8-2.8
			c1.5-1,3-2.3,4.7-3.8c3.2-3,4.4-6.8,2.2-11.2c-0.1-0.2-0.2-0.3-0.4-0.3c-2.2-0.6-4.4-0.7-6.5-0.5c-8.4,1-17.2,2-26.4,3.2
			c-1.9,0.2-3.6,0.3-5,0c-2.1-0.3-9.4-1.4-6-5.7c1.1-1.4,2.4-2.6,4.1-3.6c1.1-0.7,2.6-1.4,4.5-1.9c16.8-4.9,34.8-10.1,54.1-15.5
			c2.5-0.7,5.1-1.6,7.9-2.6c0.8-0.3,1.5-0.6,2.2-1c0.2-0.1,0.2-0.2,0.2-0.4c0-0.1-0.1-0.1-0.1-0.2s-0.1-0.1-0.2-0.1
			c-4.3,0.2-8,0.7-11.2,1.4c-11.5,2.6-24.8,5.7-39.9,9.5c-5.1,1.3-10.2,1.8-15.3,1.7c-1.1,0-2.2-0.4-3.2-1.1
			c-4.5-3.2-4.5-8.9-1.7-13.4c1.2-1.9,2.4-3.7,3.6-5.4c5-6.8,13.3-10.7,21.2-12.1c24.4-4.4,48.6-9.2,72.4-14.4
			c2.4-0.5,4.7-0.8,6.8-0.8c3.8,0,7.4,0.1,10.9,0.4c3.1,0.3,4.2,2.8,3.5,5.8c-1.2,5.5-2.3,10.6-3.3,15.3c-0.1,0.3-0.3,0.6-0.5,0.7
			l-27.6,9.7C827.3,697.5,827.3,697.8,828.2,698.1z"/>
		<path class="st1" d="M823.7,759c-3.9,2.9-9.1,2.5-12.2-0.4c-1.6-1.4-3.1-3.8-3.7-5.9c-0.3-0.8-0.3-1.7-0.2-2.7
			c0.5-4.4,2.2-7.9,5.1-10.4c3.5-3,7.7-6.2,12.4-9.4c0.9-0.6,1.6-1.3,2.8-1.3c3.3,0.1,6.2,2,8.1,4.8c0.9,1.4,2.1,2.8,3.3,4.1
			c1.4,1.4,2.3,3.9,0.8,5.6C835.1,749.5,829.6,754.6,823.7,759z"/>
		<path class="st1" d="M750.7,775c0.3-1.4,0.2-2.7-0.3-4c-5.1-12.1-12.5-22-22.3-29.8c-0.3-0.2-0.5-0.6-0.7-0.9
			c-0.9-2.5-1-5.1-0.2-7.8c0.1-0.2,0.2-0.3,0.4-0.3c1.5-0.1,2.6,0,3.3,0.5c15.1,10.4,24.7,25,28.8,43.8c1,4.8,0.8,7.9-2.2,11.6
			c-0.1,0.2-0.3,0.2-0.5,0.1c-1.5-1.2-2.8-2.5-3.9-3.9c-0.2-0.2-0.3-0.2-0.4,0.1c-0.7,3.4-1.3,6.9-1.9,10.5c-0.2,1.2-0.6,2-1.1,2.4
			c-1.8,1.5-4.1,2-5.9,0.1c-1.1-1.2-1.8-2.4-2.1-3.8c-0.8-3.7-1.4-7.2-2.7-10.7c-1.7-4.8-3.6-9.2-5.6-13.1c-0.9-1.8-2.1-3.8-3.6-6
			c-3.9-5.9-10.5-10.1-16.8-12.4c-2.7-1-6-1.6-9.9-1.9c-5.4-0.4-10.8-0.9-16.1-1.4c-1-0.1-1.8-0.6-2.5-1.4c-2.9-3.3-2.2-7,0.3-10.1
			c0.6-0.7,1.7-0.6,2.5-0.7c5.9-0.6,10.7-0.7,14.4-0.3c11.5,1.2,22,6,31.3,14.5c1.4,1.3,3,2.9,4.9,5.1c1.4,1.5,2.5,3.1,3.4,4.7
			c3,5.3,6,10.4,9.2,15.5C750.6,775.1,750.7,775.1,750.7,775z"/>
		<path class="st1" d="M803.6,789.6c-2.3,5.2-5,10.1-8.3,14.6c-0.3,0.5-0.8,0.9-1.2,1.3c-4.1,3.5-8.9,5.7-14.4,6.6
			c-1.6,0.3-3,0.1-4.3-0.6c-3.7-1.9-4.8-4.8-5.5-9.1c-1.5-10-3.1-20.3-4.8-30.8c-0.4-2.4,1.3-2.9,3.1-3.2c4.3-0.7,8-2,11-4.1
			c5.1-3.6,10.5-7.4,16.3-11.5c2.1-1.5,5.8-0.1,7.4,1.6c3.5,4,7.2,8,10.9,12c0.2,0.2,0.2,0.5,0.1,0.7
			C810.3,774.8,806.8,782.1,803.6,789.6z"/>
		<path class="st1" d="M731.6,801c-6.1,14.2-16.3,22.8-30.6,25.8c-0.6,0.1-1.3,0.1-1.9,0c-11.8-2.5-20.9-9.2-27.2-20.3
			c-1.3-2.4-2.4-4.9-3.1-7.7c-2.3-9.3-2-19.4,3.3-27.3c3.8-5.6,7.9-9.6,12.5-12c5.5-2.8,11.3-4.4,17.6-4.7
			c11.3-0.6,19.9,5,25.3,15.3c4.3,8.2,6.2,17,5.5,26.3C733,797.3,732.5,798.9,731.6,801z"/>
		<path class="st1" d="M606.6,777.2c2.2,1,4.4,1.9,6.4,2.7c4.1,1.6,6.9,4.6,7,9.4c0.1,5.7,0.5,11.5,0.1,17.2
			c-0.2,2.8-0.3,5.6-0.4,8.5c0,0.2-0.1,0.2-0.2,0.1c-5.9-6.4-11.8-12.7-17.7-18.9c-8.2-8.6-16.1-17.6-24-26.5
			c-1.5-1.7-2.4-3.4-2.7-5.2c0-0.2,0-0.3,0.3-0.2C587.1,768.9,597.5,773.2,606.6,777.2z"/>
		<path class="st1" d="M764.7,795.1c2.3,4.2,3.2,8.8,2.6,13.8c-0.1,1.1-0.2,1.8-1,2.6c-3.7,3.4-7.5,5.7-11.4,6.8
			c-8,2.4-16.5,4.7-25.4,7c-0.9,0.2-2-0.5-2.7-1c-0.2-0.2-0.3-0.4-0.2-0.7c2.2-7,6.6-12.5,13.1-16.5c1.2-0.7,2.4-1.2,3.8-1.4
			c3-0.5,6.1-1,9.2-1.5c1.8-0.3,3.4-2.6,4-4.2c0.7-2.3,1.7-4.5,2.9-6.7c0.2-0.4,0.6-0.6,1.1-0.6
			C762.3,792.9,763.7,793.3,764.7,795.1z"/>
		<path class="st1" d="M908.4,846.7c0.9,1.6,1.7,3.2,2.6,4.9c1.9,3.6,4.9,6.4,7.9,9c2.2,1.8,2.7,4.9,0.1,6.7
			c-2.3,1.6-7.4,2.8-10,0.7c-2.6-2.2-2.4-5.7-2.5-8.9c0-4.4,0.4-8.5,1.2-12.2C907.9,846.2,908.1,846.2,908.4,846.7z"/>
		<path class="st1" d="M936.2,911l-34.1,0c-0.1,0-0.2-0.1-0.2-0.2l-1.9-34.6c0-0.1,0.1-0.2,0.2-0.2l38.1,0c0.1,0,0.2,0.1,0.2,0.2
			l-2.1,34.6C936.4,910.9,936.3,911,936.2,911z"/>
	</g>
	<path class="st2" d="M578.2,653.6c-5.2,3.1-10.6,4.5-16.3,4.2c-0.7,0-0.8-0.2-0.1-0.5c7.4-2.9,14.6-6.6,21.4-10.9
		c0.7-0.5,1.4-1,2-1.5c0.5-0.4,1-0.8,1.5-1.1c0.5-0.3,1-0.6,1.5-1c0.6-0.5,1.2-0.9,1.8-1.2s1.2-0.8,1.8-1.3c0.9-0.8,1.9-1.5,2.7-2.3
		c4.8-3.9,8.4-7.2,10.9-9.9c0.8-0.9,1.6-2.1,2.3-3.5c0.5-1.1,0.9-2.3,1-3.5c0.6-5.2,1.1-10.4,1.4-15.4c0-0.2,0.2-0.3,0.4-0.2
		c0.4,0.3,0.6,0.7,0.7,1.2c0.9,4.3,1.1,9,0.5,14.2c-0.3,2.5-0.9,4.6-2,6.5c-1.4,2.5-3.1,4.5-5,6.1c-3.3,2.8-6.5,5.5-9.7,8.1
		c-0.8,0.7-1.7,1.3-2.6,1.9c-0.9,0.6-1.8,1.3-2.7,1.9c-3.6,2.6-7.2,5.2-10.8,7.7c-0.1,0.1-0.3,0.2-0.5,0.2
		C578.5,653.4,578.3,653.5,578.2,653.6z"/>
	
		<ellipse transform="matrix(0.9991 -4.164155e-02 4.164155e-02 0.9991 -26.742 23.482)" class="st2" cx="550.3" cy="653.7" rx="3.7" ry="0.6"/>
	<path class="st2" d="M511.4,682.5c-1.6,2.2-2.6,5.3-3,8c0,0.2-0.1,0.4-0.3,0.5c-0.7,0.5-1.5,0.7-2.3,0.6c-0.3,0-0.5-0.2-0.6-0.5
		c-2-6.5-1.4-13.4,4.6-16.9c2.1-1.2,4-1.9,5.9-2.2c1.2-0.2,2.7,0.1,4.6,0.9c1.1,0.4,1.3,1.8,1,2.9c-0.1,0.3-0.2,0.5-0.4,0.6
		c-2.2,1.3-4.6,2.6-7.2,4C512.8,681.1,512,681.7,511.4,682.5z"/>
	<path class="st2" d="M557.9,716.5c5.2,0.5,9.7,2.9,12.8,7.4c0.1,0.2,0.1,0.4,0,0.6c-1.8,2-3.5,3.8-5.1,5.4c-1.3,1.4-3.6,1.6-5,0
		c-3.3-3.8-4.4-8.1-3.3-13C557.4,716.6,557.6,716.5,557.9,716.5z"/>
	<path class="st2" d="M546.8,723c1.6,0.7,2.7,2,3,3.8c0.3,2.2,0.8,6.5-1.7,7.2c-0.7,0.2-1.8,0.1-3-0.3c-2.9-0.9-5.9-1.8-8.9-2.8
		c-0.1,0-0.2-0.2-0.1-0.4c1.7-3.7,4.3-6.3,7.7-7.9C544.4,722.3,545.4,722.4,546.8,723z"/>
	<path class="st2" d="M588,741.8c-1.6-3.9-2.5-7.8-2.8-11.7c0-0.3,0.1-0.4,0.3-0.3c5.1,1.1,10.3,2.1,15.5,2.9c0.3,0,0.4,0.2,0.4,0.5
		c-0.1,1-0.5,1.9-1.2,2.5c-2.5,2.2-5.1,4.5-7.8,6.8C590.9,743.9,588.9,744,588,741.8z"/>
	<path class="st2" d="M570.9,746.7c-1.8-1-3.3-2.5-4.5-4.6c-0.1-0.2-0.1-0.3,0-0.5c1.9-3.4,4.2-6.2,7-8.6c0.2-0.2,0.4-0.2,0.7-0.2
		c2,0.3,3.2,1.5,3.4,3.8c0.4,3.1,0.3,6.1-0.1,9.1C576.8,749.3,573,747.8,570.9,746.7z"/>
	<path class="st2" d="M900.3,740.9c1.9-1,3.5-2.1,5.8-1.7c0.8,0.1,1.4,0.5,2,1.1c2.2,2.3,3.7,4,4.3,5.2c3.3,6.2,6.6,12.6,9.7,19.4
		c0.1,0.1,0,0.2-0.1,0.3c-15.6,10.9-31.9,20.6-48.8,28.9c-0.2,0.1-0.5,0-0.6-0.2c-4.1-6.3-7.6-13.3-10.6-21c-0.8-2-1.3-5.3,0.5-6.8
		C874.2,756.2,886.8,747.8,900.3,740.9z"/>
	<path class="st2" d="M604.6,745.9c0.2-0.1,0.5-0.2,0.7-0.2c1.9,0.2,3.1,1.7,3.3,3.7c0.3,2.7,0.3,5.6,0,8.5c-0.1,1.6-1.3,2.5-2.6,3
		c-0.2,0.1-0.4,0.1-0.7,0c-2.7-1-5.4-1.9-8.2-3c-1.3-0.5-2.9-1.6-3.2-3.2c-0.2-1.2,1.3-2.5,2.1-3.1
		C598.9,749.5,601.7,747.6,604.6,745.9z"/>
	<path class="st2" d="M506.4,847.7c1.4-3.8,2-7.5,1.8-11.1c-0.5-8.3-2.9-15.4-7.1-21.4c-1.1-1.5-3.5-4.3-7.1-8.2
		c-0.3-0.4-0.6-0.8-0.7-1.4c-1.4-6.7-0.9-13.3,1.7-19.9c0.6-1.6,1.4-2.9,2.3-3.9c2.3-2.4,4.5-4.7,6.7-7.1c0.7-0.8,1.3-1.8,1.7-3
		c0.9-3,1.7-5.9,2.3-8.7c0-0.2,0.1-0.3,0.2-0.4c3.1-3.2,9.4,0.1,12.3,2.2c7.5,5.5,14,11.8,19.6,18.8c10.1,12.7,16.1,28.2,17.2,44.8
		c0.7,10.7-0.5,20.9-2.6,31.3c-0.7,3.4-1.7,6.7-2.9,9.9c-6.7,17.3-17.5,30.9-32.4,40.8c-1.8,1.2-3.6,2.2-5.5,3
		c-12.2,5.3-24,8.1-35.3,8.4c-3.3,0.1-7.1-0.1-11.2-0.6c-23.6-3-41.2-18.7-54.6-38.7c-2.4-3.6-4.3-7.3-5.9-11.3
		c-3.9-10.2-6.2-20-6.9-29.5c-1.3-16.1,1.9-31.3,9.6-45.7c3.4-6.4,8-13,13.7-19.6c10.1-11.8,24.9-19.3,39.4-23.1
		c4.7-1.2,9.3-2.5,13.8-3.8c2.5-0.7,4.1,1,3.7,3.7c-1,6.5-1.3,11.9-0.9,16.3c0.1,1.4,0.9,3,2.2,4.8c0.3,0.4,0.4,0.8,0.4,1.3
		c0.2,8.9-1.4,17.6-5,26.2c-1.1,2.6-7.3,5-9.8,5.7c-7.1,2-12.9,9.1-14.9,16.1c-1.1,3.6-1.3,7.1-1.8,10.8
		c-1.7,11.3,2.5,21.4,11.2,27.8c1,0.7,3,2.1,5.9,4c3.7,2.4,9.5,3.5,13.9,2.8c4.1-0.7,7.7-2.2,10.8-4.4
		C498.2,860.3,503.8,854.7,506.4,847.7z"/>
	<path class="st2" d="M681.4,832c5.4,2.4,10.9,3.7,16.6,4c15.9,0.8,31.5-0.4,47-3.6c6.2-1.3,13.1-3,20.6-5.1
		c17.7-4.9,33.1-9.8,46.1-14.5c8.2-3,16.4-7.7,24.5-14.2c2.3-1.9,4.9-4.3,7.6-7.4c3.9-4.3,7.9-8.4,12-12.3c0.2-0.2,0.5-0.2,0.6,0.1
		c7,13.4,13.7,26.6,20.1,39.7c1.1,2.3,2.5,5.5,4,9.5c0.5,1.2,0.2,2.3-1,2.6c-23.5,4.8-43.3,8.4-59.4,10.8
		c-18.9,2.8-37.9,5.1-56.8,6.9c-17.8,1.7-32.4,2.8-43.9,3.2c-8.2,0.3-17.1-0.4-26.4-2.1c-3.1-0.6-5.9-1.4-8.4-2.7
		c-6.5-3.1-12-6.6-16.3-10.3c-10.6-9.2-16.7-21.1-18.2-35.8c-0.9-8.7-0.1-17.2,1.4-26.1c0.5-3.2,1.7-6,3.4-8.4
		c1.7-2.4,4.4-0.6,4.4,2c-0.1,6.6-0.3,13.3-0.5,20c-0.2,4.1,0,7.8,0.6,11.1C661.7,814.3,668.2,826.2,681.4,832z"/>
	<path class="st2" d="M928.9,778.4c5,8.2,8.8,17.4,11.1,27c0.1,0.3,0,0.5-0.2,0.6c-15,9.5-30.4,18.2-46.2,26c-0.1,0.1-0.2,0-0.3-0.1
		c-6.3-8.2-10.8-17.6-13.4-28.2c0-0.1,0-0.3,0.1-0.4c14.4-9.3,29.4-18.4,45.1-27.3C926.5,775.4,928.2,777.3,928.9,778.4z"/>
</g>
</svg>
