<svg width="2530" height="2399" xmlns="http://www.w3.org/2000/svg" xmlns:xlink="http://www.w3.org/1999/xlink" xml:space="preserve" overflow="hidden"><g transform="translate(-939 -38)"><path d="M1077.05 1237.87C1077.05 579.822 1610.73 46.3689 2269.05 46.3689 2927.37 46.3689 3461.05 579.822 3461.05 1237.87 3461.05 1895.91 2927.37 2429.37 2269.05 2429.37 1610.73 2429.37 1077.05 1895.91 1077.05 1237.87Z" stroke="#000000" stroke-width="14.5515" stroke-miterlimit="8" fill="#FF0000" fill-rule="evenodd"/><path d="M2654.51 416.87C2655.46 421.245 2655.8 425.911 2655.49 430.87 2653.86 430.87 2652.23 430.87 2650.6 430.87 2651.65 429.562 2652.95 429.095 2654.51 429.47 2654.51 425.27 2654.51 421.07 2654.51 416.87Z" fill="#848485" fill-rule="evenodd"/><path d="M2661.17 234.045C2635.87 240.753 2604.96 255.765 2585.42 270.836 2557.59 292.313 2526.98 352.319 2520 399.147 2517.23 417.647 2512.56 428.431 2502.39 439.776 2491.82 451.594 2488.83 458.623 2488.76 471.931 2488.7 484.109 2490.52 488.606 2499.54 498.383 2509.61 509.297 2514.52 530.344 2512.81 555.101 2512.09 565.46 2512.3 569.573 2513.66 571.207 2515 572.817 2515.22 576.66 2514.53 585.713 2513.74 595.933 2513.98 598.458 2515.87 600.56 2518.03 602.944 2517.77 603.153 2511.26 604.102 2501.38 605.544 2495.01 609.203 2483.45 620.117 2471.89 631.017 2443.67 666.103 2443.67 669.566 2443.67 670.821 2443.11 671.85 2442.41 671.85 2441.74 671.85 2440.76 674.42 2440.25 677.561 2439.76 680.703 2438.72 683.274 2437.94 683.274 2437.16 683.274 2436.53 684.257 2436.53 685.46 2436.53 686.662 2435.41 688.071 2434.07 688.589 2432.72 689.109 2429.94 691.247 2427.89 693.344 2425.84 695.438 2423.48 697.403 2422.67 697.709 2421.85 698.016 2417.29 703.408 2412.54 709.691 2401.34 724.548 2390.57 737.403 2358.95 773.67 2328.21 808.925 2314.39 826.985 2307 841.535 2302.36 850.679 2301.5 853.851 2301.07 863.455 2300.61 873.439 2301 875.592 2304.56 882.864 2312.82 899.763 2329.43 910.947 2350.43 913.753 2368.23 916.13 2368.12 915.862 2361.08 940.546 2349.46 981.297 2319.02 1098.57 2314.99 1118.1 2312.72 1129.09 2310.87 1141.2 2310.86 1145 2310.86 1151.31 2311.41 1152.45 2317.28 1158.15 2323.08 1163.79 2323.71 1165.05 2323.71 1171.04 2323.71 1175.38 2320.43 1187.65 2314.25 1206.44 2309.05 1222.25 2304.64 1235.37 2304.45 1235.59 2304.26 1235.81 2290.36 1237.58 2273.57 1239.52 2222.44 1245.43 2180.92 1253.65 2136.05 1266.74 2124.2 1270.19 2113.78 1273.02 2112.9 1273.03 2108.12 1273.04 1771.07 1055.21 1733.93 1028.1 1709.86 1010.53 1689.4 997.467 1683.42 995.858 1676.12 993.893 1660.29 978.269 1655.44 968.244L1652.1 961.358 1655.52 958.778C1657.4 957.358 1663.44 954.828 1668.95 953.153 1685.65 948.071 1693.25 944.671 1704.67 937.177 1726.61 922.772 1744.95 900.897 1753.04 879.474 1760.18 860.584 1769.2 849.509 1783.77 841.741 1795.86 835.3 1803.07 828.677 1807.35 820.076 1811.8 811.145 1812.02 804.304 1808.15 795.264 1803.61 784.679 1803.14 774.172 1806.72 763.24 1811.07 749.978 1813.88 729.362 1813.89 710.762 1813.9 697.437 1814.27 694.697 1816.05 694.697 1818.22 694.697 1818.98 691.676 1817.24 689.943 1815.66 688.355 1809.84 664.367 1810.58 662.444 1810.96 661.456 1812.15 660.31 1813.22 659.896 1814.8 659.29 1814.48 656.632 1811.5 645.864 1809.48 638.557 1806.43 625.693 1804.71 617.276 1802.09 604.403 1800.87 601.176 1797.04 596.963 1794.53 594.211 1792.48 591.331 1792.48 590.565 1792.48 588.34 1786.44 582.732 1781.77 580.629 1779.42 579.569 1776.53 578.118 1775.35 577.408 1774.17 576.698 1771.23 575.203 1768.81 574.086 1766.39 572.97 1763.58 571.054 1762.56 569.83 1761.55 568.607 1758.87 567.606 1756.61 567.606 1753.45 567.606 1752.5 566.945 1752.5 564.75 1752.5 562.479 1751.55 561.895 1747.85 561.895 1744.25 561.895 1741.54 560.318 1735.75 554.858 1731.65 550.989 1724.46 545.777 1719.77 543.28 1715.09 540.782 1709.45 536.897 1707.24 534.649 1703.86 531.203 1702.06 530.551 1695.82 530.519 1691.74 530.497 1688.01 529.835 1687.52 529.05 1687.02 528.228 1679.45 527.622 1669.67 527.622 1659.9 527.622 1652.33 528.228 1651.82 529.05 1651.34 529.835 1647.11 530.479 1642.44 530.479 1637.76 530.479 1632.82 531.058 1631.45 531.768 1630.09 532.476 1626.08 533.872 1622.55 534.872 1619.01 535.871 1615.51 537.219 1614.77 537.867 1614.02 538.515 1612.19 539.047 1610.71 539.047 1609.22 539.047 1606.37 540.331 1604.37 541.903 1602.38 543.474 1598.74 544.758 1596.29 544.758 1591.39 544.758 1572.76 553.222 1569.8 556.79 1568.77 558.027 1567.16 559.038 1566.21 559.038 1565.27 559.038 1563.13 560.483 1561.47 562.252 1559.81 564.019 1556 566.748 1553.01 568.317 1546.67 571.646 1544.01 573.94 1544.01 576.073 1544.01 576.914 1543.46 577.603 1542.8 577.603 1540.99 577.603 1535.44 582.717 1535.44 584.378 1535.44 585.17 1534.55 586.555 1533.47 587.45 1532.16 588.541 1531.72 591.077 1532.15 595.121 1532.89 602.168 1528.14 612.635 1507.79 648.775 1497 667.934 1495.45 671.551 1495.45 677.607 1495.45 681.417 1494.81 684.929 1494.03 685.415 1493.24 685.9 1492.6 689.052 1492.6 692.417 1492.6 696.82 1493.44 699.299 1495.59 701.25 1500.05 705.283 1498.48 712.162 1490.05 725.626 1481.02 740.033 1478.32 747.967 1478.32 760.078 1478.32 772.264 1481.34 778.644 1488.99 782.593 1496.79 786.624 1498.18 792.16 1499.76 825.541 1501.96 872.039 1507.43 887.168 1531.98 914.706 1548.26 932.963 1550.71 942.514 1541.47 951.752 1534.21 959.015 1524.96 961.591 1500.45 963.182 1474.31 964.877 1465.74 967.53 1448.33 979.317 1421.46 997.508 1411.17 1013.74 1397.44 1059.53 1392.36 1076.48 1355.28 1220.79 1331.85 1314.8L1328.02 1330.15 1185.04 1330.16C1017.45 1330.17 944.441 1332.27 939.449 1337.23 933.983 1342.66 983.022 1344.53 1160.87 1345.66 1248.21 1346.22 1320.08 1347.09 1320.58 1347.58 1321.07 1348.08 1318.14 1360.22 1314.05 1374.57 1300.89 1420.77 1298.71 1436.7 1304.1 1447.24 1305.67 1450.32 1306.95 1455.51 1306.95 1458.79 1306.95 1475.42 1297.55 1522 1286.15 1561.83 1273.07 1607.54 1262.13 1633.84 1253.04 1641.44 1246.81 1646.64 1190.91 1674.53 1152.73 1691.48 1098.05 1715.76 1046.52 1736.05 1018.49 1744.35 990.424 1752.65 976.561 1763.29 965.555 1785 960.011 1795.93 959.597 1797.51 960.422 1804.52 961.641 1814.9 965.897 1826.9 980.579 1861.37 1015.14 1942.5 1038.99 1979.54 1064.09 1991.06 1075.4 1996.25 1092.51 1996.23 1105.29 1990.99 1121.13 1984.51 1130.25 1978.09 1146.41 1962.04 1159.07 1949.46 1163.28 1944.22 1167.48 1935.78 1174.26 1922.13 1174.2 1917.5 1166.95 1893 1163.78 1882.27 1161.51 1872.19 1161.9 1870.6 1164.31 1860.86 1181.67 1852.5 1266.25 1820.4 1313.06 1802.63 1370.37 1779.58 1385.09 1772.59 1396.25 1767.3 1397.43 1766.27 1409.04 1751.72 1415.75 1743.3 1437.61 1713.93 1457.61 1686.43 1494.77 1635.33 1517.98 1605.29 1530.85 1591.63 1537.5 1584.57 1538.49 1584.01 1542.84 1584.84 1549.88 1586.18 1600.76 1611.84 1632.54 1630.1 1666.1 1649.36 1696.54 1669.08 1697.79 1672.34 1700.47 1679.34 1685.95 1712.8 1643.95 1796.39 1590.24 1903.3 1584.76 1918.11 1590.27 1941.7 1592.58 1951.58 1598.19 1964.23 1602.36 1968.97 1613.06 1981.14 1709.32 2011.51 1775.25 2023.55 1807.94 2029.51 1819.34 2027.24 1834.66 2011.74 1848.21 1998.03 1855.26 1978.36 1855.3 1954.12 1855.35 1921.63 1840.71 1895.64 1816.05 1884.44 1796.61 1875.61 1790.35 1871.92 1789.92 1869.06 1789.42 1865.66 1795.81 1851.96 1838.78 1764.43 1895.19 1649.52 1896.95 1642.47 1875.72 1616.16 1857.54 1593.63 1859.89 1595.87 1721.08 1470.07 1703.41 1454.06 1688.75 1440.16 1688.5 1439.17 1688.04 1437.32 1696.67 1392.77 1704.09 1358.71 1709.85 1332.31 1716.85 1308.62 1719.16 1307.73 1721.45 1306.86 1747.52 1322.72 1860.88 1394 1907.69 1423.44 1948.73 1449.23 1952.06 1451.31 1956.06 1453.81 1958.13 1456.12 1958.13 1458.1 1958.13 1459.73 1956.78 1470.98 1955.13 1483.08 1951.72 1508.09 1952.07 1522.59 1956.35 1533.8 1957.88 1537.81 1965.06 1550.19 1972.31 1561.32 1987.67 1584.91 1993.1 1596.25 1994.34 1607.36 1996.25 1624.29 2008.82 1656.22 2023.92 1682.45 2034.4 1700.65 2035.51 1702.18 2055.67 1726.83 2066.44 1739.99 2070.8 1746.34 2069.88 1747.54 2069.16 1748.48 2053.95 1768.08 2036.08 1791.07 1982.9 1859.52 1970.99 1877.88 1970.99 1891.42 1970.99 1897.16 1971.84 1899.31 1976.46 1905.14 1995.17 1928.74 2098.66 2013.53 2133.07 2033.46 2141.98 2038.63 2156.29 2042.72 2165.43 2042.72 2171.89 2042.72 2173.77 2043.2 2173.77 2044.85 2173.77 2046.66 2177.1 2047 2195.19 2047 2208.52 2047 2216.61 2046.46 2216.61 2045.57 2216.61 2044.78 2217.91 2044.15 2219.51 2044.15 2228.49 2044.15 2240.76 2034.28 2254.1 2016.36 2269.3 1995.94 2274.67 1981.32 2272.11 1967.36 2269.86 1955.08 2262.53 1947.01 2228.66 1919.52 2211.45 1905.56 2193.6 1890.78 2188.99 1886.68L2180.61 1879.21 2207.54 1852.8C2223.47 1837.16 2237.67 1824.51 2242.32 1821.81 2254.71 1814.6 2271.68 1810.59 2316.74 1804.25 2387.38 1794.33 2437.83 1783.09 2486.03 1766.59 2491.66 1764.66 2496.55 1763.35 2496.87 1763.69 2497.21 1764.01 2495.35 1773.71 2492.75 1785.21 2487.04 1810.56 2485.06 1827.26 2485.13 1849.52 2485.19 1868.96 2487.73 1884.19 2491.79 1889.64 2495.41 1894.48 2507.35 1898.53 2534.9 1904.28 2582.02 1914.09 2672.77 1926.89 2703.56 1928.06 2727.11 1928.95 2734.53 1927.64 2753.76 1919.18 2776.5 1909.19 2788.43 1899.34 2795.13 1885.01 2803.49 1867.14 2804.45 1832.3 2797.04 1815.79 2788.14 1795.95 2770.77 1787.74 2724.14 1781.29 2687.76 1776.25 2669.29 1771.59 2669.29 1767.44 2669.29 1763.29 2683.88 1751.36 2710 1734.17 2763.06 1699.22 2771.37 1692.7 2776.82 1681.66 2779.12 1677 2783.05 1672.8 2789.89 1667.61 2800.75 1659.43 2827.34 1645.16 2834.63 1643.62 2838.85 1642.73 2839.92 1643.27 2845.77 1649.19 2849.32 1652.79 2854.86 1657.1 2858.07 1658.74 2868.32 1663.96 2890.2 1668.5 2918.84 1671.37 2934.15 1672.89 2946.85 1674.33 2947.08 1674.57 2947.32 1674.81 2955.84 1689.86 2966.05 1708.01 2993.15 1756.25 3000.87 1768.06 3022.88 1795.05 3069.7 1852.49 3130.27 1896.61 3186.95 1914.58 3210.72 1922.12 3219.87 1923.49 3246.22 1923.4 3286.4 1923.28 3300.39 1917.16 3355.47 1875.68 3406.98 1836.85 3429.17 1814.23 3443.18 1786.21L3449 1774.61 3449 1696.06 3449 1617.49 3445.37 1605C3425.12 1535.07 3375.36 1455.68 3320.84 1406.26 3286.37 1375.03 3265.89 1361.74 3214.73 1337.47 3182.12 1322 3172 1310.42 3171.46 1288.03 3171.14 1274.03 3176.25 1266.4 3212.6 1226.62 3233.31 1203.96 3242.1 1192.01 3249 1177.17 3264.19 1144.57 3259.34 1110.3 3234.21 1072.53 3222.14 1054.4 3205 1038.96 3179.1 1022.87 3166.92 1015.31 3149.57 1004.13 3140.54 998.018 3131.52 991.907 3118.05 982.824 3110.64 977.831 3091.77 965.126 3063.38 951.505 3039.96 943.93 3016.12 936.21 3010.53 932.814 3005.26 922.811 3001.68 916.008 3001.31 913.944 3001.31 900.326 3001.31 886.801 3001.71 884.537 3005.31 877.205 3009.85 867.955 3020.44 855.518 3026.41 852.429 3035.16 847.907 3043.79 850.469 3060.43 862.541 3063.11 864.477 3067.6 866.683 3070.42 867.443 3107.63 877.448 3189.67 868.617 3214.87 851.893 3228.58 842.802 3237.67 825.429 3234.66 814.076 3227.35 786.446 3177.39 760.133 3038.35 710.652 2923.9 669.92 2907.75 666.391 2814.95 661.83 2764.9 659.371 2738 656.215 2734.87 652.435 2733.67 650.995 2733.66 650.429 2734.8 650.429 2740.54 650.429 2759.06 625.824 2772.94 599.736 2787.4 572.579 2799.78 557.54 2809.43 555.431 2819.17 553.305 2827.44 543.077 2831.47 528.182 2834.59 516.675 2833.7 507.626 2828.4 496.83 2822.91 485.672 2822.86 474.502 2828.18 458.126 2834.84 437.645 2836.05 413.031 2832 380.54 2831.27 374.65 2829.73 359.053 2828.59 345.883 2827.27 330.774 2825.71 320.496 2824.35 318.037 2823.17 315.892 2821.23 312.126 2820.06 309.668 2818.87 307.209 2815.91 303.508 2813.45 301.442 2811 299.377 2808.53 295.983 2807.98 293.901 2807.41 291.818 2805.82 289.947 2804.42 289.743 2803.02 289.537 2795.67 283.351 2788.07 275.995 2751.37 240.475 2700.44 223.635 2661.17 234.045M2565.6 445.63C2566.08 446.872 2566.48 448.145 2566.48 448.456 2566.48 448.769 2568.92 450.274 2571.91 451.801 2578.7 455.262 2591.79 458.695 2608.56 461.403 2626.7 464.336 2642.79 468.64 2650.54 472.63 2659.28 477.14 2673.8 478.997 2708.56 480.045 2736.92 480.901 2770.68 479.687 2770.68 477.811 2770.68 477.273 2762.5 475.661 2752.47 474.228 2718.04 469.306 2632.84 454.941 2603.79 449.16 2571.48 442.732 2564.24 442.062 2565.6 445.63M2512.22 454.569C2503.95 462.844 2503.45 476.923 2511.12 485.665 2516.1 491.336 2521.79 492.049 2525.9 487.514 2529.76 483.237 2530.54 465.487 2527.25 456.851 2525.13 451.302 2524.29 450.511 2520.55 450.511 2517.75 450.511 2514.87 451.919 2512.22 454.569M2551.04 468.718C2547.8 473.281 2544.91 481.399 2540.93 497.118 2533.55 526.188 2533.18 562.333 2540 585.403 2549.99 619.184 2568.75 638.401 2593.3 640.03 2600.41 640.502 2606.65 639.741 2617.44 637.091 2625.44 635.124 2633.36 633.874 2635.04 634.315 2639.05 635.359 2640.73 640.142 2640.73 650.438 2640.73 662.512 2642.3 662.794 2650.53 652.215 2653.12 648.877 2656.23 646.145 2657.42 646.145 2658.6 646.145 2661.37 648.061 2663.56 650.401 2668.98 656.205 2674.23 657.942 2682.82 656.778 2700.07 654.448 2722.12 642.921 2738.03 627.919 2745.82 620.568 2749.2 616.005 2753.53 606.986 2763.82 585.534 2775.38 547.9 2780.01 520.744 2782.61 505.566 2781.9 499.063 2777.64 499.063 2770.5 499.063 2761.15 515.706 2759.73 531.007 2758.23 546.987 2752.33 553.19 2737.48 554.357 2727.05 555.177 2704.34 551.592 2695.83 547.779 2685.97 543.369 2684.7 540.925 2683.36 523.819 2681.6 501.257 2676.77 495.835 2670.06 508.913 2668.6 511.783 2667.07 519.5 2666.35 527.807 2664.77 546.026 2662.84 552.861 2657.87 557.836 2653.03 562.674 2648.47 562.986 2640.67 559.01 2634.05 555.632 2633.67 553.655 2638.73 548.934 2640.77 547.031 2643.65 543.109 2645.13 540.22 2648.76 533.145 2654.48 513.06 2655.75 502.993 2656.6 496.144 2656.38 494.669 2654.44 493.922 2653.17 493.432 2651.12 493.866 2649.89 494.887 2646.73 497.501 2641.52 508.307 2638.73 518.016 2637.41 522.55 2634.6 528.17 2632.47 530.503L2628.59 534.748 2601.39 532.818C2586.44 531.756 2572.79 530.139 2571.08 529.221 2565.77 526.38 2564.81 522.343 2563.63 497.832 2562.99 484.764 2561.71 471.985 2560.76 469.432 2558.63 463.653 2554.82 463.373 2551.04 468.718M2803.01 507.115C2796.61 513.504 2792.49 533.158 2796.67 537.334 2800.79 541.458 2811.35 536.861 2816.48 528.706 2818.66 525.228 2819.26 522.361 2818.82 517.351 2817.69 504.191 2810.55 499.572 2803.01 507.115M2591.3 557.077C2586.65 568.206 2593.78 583.257 2606.67 589.544 2627.96 599.918 2673.58 605.377 2673.58 597.549 2673.58 594.699 2658.06 588.872 2641.13 585.359 2631.88 583.442 2622.21 581.18 2619.64 580.33 2612.88 578.099 2606.46 572.233 2606.46 568.286 2606.46 561.032 2600.46 551.898 2595.67 551.898 2594.46 551.898 2592.48 554.229 2591.3 557.077M1504.62 736.065C1496.82 739.221 1489.72 753.869 1492.27 761.561 1493.27 764.582 1494.55 765.464 1498.42 765.771 1511.69 766.828 1521.97 748.688 1513.91 738.443 1510.79 734.471 1509.42 734.121 1504.62 736.065M1529.99 763.627C1519.79 795.551 1517.81 807.693 1518.7 832.498 1519.55 855.852 1522.44 867.698 1531.58 885.295 1541.69 904.749 1562.99 923.842 1581.78 930.297 1594.16 934.548 1621.48 937.744 1646.82 937.908 1672.47 938.073 1678.4 936.467 1693.18 925.335 1717.34 907.158 1731.34 890.777 1739.51 871.162 1748.43 849.725 1755.96 810.253 1753.05 800.194L1751.65 795.37 1748.15 799.124C1746.22 801.188 1742.44 808.898 1739.74 816.26 1730.18 842.38 1726.41 847.492 1716.73 847.492 1713.9 847.492 1704.24 846.173 1695.27 844.563 1662.82 838.739 1656.01 835.21 1656.24 824.352 1656.31 820.915 1657.49 813.515 1658.86 807.91 1660.5 801.219 1660.91 796.91 1660.05 795.364 1658.87 793.264 1658.26 793.405 1654.36 796.684 1649.45 800.814 1646.28 807.807 1643.11 821.481 1638.92 839.56 1632.25 847.492 1621.26 847.492 1617.27 847.492 1615.41 846.872 1615.41 845.545 1615.41 844.474 1619.29 835.704 1624.04 826.054 1632.36 809.145 1636.87 795.243 1635.74 790.016 1634.16 782.77 1623.18 792.544 1611.68 811.43L1605.81 821.074 1594.02 821.491C1575.39 822.15 1552.56 816.511 1547.06 809.892 1543.82 805.982 1542.54 798.331 1540.37 769.742 1539.18 754.077 1538.03 741.077 1537.8 740.854 1537.58 740.631 1534.07 750.879 1529.99 763.627M1639.93 760.585C1635.88 761.749 1635.44 762.279 1636.97 764.131 1641.84 769.99 1658 774.24 1660.44 770.299 1662.39 767.144 1659.68 762.091 1655.19 760.527 1649.92 758.689 1646.46 758.702 1639.93 760.585M2756.81 760.428C2745.29 761.639 2734.88 765.99 2731.62 770.964 2728.21 776.175 2725.36 788.028 2722.19 810.121 2718.42 836.531 2718.35 848.895 2721.95 853.344 2725.65 857.901 2734.86 857.531 2762.35 851.725 2789.34 846.026 2806.07 846.135 2819.95 852.103 2832.85 857.653 2842.76 858.916 2873.4 858.917 2901.2 858.918 2901.4 858.938 2910.01 863.013 2920.69 868.071 2934.98 882.041 2942.4 894.709 2947.98 904.207 2952.88 916.374 2957.03 931.029 2960.22 942.297 2962.7 946.023 2967.04 946.023 2973.93 946.023 2977.5 936.375 2982.86 903.184 2984.82 891.009 2987.42 877.245 2988.62 872.595 2991.29 862.275 2997.71 849.298 3002.24 845.081 3005.97 841.606 3017.2 836.148 3020.72 836.099 3021.96 836.082 3026.97 834.073 3031.86 831.634 3038.04 828.546 3040.6 826.489 3040.3 824.85 3038.77 816.605 2924.15 772.378 2884.67 764.805 2876.28 763.196 2859.9 761.233 2848.25 760.441 2824.27 758.807 2772.28 758.801 2756.81 760.428M3119.86 765.236C3117.96 767.117 3115.38 772.418 3114.1 777.017 3112.83 781.613 3109.89 791.159 3107.59 798.228 3105.29 805.3 3103.41 812.462 3103.41 814.146 3103.41 818.857 3111.9 825.261 3122.09 828.241 3134.58 831.894 3155.94 832.017 3165.08 828.488 3182.02 821.95 3189.35 802.888 3181.19 786.529 3176.56 777.241 3170.04 772.747 3152.35 766.646 3134.89 760.625 3124.9 760.192 3119.86 765.236M1777.21 795.243C1773.28 798.622 1773.21 798.978 1773.21 814.138 1773.21 827.473 1773.53 829.654 1775.6 830.059 1778.81 830.684 1789.15 821.176 1792.59 814.446 1796.62 806.544 1796.12 802.287 1790.48 796.656 1784.72 790.892 1782.55 790.661 1777.21 795.243M1562.86 842.066C1560.32 844.599 1560.77 851.164 1563.9 857.304 1570.28 869.796 1594.73 886.87 1613.98 892.278 1624.34 895.188 1642.56 897.571 1646.53 896.534 1656.99 893.798 1640.07 883.203 1614.93 876.746 1592.98 871.111 1586.92 867.074 1580.4 853.752 1575.17 843.052 1567.19 837.735 1562.86 842.066M2873.5 877.42C2866.83 878.775 2859.84 880.371 2857.99 880.97 2852.23 882.829 2843.2 892.145 2839.85 899.694 2831.27 919.042 2817.76 925.771 2762.16 938.371 2715.15 949.025 2704.73 952.869 2701.43 960.784 2694.37 977.677 2678.15 1095.54 2681.22 1107.73 2682.05 1111.04 2683.08 1111.58 2690.28 1112.48 2704.24 1114.22 2882.78 1109.71 2885.22 1107.55 2885.77 1107.06 2887.89 1098.14 2889.91 1087.72 2893.96 1066.97 2900.34 1047.28 2909.85 1026.15 2913.25 1018.6 2918.97 1005.88 2922.57 997.885 2941.95 954.773 2940.64 917.322 2918.9 893.744 2911.74 885.985 2893.79 874.562 2889.09 874.79 2887.2 874.883 2880.18 876.066 2873.5 877.42M2640.74 892.979C2633.5 896.868 2627.36 906.861 2621.59 924.218 2616.55 939.314 2615.43 946.486 2617.58 949.859 2619.64 953.116 2627.21 954.769 2643.85 955.606 2668.51 956.847 2675.44 953.47 2684.36 935.871 2690.72 923.352 2688.47 915.432 2674.95 902.531 2662.12 890.29 2651.36 887.286 2640.74 892.979M1583.99 953.119C1582.13 954.444 1582.21 954.921 1584.62 956.758 1591.1 961.7 1620.78 969.725 1628.51 968.625 1633.65 967.894 1633.41 963.642 1628.05 960.387 1619.32 955.074 1588.41 949.975 1583.99 953.119M2991.19 991.547C2967.87 1002.58 2943.22 1037.07 2933.29 1072.57 2927.7 1092.52 2929.66 1130.69 2936.62 1137.66 2942.76 1143.8 2955.29 1137.32 2960.67 1125.24 2962.1 1122.04 2963.63 1113.86 2964.19 1106.67 2966.43 1076.84 2975.22 1058.75 3001.3 1030.27 3018.16 1011.85 3023.61 1000.68 3018.76 994.509 3012.41 986.454 3003.89 985.54 2991.19 991.547M3344.5 1004.22C3326.19 1017.94 3299.06 1045.51 3299.06 1050.39 3299.06 1056.46 3317.65 1043.21 3339.22 1021.78 3356.61 1004.51 3362.81 995.999 3357.99 996.005 3356.6 996.006 3350.53 999.702 3344.5 1004.22M3112.69 1031.53C3087.09 1038.49 3069.49 1048.24 3053.29 1064.41 3033.49 1084.19 3024.29 1106.27 3024.36 1133.8 3024.49 1178.5 3053.4 1218.91 3096.51 1234.65 3130.61 1247.09 3176.56 1238.97 3202.24 1215.96 3211.96 1207.24 3226.79 1188.01 3231.43 1178.07 3234.78 1170.89 3235.85 1162.47 3233.58 1161.06 3231.63 1159.86 3226.67 1166.08 3223.99 1173.07 3217.84 1189.1 3200.3 1204.35 3176.24 1214.58 3156.39 1223.03 3134.68 1225.38 3119.02 1220.77 3093.01 1213.12 3067.92 1191.62 3055.16 1166 3050.05 1155.76 3049.87 1154.83 3050 1141.01 3050.24 1115.91 3059.69 1094.12 3078.54 1075.34 3089.76 1064.14 3100.08 1057.43 3114.49 1051.96 3122.88 1048.78 3126.42 1048.3 3141.98 1048.22 3159.14 1048.13 3160.19 1048.29 3169.36 1052.64 3193.05 1063.86 3218.53 1086.99 3228.38 1106.2 3234.11 1117.36 3236.21 1118.88 3236.21 1111.84 3236.21 1090.67 3208.62 1057.78 3178.06 1042.53 3154.2 1030.63 3130.61 1026.66 3112.69 1031.53M3120.7 1065.38C3108.52 1068.65 3099.21 1074.39 3088.25 1085.35 3064.65 1108.97 3059.92 1137.43 3075.12 1164.39 3081.18 1175.1 3099.18 1192.67 3109.96 1198.38 3132.1 1210.09 3152.56 1210.19 3175.91 1198.69 3207.95 1182.92 3223.28 1146.76 3211.91 1113.72 3207.77 1101.69 3203.33 1094.85 3193.6 1085.57 3174.63 1067.48 3144.21 1059.06 3120.7 1065.38M3339.04 1097.21C3323.66 1099.96 3316.8 1103.05 3314.43 1108.27 3313.11 1111.16 3313.19 1112.13 3314.84 1113.18 3317.9 1115.11 3327.01 1114.8 3338.7 1112.36 3344.4 1111.17 3356.22 1109.62 3364.95 1108.92 3381.14 1107.62 3388.3 1104.93 3388.3 1100.13 3388.3 1094.2 3363.92 1092.75 3339.04 1097.21M3101.27 1103.36C3095.75 1106.45 3083 1117.98 3078.95 1123.58 3073.94 1130.5 3073.88 1133.07 3078.52 1143.09 3088.08 1163.68 3105.98 1171.47 3120.97 1161.54 3130.74 1155.07 3141.62 1138.96 3141.91 1130.53 3142 1127.8 3129.61 1114.97 3120.04 1107.87 3111.47 1101.53 3106.63 1100.36 3101.27 1103.36M3098.27 1122.24C3092.36 1128.15 3091.84 1134.59 3096.68 1141.78 3102.47 1150.37 3111.51 1150.91 3119.31 1143.12 3125.52 1136.91 3125.02 1130.09 3117.87 1122.92 3110.54 1115.61 3105.09 1115.41 3098.27 1122.24M1738.22 1174.33C1738.22 1179.41 1742.84 1183.76 1768.66 1202.92 1795.65 1222.95 1834.7 1249.51 1889.59 1285.16 2006.22 1360.92 2024.27 1376.78 2027.68 1406.45 2028.42 1412.86 2029.52 1416.57 2030.82 1416.99 2032.87 1417.66 2069.47 1380.69 2069.42 1377.99 2069.41 1377.2 2044.84 1360.83 2014.84 1341.61 1984.83 1322.38 1924.29 1283.47 1880.31 1255.13 1741.53 1165.7 1738.22 1163.82 1738.22 1174.33M3314.76 1178.84C3306.6 1184.31 3349.58 1197.96 3380.59 1199.74 3396.25 1200.64 3399.81 1199.6 3396.15 1195.2 3389.29 1186.92 3322.68 1173.53 3314.76 1178.84M978.507 1216.89C974.187 1217.13 964.323 1217.98 956.585 1218.77 932.946 1221.2 933.15 1224.37 957.138 1227.38 976.561 1229.82 1113.21 1230.93 1145.2 1228.91 1170.54 1227.3 1182.04 1225.42 1180.6 1223.1 1179.44 1221.22 1162.71 1218.85 1139.87 1217.33 1121.35 1216.1 998.274 1215.76 978.507 1216.89M3305.21 1242.52C3304.72 1243.8 3305.5 1247.04 3306.95 1249.73 3311.07 1257.4 3331.02 1280.89 3347.01 1296.95 3367.34 1317.37 3371.48 1316.58 3358.09 1294.85 3348.56 1279.39 3333.57 1260.64 3322.1 1249.83 3311.91 1240.23 3306.91 1238.07 3305.21 1242.52M2288.01 1249.8C2275.48 1251.28 2202.65 1265.01 2186.62 1268.92 2133.14 1281.96 2088.61 1302.85 2075.25 1321.15 2070.73 1327.35 2068.89 1334.16 2070.9 1337.29 2072.85 1340.34 2084.62 1339.56 2100.31 1335.36 2158.29 1319.82 2181.59 1314.5 2232.32 1305.19 2266.14 1298.98 2279.82 1294.7 2287.85 1287.83 2295.79 1281.04 2298.06 1276.16 2299.36 1263.21 2300.49 1251.89 2299.56 1248.57 2295.33 1248.98 2294.05 1249.11 2290.76 1249.48 2288.01 1249.8M3096.27 1311.41C3080.28 1315.65 3068.7 1320.25 3064.55 1324 3061.11 1327.12 3061.37 1332.55 3065.33 1339.43 3069.67 1347.02 3072.84 1346.79 3092.85 1337.49 3101.49 1333.48 3112.33 1328.9 3116.95 1327.31 3130.19 1322.75 3133.49 1317.86 3128.33 1310.48 3125.23 1306.06 3115.38 1306.35 3096.27 1311.41M1973.13 1364.98C1967.5 1367.43 1960.63 1375.2 1950.6 1390.41 1940.72 1405.42 1935.27 1415.47 1935.34 1418.54 1935.44 1423.27 1939.4 1427.71 1949.58 1434.5 1965.35 1445.03 1973.17 1445.51 1990.45 1437.05 2004.1 1430.37 2008.59 1423.81 2009.31 1409.43 2010.05 1394.83 2007.06 1386.52 1997.26 1375.94 1990.45 1368.58 1982.21 1362.89 1978.63 1363.05 1977.96 1363.08 1975.49 1363.95 1973.13 1364.98M2710.68 1430.87C2708.06 1434 2709.93 1452.76 2713.72 1461.57 2722.59 1482.19 2751.27 1492.65 2811.38 1497.18 2853.74 1500.39 2925.51 1502.74 2927.27 1500.99 2928.17 1500.1 2930.52 1494.87 2932.48 1489.38 2934.44 1483.87 2938.04 1474.39 2940.47 1468.27 2942.91 1462.16 2944.9 1456.54 2944.9 1455.78 2944.9 1454.91 2927.72 1454.38 2898.7 1454.38 2816.77 1454.38 2787.31 1450.53 2728.84 1432.18 2715.84 1428.1 2713.13 1427.9 2710.68 1430.87M2024.58 1441.69C2007.82 1444.14 1991.56 1455.98 1979.63 1474.43 1966.9 1494.12 1964.69 1515.97 1973.52 1534.83 1985.25 1559.88 2012.86 1573.6 2077.18 1586.38 2124.2 1595.7 2137.86 1597.57 2154.34 1596.94 2167.06 1596.44 2169.69 1595.88 2176.48 1592.15 2184.9 1587.54 2193.57 1577.68 2207.24 1557.2 2216.36 1543.54 2230.51 1515.89 2231.73 1509.34 2233.39 1500.49 2223.39 1493.7 2191.88 1482.33 2172.92 1475.49 2103.18 1454.95 2072.9 1447.3 2058.6 1443.68 2036.76 1439.79 2033.82 1440.33 2033.43 1440.4 2029.27 1441.02 2024.58 1441.69M2726.41 1528.22C2715.86 1532.08 2709.31 1548.96 2708.81 1573.63 2708.59 1584.74 2708.84 1585.97 2712.13 1589.26 2718.58 1595.72 2735.53 1598.7 2814.24 1607.21 2849.89 1611.07 2908.45 1618.48 2915.47 1620.02 2921.79 1621.41 2926.95 1619.95 2928.32 1616.36 2930.36 1611.05 2930.91 1593.47 2929.23 1587.28 2925.15 1572.26 2915.58 1568.86 2818.23 1547.83 2791.35 1542.03 2760.38 1535.01 2749.4 1532.25 2738.4 1529.48 2729.22 1527.26 2728.98 1527.32 2728.74 1527.39 2727.59 1527.79 2726.41 1528.22M3109.79 1534.43C3108.28 1536.86 3109.65 1540.49 3126.38 1578.7 3144.05 1619.07 3154.81 1649.31 3155.78 1661.35 3156.29 1667.64 3155.82 1670.25 3153.52 1673.9 3147.58 1683.34 3139.2 1681.49 3126.62 1667.98 3116.4 1656.99 3107.6 1641.56 3090.74 1605.03 3075.96 1573.01 3069.89 1562.55 3066.48 1563.22 3063 1563.89 3058.04 1573.93 3055.42 1585.63 3047.65 1620.26 3064.45 1669.97 3099.71 1716.78 3137.53 1766.97 3188.08 1789.23 3224.05 1771.52 3244.74 1761.33 3254.13 1741.14 3254 1707.14 3253.86 1672.44 3242.27 1637.32 3219.83 1603.59 3198.93 1572.19 3163.09 1544.26 3132.07 1535.2 3123.23 1532.6 3111.18 1532.19 3109.79 1534.43M2447.23 1561.39C2442.3 1563.44 2439.94 1567.42 2433.63 1584.33 2430.27 1593.37 2424.05 1609.01 2419.81 1619.09 2415.59 1629.18 2411.77 1639.2 2411.33 1641.39 2410.55 1645.27 2410.77 1645.41 2421.75 1648.3 2443.28 1653.98 2485.09 1661.15 2500.08 1661.76L2510.07 1662.15 2512.57 1652.16C2516.35 1637.05 2521.15 1600.26 2520.39 1592.27 2519.39 1581.74 2515.79 1579.29 2487.22 1569.81 2462.09 1561.45 2452.13 1559.36 2447.23 1561.39M2703.93 1612.13C2699.76 1615.17 2698.06 1618.52 2696.54 1626.58 2695.02 1634.77 2696.91 1642.39 2700.78 1643.62 2702.67 1644.21 2706.86 1642.69 2713.23 1639.06L2722.84 1633.6 2742.13 1633.58C2760.04 1633.57 2761.99 1633.3 2769.61 1629.74 2780 1624.89 2780.83 1620.95 2771.97 1618.56 2753.7 1613.65 2739.51 1611.27 2724.27 1610.57 2709.8 1609.91 2706.64 1610.15 2703.93 1612.13M2854.46 1632.41C2852.63 1634.25 2853.57 1635.37 2861.79 1641.13 2871.6 1648.01 2882.93 1652.07 2898.23 1654.19 2920.07 1657.21 2936.62 1655.04 2937.49 1649.05 2938.38 1642.88 2924.05 1637.32 2897.78 1633.67 2881.69 1631.42 2856.18 1630.67 2854.46 1632.41M2727.37 1650.77C2718.2 1655.49 2708.49 1662.25 2701.06 1669.07 2694.98 1674.67 2693.09 1680.01 2697.18 1680.01 2706.28 1680.01 2739.26 1656.36 2739.26 1649.84 2739.26 1646.22 2735.73 1646.48 2727.37 1650.77M2741.24 1674.12C2717.61 1685.54 2691.97 1703.53 2685.32 1713.34 2681.5 1718.98 2682.34 1722.85 2687.41 1722.85 2697.62 1722.85 2735.83 1702.45 2750.24 1689.32 2757.22 1682.97 2758.2 1681.38 2758.88 1675.36 2759.59 1668.93 2759.46 1668.59 2756.16 1668.59 2754.25 1668.59 2747.53 1671.07 2741.24 1674.12M2671.19 1798.33C2663.43 1800.99 2654.72 1807.11 2639.3 1820.64 2613.7 1843.13 2608.72 1844.27 2551.47 1840.74 2499.47 1837.54 2495.69 1838.5 2495.91 1854.72 2496.05 1865.12 2501.33 1878.35 2506.74 1881.89 2518.64 1889.7 2665.22 1912.77 2702.83 1912.77 2721.78 1912.77 2729.73 1910.52 2753.56 1898.43 2783.85 1883.06 2785.72 1879.84 2784.57 1844.93 2783.81 1821.22 2781.27 1809.91 2775.95 1806.43 2771.12 1803.27 2755.39 1800.39 2729.37 1797.92 2698.15 1794.94 2680.62 1795.06 2671.19 1798.33M2000.81 1854.39C1993.18 1862.01 1984.64 1889.29 1987.75 1896.1 1990.98 1903.18 2048.52 1952.57 2088.01 1982.15 2125.05 2009.89 2156.4 2027.44 2179.89 2033.55 2192.58 2036.87 2210.77 2035.83 2220.2 2031.29 2231.1 2026.04 2239.82 2016.06 2248.12 1999.37 2262.99 1969.46 2258.05 1959.34 2211.54 1924.43 2199.98 1915.75 2185.07 1905.89 2178.4 1902.5 2166.52 1896.47 2165.99 1896.36 2153.24 1896.61 2094.16 1897.83 2090.61 1897.71 2078.8 1894.47 2064.09 1890.42 2046.45 1881.92 2037.39 1874.52 2013.13 1854.7 2008.65 1851.37 2006.37 1851.37 2004.97 1851.37 2002.47 1852.73 2000.81 1854.39" fill="#0F0E0E" fill-rule="evenodd"/></g></svg>